<svg width="102" height="99" viewBox="0 0 102 99" fill="none" xmlns="http://www.w3.org/2000/svg">
<g filter="url(#filter0_f_2678_4582)">
<path d="M87.9529 55.7625C86.5433 55.7625 85.1681 55.5955 83.7585 55.2615C82.3489 54.9275 80.4923 54.4265 78.1545 53.7251C73.4099 52.456 69.1467 51.454 65.3305 50.7192C61.5143 50.0178 56.8729 49.6504 51.372 49.6504C55.3257 53.1908 58.9357 56.0631 62.2019 58.2341C65.468 60.4384 69.078 62.6094 73.0317 64.7803C74.7508 65.6821 76.3667 66.6173 77.8794 67.5525C79.3922 68.4876 80.6299 69.4228 81.5581 70.3246C82.7958 71.527 83.4147 72.9965 83.4147 74.7333C83.4147 76.4701 82.7271 77.7726 81.3175 79.142C79.9079 80.5114 78.3607 81.1794 76.6761 81.1794C74.9914 81.1794 73.8569 80.5782 72.5848 79.3758C71.6565 78.474 70.7626 77.3718 69.9031 76.1027C69.0436 74.8335 68.0809 73.1635 66.9808 71.1262C64.8148 67.2185 62.5801 63.6447 60.3453 60.4384C58.0762 57.2321 55.0163 53.7919 51.1313 50.0846C51.0626 55.4285 51.4064 60.0042 52.1627 63.7783C52.9191 67.5525 53.9849 71.6272 55.2914 76.0025C55.8415 77.7393 56.2884 79.4426 56.701 81.0792C57.0792 82.7491 57.2854 84.2187 57.2854 85.4879C57.2854 87.4584 56.6322 88.928 55.3601 89.9634C54.088 90.9654 52.5409 91.4998 50.7531 91.4998C48.9653 91.4998 47.5214 90.9654 46.2149 89.93C44.9084 88.8612 44.2208 87.3582 44.2208 85.4211C44.2208 83.4839 44.874 79.9436 46.2149 75.5683C47.4526 71.193 48.4152 67.1517 49.1372 63.4777C49.8248 59.7704 50.2718 55.3283 50.4093 50.118C46.5243 53.8253 43.4644 57.2655 41.1953 60.4718C38.9262 63.6781 36.7259 67.2519 34.5599 71.1596C33.4597 73.1969 32.497 74.8669 31.6375 76.1361C30.778 77.4053 29.8841 78.5074 28.9558 79.4092C27.7181 80.6116 26.3429 81.2128 24.8645 81.2128C23.3862 81.2128 21.4953 80.5448 20.0856 79.2422C18.676 77.9396 17.9884 76.4367 17.9884 74.7667C17.9884 73.0967 18.6417 71.6272 19.9825 70.358C20.9108 69.4562 22.1485 68.521 23.6612 67.5859C25.174 66.6507 26.7899 65.7155 28.5089 64.8137C32.4627 62.6428 36.0726 60.4384 39.3388 58.2675C42.6049 56.0965 46.2149 53.2242 50.1687 49.6838C44.6678 49.6838 39.8889 50.0512 35.9007 50.7526C31.9126 51.454 27.8213 52.456 23.6268 53.7585C21.2202 54.4265 19.2949 54.9609 17.8509 55.2949C16.4069 55.6289 14.9973 55.7959 13.5877 55.7959C12.1781 55.7959 10.1153 55.1947 9.04948 53.9923C7.9493 52.79 7.43359 51.3538 7.43359 49.6838C7.43359 48.0139 8.01806 46.4107 9.187 45.1081C10.3559 43.8056 11.9374 43.1376 13.9659 43.1376C15.9944 43.1376 16.7851 43.3046 18.2635 43.6052C19.7418 43.9058 21.6328 44.4067 23.9707 45.0747C28.3026 46.2103 32.4283 47.1455 36.2445 47.8469C40.0951 48.5483 44.7021 48.9824 50.0311 49.1494C46.2149 45.4421 42.7425 42.5364 39.5451 40.3654C36.3477 38.2279 32.7033 36.0903 28.612 33.9862C26.1366 32.717 24.3145 31.6816 23.1455 30.9468C21.9766 30.1786 20.8764 29.3103 19.8794 28.3417C18.6417 27.1393 18.0228 25.8033 18.0228 24.3672C18.0228 22.931 18.7104 21.094 20.0513 19.7247C21.3921 18.3553 23.008 17.6873 24.8989 17.6873C26.7899 17.6873 27.8557 18.3219 29.334 19.6245C30.3311 20.593 31.3281 21.8288 32.2564 23.2984C33.1846 24.768 34.1473 26.3377 35.1787 28.0077C37.3447 31.8486 39.5107 35.3555 41.711 38.5285C43.877 41.7014 46.7994 45.1415 50.4437 48.8154C50.2718 43.5384 49.8249 39.0295 49.1029 35.2887C48.3809 31.548 47.4182 27.5067 46.2493 23.1314C44.9428 18.9231 44.2552 15.7167 44.2552 13.5124C44.2552 11.308 44.9084 10.0389 46.2493 9.00348C47.5557 7.93471 49.0685 7.43372 50.7875 7.43372C52.5065 7.43372 54.1224 7.93471 55.3945 8.97008C56.6666 9.97206 57.3198 11.475 57.3198 13.4456C57.3198 15.4161 57.1479 15.8503 56.8385 17.2197C56.5291 18.6225 56.2196 19.7915 55.9102 20.7266C55.6008 21.6618 55.3945 22.3298 55.3257 22.6972C54.0193 27.0057 52.9535 31.0804 52.1971 34.9881C51.4064 38.8625 51.0625 43.505 51.1657 48.8489C54.81 45.0079 57.7324 41.5678 59.8984 38.4951C62.0643 35.4557 64.3335 31.9154 66.637 27.9075C67.5652 26.2375 68.5279 24.6678 69.4905 23.1982C70.4532 21.7286 71.4159 20.5262 72.3441 19.6245C73.5818 18.4221 75.0946 17.8209 76.8824 17.8209C78.6702 17.8209 80.011 18.4889 81.4206 19.8583C82.8302 21.2276 83.5178 22.7306 83.5178 24.3672C83.5178 26.0037 82.899 27.1059 81.6613 28.3417C80.733 29.2435 79.5984 30.1118 78.292 30.9468C76.9855 31.7818 75.2665 32.717 73.1693 33.7858C69.1467 35.8899 65.468 38.0609 62.1675 40.2318C58.8669 42.4362 55.3257 45.4087 51.5095 49.1828C56.8729 49.0492 61.4455 48.6151 65.2617 47.9471C69.078 47.2791 73.2037 46.3105 77.7075 45.1081C82.2114 43.839 85.5807 43.171 87.8498 43.171C90.1189 43.171 91.4254 43.8056 92.4912 45.1081C93.5913 46.3773 94.107 47.8469 94.107 49.5168C94.107 51.1868 93.5913 52.7566 92.5255 53.9923C91.4941 55.2281 89.947 55.8627 87.9185 55.8627" fill="#E3D384"/>
</g>
<defs>
<filter id="filter0_f_2678_4582" x="-6.62804e-05" y="5.57899e-05" width="101.541" height="98.9334" filterUnits="userSpaceOnUse" color-interpolation-filters="sRGB">
<feFlood flood-opacity="0" result="BackgroundImageFix"/>
<feBlend mode="normal" in="SourceGraphic" in2="BackgroundImageFix" result="shape"/>
<feGaussianBlur stdDeviation="3.71683" result="effect1_foregroundBlur_2678_4582"/>
</filter>
</defs>
</svg>
