<svg width="274" height="267" viewBox="0 0 274 267" fill="none" xmlns="http://www.w3.org/2000/svg">
<g filter="url(#filter0_f_2001_1791)">
<path d="M236.634 150.027C232.842 150.027 229.142 149.578 225.349 148.679C221.557 147.78 216.562 146.432 210.272 144.545C197.507 141.131 186.037 138.435 175.77 136.458C165.502 134.571 153.015 133.583 138.215 133.583C148.852 143.108 158.565 150.836 167.352 156.676C176.14 162.607 185.852 168.448 196.489 174.289C201.114 176.715 205.462 179.231 209.532 181.747C213.602 184.263 216.932 186.779 219.429 189.206C222.759 192.441 224.424 196.394 224.424 201.067C224.424 205.74 222.574 209.244 218.782 212.929C214.989 216.613 210.827 218.41 206.294 218.41C201.762 218.41 198.709 216.793 195.287 213.558C192.79 211.131 190.385 208.166 188.072 204.751C185.76 201.337 183.17 196.844 180.21 191.362C174.382 180.849 168.37 171.234 162.357 162.607C156.252 153.981 148.02 144.725 137.567 134.751C137.382 149.128 138.307 161.439 140.342 171.593C142.377 181.747 145.245 192.71 148.76 204.482C150.24 209.155 151.442 213.737 152.552 218.14C153.57 222.633 154.125 226.587 154.125 230.002C154.125 235.304 152.367 239.258 148.945 242.043C145.522 244.739 141.36 246.177 136.55 246.177C131.74 246.177 127.855 244.739 124.34 241.953C120.825 239.078 118.975 235.034 118.975 229.822C118.975 224.61 120.732 215.085 124.34 203.314C127.67 191.542 130.26 180.669 132.202 170.784C134.052 160.81 135.255 148.859 135.625 134.841C125.172 144.815 116.94 154.071 110.835 162.697C104.73 171.324 98.8098 180.939 92.9823 191.452C90.0223 196.934 87.4323 201.427 85.1198 204.841C82.8073 208.256 80.4023 211.221 77.9048 213.648C74.5748 216.882 70.8749 218.5 66.8974 218.5C62.9199 218.5 57.8324 216.703 54.0399 213.198C50.2474 209.694 48.3974 205.65 48.3974 201.157C48.3974 196.664 50.1549 192.71 53.7624 189.296C56.2599 186.869 59.5899 184.353 63.6599 181.837C67.7299 179.321 72.0774 176.805 76.7023 174.379C87.3398 168.538 97.0523 162.607 105.84 156.766C114.627 150.925 124.34 143.198 134.977 133.672C120.177 133.672 107.32 134.661 96.5898 136.548C85.8598 138.435 74.8523 141.131 63.5674 144.635C57.0924 146.433 51.9124 147.87 48.0274 148.769C44.1424 149.667 40.3499 150.117 36.5575 150.117C32.765 150.117 27.215 148.499 24.3475 145.264C21.3875 142.029 20 138.165 20 133.672C20 129.179 21.5725 124.866 24.7175 121.362C27.8625 117.857 32.1175 116.06 37.5749 116.06C43.0324 116.06 45.1599 116.509 49.1374 117.318C53.1149 118.127 58.2024 119.475 64.4924 121.272C76.1473 124.327 87.2473 126.843 97.5148 128.73C107.875 130.617 120.27 131.785 134.607 132.235C124.34 122.26 114.997 114.442 106.395 108.602C97.7923 102.851 87.9873 97.0996 76.9798 91.4384C70.3199 88.0237 65.4174 85.2381 62.2724 83.2612C59.1274 81.1944 56.1674 78.8581 53.4849 76.2521C50.1549 73.0172 48.4899 69.4228 48.4899 65.5588C48.4899 61.6949 50.3399 56.7526 53.9474 53.0683C57.5549 49.3841 61.9024 47.5869 66.9899 47.5869C72.0774 47.5869 74.9448 49.2942 78.9223 52.7988C81.6048 55.4047 84.2873 58.7295 86.7848 62.6833C89.2823 66.6371 91.8723 70.8606 94.6473 75.3535C100.475 85.6874 106.302 95.1227 112.222 103.659C118.05 112.196 125.912 121.452 135.717 131.336C135.255 117.138 134.052 105.007 132.11 94.9429C130.167 84.8787 127.577 74.0056 124.432 62.234C120.917 50.9117 119.067 42.2852 119.067 36.3545C119.067 30.4237 120.825 27.0091 124.432 24.2234C127.947 21.3479 132.017 20 136.642 20C141.267 20 145.615 21.3479 149.037 24.1335C152.46 26.8293 154.217 30.873 154.217 36.1747C154.217 41.4765 153.755 42.6446 152.922 46.3289C152.09 50.103 151.257 53.2481 150.425 55.7641C149.592 58.2802 149.037 60.0774 148.852 61.0659C145.337 72.6577 142.47 83.6206 140.435 94.1342C138.307 104.558 137.382 117.048 137.66 131.426C147.465 121.092 155.327 111.837 161.155 103.569C166.982 95.3922 173.087 85.8671 179.285 75.084C181.782 70.591 184.372 66.3676 186.962 62.4137C189.552 58.4599 192.142 55.225 194.639 52.7988C197.969 49.5638 202.039 47.9463 206.849 47.9463C211.659 47.9463 215.267 49.7435 219.059 53.4278C222.852 57.112 224.702 61.1557 224.702 65.5588C224.702 69.962 223.037 72.9273 219.707 76.2521C217.209 78.6783 214.157 81.0147 210.642 83.2612C207.127 85.5077 202.502 88.0237 196.859 90.8992C186.037 96.5604 176.14 102.401 167.26 108.242C158.38 114.173 148.852 122.17 138.585 132.325C153.015 131.965 165.317 130.797 175.585 129C185.852 127.203 196.952 124.597 209.069 121.362C221.187 117.947 230.252 116.15 236.357 116.15C242.462 116.15 245.977 117.857 248.844 121.362C251.804 124.776 253.192 128.73 253.192 133.223C253.192 137.716 251.804 141.94 248.937 145.264C246.162 148.589 241.999 150.296 236.542 150.296" fill="#E3D384"/>
</g>
<defs>
<filter id="filter0_f_2001_1791" x="0" y="0" width="273.192" height="266.177" filterUnits="userSpaceOnUse" color-interpolation-filters="sRGB">
<feFlood flood-opacity="0" result="BackgroundImageFix"/>
<feBlend mode="normal" in="SourceGraphic" in2="BackgroundImageFix" result="shape"/>
<feGaussianBlur stdDeviation="10" result="effect1_foregroundBlur_2001_1791"/>
</filter>
</defs>
</svg>
