<svg width="208" height="202" viewBox="0 0 208 202" fill="none" xmlns="http://www.w3.org/2000/svg">
<g filter="url(#filter0_f_2814_1979)">
<path d="M170.995 112.444C168.451 112.444 165.969 112.142 163.424 111.54C160.88 110.937 157.529 110.033 153.31 108.767C144.747 106.476 137.052 104.668 130.165 103.341C123.277 102.076 114.9 101.412 104.971 101.412C112.107 107.802 118.623 112.986 124.518 116.905C130.413 120.883 136.928 124.801 144.064 128.72C147.167 130.347 150.083 132.035 152.814 133.723C155.544 135.411 157.778 137.099 159.453 138.726C161.687 140.896 162.804 143.549 162.804 146.683C162.804 149.818 161.563 152.169 159.019 154.64C156.475 157.112 153.682 158.318 150.642 158.318C147.601 158.318 145.553 157.233 143.258 155.062C141.582 153.435 139.969 151.446 138.417 149.155C136.866 146.864 135.129 143.85 133.143 140.173C129.234 133.12 125.2 126.67 121.167 120.883C117.072 115.096 111.549 108.887 104.537 102.196C104.413 111.841 105.033 120.1 106.399 126.911C107.764 133.723 109.687 141.077 112.045 148.974C113.038 152.109 113.845 155.183 114.59 158.137C115.272 161.151 115.644 163.803 115.644 166.094C115.644 169.65 114.465 172.303 112.169 174.172C109.874 175.98 107.081 176.944 103.854 176.944C100.628 176.944 98.0216 175.98 95.6636 174.111C93.3056 172.182 92.0646 169.47 92.0646 165.973C92.0646 162.477 93.2436 156.087 95.6636 148.19C97.8975 140.294 99.635 133 100.938 126.369C102.179 119.678 102.986 111.66 103.234 102.256C96.2221 108.948 90.6995 115.156 86.604 120.943C82.5086 126.73 78.5373 133.18 74.628 140.233C72.6423 143.91 70.9049 146.925 69.3536 149.215C67.8023 151.506 66.1889 153.495 64.5135 155.123C62.2796 157.293 59.7976 158.378 57.1293 158.378C54.4611 158.378 51.0482 157.172 48.5041 154.821C45.96 152.47 44.7189 149.758 44.7189 146.744C44.7189 143.73 45.8979 141.077 48.3179 138.787C49.9933 137.159 52.2272 135.471 54.9575 133.783C57.6878 132.095 60.6042 130.408 63.7068 128.78C70.8428 124.862 77.3583 120.883 83.2532 116.965C89.1482 113.047 95.6636 107.862 102.8 101.473C92.8713 101.473 84.2461 102.136 77.048 103.402C69.85 104.668 62.4658 106.476 54.8954 108.827C50.5518 110.033 47.0769 110.997 44.4707 111.6C41.8645 112.203 39.3204 112.504 36.7763 112.504C34.2321 112.504 30.509 111.419 28.5854 109.249C26.5997 107.079 25.6689 104.487 25.6689 101.473C25.6689 98.4586 26.7238 95.5652 28.8336 93.2142C30.9434 90.8632 33.7978 89.6576 37.4588 89.6576C41.1199 89.6576 42.5471 89.959 45.2153 90.5016C47.8836 91.0441 51.2964 91.9483 55.516 93.1539C63.3345 95.2035 70.7808 96.8913 77.6685 98.1572C84.6184 99.4231 92.9333 100.207 102.551 100.508C95.6636 93.817 89.3964 88.5726 83.6255 84.6543C77.8547 80.7963 71.2772 76.9383 63.893 73.1406C59.4252 70.85 56.1365 68.9813 54.0267 67.6551C51.9169 66.2686 49.9313 64.7013 48.1318 62.9532C45.8979 60.7831 44.781 58.3718 44.781 55.7797C44.781 53.1876 46.022 49.8722 48.442 47.4007C50.8621 44.9292 53.7785 43.7235 57.1914 43.7235C60.6042 43.7235 62.5278 44.8689 65.1961 47.2198C66.9956 48.968 68.7951 51.1984 70.4705 53.8507C72.1459 56.5031 73.8834 59.3363 75.7449 62.3504C79.6542 69.2827 83.5635 75.6122 87.5348 81.3389C91.4441 87.0655 96.7185 93.2745 103.296 99.9054C102.986 90.381 102.179 82.2431 100.876 75.4916C99.5729 68.7401 97.8354 61.4461 95.7257 53.5493C93.3677 45.9539 92.1267 40.167 92.1267 36.1884C92.1267 32.2099 93.3056 29.9192 95.7257 28.0505C98.0837 26.1215 100.814 25.2173 103.917 25.2173C107.019 25.2173 109.936 26.1215 112.232 27.9902C114.527 29.7986 115.706 32.5113 115.706 36.0679C115.706 39.6244 115.396 40.4081 114.838 42.8796C114.279 45.4114 113.721 47.5212 113.162 49.2091C112.604 50.897 112.232 52.1026 112.107 52.7657C109.749 60.5419 107.826 67.8962 106.461 74.9491C105.033 81.9417 104.413 90.3207 104.599 99.9657C111.177 93.0334 116.451 86.8244 120.36 81.2786C124.27 75.793 128.365 69.4032 132.523 62.1695C134.198 59.1555 135.935 56.3223 137.673 53.6699C139.41 51.0175 141.148 48.8474 142.823 47.2198C145.057 45.0497 147.787 43.9647 151.014 43.9647C154.241 43.9647 156.661 45.1703 159.205 47.6418C161.749 50.1133 162.99 52.826 162.99 55.7797C162.99 58.7335 161.873 60.7228 159.639 62.9532C157.964 64.5807 155.916 66.148 153.558 67.6551C151.2 69.1621 148.098 70.85 144.312 72.779C137.052 76.5767 130.413 80.4949 124.456 84.4132C118.499 88.3917 112.107 93.7567 105.22 100.568C114.9 100.327 123.153 99.5437 130.04 98.3381C136.928 97.1325 144.374 95.3843 152.503 93.2142C160.632 90.9235 166.713 89.7179 170.809 89.7179C174.904 89.7179 177.262 90.8632 179.186 93.2142C181.171 95.5049 182.102 98.1572 182.102 101.171C182.102 104.185 181.171 107.019 179.248 109.249C177.386 111.479 174.594 112.625 170.933 112.625" fill="#E3D384"/>
</g>
<defs>
<filter id="filter0_f_2814_1979" x="12.2523" y="11.8006" width="183.266" height="178.56" filterUnits="userSpaceOnUse" color-interpolation-filters="sRGB">
<feFlood flood-opacity="0" result="BackgroundImageFix"/>
<feBlend mode="normal" in="SourceGraphic" in2="BackgroundImageFix" result="shape"/>
<feGaussianBlur stdDeviation="6.70835" result="effect1_foregroundBlur_2814_1979"/>
</filter>
</defs>
</svg>
