<svg width="56" height="70" viewBox="0 0 56 70" fill="none" xmlns="http://www.w3.org/2000/svg">
<g clip-path="url(#clip0_2001_1809)">
<path d="M54.8235 40.7756C55.0066 49.4287 49.7809 57.0834 43.0137 62.0013C46.2 63.4899 48.2435 66.3657 48.2606 69.9508H7.89913C7.57299 67.3626 8.80447 64.5568 11.031 63.1635C11.8171 62.6712 12.7328 62.5702 13.3104 61.838C6.57743 56.972 2.76113 48.7738 1.17188 40.7761H12.1645C11.507 39.2439 11.0813 35.6987 9.75854 34.7385C7.97743 33.4457 6.77602 33.324 5.51654 31.1089C0.401875 22.1122 13.1802 12.9999 19.9443 21.6126C22.0008 24.2309 21.4382 25.6465 21.5045 28.5668C21.5481 30.4866 26.1277 36.3127 27.4265 38.2319C27.8507 38.8589 28.6534 40.7761 29.4742 40.7761H54.8235V40.7756ZM28.5704 58.1498C28.0586 57.5886 27.9751 56.5933 27.6666 55.858C26.1966 52.3517 22.3642 49.0759 18.6003 48.3603C16.4324 47.9484 16.3899 47.9867 16.8031 50.1557C17.6566 54.6362 21.9479 58.9747 26.43 59.8794C33.2303 61.2515 40.1728 54.8922 40.221 48.151C34.7309 48.2489 29.47 52.7848 28.5699 58.1498H28.5704Z" fill="#AC1F2C"/>
</g>
<defs>
<clipPath id="clip0_2001_1809">
<rect width="56" height="69.9509" fill="white"/>
</clipPath>
</defs>
</svg>
