<svg width="176" height="267" viewBox="0 0 176 267" fill="none" xmlns="http://www.w3.org/2000/svg">
<g clip-path="url(#clip0_2148_1408)">
<path d="M143.808 0.428896C132.972 0.428895 124.187 9.18818 124.187 19.9933C124.187 30.7984 132.972 39.5577 143.808 39.5577C154.645 39.5577 163.43 30.7984 163.43 19.9933C163.43 9.18818 154.645 0.428897 143.808 0.428896Z" fill="#1E1E1E"/>
<path d="M110.337 68.3292L147.891 18.3123L144.274 15.6123L106.72 65.6292L110.337 68.3292Z" fill="#1E1E1E"/>
</g>
<path d="M143.168 110.655C162.488 98.4442 173.592 79.046 173.036 55.5706L91.0606 55.5707L2.97 55.5706C1.43124 63.5989 3.63252 78.6257 7.24432 86.1075C18.4003 109.058 46.0338 115.278 65.5034 127.363C86.1911 140.204 84.9729 179.862 82.9212 201.32C80.3567 228.305 73.9879 242.554 45.7346 249.217C41.9518 250.099 25.5171 251.739 24.3844 253.903C23.0166 256.509 24.534 257.96 26.949 258.863C34.9419 261.848 47.8504 261.722 56.3991 262.205C81.6603 263.634 111.196 265.084 136.265 261.238C141.843 260.376 149.237 259.851 152.764 255.038C153.213 252.411 146.523 251.234 144.578 250.835C128.208 247.388 113.59 248.607 101.878 234.043C90.209 219.499 91.5981 174.272 93.9063 155.777C97.9669 123.286 120.129 125.24 143.168 110.655Z" fill="#1E1E1E"/>
<defs>
<clipPath id="clip0_2148_1408">
<rect width="56.8611" height="70.8704" fill="white" transform="translate(163.99 70.8704) rotate(-180)"/>
</clipPath>
</defs>
</svg>
