<svg width="486" height="310" viewBox="0 0 486 310" fill="none" xmlns="http://www.w3.org/2000/svg">
<path d="M1.53375 304.772L1.63586 303.291L25.7829 303.853C27.6207 303.887 29.0672 303.53 30.1222 302.781C31.1432 301.998 31.6537 300.909 31.6537 299.514C31.6537 299.412 31.7558 299.36 31.9601 299.36C32.1643 299.36 32.2664 299.412 32.2664 299.514C32.2664 300.433 32.2493 301.147 32.2153 301.658L32.1643 304.466L32.2153 307.682C32.2493 308.226 32.2664 308.958 32.2664 309.877C32.2664 309.979 32.1643 310.03 31.9601 310.03C31.7558 310.03 31.6537 309.979 31.6537 309.877C31.6537 308.482 31.1262 307.375 30.0712 306.559C29.0161 305.742 27.5867 305.316 25.7829 305.282L1.53375 304.772ZM31.6537 268.73C31.6537 268.662 31.7558 268.628 31.9601 268.628C32.1643 268.628 32.2664 268.662 32.2664 268.73C32.2664 269.887 32.2493 270.806 32.2153 271.487L32.1643 275.264L32.2153 279.093C32.2493 279.74 32.2664 280.625 32.2664 281.748C32.2664 281.85 32.1643 281.901 31.9601 281.901C31.7558 281.901 31.6537 281.85 31.6537 281.748C31.6537 280.659 31.5687 279.859 31.3985 279.349C31.1943 278.804 30.8539 278.447 30.3775 278.276C29.901 278.106 29.1523 278.055 28.1312 278.123L5.46467 279.297L1.3806 276.694L31.909 289.712C32.0451 289.78 32.1132 289.916 32.1132 290.12C32.1132 290.324 32.0451 290.461 31.909 290.529L4.5968 304.874C3.33755 305.555 2.41864 306.269 1.84006 307.018C1.26148 307.733 0.972196 308.567 0.972196 309.52C0.972196 309.622 0.870095 309.673 0.665892 309.673C0.461689 309.673 0.359588 309.622 0.359588 309.52L0.410638 307.12C0.444672 306.644 0.461688 306.031 0.461688 305.282L0.410638 302.577C0.376604 302.27 0.359588 301.879 0.359588 301.403C0.359588 300.96 0.512739 300.62 0.819042 300.381C1.12535 300.143 1.85708 299.701 3.01423 299.054L24.4556 287.619L29.0502 290.171L1.63586 278.225C1.15938 278.021 0.83606 277.817 0.665891 277.613C0.461688 277.375 0.359587 277.068 0.359587 276.694C0.359587 276.388 0.376603 276.047 0.410637 275.673C0.44467 275.264 0.461687 274.805 0.461687 274.295L0.410637 271.283C0.376603 270.806 0.359586 270.125 0.359586 269.24C0.359586 269.138 0.461688 269.087 0.66589 269.087C0.870093 269.087 0.972194 269.138 0.972194 269.24C0.972195 270.84 1.29552 271.997 1.94216 272.712C2.5888 273.427 3.5928 273.75 4.95416 273.682L28.1312 272.457C29.1863 272.389 29.9521 272.269 30.4285 272.099C30.905 271.895 31.2283 271.555 31.3985 271.078C31.5687 270.568 31.6537 269.785 31.6537 268.73ZM19.2271 257.877L19.3516 243.175L20.784 242.83L20.65 258.655L19.2271 257.877ZM31.9636 230.876C31.9651 230.706 32.0679 230.622 32.2721 230.623C32.4763 230.625 32.5777 230.711 32.5762 230.881C32.5705 231.562 32.5275 232.616 32.4473 234.045C32.3666 235.542 32.3235 236.614 32.318 237.26C32.3108 238.111 32.336 239.15 32.3937 240.375C32.452 241.533 32.4783 242.452 32.4725 243.133C32.4713 243.269 32.3687 243.336 32.1645 243.334C31.9603 243.333 31.8588 243.264 31.8599 243.128C31.8674 242.243 31.7877 241.612 31.6207 241.237C31.4199 240.827 31.0813 240.619 30.6049 240.615C30.0263 240.611 29.0535 240.943 27.6864 241.612L7.12805 251.801L2.75901 249.263L25.0835 259.611C26.0667 260.062 26.9837 260.291 27.8345 260.298C29.0597 260.309 30.0162 259.891 30.7041 259.046C31.3922 258.167 31.7425 256.996 31.7549 255.533C31.7563 255.362 31.8592 255.278 32.0634 255.28C32.2675 255.282 32.3689 255.368 32.3675 255.538C32.3623 256.15 32.3208 257.035 32.2429 258.191C32.1639 259.484 32.1204 260.607 32.1123 261.56C32.1045 262.479 32.1292 263.585 32.1863 264.879C32.2446 266.037 32.2707 266.973 32.2646 267.687C32.2635 267.824 32.1608 267.891 31.9566 267.889C31.7524 267.887 31.6509 267.818 31.652 267.682C31.6601 266.729 31.4797 265.928 31.1108 265.278C30.7079 264.628 30.0157 263.976 29.0342 263.321C28.0187 262.665 26.5278 261.887 24.5614 260.985L0.304768 249.702C0.203245 249.633 0.153492 249.479 0.155509 249.241C0.157814 248.969 0.21016 248.816 0.312547 248.783L25.5367 236.233C27.9631 235.062 29.6391 234.09 30.5646 233.315C31.4901 232.54 31.9564 231.727 31.9636 230.876ZM35.0767 214.491C34.9263 215.569 34.6971 216.843 34.3891 218.312C34.2802 218.847 34.1524 219.516 34.0059 220.321C33.8641 221.091 33.725 221.965 33.5887 222.943L33.1174 226.691C33.0571 227.37 32.947 228.283 32.7872 229.429C32.7778 229.496 32.672 229.516 32.4697 229.487C32.2675 229.459 32.1711 229.411 32.1805 229.344C32.3309 228.265 32.3571 227.461 32.2591 226.932C32.1611 226.403 31.8879 226.022 31.4394 225.787C30.962 225.514 30.2177 225.308 29.2065 225.166L5.79651 221.902C4.78529 221.761 4.02961 221.758 3.5295 221.895C3.03409 221.998 2.66685 222.29 2.4278 222.772C2.15974 223.216 1.95285 223.96 1.80712 225.005C1.79302 225.106 1.68484 225.143 1.4826 225.114C1.28035 225.086 1.18628 225.022 1.20038 224.92L1.62467 222.248C1.90833 220.707 2.11362 219.481 2.24054 218.571C2.43328 217.189 2.58016 215.766 2.68118 214.302C2.85821 212.54 2.98904 211.356 3.07365 210.749C3.54845 207.345 4.64334 204.422 6.35832 201.981C8.078 199.506 10.2018 197.706 12.7298 196.581C15.2578 195.456 17.9712 195.095 20.87 195.5C24.1397 195.956 26.9328 197.118 29.2493 198.988C31.5368 200.819 33.193 203.111 34.2177 205.866C35.2134 208.582 35.4998 211.457 35.0767 214.491ZM33.8433 214.834C34.1441 212.677 33.8704 210.697 33.0221 208.895C32.1401 207.088 30.6839 205.579 28.6535 204.368C26.6279 203.124 24.115 202.292 21.1151 201.874C18.2499 201.474 15.5933 201.55 13.1453 202.102C10.6635 202.65 8.63564 203.638 7.06169 205.068C5.48774 206.498 4.55268 208.275 4.25652 210.399C3.96506 212.488 3.96752 213.949 4.26389 214.781C4.56026 215.613 5.36574 216.12 6.68034 216.303L29.433 219.477C30.7813 219.665 31.7914 219.445 32.4631 218.817C33.1011 218.184 33.5612 216.857 33.8433 214.834ZM38.1441 193.335C38.1147 193.433 38.0022 193.452 37.8067 193.393C37.6111 193.334 37.528 193.256 37.5574 193.158C37.871 192.115 38.015 191.341 37.9892 190.836C37.9732 190.298 37.7616 189.879 37.3543 189.579C36.9144 189.269 36.2056 188.967 35.2278 188.673L12.5924 181.867C11.6146 181.573 10.8731 181.439 10.3678 181.465C9.86248 181.49 9.45485 181.723 9.14489 182.163C8.80234 182.593 8.47916 183.313 8.17536 184.324C8.14596 184.422 8.03348 184.441 7.83793 184.382C7.64238 184.323 7.5593 184.245 7.5887 184.147L13.8215 163.419C13.9195 163.093 14.1151 162.974 14.4085 163.062L20.9401 164.919C21.0052 164.939 21.0247 165.051 20.9985 165.257C20.9821 165.429 20.9201 165.517 20.8125 165.521C18.7654 165.474 17.0993 165.932 15.8143 166.896C14.5293 167.861 13.583 169.353 12.9755 171.374L12.5345 172.84C12.2405 173.818 12.2367 174.599 12.5232 175.183C12.8097 175.766 13.393 176.19 14.273 176.455L36.664 183.188C37.6091 183.472 38.3638 183.503 38.9279 183.282C39.492 183.061 39.8916 182.559 40.1268 181.777L40.6119 180.163C41.3763 177.621 41.4673 175.427 40.885 173.582C40.3026 171.736 39.0274 170.127 37.0593 168.753C36.9941 168.734 36.9811 168.659 37.0203 168.528C37.0497 168.43 37.1068 168.359 37.1916 168.313C37.2536 168.225 37.3009 168.186 37.3335 168.196C39.7777 169.286 42.0427 170.145 44.1286 170.772C44.3894 170.851 44.5702 170.958 44.6712 171.095C44.7396 171.222 44.7297 171.433 44.6415 171.726L38.1441 193.335ZM32.9161 171.186C31.5798 170.784 30.3801 170.992 29.3168 171.809C28.2308 172.584 27.3987 173.934 26.8205 175.857L24.836 182.456L23.4671 182.045L25.4663 175.396C26.0347 173.506 26.1449 171.957 25.7969 170.751C25.4488 169.545 24.6881 168.765 23.5148 168.412C23.417 168.383 23.3926 168.287 23.4416 168.124C23.5004 167.928 23.5787 167.845 23.6765 167.874L28.0618 169.246L30.4231 169.903C31.5509 170.171 32.4407 170.403 33.0925 170.599C33.1577 170.619 33.1609 170.726 33.1021 170.922C33.0433 171.117 32.9813 171.205 32.9161 171.186ZM59.3221 141.491C59.4226 141.589 59.3873 141.785 59.216 142.079C59.0448 142.374 58.8918 142.501 58.757 142.462L28.3391 139.816C27.1411 139.709 26.2505 139.683 25.6675 139.738C25.1016 139.763 24.6424 139.909 24.2899 140.176C23.925 140.397 23.58 140.787 23.2546 141.346C23.2032 141.434 23.0893 141.426 22.9128 141.324C22.7364 141.221 22.6738 141.126 22.7252 141.037C22.982 140.596 23.1765 140.296 23.3087 140.136C23.71 139.582 24.1846 138.835 24.7326 137.894C25.8799 135.923 26.818 134.244 27.5469 132.857C27.7401 132.457 27.9993 131.978 28.3247 131.419C28.3761 131.331 28.49 131.338 28.6665 131.441C28.8429 131.544 28.9055 131.639 28.8541 131.728C28.426 132.463 28.1913 133.035 28.15 133.444C28.1258 133.824 28.3049 134.125 28.6873 134.348C29.1873 134.639 30.3548 134.866 32.1899 135.028L54.7359 136.99L56.7013 140.615L46.1991 127.708L47.9224 127.589L59.3221 141.491ZM46.1506 100.801C46.1849 100.743 46.2902 100.764 46.4667 100.867C46.6432 100.97 46.7143 101.051 46.68 101.11C46.0465 102.198 45.9177 103.501 46.2938 105.02C46.6576 106.492 47.4686 108.008 48.7267 109.567L65.7692 130.418C65.8698 130.516 65.8344 130.712 65.6632 131.006C65.4919 131.3 65.3389 131.427 65.2042 131.388L34.7863 128.742C33.4363 128.626 32.3829 128.643 31.626 128.793C30.8398 128.926 30.3011 129.242 30.01 129.742C29.9586 129.831 29.8447 129.823 29.6682 129.721C29.4917 129.618 29.4292 129.522 29.4805 129.434C29.6518 129.14 29.8781 128.819 30.1596 128.471C30.4287 128.076 30.7773 127.511 31.2054 126.776C32.1815 125.099 32.9655 123.685 33.5573 122.533C33.6992 122.222 33.9071 121.831 34.181 121.36C34.2324 121.272 34.3463 121.28 34.5228 121.382C34.6993 121.485 34.7618 121.58 34.7105 121.669C34.4707 122.08 34.3498 122.424 34.3475 122.698C34.333 122.926 34.4581 123.117 34.7228 123.271C35.2229 123.562 36.5276 123.79 38.637 123.955L61.2344 125.828L63.1741 129.498L48.1879 111.203C47.4521 110.302 46.7019 109.629 45.9372 109.184C45.0254 108.653 44.1679 108.468 43.3644 108.631C42.5782 108.764 41.9624 109.213 41.5172 109.977C41.4658 110.066 41.3519 110.058 41.1754 109.956C40.999 109.853 40.9364 109.757 40.9878 109.669L42.2134 107.665C42.8887 106.641 43.4832 105.687 43.9969 104.805C44.3394 104.217 44.7039 103.523 45.0903 102.724L46.1506 100.801ZM41.5564 121.578C40.2566 119.955 39.1803 118.895 38.3273 118.399C37.4744 117.902 36.8338 118.022 36.4057 118.757C36.3544 118.845 36.2404 118.838 36.064 118.735C35.8875 118.632 35.8249 118.537 35.8763 118.449C36.0133 118.213 36.1883 117.981 36.4012 117.75C36.6019 117.473 37.0275 116.776 37.6782 115.658C37.9693 115.158 38.291 114.538 38.6431 113.798L39.5494 112.14C39.5836 112.081 39.689 112.103 39.8655 112.206C40.0419 112.308 40.113 112.389 40.0788 112.448C38.9315 114.419 39.7164 117.061 42.4336 120.376L48.0765 127.324L46.3532 127.443L41.5564 121.578ZM77.5878 105.583C78.4087 106.245 79.0579 106.66 79.5356 106.827C80.0132 106.994 80.4679 106.946 80.8996 106.682C81.3527 106.391 81.9213 105.823 82.6054 104.975C82.6696 104.896 82.7811 104.92 82.94 105.048C83.0988 105.177 83.1462 105.281 83.0821 105.36C82.3766 106.234 81.8075 106.912 81.3748 107.393L78.8978 110.38L76.5644 113.352C76.1633 113.903 75.5993 114.628 74.8724 115.529C74.8296 115.582 74.7288 115.544 74.5699 115.416C74.4111 115.287 74.353 115.197 74.3958 115.144C75.0799 114.296 75.5161 113.621 75.7044 113.117C75.8927 112.612 75.8549 112.145 75.5911 111.713C75.3221 111.233 74.7905 110.673 73.996 110.031L55.6052 95.1835C54.8107 94.5421 54.164 94.1512 53.665 94.0108C53.1874 93.8439 52.722 93.9056 52.2689 94.1959C51.7894 94.4648 51.2075 95.023 50.5234 95.8704C50.4806 95.9233 50.3798 95.8857 50.2209 95.7574C50.062 95.6291 50.004 95.5385 50.0467 95.4855L51.8182 93.3727C52.8546 92.1973 53.6721 91.2389 54.2707 90.4974C54.9335 89.6765 55.7301 88.6356 56.6606 87.3748L58.2564 85.3169C58.3205 85.2375 58.432 85.2619 58.5909 85.3902C58.7498 85.5184 58.7972 85.6223 58.733 85.7017C58.0703 86.5227 57.658 87.1958 57.4962 87.7213C57.3344 88.2468 57.3986 88.7361 57.6889 89.1892C57.9528 89.6209 58.4819 90.1575 59.2763 90.7988L77.5878 105.583ZM71.1344 73.7124C68.2354 76.5406 67.9944 80.4606 70.4114 85.4724C70.4583 85.5693 70.4209 85.6771 70.2991 85.7959C70.1535 85.8904 70.0451 85.9011 69.9738 85.828C69.1206 84.7585 68.0063 83.3969 66.6308 81.7434C65.2315 80.0654 64.1517 78.8367 63.3911 78.0571C63.2723 77.9353 63.2738 77.815 63.3956 77.6962C63.5418 77.5536 63.6743 77.5432 63.7931 77.665C64.316 78.2009 65.2717 77.7915 66.6603 76.4369C68.8266 74.466 71.3106 72.1141 74.1121 69.3809C75.5494 67.9787 77.0482 66.469 78.6085 64.8517L81.0577 62.391C81.9834 61.4878 82.594 60.7734 82.8893 60.2475C83.2089 59.6979 83.2514 59.181 83.0167 58.6967C82.946 58.5755 82.9716 58.4555 83.0934 58.3367C83.2395 58.1941 83.3602 58.1715 83.4552 58.269C84.0951 59.0711 85.1507 60.3236 86.6218 62.0265C88.1173 63.7056 89.3404 65.0324 90.291 66.0069C90.3623 66.08 90.3371 66.1759 90.2153 66.2948C90.0934 66.4136 89.9847 66.4483 89.8891 66.399C87.6936 64.8797 85.645 64.1444 83.743 64.1931C81.8173 64.2174 80.1236 64.9426 78.662 66.3686C77.9555 67.0578 77.6349 67.6796 77.7003 68.2339C77.7662 68.7402 78.2151 69.4196 79.0469 70.2722L95.4814 87.118C96.2181 87.8732 96.826 88.35 97.3048 88.5485C97.7837 88.7469 98.2897 88.7051 98.8226 88.4228C99.3556 88.1406 100.073 87.5598 100.974 86.6805C101.047 86.6092 101.155 86.6466 101.298 86.7928C101.44 86.9389 101.475 87.0477 101.402 87.119C100.525 87.9746 99.8188 88.6397 99.2834 89.1144L96.2148 92.0368L93.2906 94.961C92.8028 95.4844 92.1082 96.1858 91.2068 97.0652C91.1337 97.1365 91.0259 97.099 90.8833 96.9529C90.7407 96.8067 90.7059 96.698 90.779 96.6267C91.656 95.7711 92.2422 95.0804 92.5375 94.5545C92.8571 94.0049 92.9237 93.4883 92.7371 93.0047C92.5512 92.4729 92.1017 91.8416 91.3887 91.1107L74.883 74.1919C74.0749 73.3636 73.4187 72.9103 72.9142 72.8318C72.4098 72.7534 71.8165 73.0469 71.1344 73.7124ZM115.074 42.2292C114.495 41.3883 113.987 40.8296 113.548 40.553C113.09 40.2484 112.565 40.1761 111.973 40.3361C111.381 40.4961 110.566 40.9333 109.529 41.6476C109.445 41.7055 109.345 41.6504 109.229 41.4822C109.113 41.314 109.097 41.201 109.181 41.1431L111.27 39.7662C112.711 38.857 113.991 38.0163 115.112 37.2441C115.869 36.7228 116.929 35.9516 118.292 34.9303L120.617 33.2666C120.701 33.2087 120.801 33.2638 120.917 33.432C121.033 33.6002 121.049 33.7132 120.965 33.7711C120.012 34.4275 119.355 35.0039 118.994 35.5002C118.642 35.9492 118.517 36.4279 118.619 36.9361C118.75 37.425 119.104 38.0899 119.683 38.9308L133.091 58.3969C133.67 59.2378 134.174 59.8201 134.604 60.1441C135.042 60.4206 135.534 60.4745 136.079 60.3058C136.624 60.1371 137.387 59.7149 138.368 59.0392C138.452 58.9813 138.552 59.0364 138.668 59.2046C138.784 59.3728 138.8 59.4858 138.716 59.5437C137.735 60.2194 136.94 60.7459 136.332 61.1233L133.066 63.311L129.311 65.9592C128.826 66.3347 128.149 66.8217 127.28 67.4202C127.196 67.4781 127.096 67.423 126.98 67.2548C126.864 67.0866 126.848 66.9736 126.932 66.9157C127.969 66.2014 128.678 65.6101 129.058 65.1417C129.438 64.6734 129.577 64.1851 129.475 63.6769C129.373 63.1686 129.022 62.4801 128.424 61.6112L115.074 42.2292ZM104.892 61.8258L123.097 49.2871L123.908 50.4644L105.703 63.003L104.892 61.8258ZM96.7697 54.7127C96.1906 53.8718 95.6818 53.3131 95.2433 53.0365C94.8049 52.7599 94.3132 52.706 93.7682 52.8748C93.2319 52.9962 92.4873 53.385 91.5343 54.0414C91.4502 54.0993 91.3502 54.0442 91.2344 53.876C91.1186 53.7079 91.1027 53.5948 91.1868 53.5369L93.4861 52.0152C94.814 51.1833 95.8704 50.497 96.6552 49.9565C97.7203 49.2229 98.9343 48.3454 100.297 47.3241L102.581 45.6894C102.637 45.6508 102.723 45.7156 102.838 45.8837C102.954 46.0519 102.984 46.1553 102.928 46.1939C101.919 46.8889 101.234 47.4846 100.873 47.9809C100.513 48.4773 100.379 49.0032 100.473 49.5588C100.575 50.0671 100.915 50.7416 101.494 51.5825L114.844 70.9645C115.423 71.8053 115.941 72.3781 116.399 72.6827C116.838 72.9593 117.343 73.0035 117.916 72.8155C118.489 72.6274 119.294 72.1763 120.332 71.462C120.388 71.4234 120.474 71.4882 120.589 71.6563C120.705 71.8245 120.735 71.9279 120.679 71.9665C119.698 72.6422 118.904 73.1687 118.296 73.5461L114.609 76.0234L111.485 78.2372C110.943 78.6513 110.182 79.1963 109.201 79.8719C109.145 79.9105 109.059 79.8458 108.943 79.6776C108.828 79.5094 108.798 79.406 108.854 79.3674C109.835 78.6917 110.501 78.1294 110.853 77.6804C111.205 77.2313 111.33 76.7527 111.228 76.2445C111.106 75.7082 110.756 75.0196 110.177 74.1788L96.7697 54.7127ZM152.202 52.4454C152.107 52.4842 152.021 52.4093 151.944 52.2204C151.866 52.0316 151.874 51.9177 151.969 51.8789C153.07 51.4256 153.841 51.0166 154.279 50.652C154.718 50.2874 154.926 49.8524 154.902 49.3471C154.896 48.7973 154.699 48.0503 154.311 47.1061L145.316 25.2479C144.927 24.3037 144.564 23.6437 144.225 23.2678C143.886 22.892 143.448 22.7225 142.912 22.7594C142.362 22.7648 141.599 22.9683 140.623 23.3698C140.529 23.4087 140.443 23.3337 140.365 23.1448C140.287 22.956 140.296 22.8421 140.39 22.8033L160.407 14.5661C160.722 14.4365 160.938 14.5134 161.054 14.7967L163.732 21.0367C163.758 21.0997 163.683 21.1857 163.507 21.2949C163.363 21.3911 163.256 21.3985 163.185 21.3171C161.931 19.6988 160.524 18.6952 158.965 18.3061C157.407 17.917 155.652 18.124 153.7 18.927L152.284 19.5098C151.34 19.8983 150.732 20.3878 150.459 20.9783C150.187 21.5688 150.226 22.2889 150.575 23.1387L159.473 44.7608C159.875 45.7364 160.298 46.4085 160.745 46.777C161.191 47.1455 161.799 47.2817 162.569 47.1856C163.339 47.0895 164.464 46.7371 165.943 46.1284C166.006 46.1025 166.076 46.1839 166.154 46.3728C166.232 46.5616 166.239 46.669 166.176 46.6949C164.886 47.2259 163.872 47.6246 163.135 47.891L158.3 49.8254L154.779 51.3297C154.162 51.6202 153.303 51.9921 152.202 52.4454ZM166.07 35.0351C165.552 33.7761 164.641 32.992 163.336 32.6825C162.049 32.3287 160.493 32.5273 158.668 33.2785L152.814 35.6875L152.27 34.3657L158.171 31.9372C159.996 31.186 161.252 30.3014 161.937 29.2834C162.64 28.221 162.759 27.1233 162.293 25.9902C162.267 25.9273 162.348 25.8569 162.537 25.7792C162.726 25.7015 162.834 25.6941 162.859 25.7571L164.58 30.0726C164.995 31.0797 165.321 31.8286 165.56 32.3192L166.637 34.8019C166.676 34.8964 166.601 34.9824 166.412 35.0601C166.223 35.1378 166.109 35.1295 166.07 35.0351ZM185.214 35.75C185.509 36.7629 185.805 37.4742 186.102 37.8841C186.398 38.2939 186.799 38.5138 187.304 38.5438C187.842 38.5644 188.634 38.4222 189.679 38.1175C189.777 38.0889 189.855 38.1726 189.912 38.3687C189.969 38.5647 189.949 38.677 189.851 38.7056C188.772 39.0199 187.918 39.2512 187.288 39.3995L183.549 40.4362L179.936 41.5423C179.292 41.7654 178.415 42.0389 177.304 42.3627C177.238 42.3818 177.177 42.2933 177.12 42.0972C177.063 41.9012 177.067 41.7936 177.132 41.7746C178.178 41.4698 178.922 41.1643 179.364 40.8581C179.807 40.5519 180.043 40.1462 180.073 39.6412C180.126 39.0939 180.01 38.3302 179.724 37.35L173.11 14.6577C172.824 13.6775 172.517 12.9873 172.188 12.587C171.891 12.1771 171.474 11.962 170.936 11.9414C170.389 11.8883 169.592 12.014 168.547 12.3188C168.481 12.3379 168.42 12.2494 168.363 12.0533C168.306 11.8573 168.31 11.7497 168.375 11.7307L171.036 11.0083C172.558 10.6355 173.777 10.3158 174.692 10.0491C175.704 9.75391 176.953 9.35457 178.437 8.85113L180.922 8.07355C181.02 8.04498 181.098 8.12871 181.155 8.32476C181.212 8.5208 181.192 8.63311 181.094 8.66168C180.081 8.95692 179.358 9.27399 178.925 9.61289C178.492 9.95179 178.265 10.3901 178.245 10.9278C178.214 11.4329 178.342 12.1755 178.628 13.1558L185.214 35.75ZM193.71 6.71935L195.239 6.58656L198.924 30.4508C199.199 32.2335 199.787 33.589 200.688 34.5175C201.589 35.4459 202.696 35.8088 204.007 35.6063C204.075 35.5959 204.124 35.6916 204.155 35.8934C204.186 36.0952 204.168 36.2013 204.101 36.2117C203.159 36.3571 202.433 36.452 201.924 36.4963L199.191 36.8665L196.071 37.3999C195.505 37.5219 194.683 37.6659 193.607 37.8321C193.506 37.8477 193.44 37.7546 193.409 37.5528C193.377 37.3509 193.412 37.2422 193.513 37.2267C194.993 36.9982 196.073 36.2976 196.753 35.1251C197.467 33.9474 197.686 32.4672 197.41 30.6845L193.71 6.71935ZM224.248 33.8758C224.263 33.9767 224.189 34.057 224.026 34.1166C223.897 34.171 223.794 34.1697 223.716 34.1128L194.472 9.64934C193.087 8.4857 191.936 7.71653 191.017 7.34184C190.098 6.96715 189.201 6.84732 188.327 6.98235C188.259 6.99274 188.21 6.89702 188.179 6.69521C188.148 6.4934 188.166 6.3873 188.233 6.37692L190.36 6.10018C190.803 6.0663 191.444 5.98444 192.285 5.8546L196.112 5.21209C196.577 5.10575 197.147 5.00064 197.819 4.89677C198.088 4.85522 198.301 4.89133 198.456 5.0051C198.611 5.11886 198.891 5.36841 199.295 5.75373C199.986 6.43906 200.47 6.89808 200.747 7.13081L222.559 25.6134L224.248 33.8758ZM224.248 33.8758L222.551 32.5881L218.796 8.26981C218.515 6.4535 217.925 5.08113 217.024 4.15269C216.123 3.22425 215.016 2.86131 213.705 3.06386C213.637 3.07424 213.588 2.97853 213.557 2.77672C213.526 2.57491 213.544 2.46881 213.611 2.45842L215.788 2.17389C216.875 2.07497 217.788 1.96838 218.528 1.85412C219.201 1.75025 220.138 1.5712 221.338 1.31697L223.601 0.915953C223.668 0.905566 223.717 1.00128 223.748 1.20309C223.78 1.4049 223.762 1.511 223.694 1.52139C222.349 1.72913 221.372 2.43089 220.765 3.62667C220.152 4.78881 219.984 6.26122 220.259 8.04389L224.248 33.8758ZM231.135 32.364C231.033 32.3638 230.982 32.2617 230.982 32.0575C230.982 31.8533 231.034 31.7512 231.136 31.7514C232.225 31.7531 233.008 31.6692 233.484 31.4998C233.995 31.3305 234.336 31.0077 234.507 30.5315C234.678 30.0212 234.764 29.2556 234.766 28.2346L234.803 4.59807C234.805 3.57706 234.721 2.82818 234.551 2.35144C234.382 1.8747 234.042 1.55084 233.532 1.37987C233.021 1.17487 232.239 1.07154 231.184 1.06989C231.082 1.06972 231.031 0.967544 231.031 0.763341C231.031 0.559139 231.083 0.457117 231.185 0.457278L252.83 0.491221C253.171 0.491754 253.341 0.645173 253.34 0.951475L253.432 7.74139C253.431 7.80946 253.329 7.86035 253.125 7.89406C252.955 7.92783 252.853 7.89363 252.819 7.79148C252.277 5.81666 251.361 4.35177 250.069 3.39679C248.777 2.44181 247.076 1.96267 244.966 1.95936L243.435 1.95696C242.414 1.95536 241.665 2.17541 241.187 2.6171C240.71 3.05879 240.471 3.73909 240.469 4.65801L240.433 28.0393C240.431 29.0262 240.617 29.7583 240.991 30.2353C241.365 30.7124 241.96 30.9516 242.777 30.9528L244.461 30.9555C247.116 30.9596 249.244 30.4184 250.845 29.3319C252.446 28.2453 253.623 26.5625 254.376 24.2834C254.376 24.2153 254.444 24.1814 254.58 24.1816C254.682 24.1817 254.767 24.2159 254.835 24.2841C254.937 24.3183 254.988 24.3524 254.988 24.3864C254.644 27.0405 254.47 29.4567 254.466 31.6348C254.466 31.9071 254.414 32.1112 254.312 32.2472C254.21 32.3491 254.005 32.3999 253.699 32.3994L231.135 32.364ZM250.858 21.0106C250.86 19.6152 250.318 18.5253 249.23 17.7408C248.176 16.9223 246.645 16.5115 244.637 16.5084L237.745 16.4975L237.747 15.0681L244.69 15.079C246.664 15.0821 248.179 14.7441 249.235 14.0651C250.292 13.3861 250.821 12.434 250.823 11.2088C250.823 11.1067 250.908 11.0557 251.078 11.056C251.282 11.0563 251.384 11.1075 251.384 11.2096L251.326 15.8041L251.373 18.2546C251.439 19.4119 251.472 20.3309 251.471 21.0115C251.471 21.0796 251.369 21.1135 251.164 21.1132C250.96 21.1128 250.858 21.0787 250.858 21.0106ZM269.457 7.02847C269.299 8.24339 269.462 9.36296 269.946 10.3872C270.464 11.4158 271.132 12.3439 271.951 13.1715C272.769 13.9991 273.889 15.0204 275.309 16.2354C276.856 17.5355 278.082 18.6566 278.989 19.5986C279.896 20.5407 280.626 21.6486 281.181 22.9222C281.74 24.1621 281.92 25.5414 281.722 27.06C281.493 28.8149 280.816 30.3225 279.69 31.5829C278.569 32.8095 277.114 33.7008 275.326 34.2568C273.575 34.7835 271.671 34.9125 269.612 34.6439C268.127 34.4501 266.567 34.0407 264.933 33.4155C263.337 32.761 262.285 32.1432 261.777 31.5621C261.626 31.4051 261.506 31.2694 261.418 31.1549C261.368 31.0111 261.361 30.8043 261.396 30.5343L262.295 22.4656L262.301 22.415C262.319 22.28 262.412 22.2235 262.581 22.2455C262.754 22.2338 262.848 22.2976 262.865 22.437C263.608 24.6278 264.268 26.4128 264.843 27.7921C265.452 29.1758 266.266 30.4318 267.286 31.5602C268.339 32.693 269.608 33.3563 271.093 33.5501C272.443 33.7262 273.603 33.5172 274.573 32.923C275.547 32.2951 276.149 31.1036 276.378 29.3488C276.572 27.8638 276.404 26.5205 275.874 25.3188C275.378 24.1214 274.709 23.073 273.865 22.1735C273.021 21.274 271.843 20.1764 270.33 18.8807C268.847 17.6231 267.698 16.5637 266.884 15.7023C266.103 14.8454 265.461 13.852 264.956 12.7221C264.451 11.5923 264.291 10.3186 264.476 8.90122C264.71 7.11259 265.412 5.67687 266.583 4.59406C267.792 3.48191 269.244 2.74466 270.939 2.38233C272.638 1.98625 274.382 1.9049 276.17 2.1383C277.352 2.29243 278.534 2.56688 279.718 2.96165C280.907 3.32267 281.853 3.70348 282.555 4.10409C282.841 4.27872 283.024 4.45701 283.103 4.63896C283.187 4.78716 283.213 4.97938 283.183 5.21561L282.212 12.657C282.198 12.7582 282.103 12.8316 281.925 12.8771C281.752 12.8888 281.655 12.8418 281.635 12.7362L281.355 11.7215C280.789 9.48534 280.029 7.54993 279.076 5.9153C278.156 4.28507 276.683 3.33785 274.658 3.07363C273.308 2.89748 272.144 3.14026 271.165 3.80196C270.22 4.46807 269.651 5.54357 269.457 7.02847ZM302.35 9.21152C298.447 8.13008 294.938 9.89493 291.824 14.5061C291.764 14.5954 291.652 14.6173 291.488 14.5719C291.333 14.4936 291.27 14.4053 291.297 14.3069C291.791 13.0314 292.407 11.3831 293.144 9.3623C293.889 7.30866 294.407 5.75707 294.698 4.70753C294.744 4.54354 294.848 4.48426 295.012 4.5297C295.209 4.58423 295.285 4.69349 295.239 4.85748C295.039 5.57904 295.874 6.19882 297.744 6.71682C300.537 7.59676 303.82 8.55928 307.591 9.60437C309.527 10.1406 311.586 10.6757 313.768 11.2099L317.127 12.0877C318.374 12.433 319.298 12.6009 319.901 12.5914C320.537 12.591 321.005 12.3676 321.306 11.921C321.375 11.7989 321.491 11.7606 321.655 11.806C321.852 11.8606 321.932 11.9534 321.896 12.0846C321.525 13.0413 320.974 14.5838 320.243 16.7121C319.545 18.8495 319.014 20.5742 318.65 21.8861C318.623 21.9845 318.528 22.011 318.364 21.9656C318.2 21.9201 318.115 21.8437 318.109 21.7362C318.317 19.0744 317.921 16.9341 316.922 15.3151C315.932 13.6634 314.452 12.5649 312.485 12.0196C311.533 11.7561 310.835 11.7921 310.389 12.1276C309.984 12.4394 309.623 13.1692 309.305 14.3172L303.021 36.9971C302.739 38.0138 302.633 38.779 302.703 39.2927C302.772 39.8064 303.063 40.2225 303.575 40.541C304.087 40.8595 304.95 41.1869 306.164 41.5231C306.262 41.5504 306.284 41.6624 306.23 41.8592C306.175 42.056 306.099 42.1407 306 42.1135C304.819 41.7863 303.889 41.5109 303.21 41.2873L299.14 40.1066L295.141 39.0517C294.443 38.8936 293.488 38.6465 292.274 38.3102C292.176 38.283 292.154 38.171 292.208 37.9742C292.263 37.7774 292.339 37.6926 292.438 37.7199C293.619 38.047 294.51 38.2059 295.113 38.1964C295.749 38.196 296.229 37.9934 296.553 37.5888C296.919 37.1604 297.238 36.4543 297.511 35.4703L303.822 12.692C304.131 11.5769 304.193 10.7816 304.007 10.3063C303.821 9.83089 303.268 9.46598 302.35 9.21152ZM348.584 40.4315C350.608 41.4819 352.218 42.7392 353.413 44.2033C354.639 45.6831 355.369 47.2315 355.604 48.8486C355.838 50.4657 355.563 52.0294 354.78 53.5398C353.964 55.1106 352.774 56.2953 351.21 57.0937C349.645 57.8921 347.866 58.2535 345.873 58.1778C343.896 58.0718 341.925 57.5094 339.962 56.4904C339.116 56.0514 338.173 55.5044 337.133 54.8494C336.725 54.5997 336.212 54.2951 335.594 53.9357C335.005 53.592 334.333 53.2241 333.578 52.8322L330.247 51.1608C329.627 50.8775 328.804 50.4693 327.776 49.9363C327.686 49.8892 327.688 49.7751 327.782 49.5938C327.876 49.4126 327.968 49.3455 328.059 49.3925C328.935 49.8472 329.638 50.1165 330.17 50.2007C330.717 50.2546 331.191 50.1171 331.592 49.7883C332.038 49.4449 332.489 48.8352 332.944 47.9591L343.832 26.9796C344.49 25.7109 344.71 24.7704 344.491 24.1583C344.287 23.5159 343.536 22.8576 342.237 22.1835C342.177 22.1521 342.193 22.0458 342.288 21.8646C342.382 21.6833 342.459 21.6084 342.519 21.6397L344.897 22.9314C346.256 23.713 347.342 24.3154 348.158 24.7387C349.004 25.1776 349.903 25.587 350.857 25.9667C351.174 26.0932 351.643 26.2982 352.263 26.5815C352.883 26.8649 353.419 27.1241 353.873 27.3593C356.621 28.7859 358.492 30.3896 359.486 32.1703C360.479 33.9511 360.481 35.793 359.494 37.6961C358.584 39.4482 357.082 40.6433 354.987 41.2815C352.938 41.9052 350.496 41.8075 347.662 40.9885L348.584 40.4315ZM352.676 28.0034C351.799 27.5488 351.086 27.4467 350.534 27.6971C349.998 27.9174 349.44 28.5864 348.86 29.7041L344.25 38.5852L342.738 37.398C344.036 38.1482 345.184 38.782 346.18 39.2993C347.751 40.1145 349.265 40.1526 350.723 39.4134C352.18 38.6743 353.387 37.3834 354.343 35.5407C355.237 33.8188 355.533 32.3239 355.232 31.0559C354.948 29.7577 354.095 28.7402 352.676 28.0034ZM339.78 54.9578C343.737 57.0115 346.782 55.9842 348.914 51.8759C350.121 49.5499 350.518 47.4172 350.106 45.4778C349.694 43.5383 348.355 41.9807 346.089 40.8049C344.609 40.0367 343.278 39.4611 342.097 39.0779L343.874 39.3102L338.019 50.5929C337.501 51.5898 337.329 52.4016 337.502 53.0283C337.691 53.6248 338.45 54.268 339.78 54.9578ZM367.462 74.5977C364.923 72.707 363.095 70.4328 361.977 67.775C360.906 65.1103 360.577 62.3614 360.99 59.5284C361.45 56.6885 362.574 54.0675 364.363 51.6656C366.457 48.8542 368.956 46.9809 371.86 46.0455C374.783 45.0829 377.727 44.92 380.69 45.5568C383.68 46.214 386.335 47.4066 388.655 49.1347C391.248 51.066 393.07 53.3777 394.12 56.0697C395.191 58.7344 395.503 61.4493 395.056 64.2144C394.637 66.9998 393.593 69.5115 391.926 71.7497C390.076 74.2335 387.723 76.0247 384.868 77.1232C382.013 78.2218 379.033 78.5482 375.927 78.1024C372.849 77.6769 370.027 76.5087 367.462 74.5977ZM369.575 74.5805C371.104 75.719 372.794 76.2987 374.645 76.3198C376.544 76.334 378.465 75.749 380.408 74.565C382.371 73.3537 384.237 71.5607 386.006 69.1861C387.876 66.675 389.161 64.1522 389.861 61.6178C390.581 59.056 390.634 56.6769 390.021 54.4803C389.408 52.2837 388.132 50.4637 386.194 49.0203C383.711 47.1703 381.099 46.6888 378.358 47.576C375.638 48.4358 373.028 50.5444 370.528 53.9016C368.556 56.5492 367.183 59.2186 366.409 61.9099C365.683 64.5942 365.578 67.0416 366.096 69.2521C366.641 71.4829 367.801 73.259 369.575 74.5805ZM412.864 72.028C410.037 69.1283 406.117 68.8863 401.105 71.3021C401.008 71.349 400.9 71.3115 400.781 71.1897C400.687 71.0441 400.676 70.9356 400.749 70.8644C401.819 70.0114 403.181 68.8974 404.835 67.5224C406.513 66.1235 407.742 65.044 408.522 64.2836C408.644 64.1648 408.764 64.1664 408.883 64.2882C409.025 64.4344 409.036 64.5669 408.914 64.6857C408.378 65.2084 408.787 66.1643 410.141 67.5532C412.111 69.72 414.463 72.2046 417.195 75.0068C418.597 76.4445 420.106 77.9436 421.723 79.5044L424.183 81.9542C425.086 82.8801 425.801 83.4908 426.326 83.7863C426.876 84.1061 427.393 84.1487 427.877 83.9141C427.998 83.8434 428.118 83.869 428.237 83.9909C428.38 84.1371 428.402 84.2577 428.305 84.3527C427.502 84.9924 426.25 86.0476 424.546 87.5183C422.867 89.0134 421.54 90.2361 420.565 91.1866C420.492 91.2578 420.396 91.2326 420.277 91.1107C420.158 90.9889 420.124 90.8801 420.173 90.7845C421.693 88.5895 422.429 86.541 422.381 84.639C422.357 82.7133 421.632 81.0195 420.206 79.5574C419.517 78.8508 418.896 78.5301 418.341 78.5953C417.835 78.6611 417.155 79.1098 416.303 79.9414L399.453 96.3716C398.697 97.1082 398.22 97.7159 398.022 98.1947C397.823 98.6736 397.865 99.1795 398.147 99.7126C398.429 100.246 399.01 100.963 399.889 101.864C399.96 101.938 399.923 102.045 399.776 102.188C399.63 102.331 399.522 102.365 399.45 102.292C398.595 101.415 397.93 100.709 397.455 100.173L394.534 97.1038L391.61 94.1788C391.087 93.6909 390.386 92.9961 389.507 92.0945C389.435 92.0214 389.473 91.9136 389.619 91.771C389.765 91.6285 389.874 91.5937 389.945 91.6668C390.801 92.5441 391.491 93.1304 392.017 93.4258C392.566 93.7456 393.083 93.8123 393.567 93.6259C394.099 93.44 394.73 92.9907 395.461 92.2779L412.384 75.7765C413.212 74.9686 413.666 74.3125 413.745 73.808C413.823 73.3036 413.53 72.7103 412.864 72.028ZM419.523 106.417L428.033 118.405L427.075 119.524L417.914 106.62L419.523 106.417ZM425.015 135.761C425.114 135.9 425.08 136.028 424.913 136.147C424.747 136.265 424.614 136.255 424.516 136.116C424.122 135.561 423.539 134.681 422.767 133.476C421.956 132.215 421.363 131.321 420.989 130.794C420.496 130.1 419.867 129.274 419.103 128.314C418.377 127.41 417.818 126.68 417.424 126.125C417.345 126.014 417.389 125.899 417.555 125.781C417.722 125.663 417.844 125.659 417.923 125.77C418.435 126.492 418.869 126.956 419.225 127.163C419.628 127.378 420.023 127.347 420.412 127.071C420.884 126.737 421.478 125.898 422.194 124.554L432.888 104.254L437.916 103.752L413.76 108.441C412.699 108.652 411.822 109.003 411.128 109.496C410.129 110.205 409.598 111.104 409.536 112.191C409.493 113.307 409.895 114.461 410.742 115.655C410.841 115.794 410.807 115.922 410.64 116.04C410.474 116.158 410.341 116.148 410.243 116.009C409.888 115.51 409.403 114.769 408.789 113.786C408.096 112.692 407.474 111.756 406.922 110.979C406.39 110.23 405.722 109.348 404.918 108.332C404.193 107.428 403.623 106.685 403.209 106.102C403.131 105.991 403.174 105.876 403.341 105.758C403.507 105.64 403.63 105.636 403.709 105.747C404.26 106.524 404.876 107.068 405.556 107.379C406.263 107.67 407.206 107.793 408.385 107.749C409.592 107.685 411.257 107.443 413.378 107.022L439.648 101.959C439.77 101.955 439.901 102.051 440.039 102.245C440.196 102.467 440.243 102.621 440.18 102.708L427.087 127.655C425.806 130.025 425.017 131.795 424.721 132.965C424.425 134.135 424.523 135.067 425.015 135.761ZM455.01 128.759L455.572 130.187L433.74 140.505C432.109 141.275 430.977 142.225 430.343 143.352C429.709 144.48 429.675 145.644 430.243 146.844C430.272 146.906 430.194 146.98 430.009 147.067C429.825 147.154 429.718 147.167 429.689 147.106C429.282 146.244 428.984 145.575 428.797 145.099L427.665 142.585L426.267 139.745C425.989 139.236 425.617 138.49 425.152 137.505C425.108 137.413 425.179 137.323 425.363 137.236C425.548 137.149 425.662 137.151 425.706 137.243C426.345 138.597 427.324 139.434 428.641 139.752C429.973 140.101 431.455 139.891 433.086 139.12L455.01 128.759ZM437.656 165.757C437.563 165.801 437.466 165.753 437.362 165.613C437.273 165.505 437.245 165.405 437.277 165.315L452.418 130.323C453.14 128.664 453.55 127.341 453.648 126.354C453.746 125.367 453.606 124.473 453.227 123.673C453.198 123.611 453.276 123.537 453.461 123.45C453.645 123.362 453.752 123.349 453.781 123.411L454.651 125.371C454.81 125.786 455.07 126.378 455.434 127.147L457.138 130.633C457.372 131.049 457.635 131.565 457.926 132.181C458.042 132.427 458.068 132.641 458.003 132.822C457.938 133.003 457.778 133.342 457.524 133.839C457.063 134.696 456.761 135.291 456.616 135.623L445.097 161.789L437.656 165.757ZM437.656 165.757L438.408 163.764L460.655 153.251C462.317 152.465 463.465 151.509 464.099 150.381C464.733 149.253 464.766 148.089 464.199 146.889C464.17 146.828 464.248 146.753 464.432 146.666C464.617 146.579 464.724 146.566 464.753 146.628L465.645 148.634C466.048 149.648 466.41 150.493 466.73 151.17C467.021 151.786 467.459 152.633 468.044 153.711L469.072 155.767C469.101 155.828 469.023 155.903 468.838 155.99C468.654 156.077 468.547 156.09 468.518 156.028C467.936 154.798 466.986 154.061 465.667 153.819C464.378 153.562 462.919 153.818 461.288 154.589L437.656 165.757ZM447.933 179.707C446.928 180.028 446.224 180.342 445.822 180.649C445.42 180.956 445.21 181.362 445.193 181.868C445.186 182.406 445.348 183.193 445.679 184.231C445.71 184.328 445.628 184.408 445.433 184.47C445.239 184.532 445.126 184.514 445.095 184.417C444.754 183.347 444.501 182.499 444.337 181.873L443.206 178.161L442.01 174.577C441.77 173.939 441.475 173.069 441.123 171.966C441.103 171.901 441.19 171.838 441.384 171.776C441.579 171.714 441.686 171.715 441.707 171.78C442.038 172.818 442.362 173.554 442.679 173.988C442.997 174.423 443.408 174.649 443.914 174.666C444.462 174.706 445.223 174.57 446.195 174.26L468.714 167.077C469.687 166.767 470.369 166.442 470.761 166.103C471.163 165.796 471.368 165.373 471.375 164.835C471.414 164.287 471.268 163.494 470.937 162.456C470.917 162.391 471.004 162.328 471.198 162.266C471.393 162.204 471.5 162.205 471.521 162.27L472.31 164.912C472.721 166.424 473.071 167.634 473.361 168.542C473.682 169.547 474.112 170.785 474.653 172.256L475.493 174.721C475.524 174.818 475.442 174.898 475.247 174.96C475.053 175.022 474.94 175.004 474.909 174.907C474.588 173.902 474.253 173.187 473.904 172.763C473.554 172.339 473.11 172.123 472.572 172.116C472.066 172.099 471.327 172.245 470.354 172.555L447.933 179.707ZM481.699 201.992C481.993 203.565 482.157 205.179 482.19 206.835C482.263 208.518 482.189 209.882 481.97 210.927C481.926 211.247 481.826 211.456 481.671 211.554C481.556 211.68 481.318 211.793 480.956 211.896L474.104 213.854C474.003 213.873 473.921 213.802 473.856 213.641C473.791 213.48 473.819 213.353 473.941 213.261C476.508 211.811 478.349 210.082 479.461 208.073C480.607 206.057 480.952 203.829 480.495 201.387C480.069 199.112 479.068 197.187 477.492 195.613C475.955 194.065 473.953 192.986 471.484 192.375C469.021 191.797 466.268 191.794 463.223 192.364C460.146 192.94 457.533 193.966 455.386 195.441C453.278 196.944 451.761 198.735 450.834 200.812C449.947 202.918 449.729 205.174 450.18 207.583C450.613 209.891 451.595 211.716 453.127 213.056C454.693 214.39 457.045 215.49 460.185 216.357C460.292 216.371 460.344 216.465 460.342 216.639C460.34 216.813 460.289 216.909 460.188 216.927L453.825 217.34C453.411 217.348 453.131 217.331 452.985 217.29C452.872 217.242 452.72 217.079 452.53 216.803C450.85 213.933 449.715 210.925 449.127 207.78C448.456 204.201 448.524 200.864 449.33 197.77C450.175 194.703 451.668 192.138 453.81 190.075C455.951 188.012 458.577 186.69 461.688 186.107C464.866 185.512 467.846 185.802 470.629 186.978C473.451 188.18 475.834 190.089 477.778 192.703C479.728 195.35 481.035 198.446 481.699 201.992ZM465.563 229.751L466.008 244.447L464.59 244.848L464.111 229.029L465.563 229.751ZM453.881 257.226C453.886 257.396 453.787 257.484 453.583 257.49C453.379 257.496 453.274 257.414 453.269 257.244C453.248 256.564 453.25 255.508 453.275 254.077C453.298 252.578 453.299 251.506 453.28 250.859C453.254 250.009 453.189 248.972 453.084 247.75C452.981 246.595 452.919 245.678 452.898 244.997C452.894 244.861 452.994 244.79 453.198 244.784C453.402 244.778 453.506 244.843 453.51 244.979C453.537 245.863 453.641 246.49 453.823 246.859C454.039 247.261 454.386 247.455 454.862 247.441C455.44 247.423 456.399 247.054 457.739 246.332L477.888 235.354L482.352 237.722L459.643 228.245C458.644 227.833 457.718 227.64 456.868 227.665C455.643 227.702 454.704 228.156 454.049 229.027C453.395 229.933 453.091 231.116 453.135 232.579C453.14 232.749 453.041 232.837 452.837 232.844C452.632 232.85 452.528 232.768 452.523 232.598C452.504 231.985 452.511 231.1 452.544 229.941C452.573 228.647 452.573 227.523 452.545 226.57C452.517 225.652 452.449 224.547 452.342 223.257C452.239 222.102 452.177 221.168 452.155 220.453C452.151 220.317 452.251 220.246 452.455 220.24C452.659 220.234 452.763 220.299 452.767 220.435C452.796 221.387 453.008 222.181 453.401 222.816C453.829 223.45 454.546 224.075 455.552 224.692C456.592 225.307 458.112 226.027 460.112 226.852L484.787 237.188C484.891 237.253 484.947 237.405 484.954 237.643C484.963 237.915 484.916 238.07 484.815 238.107L460.096 251.624C457.717 252.887 456.08 253.924 455.185 254.734C454.29 255.545 453.855 256.375 453.881 257.226ZM457.606 268.037C456.721 268.037 456.074 268.106 455.666 268.242C455.291 268.378 455.036 268.633 454.9 269.007C454.764 269.416 454.696 270.062 454.696 270.947L454.696 272.683C454.696 275.338 455.394 277.635 456.789 279.575C458.218 281.515 460.141 282.808 462.558 283.455C462.626 283.455 462.66 283.523 462.66 283.659C462.66 283.727 462.626 283.795 462.558 283.863C462.524 283.965 462.49 284.016 462.456 284.016C459.086 283.71 456.278 283.557 454.032 283.557C453.76 283.557 453.556 283.489 453.42 283.353C453.317 283.251 453.266 283.063 453.266 282.791L453.266 258.695C453.266 258.627 453.368 258.593 453.573 258.593C453.777 258.593 453.879 258.627 453.879 258.695C453.879 259.784 453.964 260.567 454.134 261.044C454.304 261.554 454.628 261.894 455.104 262.065C455.615 262.269 456.38 262.371 457.402 262.371L481.038 262.371C482.059 262.371 482.808 262.269 483.284 262.065C483.761 261.894 484.084 261.554 484.254 261.044C484.458 260.533 484.561 259.75 484.561 258.695C484.561 258.627 484.663 258.593 484.867 258.593C485.071 258.593 485.173 258.627 485.173 258.695L485.122 261.299C485.054 262.864 485.02 264.158 485.02 265.179C485.02 266.2 485.054 267.493 485.122 269.058L485.173 271.662C485.173 271.764 485.071 271.815 484.867 271.815C484.663 271.815 484.561 271.764 484.561 271.662C484.561 270.607 484.458 269.824 484.254 269.314C484.084 268.803 483.744 268.463 483.233 268.293C482.757 268.123 482.008 268.037 480.987 268.037L457.606 268.037ZM480.017 293.865C478.792 293.865 477.703 294.171 476.75 294.784C475.797 295.431 474.963 296.213 474.248 297.132C473.534 298.051 472.666 299.294 471.645 300.859C470.556 302.561 469.603 303.922 468.786 304.943C467.969 305.964 466.965 306.832 465.774 307.547C464.617 308.261 463.272 308.619 461.741 308.619C459.971 308.619 458.388 308.142 456.993 307.189C455.632 306.236 454.56 304.909 453.777 303.207C453.028 301.54 452.654 299.668 452.654 297.592C452.654 296.094 452.858 294.495 453.266 292.793C453.709 291.125 454.185 290.002 454.696 289.424C454.832 289.254 454.951 289.117 455.053 289.015C455.189 288.947 455.394 288.913 455.666 288.913L463.783 288.76L463.834 288.76C463.97 288.76 464.038 288.845 464.038 289.015C464.072 289.185 464.021 289.288 463.885 289.322C461.809 290.343 460.124 291.227 458.831 291.976C457.538 292.759 456.398 293.729 455.411 294.886C454.424 296.077 453.93 297.422 453.93 298.919C453.93 300.28 454.287 301.404 455.002 302.288C455.751 303.173 457.01 303.616 458.78 303.616C460.277 303.616 461.588 303.275 462.711 302.595C463.834 301.948 464.787 301.148 465.57 300.195C466.352 299.242 467.288 297.932 468.377 296.264C469.432 294.631 470.334 293.355 471.083 292.436C471.832 291.551 472.734 290.785 473.789 290.138C474.844 289.492 476.086 289.168 477.516 289.168C479.319 289.168 480.834 289.679 482.059 290.7C483.318 291.755 484.237 293.099 484.816 294.733C485.428 296.367 485.735 298.085 485.735 299.889C485.735 301.08 485.616 302.288 485.377 303.514C485.173 304.739 484.918 305.726 484.612 306.475C484.475 306.781 484.322 306.985 484.152 307.087C484.016 307.189 483.829 307.24 483.591 307.24L476.086 307.24C475.984 307.24 475.899 307.155 475.831 306.985C475.797 306.815 475.831 306.713 475.933 306.679L476.903 306.27C479.047 305.42 480.868 304.416 482.365 303.258C483.863 302.135 484.612 300.553 484.612 298.511C484.612 297.149 484.22 296.026 483.437 295.141C482.655 294.291 481.515 293.865 480.017 293.865Z" fill="#AC1F2C"/>
</svg>
