<svg width="102" height="101" viewBox="0 0 102 101" fill="none" xmlns="http://www.w3.org/2000/svg">
<path d="M101.033 101.005H0V0H101.033V101.005ZM5 96H96V5H5V96Z" fill="#E3D384"/>
<rect width="101" height="101" fill="#AC1F2C"/>
<path d="M17.5192 93.1743C14.0639 91.0204 11.2718 88.2199 9.13906 84.7688C7.01027 81.3177 5.94189 77.7476 5.94189 74.0585C9.63552 74.0585 13.21 75.1335 16.6653 77.2835C20.1206 79.4375 22.9167 82.238 25.0455 85.6891C27.1743 89.1402 28.2426 92.7102 28.2426 96.3993C24.549 96.3993 20.9745 95.3243 17.5192 93.1743ZM39.8914 70.8692C36.4361 68.7431 33.6282 65.9505 31.4755 62.4994C29.3189 59.0483 28.2426 55.4782 28.2426 51.7891C31.9362 51.7891 35.5107 52.8522 38.966 54.9824C42.4214 57.1085 45.2253 59.9012 47.3819 63.3522C49.5346 66.8033 50.6149 70.3734 50.6149 74.0625C46.9212 74.0625 43.3468 72.9994 39.8914 70.8692ZM31.4755 85.693C33.6282 82.2419 36.4361 79.4414 39.8914 77.2875C43.3468 75.1375 46.9212 74.0625 50.6149 74.0625C50.6149 77.7516 49.5385 81.3217 47.3819 84.7728C45.2253 88.2238 42.4214 91.0244 38.966 93.1783C35.5107 95.3283 31.9362 96.4033 28.2426 96.4033C28.2426 92.7142 29.3189 89.1441 31.4755 85.693ZM53.8438 63.3483C55.9964 59.8972 58.8044 57.1085 62.2597 54.9784C65.715 52.8522 69.2895 51.7852 72.9831 51.7852C72.9831 55.4742 71.9068 59.0443 69.7502 62.4954C67.5936 65.9465 64.7896 68.7351 61.3343 70.8653C57.879 72.9915 54.3045 74.0585 50.6109 74.0585C50.6109 70.3694 51.6872 66.7993 53.8438 63.3483ZM62.2597 93.1743C58.8044 91.0204 55.9964 88.2199 53.8438 84.7688C51.6872 81.3177 50.6109 77.7476 50.6109 74.0585C54.3045 74.0585 57.879 75.1335 61.3343 77.2835C64.7896 79.4375 67.5936 82.238 69.7502 85.6891C71.9028 89.1402 72.9831 92.7102 72.9831 96.3993C69.2895 96.3993 65.715 95.3243 62.2597 93.1743ZM76.1803 85.693C78.3091 82.2419 81.1051 79.4414 84.5604 77.2875C88.0158 75.1375 91.5902 74.0625 95.2838 74.0625C95.2838 77.7516 94.2194 81.3217 92.0867 84.7728C89.9579 88.2238 87.1618 91.0244 83.7065 93.1783C80.2512 95.3283 76.6767 96.4033 72.9831 96.4033C72.9831 92.7142 74.0475 89.1441 76.1803 85.693Z" fill="#E3D384"/>
<path d="M17.5192 45.1412C14.0639 42.9872 11.2718 40.1867 9.13906 36.7356C7.01027 33.2845 5.94189 29.7144 5.94189 26.0253C9.63552 26.0253 13.21 27.1003 16.6653 29.2503C20.1206 31.4043 22.9167 34.2048 25.0455 37.6559C27.1743 41.107 28.2426 44.677 28.2426 48.3661C24.549 48.3661 20.9745 47.2911 17.5192 45.1412ZM39.8914 22.836C36.4361 20.7099 33.6282 17.9173 31.4755 14.4662C29.3189 11.0151 28.2426 7.44501 28.2426 3.75592C31.9362 3.75592 35.5107 4.81902 38.966 6.94917C42.4214 9.07535 45.2253 11.8679 47.3819 15.319C49.5346 18.7701 50.6149 22.3402 50.6149 26.0293C46.9212 26.0293 43.3468 24.9662 39.8914 22.836ZM31.4755 37.6598C33.6282 34.2088 36.4361 31.4082 39.8914 29.2543C43.3468 27.1043 46.9212 26.0293 50.6149 26.0293C50.6149 29.7184 49.5385 33.2885 47.3819 36.7396C45.2253 40.1906 42.4214 42.9912 38.966 45.1451C35.5107 47.2951 31.9362 48.3701 28.2426 48.3701C28.2426 44.681 29.3189 41.1109 31.4755 37.6598ZM53.8438 15.3151C55.9964 11.864 58.8044 9.07535 62.2597 6.9452C65.715 4.81901 69.2895 3.75195 72.9831 3.75195C72.9831 7.44104 71.9068 11.0111 69.7502 14.4622C67.5936 17.9133 64.7896 20.7019 61.3343 22.8321C57.879 24.9583 54.3045 26.0253 50.6109 26.0253C50.6109 22.3362 51.6872 18.7662 53.8438 15.3151ZM62.2597 45.1412C58.8044 42.9872 55.9964 40.1867 53.8438 36.7356C51.6872 33.2845 50.6109 29.7144 50.6109 26.0253C54.3045 26.0253 57.879 27.1003 61.3343 29.2503C64.7896 31.4043 67.5936 34.2048 69.7502 37.6559C71.9028 41.107 72.9831 44.677 72.9831 48.3661C69.2895 48.3661 65.715 47.2911 62.2597 45.1412ZM76.1803 37.6598C78.3091 34.2088 81.1051 31.4082 84.5604 29.2543C88.0158 27.1043 91.5902 26.0293 95.2838 26.0293C95.2838 29.7184 94.2194 33.2885 92.0867 36.7396C89.9579 40.1906 87.1618 42.9912 83.7065 45.1451C80.2512 47.2951 76.6767 48.3701 72.9831 48.3701C72.9831 44.681 74.0475 41.1109 76.1803 37.6598Z" fill="#E3D384"/>
</svg>
