<svg width="101" height="101" viewBox="0 0 101 101" fill="none" xmlns="http://www.w3.org/2000/svg">
<path d="M101 101H0V0H101V101ZM5 96H96V5H5V96Z" fill="#E3D384"/>
<path d="M17.5192 93.2749C14.0639 91.121 11.2718 88.3204 9.13906 84.8694C7.01027 81.4183 5.94189 77.8482 5.94189 74.1591C9.63552 74.1591 13.21 75.2341 16.6653 77.3841C20.1206 79.538 22.9167 82.3386 25.0455 85.7897C27.1743 89.2407 28.2426 92.8108 28.2426 96.4999C24.549 96.4999 20.9745 95.4249 17.5192 93.2749ZM39.8914 70.9698C36.4361 68.8436 33.6282 66.051 31.4755 62.6C29.3189 59.1489 28.2426 55.5788 28.2426 51.8897C31.9362 51.8897 35.5107 52.9528 38.966 55.083C42.4214 57.2091 45.2253 60.0017 47.3819 63.4528C49.5346 66.9039 50.6149 70.474 50.6149 74.1631C46.9212 74.1631 43.3468 73.1 39.8914 70.9698ZM31.4755 85.7936C33.6282 82.3425 36.4361 79.542 39.8914 77.3881C43.3468 75.2381 46.9212 74.1631 50.6149 74.1631C50.6149 77.8522 49.5385 81.4223 47.3819 84.8733C45.2253 88.3244 42.4214 91.125 38.966 93.2789C35.5107 95.4289 31.9362 96.5039 28.2426 96.5039C28.2426 92.8148 29.3189 89.2447 31.4755 85.7936ZM53.8438 63.4489C55.9964 59.9978 58.8044 57.2091 62.2597 55.079C65.715 52.9528 69.2895 51.8857 72.9831 51.8857C72.9831 55.5748 71.9068 59.1449 69.7502 62.596C67.5936 66.0471 64.7896 68.8357 61.3343 70.9659C57.879 73.0921 54.3045 74.1591 50.6109 74.1591C50.6109 70.47 51.6872 66.8999 53.8438 63.4489ZM62.2597 93.2749C58.8044 91.121 55.9964 88.3204 53.8438 84.8694C51.6872 81.4183 50.6109 77.8482 50.6109 74.1591C54.3045 74.1591 57.879 75.2341 61.3343 77.3841C64.7896 79.538 67.5936 82.3386 69.7502 85.7897C71.9028 89.2407 72.9831 92.8108 72.9831 96.4999C69.2895 96.4999 65.715 95.4249 62.2597 93.2749ZM76.1803 85.7936C78.3091 82.3425 81.1051 79.542 84.5604 77.3881C88.0158 75.2381 91.5902 74.1631 95.2838 74.1631C95.2838 77.8522 94.2194 81.4223 92.0867 84.8733C89.9579 88.3244 87.1618 91.125 83.7065 93.2789C80.2512 95.4289 76.6767 96.5039 72.9831 96.5039C72.9831 92.8148 74.0475 89.2447 76.1803 85.7936Z" fill="#E3D384"/>
<path d="M17.5192 45.2408C14.0639 43.0868 11.2718 40.2863 9.13906 36.8352C7.01027 33.3841 5.94189 29.814 5.94189 26.1249C9.63552 26.1249 13.21 27.1999 16.6653 29.3499C20.1206 31.5039 22.9167 34.3044 25.0455 37.7555C27.1743 41.2066 28.2426 44.7767 28.2426 48.4657C24.549 48.4657 20.9745 47.3907 17.5192 45.2408ZM39.8914 22.9357C36.4361 20.8095 33.6282 18.0169 31.4755 14.5658C29.3189 11.1147 28.2426 7.54462 28.2426 3.85553C31.9362 3.85553 35.5107 4.91863 38.966 7.04878C42.4214 9.17496 45.2253 11.9676 47.3819 15.4186C49.5346 18.8697 50.6149 22.4398 50.6149 26.1289C46.9212 26.1289 43.3468 25.0658 39.8914 22.9357ZM31.4755 37.7594C33.6282 34.3084 36.4361 31.5078 39.8914 29.3539C43.3468 27.2039 46.9212 26.1289 50.6149 26.1289C50.6149 29.818 49.5385 33.3881 47.3819 36.8392C45.2253 40.2902 42.4214 43.0908 38.966 45.2447C35.5107 47.3947 31.9362 48.4697 28.2426 48.4697C28.2426 44.7806 29.3189 41.2105 31.4755 37.7594ZM53.8438 15.4147C55.9964 11.9636 58.8044 9.17496 62.2597 7.04481C65.715 4.91862 69.2895 3.85156 72.9831 3.85156C72.9831 7.54065 71.9068 11.1107 69.7502 14.5618C67.5936 18.0129 64.7896 20.8015 61.3343 22.9317C57.879 25.0579 54.3045 26.1249 50.6109 26.1249C50.6109 22.4358 51.6872 18.8658 53.8438 15.4147ZM62.2597 45.2408C58.8044 43.0868 55.9964 40.2863 53.8438 36.8352C51.6872 33.3841 50.6109 29.814 50.6109 26.1249C54.3045 26.1249 57.879 27.1999 61.3343 29.3499C64.7896 31.5039 67.5936 34.3044 69.7502 37.7555C71.9028 41.2066 72.9831 44.7767 72.9831 48.4657C69.2895 48.4657 65.715 47.3907 62.2597 45.2408ZM76.1803 37.7594C78.3091 34.3084 81.1051 31.5078 84.5604 29.3539C88.0158 27.2039 91.5902 26.1289 95.2838 26.1289C95.2838 29.818 94.2194 33.3881 92.0867 36.8392C89.9579 40.2902 87.1618 43.0908 83.7065 45.2447C80.2512 47.3947 76.6767 48.4697 72.9831 48.4697C72.9831 44.7806 74.0475 41.2105 76.1803 37.7594Z" fill="#E3D384"/>
</svg>
