<svg width="101" height="101" viewBox="0 0 101 101" fill="none" xmlns="http://www.w3.org/2000/svg">
<path d="M101 101H0V0H101V101ZM5 96H96V5H5V96Z" fill="#E3D384"/>
<rect width="101" height="101" fill="#AC1F2C"/>
<path d="M28.2781 25.0498H26.4988V97.4154H28.2781V25.0498Z" fill="#E3D384"/>
<path d="M15.9979 23.1854C12.2606 20.857 9.22623 17.8303 6.89885 14.0976C4.5675 10.3649 3.40381 6.50124 3.40381 2.51465C7.39927 2.51465 11.2637 3.67691 15.001 6.0054C18.7383 8.33389 21.7726 11.3645 24.1 15.0933C26.4314 18.826 27.595 22.6896 27.595 26.6762C23.5996 26.6762 19.7352 25.5139 15.9979 23.1854Z" fill="#E3D384"/>
<path d="M31.0505 15.0933C33.3541 11.3605 36.3765 8.32992 40.1138 6.0054C43.8511 3.68088 47.7195 2.51465 51.711 2.51465C51.711 6.50124 50.5592 10.3649 48.2557 14.0976C45.9521 17.8303 42.9297 20.8609 39.1924 23.1854C35.4551 25.51 31.5907 26.6762 27.5952 26.6762C27.5952 22.6896 28.747 18.826 31.0505 15.0933Z" fill="#E3D384"/>
<path d="M15.9979 46.6249C12.2606 44.2964 9.22623 41.2698 6.89885 37.5371C4.5675 33.8043 3.40381 29.9407 3.40381 25.9541C7.39927 25.9541 11.2637 27.1164 15.001 29.4449C18.7383 31.7733 21.7726 34.8039 24.1 38.5327C26.4314 42.2654 27.595 46.1291 27.595 50.1156C23.5996 50.1156 19.7352 48.9534 15.9979 46.6249Z" fill="#E3D384"/>
<path d="M31.0505 38.5327C33.3541 34.8 36.3765 31.7694 40.1138 29.4449C43.8511 27.1203 47.7195 25.9541 51.711 25.9541C51.711 29.9407 50.5592 33.8043 48.2557 37.5371C45.9521 41.2698 42.9297 44.3004 39.1924 46.6249C35.4551 48.9494 31.5907 50.1156 27.5952 50.1156C27.5952 46.1291 28.747 42.2654 31.0505 38.5327Z" fill="#E3D384"/>
<path d="M15.9979 72.5995C12.2606 70.271 9.22623 67.2444 6.89885 63.5116C4.5675 59.7789 3.40381 55.9153 3.40381 51.9287C7.39927 51.9287 11.2637 53.091 15.001 55.4195C18.7383 57.7479 21.7726 60.7786 24.1 64.5073C26.4314 68.24 27.595 72.1037 27.595 76.0903C23.5996 76.0903 19.7352 74.928 15.9979 72.5995Z" fill="#E3D384"/>
<path d="M31.0505 64.5073C33.3541 60.7746 36.3765 57.744 40.1138 55.4195C43.8511 53.0949 47.7195 51.9287 51.711 51.9287C51.711 55.9153 50.5592 59.7789 48.2557 63.5116C45.9521 67.2444 42.9297 70.275 39.1924 72.5995C35.4551 74.924 31.5907 76.0903 27.5952 76.0903C27.5952 72.1037 28.747 68.24 31.0505 64.5073Z" fill="#E3D384"/>
<path d="M74.9092 2.51465H73.1299V74.8803H74.9092V2.51465Z" fill="#E3D384"/>
<path d="M85.4141 76.7407C89.1514 79.0692 92.1857 82.0959 94.5131 85.8286C96.8444 89.5613 98.0081 93.4249 98.0081 97.4115C94.0127 97.4115 90.1483 96.2493 86.411 93.9208C82.6737 91.5923 79.6393 88.5617 77.3119 84.8329C74.9806 81.1002 73.8169 77.2366 73.8169 73.25C77.8124 73.25 81.6768 74.4123 85.4141 76.7407Z" fill="#E3D384"/>
<path d="M70.3616 84.8369C68.0581 88.5696 65.0357 91.6002 61.2984 93.9247C57.561 96.2492 53.6927 97.4155 49.7012 97.4155C49.7012 93.4289 50.853 89.5652 53.1565 85.8325C55.46 82.0998 58.4825 79.0692 62.2198 76.7447C65.9571 74.4201 69.8215 73.2539 73.8169 73.2539C73.8169 77.2405 72.6652 81.1041 70.3616 84.8369Z" fill="#E3D384"/>
<path d="M85.4141 53.3052C89.1514 55.6337 92.1857 58.6603 94.5131 62.3931C96.8444 66.1258 98.0081 69.9894 98.0081 73.976C94.0127 73.976 90.1483 72.8137 86.411 70.4853C82.6737 68.1568 79.6393 65.1262 77.3119 61.3974C74.9806 57.6647 73.8169 53.801 73.8169 49.8145C77.8124 49.8145 81.6768 50.9767 85.4141 53.3052Z" fill="#E3D384"/>
<path d="M70.3616 61.3974C68.0581 65.1301 65.0357 68.1607 61.2984 70.4853C57.561 72.8098 53.6927 73.976 49.7012 73.976C49.7012 69.9894 50.853 66.1258 53.1565 62.3931C55.46 58.6603 58.4825 55.6297 62.2198 53.3052C65.9571 50.9807 69.8215 49.8145 73.8169 49.8145C73.8169 53.801 72.6652 57.6647 70.3616 61.3974Z" fill="#E3D384"/>
<path d="M85.4141 27.3306C89.1514 29.6591 92.1857 32.6857 94.5131 36.4184C96.8444 40.1512 98.0081 44.0148 98.0081 48.0014C94.0127 48.0014 90.1483 46.8391 86.411 44.5106C82.6737 42.1821 79.6393 39.1515 77.3119 35.4228C74.9806 31.6901 73.8169 27.8264 73.8169 23.8398C77.8124 23.8398 81.6768 25.0021 85.4141 27.3306Z" fill="#E3D384"/>
<path d="M70.3616 35.4228C68.0581 39.1555 65.0357 42.1861 61.2984 44.5106C57.561 46.8352 53.6927 48.0014 49.7012 48.0014C49.7012 44.0148 50.853 40.1512 53.1565 36.4184C55.46 32.6857 58.4825 29.6551 62.2198 27.3306C65.9571 25.0061 69.8215 23.8398 73.8169 23.8398C73.8169 27.8264 72.6652 31.6901 70.3616 35.4228Z" fill="#E3D384"/>
</svg>
