<svg width="101" height="101" viewBox="0 0 101 101" fill="none" xmlns="http://www.w3.org/2000/svg">
<path d="M101 0V101H0V0H101ZM96 95.9999V4.99994H5V95.9999H96Z" fill="#E3D384"/>
<path d="M19.996 31.2381C15.2493 28.3113 11.3956 24.4769 8.43764 19.7287C5.47822 14.9836 4 10.072 4 5.00148C9.07201 5.00148 13.9806 6.46337 18.7273 9.3901C23.4724 12.3168 27.3262 16.1528 30.2856 20.8994C33.2435 25.6461 34.7233 30.5562 34.7233 35.6282C29.6512 35.6282 24.7412 34.1648 19.996 31.2396V31.2381ZM8.43913 51.6227C11.3971 46.8775 15.2493 43.0252 19.9975 40.0643C24.7427 37.1064 29.6527 35.6267 34.7247 35.6267C34.7247 40.6987 33.245 45.6088 30.2871 50.354C27.3277 55.1006 23.4754 58.9514 18.7287 61.9123C13.9821 64.8703 9.0735 66.35 4.00148 66.35C4.00148 61.2779 5.47971 56.3694 8.43913 51.6227ZM39.1624 20.898C42.1203 16.1528 45.9726 12.3153 50.7207 9.38861C55.4659 6.46188 60.376 5 65.448 5C65.448 10.072 63.9683 14.9821 61.0104 19.7273C58.0509 24.4739 54.1987 28.3099 49.452 31.2366C44.7053 34.1633 39.7968 35.6252 34.7247 35.6252C34.7247 30.5532 36.203 25.6431 39.1624 20.8965V20.898ZM50.7207 61.9123C45.9741 58.9529 42.1203 55.1021 39.1624 50.354C36.203 45.6073 34.7247 40.6972 34.7247 35.6267C39.7968 35.6267 44.7053 37.1064 49.452 40.0643C54.1972 43.0238 58.0509 46.876 61.0104 51.6227C63.9683 56.3694 65.448 61.2794 65.448 66.35C60.376 66.35 55.4659 64.8703 50.7207 61.9123Z" fill="#E3D384"/>
<path d="M50.7206 61.9607C45.974 59.034 42.1202 55.1995 39.1622 50.4514C36.2028 45.7062 34.7246 40.7947 34.7246 35.7241C39.7966 35.7241 44.7052 37.186 49.4519 40.1128C54.197 43.0395 58.0508 46.8754 61.0102 51.6221C63.9682 56.3687 65.4479 61.2788 65.4479 66.3508C60.3759 66.3508 55.4658 64.8875 50.7206 61.9622V61.9607ZM39.1622 82.3454C42.1202 77.6002 45.9725 73.7479 50.7206 70.787C55.4658 67.8291 60.3759 66.3493 65.4479 66.3493C65.4479 71.4214 63.9682 76.3314 61.0102 81.0766C58.0508 85.8233 54.1985 89.6741 49.4519 92.635C44.7052 95.5929 39.7966 97.0726 34.7246 97.0726C34.7246 92.0006 36.2028 87.092 39.1622 82.3454ZM69.8855 51.6206C72.8434 46.8754 76.6957 43.038 81.4439 40.1113C86.189 37.1845 91.0991 35.7227 96.1711 35.7227C96.1711 40.7947 94.6914 45.7047 91.7335 50.4499C88.7741 55.1966 84.9218 59.0325 80.1751 61.9593C75.4285 64.886 70.5199 66.3479 65.4479 66.3479C65.4479 61.2759 66.9261 56.3658 69.8855 51.6191V51.6206ZM81.4439 92.635C76.6972 89.6756 72.8434 85.8247 69.8855 81.0766C66.9261 76.33 65.4479 71.4199 65.4479 66.3493C70.5199 66.3493 75.4285 67.8291 80.1751 70.787C84.9203 73.7464 88.7741 77.5987 91.7335 82.3454C94.6914 87.092 96.1711 92.0021 96.1711 97.0726C91.0991 97.0726 86.189 95.5929 81.4439 92.635Z" fill="#E3D384"/>
</svg>
