<svg width="101" height="101" viewBox="0 0 101 101" fill="none" xmlns="http://www.w3.org/2000/svg">
<path d="M0 101V0H101V101H0ZM5 5V96H96V5H5Z" fill="#E3D384"/>
<rect width="101" height="101" fill="#AC1F2C"/>
<path d="M50.4602 3.41016C24.4777 3.41016 3.41064 24.4474 3.41064 50.402C3.41064 76.3566 24.4737 97.3938 50.4602 97.3938C76.4467 97.3938 97.5098 76.3566 97.5098 50.402C97.5098 24.4474 76.4467 3.41016 50.4602 3.41016ZM85.0112 56.4578C83.7131 56.4578 82.411 56.2957 81.1129 55.9716C79.8147 55.6474 78.0812 55.1612 75.9124 54.513C71.5074 53.2876 67.5339 52.331 63.9957 51.6471C60.4574 50.9633 56.1237 50.6194 50.9985 50.6194C54.6791 54.011 58.0393 56.7503 61.0709 58.8414C64.1025 60.9364 67.4626 63.0235 71.1433 65.1146C72.7304 65.9803 74.2304 66.8657 75.6393 67.767C77.0483 68.6682 78.1841 69.5537 79.0509 70.4194C80.2065 71.5736 80.7844 72.9808 80.7844 74.6371C80.7844 76.151 80.1353 77.5583 78.8332 78.8548C77.5351 80.1513 76.0865 80.8036 74.4995 80.8036C73.1262 80.8036 71.8636 80.2264 70.708 79.0722C69.8412 78.2065 69.0101 77.163 68.2146 75.9336C67.4191 74.7082 66.5167 73.1192 65.5075 71.1744C63.4851 67.4231 61.4271 64.0157 59.3334 60.9522C57.2358 57.8887 54.3863 54.5881 50.7768 51.0542C50.7016 56.1771 51.0301 60.5372 51.7504 64.1461C52.4707 67.7512 53.4443 71.6487 54.6752 75.8308C55.1778 77.4911 55.6132 79.1157 55.9733 80.7008C56.3335 82.2859 56.5155 83.6931 56.5155 84.9185C56.5155 86.7922 55.9179 88.2192 54.7267 89.1916C53.5354 90.164 52.1106 90.6502 50.4483 90.6502C48.7861 90.6502 47.4484 90.1442 46.2254 89.1362C44.9946 88.1243 44.3851 86.6855 44.3851 84.8078C44.3851 82.7128 44.9985 79.5782 46.2254 75.396C47.3811 71.2139 48.2834 67.3559 48.9325 63.822C49.5816 60.2881 49.9774 56.0309 50.1238 51.0582C46.5104 54.592 43.6608 57.8927 41.5672 60.9562C39.4735 64.0236 37.4155 67.431 35.3931 71.1783C34.3799 73.1231 33.4776 74.7122 32.686 75.9376C31.8905 77.1669 31.0594 78.2105 30.1926 79.0762C29.037 80.2304 27.7745 80.8075 26.4011 80.8075C24.7389 80.8075 23.2587 80.1751 21.9606 78.9141C20.6624 77.6531 20.0133 76.2301 20.0133 74.641C20.0133 73.052 20.6268 71.6487 21.8537 70.4233C22.7204 69.5576 23.8563 68.6761 25.2653 67.7709C26.6742 66.8697 28.1702 65.9842 29.7612 65.1185C33.4459 63.0275 36.8021 60.9364 39.8337 58.8453C42.8653 56.7543 46.2254 54.0149 49.9061 50.6233C44.7769 50.6233 40.3561 50.9672 36.6358 51.6511C32.9156 52.3349 29.1082 53.2915 25.2098 54.5169C22.9698 55.1652 21.1848 55.6514 19.8471 55.9755C18.5094 56.2997 17.1915 56.4617 15.8933 56.4617C14.0886 56.4617 12.6797 55.8846 11.6704 54.7304C10.6573 53.5761 10.1546 52.2084 10.1546 50.6194C10.1546 49.0303 10.6968 47.5006 11.7813 46.2396C12.8657 44.9786 14.3419 44.3462 16.2218 44.3462C17.52 44.3462 18.8577 44.4924 20.2271 44.777C21.5964 45.0656 23.3695 45.536 25.5344 46.1843C29.5792 47.2673 33.3865 48.1488 36.9604 48.8366C40.5342 49.5205 44.8125 49.9355 49.7953 50.0818C46.2571 46.5479 43.0078 43.7532 40.0474 41.6977C37.087 39.6422 33.6913 37.6065 29.8641 35.5866C27.5528 34.3612 25.8589 33.3888 24.7745 32.6654C23.6901 31.946 22.6769 31.1159 21.7429 30.1751C20.5872 29.0209 20.0094 27.7599 20.0094 26.3882C20.0094 24.732 20.6387 23.2497 21.9051 21.9531C23.1677 20.6566 24.6676 20.0083 26.4011 20.0083C27.7705 20.0083 29.1438 20.621 30.5172 21.8464C31.4552 22.7832 32.3575 23.9572 33.2243 25.3644C34.091 26.7717 34.9934 28.2698 35.9314 29.8549C37.9538 33.535 39.9762 36.8871 41.9986 39.915C44.021 42.9429 46.7281 46.2277 50.1238 49.7616C49.9774 44.7138 49.5618 40.4051 48.8771 36.8357C48.1885 33.2662 47.3059 29.3885 46.2215 25.2063C44.9906 21.1665 44.3811 18.103 44.3811 16.0119C44.3811 14.1383 44.9946 12.6955 46.2215 11.6835C47.4484 10.6755 48.8573 10.1696 50.4444 10.1696C52.0314 10.1696 53.5314 10.6558 54.7227 11.6282C55.914 12.6006 56.5116 14.0276 56.5116 15.9012C56.5116 16.9843 56.3651 18.19 56.0802 19.526C55.7913 20.8621 55.5024 21.9768 55.2135 22.8781C54.9245 23.7793 54.7425 24.4118 54.6712 24.7715C53.4404 28.8825 52.4668 32.7959 51.7465 36.5116C51.0222 40.2273 50.6977 44.6426 50.7729 49.7656C54.1646 46.0854 56.8757 42.7887 58.8981 39.8676C60.9205 36.9464 63.0141 33.5746 65.179 29.7521C66.0458 28.167 66.9283 26.6689 67.8347 25.2617C68.737 23.8544 69.6236 22.72 70.4903 21.8543C71.646 20.7 73.0549 20.1229 74.7132 20.1229C76.229 20.1229 77.638 20.7712 78.9361 22.0677C80.2342 23.3643 80.8873 24.811 80.8873 26.3961C80.8873 27.7678 80.3094 29.0288 79.1538 30.183C78.287 31.0487 77.2383 31.8788 76.0114 32.6733C74.7845 33.4678 73.1934 34.3691 71.2462 35.3771C67.4903 37.397 64.0788 39.4525 61.0115 41.5436C57.9403 43.6386 54.6356 46.4847 51.1014 50.0897C56.0841 49.9474 60.3427 49.5482 63.8809 48.8999C67.4191 48.2516 71.2819 47.3504 75.4731 46.1961C79.6604 44.9707 82.8028 44.358 84.8965 44.358C86.7724 44.358 88.217 44.9707 89.2302 46.1961C90.2394 47.4255 90.746 48.8287 90.746 50.4138C90.746 51.9989 90.2592 53.4971 89.2856 54.6869C88.312 55.8767 86.8833 56.4696 85.0073 56.4696L85.0112 56.4578Z" fill="#E3D384"/>
</svg>
