<svg width="101" height="101" viewBox="0 0 101 101" fill="none" xmlns="http://www.w3.org/2000/svg">
<path d="M101 101H0V0H101V101ZM5 96H96V5H5V96Z" fill="#E3D384"/>
<path d="M20.1351 50.4678H18.3813V98.3901H20.1351V50.4678Z" fill="#E3D384"/>
<path d="M11.7226 49.2368C9.24832 47.6968 7.24512 45.6896 5.70116 43.2153C4.16115 40.745 3.38916 38.1875 3.38916 35.543C6.02974 35.543 8.58718 36.315 11.0615 37.855C13.5318 39.395 15.539 41.4021 17.083 43.8764C18.623 46.3507 19.395 48.9042 19.395 51.5488C16.7544 51.5488 14.1969 50.7768 11.7226 49.2368Z" fill="#E3D384"/>
<path d="M21.6793 43.8764C23.2034 41.4061 25.2027 39.3989 27.673 37.855C30.1434 36.315 32.7008 35.543 35.3453 35.543C35.3453 38.1835 34.5852 40.741 33.0611 43.2153C31.5369 45.6896 29.5376 47.6928 27.0673 49.2368C24.5969 50.7768 22.0395 51.5488 19.3989 51.5488C19.3989 48.9082 20.159 46.3507 21.6832 43.8764H21.6793Z" fill="#E3D384"/>
<path d="M11.7226 64.7553C9.24832 63.2153 7.24512 61.2082 5.70116 58.7339C4.16115 56.2635 3.38916 53.7061 3.38916 51.0615C6.02974 51.0615 8.58718 51.8335 11.0615 53.3735C13.5318 54.9135 15.539 56.9207 17.083 59.395C18.623 61.8693 19.395 64.4228 19.395 67.0673C16.7544 67.0673 14.1969 66.2953 11.7226 64.7553Z" fill="#E3D384"/>
<path d="M21.6793 59.3989C23.2034 56.9286 25.2027 54.9214 27.673 53.3774C30.1434 51.8374 32.7008 51.0654 35.3453 51.0654C35.3453 53.706 34.5852 56.2635 33.0611 58.7378C31.5369 61.2121 29.5376 63.2153 27.0673 64.7592C24.5969 66.2992 22.0395 67.0712 19.3989 67.0712C19.3989 64.4307 20.159 61.8732 21.6832 59.3989H21.6793Z" fill="#E3D384"/>
<path d="M11.7226 81.9565C9.24832 80.4165 7.24512 78.4093 5.70116 75.935C4.16115 73.4647 3.38916 70.9072 3.38916 68.2627C6.02974 68.2627 8.58718 69.0347 11.0615 70.5747C13.5318 72.1147 15.539 74.1219 17.083 76.5962C18.623 79.0705 19.395 81.624 19.395 84.2685C16.7544 84.2685 14.1969 83.4965 11.7226 81.9565Z" fill="#E3D384"/>
<path d="M21.6793 76.5962C23.2034 74.1258 25.2027 72.1187 27.673 70.5747C30.1434 69.0347 32.7008 68.2627 35.3453 68.2627C35.3453 70.9033 34.5852 73.4607 33.0611 75.935C31.5369 78.4093 29.5376 80.4125 27.0673 81.9565C24.5969 83.4965 22.0395 84.2685 19.3989 84.2685C19.3989 81.6279 20.159 79.0705 21.6832 76.5962H21.6793Z" fill="#E3D384"/>
<path d="M50.7611 50.4678H49.0073V98.3901H50.7611V50.4678Z" fill="#E3D384"/>
<path d="M42.3486 49.2368C39.8743 47.6968 37.8711 45.6896 36.3271 43.2153C34.7871 40.745 34.0151 38.1875 34.0151 35.543C36.6557 35.543 39.2132 36.315 41.6875 37.855C44.1578 39.395 46.165 41.4021 47.7089 43.8764C49.2489 46.3507 50.0209 48.9042 50.0209 51.5488C47.3803 51.5488 44.8229 50.7768 42.3486 49.2368Z" fill="#E3D384"/>
<path d="M52.3047 43.8764C53.8289 41.4061 55.8281 39.3989 58.2985 37.855C60.7688 36.315 63.3263 35.543 65.9708 35.543C65.9708 38.1835 65.2107 40.741 63.6865 43.2153C62.1624 45.6896 60.1631 47.6928 57.6928 49.2368C55.2224 50.7768 52.665 51.5488 50.0244 51.5488C50.0244 48.9082 50.7845 46.3507 52.3087 43.8764H52.3047Z" fill="#E3D384"/>
<path d="M42.3486 64.7553C39.8743 63.2153 37.8711 61.2082 36.3271 58.7339C34.7871 56.2635 34.0151 53.7061 34.0151 51.0615C36.6557 51.0615 39.2132 51.8335 41.6875 53.3735C44.1578 54.9135 46.165 56.9207 47.7089 59.395C49.2489 61.8693 50.0209 64.4228 50.0209 67.0673C47.3803 67.0673 44.8229 66.2953 42.3486 64.7553Z" fill="#E3D384"/>
<path d="M52.3047 59.3989C53.8289 56.9286 55.8281 54.9214 58.2985 53.3774C60.7688 51.8374 63.3263 51.0654 65.9708 51.0654C65.9708 53.706 65.2107 56.2635 63.6865 58.7378C62.1624 61.2121 60.1631 63.2153 57.6928 64.7592C55.2224 66.2992 52.665 67.0712 50.0244 67.0712C50.0244 64.4307 50.7845 61.8732 52.3087 59.3989H52.3047Z" fill="#E3D384"/>
<path d="M42.3486 81.9565C39.8743 80.4165 37.8711 78.4093 36.3271 75.935C34.7871 73.4647 34.0151 70.9072 34.0151 68.2627C36.6557 68.2627 39.2132 69.0347 41.6875 70.5747C44.1578 72.1147 46.165 74.1219 47.7089 76.5962C49.2489 79.0705 50.0209 81.624 50.0209 84.2685C47.3803 84.2685 44.8229 83.4965 42.3486 81.9565Z" fill="#E3D384"/>
<path d="M52.3047 76.5962C53.8289 74.1258 55.8281 72.1187 58.2985 70.5747C60.7688 69.0347 63.3263 68.2627 65.9708 68.2627C65.9708 70.9033 65.2107 73.4607 63.6865 75.935C62.1624 78.4093 60.1631 80.4125 57.6928 81.9565C55.2224 83.4965 52.665 84.2685 50.0244 84.2685C50.0244 81.6279 50.7845 79.0705 52.3087 76.5962H52.3047Z" fill="#E3D384"/>
<path d="M81.8187 50.333H80.0649V98.2554H81.8187V50.333Z" fill="#E3D384"/>
<path d="M73.4062 49.102C70.9319 47.562 68.9287 45.5548 67.3847 43.0805C65.8447 40.6102 65.0728 38.0527 65.0728 35.4082C67.7133 35.4082 70.2708 36.1802 72.7451 37.7202C75.2154 39.2602 77.2226 41.2674 78.7666 43.7417C80.3066 46.216 81.0786 48.7695 81.0786 51.414C78.438 51.414 75.8805 50.642 73.4062 49.102Z" fill="#E3D384"/>
<path d="M83.3628 43.7417C84.887 41.2713 86.8862 39.2642 89.3566 37.7202C91.8269 36.1802 94.3844 35.4082 97.0289 35.4082C97.0289 38.0488 96.2688 40.6062 94.7447 43.0805C93.2205 45.5548 91.2212 47.558 88.7509 49.102C86.2805 50.642 83.7231 51.414 81.0825 51.414C81.0825 48.7734 81.8426 46.216 83.3668 43.7417H83.3628Z" fill="#E3D384"/>
<path d="M73.4062 64.6245C70.9319 63.0845 68.9287 61.0773 67.3847 58.603C65.8447 56.1326 65.0728 53.5752 65.0728 50.9307C67.7133 50.9307 70.2708 51.7026 72.7451 53.2427C75.2154 54.7827 77.2226 56.7898 78.7666 59.2641C80.3066 61.7384 81.0786 64.2919 81.0786 66.9365C78.438 66.9365 75.8805 66.1645 73.4062 64.6245Z" fill="#E3D384"/>
<path d="M83.3628 59.2641C84.887 56.7938 86.8862 54.7866 89.3566 53.2427C91.8269 51.7026 94.3844 50.9307 97.0289 50.9307C97.0289 53.5712 96.2688 56.1287 94.7447 58.603C93.2205 61.0773 91.2212 63.0805 88.7509 64.6245C86.2805 66.1645 83.7231 66.9365 81.0825 66.9365C81.0825 64.2959 81.8426 61.7384 83.3668 59.2641H83.3628Z" fill="#E3D384"/>
<path d="M73.4062 81.8217C70.9319 80.2817 68.9287 78.2746 67.3847 75.8003C65.8447 73.3299 65.0728 70.7725 65.0728 68.1279C67.7133 68.1279 70.2708 68.8999 72.7451 70.4399C75.2154 71.9799 77.2226 73.9871 78.7666 76.4614C80.3066 78.9357 81.0786 81.4892 81.0786 84.1337C78.438 84.1337 75.8805 83.3617 73.4062 81.8217Z" fill="#E3D384"/>
<path d="M83.3628 76.4614C84.887 73.9911 86.8862 71.9839 89.3566 70.4399C91.8269 68.8999 94.3844 68.1279 97.0289 68.1279C97.0289 70.7685 96.2688 73.326 94.7447 75.8003C93.2205 78.2746 91.2212 80.2778 88.7509 81.8217C86.2805 83.3617 83.7231 84.1337 81.0825 84.1337C81.0825 81.4931 81.8426 78.9357 83.3668 76.4614H83.3628Z" fill="#E3D384"/>
<path d="M20.1351 17.7275H18.3813V65.6499H20.1351V17.7275Z" fill="#E3D384"/>
<path d="M11.7226 16.4965C9.24832 14.9565 7.24512 12.9494 5.70116 10.4751C4.16115 8.00472 3.38916 5.44727 3.38916 2.80273C6.02974 2.80273 8.58718 3.57472 11.0615 5.11472C13.5318 6.65473 15.539 8.66189 17.083 11.1362C18.623 13.6105 19.395 16.164 19.395 18.8085C16.7544 18.8085 14.1969 18.0365 11.7226 16.4965Z" fill="#E3D384"/>
<path d="M21.6793 11.1362C23.2034 8.66585 25.2027 6.65869 27.673 5.11472C30.1434 3.57472 32.7008 2.80273 35.3453 2.80273C35.3453 5.44331 34.5852 8.00076 33.0611 10.4751C31.5369 12.9494 29.5376 14.9526 27.0673 16.4965C24.5969 18.0365 22.0395 18.8085 19.3989 18.8085C19.3989 16.1679 20.159 13.6105 21.6832 11.1362H21.6793Z" fill="#E3D384"/>
<path d="M11.7226 32.019C9.24832 30.479 7.24512 28.4718 5.70116 25.9975C4.16115 23.5272 3.38916 20.9697 3.38916 18.3252C6.02974 18.3252 8.58718 19.0972 11.0615 20.6372C13.5318 22.1772 15.539 24.1843 17.083 26.6587C18.623 29.133 19.395 31.6864 19.395 34.331C16.7544 34.331 14.1969 33.559 11.7226 32.019Z" fill="#E3D384"/>
<path d="M21.6793 26.6587C23.2034 24.1883 25.2027 22.1812 27.673 20.6372C30.1434 19.0972 32.7008 18.3252 35.3453 18.3252C35.3453 20.9658 34.5852 23.5232 33.0611 25.9975C31.5369 28.4718 29.5376 30.475 27.0673 32.019C24.5969 33.559 22.0395 34.331 19.3989 34.331C19.3989 31.6904 20.159 29.133 21.6832 26.6587H21.6793Z" fill="#E3D384"/>
<path d="M11.7226 49.2211C9.24832 47.6811 7.24512 45.674 5.70116 43.1997C4.16115 40.7293 3.38916 38.1719 3.38916 35.5273C6.02974 35.5273 8.58718 36.2993 11.0615 37.8393C13.5318 39.3793 15.539 41.3865 17.083 43.8608C18.623 46.3351 19.395 48.8886 19.395 51.5331C16.7544 51.5331 14.1969 50.7612 11.7226 49.2211Z" fill="#E3D384"/>
<path d="M21.6793 43.8608C23.2034 41.3905 25.2027 39.3833 27.673 37.8393C30.1434 36.2993 32.7008 35.5273 35.3453 35.5273C35.3453 38.1679 34.5852 40.7254 33.0611 43.1997C31.5369 45.674 29.5376 47.6772 27.0673 49.2211C24.5969 50.7612 22.0395 51.5331 19.3989 51.5331C19.3989 48.8926 20.159 46.3351 21.6832 43.8608H21.6793Z" fill="#E3D384"/>
<path d="M50.7611 17.7275H49.0073V65.6499H50.7611V17.7275Z" fill="#E3D384"/>
<path d="M42.3486 16.4965C39.8743 14.9565 37.8711 12.9494 36.3271 10.4751C34.7871 8.00472 34.0151 5.44727 34.0151 2.80273C36.6557 2.80273 39.2132 3.57472 41.6875 5.11472C44.1578 6.65473 46.165 8.66189 47.7089 11.1362C49.2489 13.6105 50.0209 16.164 50.0209 18.8085C47.3803 18.8085 44.8229 18.0365 42.3486 16.4965Z" fill="#E3D384"/>
<path d="M52.3047 11.1362C53.8289 8.66585 55.8281 6.65869 58.2985 5.11472C60.7688 3.57472 63.3263 2.80273 65.9708 2.80273C65.9708 5.44331 65.2107 8.00076 63.6865 10.4751C62.1624 12.9494 60.1631 14.9526 57.6928 16.4965C55.2224 18.0365 52.665 18.8085 50.0244 18.8085C50.0244 16.1679 50.7845 13.6105 52.3087 11.1362H52.3047Z" fill="#E3D384"/>
<path d="M42.3486 32.019C39.8743 30.479 37.8711 28.4718 36.3271 25.9975C34.7871 23.5272 34.0151 20.9697 34.0151 18.3252C36.6557 18.3252 39.2132 19.0972 41.6875 20.6372C44.1578 22.1772 46.165 24.1843 47.7089 26.6587C49.2489 29.133 50.0209 31.6864 50.0209 34.331C47.3803 34.331 44.8229 33.559 42.3486 32.019Z" fill="#E3D384"/>
<path d="M52.3047 26.6587C53.8289 24.1883 55.8281 22.1812 58.2985 20.6372C60.7688 19.0972 63.3263 18.3252 65.9708 18.3252C65.9708 20.9658 65.2107 23.5232 63.6865 25.9975C62.1624 28.4718 60.1631 30.475 57.6928 32.019C55.2224 33.559 52.665 34.331 50.0244 34.331C50.0244 31.6904 50.7845 29.133 52.3087 26.6587H52.3047Z" fill="#E3D384"/>
<path d="M42.3486 49.2211C39.8743 47.6811 37.8711 45.674 36.3271 43.1997C34.7871 40.7293 34.0151 38.1719 34.0151 35.5273C36.6557 35.5273 39.2132 36.2993 41.6875 37.8393C44.1578 39.3793 46.165 41.3865 47.7089 43.8608C49.2489 46.3351 50.0209 48.8886 50.0209 51.5331C47.3803 51.5331 44.8229 50.7612 42.3486 49.2211Z" fill="#E3D384"/>
<path d="M52.3047 43.8608C53.8289 41.3905 55.8281 39.3833 58.2985 37.8393C60.7688 36.2993 63.3263 35.5273 65.9708 35.5273C65.9708 38.1679 65.2107 40.7254 63.6865 43.1997C62.1624 45.674 60.1631 47.6772 57.6928 49.2211C55.2224 50.7612 52.665 51.5331 50.0244 51.5331C50.0244 48.8926 50.7845 46.3351 52.3087 43.8608H52.3047Z" fill="#E3D384"/>
<path d="M81.8187 17.5928H80.0649V65.5151H81.8187V17.5928Z" fill="#E3D384"/>
<path d="M73.4062 16.3618C70.9319 14.8218 68.9287 12.8146 67.3847 10.3403C65.8447 7.86995 65.0728 5.31251 65.0728 2.66797C67.7133 2.66797 70.2708 3.43995 72.7451 4.97996C75.2154 6.51997 77.2226 8.52713 78.7666 11.0014C80.3066 13.4757 81.0786 16.0292 81.0786 18.6738C78.438 18.6738 75.8805 17.9018 73.4062 16.3618Z" fill="#E3D384"/>
<path d="M83.3628 11.0014C84.887 8.53109 86.8862 6.52393 89.3566 4.97996C91.8269 3.43995 94.3844 2.66797 97.0289 2.66797C97.0289 5.30855 96.2688 7.86599 94.7447 10.3403C93.2205 12.8146 91.2212 14.8178 88.7509 16.3618C86.2805 17.9018 83.7231 18.6738 81.0825 18.6738C81.0825 16.0332 81.8426 13.4757 83.3668 11.0014H83.3628Z" fill="#E3D384"/>
<path d="M73.4062 31.8842C70.9319 30.3442 68.9287 28.3371 67.3847 25.8628C65.8447 23.3924 65.0728 20.835 65.0728 18.1904C67.7133 18.1904 70.2708 18.9624 72.7451 20.5024C75.2154 22.0424 77.2226 24.0496 78.7666 26.5239C80.3066 28.9982 81.0786 31.5517 81.0786 34.1962C78.438 34.1962 75.8805 33.4242 73.4062 31.8842Z" fill="#E3D384"/>
<path d="M83.3628 26.5239C84.887 24.0535 86.8862 22.0464 89.3566 20.5024C91.8269 18.9624 94.3844 18.1904 97.0289 18.1904C97.0289 20.831 96.2688 23.3885 94.7447 25.8628C93.2205 28.3371 91.2212 30.3403 88.7509 31.8842C86.2805 33.4242 83.7231 34.1962 81.0825 34.1962C81.0825 31.5556 81.8426 28.9982 83.3668 26.5239H83.3628Z" fill="#E3D384"/>
<path d="M73.4062 49.0864C70.9319 47.5464 68.9287 45.5392 67.3847 43.0649C65.8447 40.5946 65.0728 38.0371 65.0728 35.3926C67.7133 35.3926 70.2708 36.1646 72.7451 37.7046C75.2154 39.2446 77.2226 41.2517 78.7666 43.726C80.3066 46.2004 81.0786 48.7538 81.0786 51.3984C78.438 51.3984 75.8805 50.6264 73.4062 49.0864Z" fill="#E3D384"/>
<path d="M83.3628 43.726C84.887 41.2557 86.8862 39.2485 89.3566 37.7046C91.8269 36.1646 94.3844 35.3926 97.0289 35.3926C97.0289 38.0332 96.2688 40.5906 94.7447 43.0649C93.2205 45.5392 91.2212 47.5424 88.7509 49.0864C86.2805 50.6264 83.7231 51.3984 81.0825 51.3984C81.0825 48.7578 81.8426 46.2004 83.3668 43.726H83.3628Z" fill="#E3D384"/>
</svg>
