<svg width="101" height="101" viewBox="0 0 101 101" fill="none" xmlns="http://www.w3.org/2000/svg">
<path d="M0 101V0H101V101H0ZM5 5V96H96V5H5Z" fill="#E3D384"/>
<path d="M50.5603 3.50977C24.5778 3.50977 3.51074 24.547 3.51074 50.5016C3.51074 76.4562 24.5738 97.4934 50.5603 97.4934C76.5468 97.4934 97.6099 76.4562 97.6099 50.5016C97.6099 24.547 76.5468 3.50977 50.5603 3.50977ZM85.1113 56.5574C83.8132 56.5574 82.5111 56.3953 81.213 56.0712C79.9148 55.7471 78.1813 55.2608 76.0125 54.6126C71.6075 53.3872 67.634 52.4306 64.0958 51.7467C60.5575 51.0629 56.2238 50.719 51.0986 50.719C54.7792 54.1106 58.1394 56.8499 61.171 58.941C64.2026 61.036 67.5627 63.1231 71.2434 65.2142C72.8305 66.0799 74.3305 66.9653 75.7394 67.8666C77.1484 68.7678 78.2842 69.6533 79.151 70.519C80.3066 71.6732 80.8845 73.0804 80.8845 74.7367C80.8845 76.2506 80.2354 77.6579 78.9333 78.9544C77.6352 80.251 76.1866 80.9032 74.5996 80.9032C73.2263 80.9032 71.9637 80.326 70.8081 79.1718C69.9413 78.3061 69.1102 77.2626 68.3147 76.0332C67.5192 74.8078 66.6168 73.2188 65.6076 71.274C63.5852 67.5227 61.5272 64.1153 59.4335 61.0518C57.3359 57.9883 54.4864 54.6877 50.8769 51.1538C50.8017 56.2767 51.1302 60.6368 51.8505 64.2457C52.5708 67.8508 53.5444 71.7483 54.7753 75.9305C55.2779 77.5907 55.7133 79.2153 56.0734 80.8004C56.4336 82.3855 56.6156 83.7927 56.6156 85.0181C56.6156 86.8918 56.018 88.3188 54.8267 89.2912C53.6355 90.2636 52.2107 90.7498 50.5484 90.7498C48.8862 90.7498 47.5485 90.2438 46.3255 89.2358C45.0947 88.2239 44.4852 86.7851 44.4852 84.9074C44.4852 82.8124 45.0986 79.6778 46.3255 75.4956C47.4812 71.3135 48.3835 67.4555 49.0326 63.9216C49.6817 60.3877 50.0775 56.1305 50.2239 51.1578C46.6105 54.6916 43.7609 57.9923 41.6673 61.0558C39.5736 64.1232 37.5156 67.5306 35.4932 71.2779C34.48 73.2227 33.5777 74.8118 32.7861 76.0372C31.9906 77.2665 31.1595 78.3101 30.2927 79.1758C29.1371 80.33 27.8746 80.9071 26.5012 80.9071C24.839 80.9071 23.3588 80.2747 22.0606 79.0137C20.7625 77.7527 20.1134 76.3297 20.1134 74.7406C20.1134 73.1516 20.7269 71.7483 21.9538 70.5229C22.8205 69.6572 23.9564 68.7757 25.3654 67.8705C26.7743 66.9693 28.2703 66.0838 29.8613 65.2182C33.546 63.1271 36.9022 61.036 39.9338 58.9449C42.9654 56.8539 46.3255 54.1145 50.0062 50.7229C44.877 50.7229 40.4562 51.0668 36.7359 51.7507C33.0157 52.4345 29.2083 53.3911 25.3099 54.6165C23.0699 55.2648 21.2849 55.751 19.9472 56.0751C18.6095 56.3993 17.2916 56.5614 15.9934 56.5614C14.1887 56.5614 12.7798 55.9842 11.7705 54.83C10.7574 53.6758 10.2547 52.3081 10.2547 50.719C10.2547 49.1299 10.7969 47.6002 11.8814 46.3392C12.9658 45.0782 14.442 44.4458 16.3219 44.4458C17.6201 44.4458 18.9578 44.592 20.3272 44.8766C21.6965 45.1652 23.4696 45.6356 25.6345 46.2839C29.6793 47.367 33.4866 48.2484 37.0605 48.9362C40.6343 49.6201 44.9126 50.0351 49.8954 50.1814C46.3572 46.6475 43.1079 43.8528 40.1475 41.7973C37.1871 39.7419 33.7914 37.7061 29.9642 35.6862C27.6529 34.4608 25.959 33.4884 24.8746 32.765C23.7902 32.0456 22.777 31.2155 21.843 30.2747C20.6873 29.1205 20.1095 27.8595 20.1095 26.4878C20.1095 24.8316 20.7388 23.3493 22.0052 22.0527C23.2678 20.7562 24.7677 20.1079 26.5012 20.1079C27.8706 20.1079 29.2439 20.7206 30.6173 21.946C31.5553 22.8828 32.4576 24.0568 33.3244 25.4641C34.1911 26.8713 35.0935 28.3694 36.0315 29.9545C38.0539 33.6346 40.0763 36.9867 42.0987 40.0146C44.1211 43.0425 46.8282 46.3273 50.2239 49.8612C50.0775 44.8134 49.6619 40.5047 48.9772 36.9353C48.2886 33.3659 47.406 29.4881 46.3216 25.3059C45.0907 21.2661 44.4812 18.2026 44.4812 16.1115C44.4812 14.2379 45.0947 12.7951 46.3216 11.7831C47.5485 10.7752 48.9574 10.2692 50.5445 10.2692C52.1315 10.2692 53.6315 10.7554 54.8228 11.7278C56.0141 12.7002 56.6117 14.1272 56.6117 16.0009C56.6117 17.0839 56.4652 18.2896 56.1803 19.6256C55.8914 20.9617 55.6025 22.0764 55.3136 22.9777C55.0246 23.8789 54.8426 24.5114 54.7713 24.8711C53.5405 28.9821 52.5669 32.8955 51.8466 36.6112C51.1223 40.3269 50.7978 44.7422 50.873 49.8652C54.2647 46.185 56.9758 42.8883 58.9982 39.9672C61.0206 37.046 63.1142 33.6742 65.2791 29.8517C66.1459 28.2666 67.0284 26.7685 67.9348 25.3613C68.8371 23.954 69.7237 22.8196 70.5904 21.9539C71.7461 20.7997 73.155 20.2225 74.8133 20.2225C76.3291 20.2225 77.7381 20.8708 79.0362 22.1674C80.3343 23.4639 80.9874 24.9106 80.9874 26.4957C80.9874 27.8674 80.4095 29.1284 79.2539 30.2826C78.3871 31.1483 77.3383 31.9784 76.1115 32.7729C74.8846 33.5674 73.2935 34.4687 71.3463 35.4767C67.5904 37.4966 64.1789 39.5521 61.1116 41.6432C58.0404 43.7382 54.7357 46.5843 51.2015 50.1893C56.1842 50.047 60.4428 49.6478 63.981 48.9995C67.5192 48.3512 71.382 47.45 75.5732 46.2957C79.7605 45.0703 82.9029 44.4576 84.9966 44.4576C86.8725 44.4576 88.3171 45.0703 89.3303 46.2957C90.3395 47.5251 90.8461 48.9283 90.8461 50.5134C90.8461 52.0985 90.3593 53.5967 89.3857 54.7865C88.4121 55.9763 86.9834 56.5693 85.1074 56.5693L85.1113 56.5574Z" fill="#E3D384"/>
</svg>
