<svg width="101" height="101" viewBox="0 0 101 101" fill="none" xmlns="http://www.w3.org/2000/svg">
<path d="M100.999 101H0.000656825L0 0H100.999V101ZM5.00066 96H96V5H5L5.00066 96Z" fill="#E3D384"/>
<rect width="101" height="101" fill="#AC1F2C"/>
<path d="M53.7284 69.0016C54.3678 69.7791 54.6855 70.6677 54.6855 71.6673C54.6855 72.6669 54.3757 73.615 53.7601 74.3687C53.1445 75.1184 52.243 75.4952 51.0555 75.4952C50.2333 75.4952 49.4112 75.3921 48.5891 75.1858C47.767 74.9795 46.6708 74.6741 45.3045 74.2616C42.5204 73.488 40.0103 72.8811 37.7743 72.4487C35.5383 72.0164 32.8018 71.7982 29.561 71.7982C31.8884 73.9403 34.0092 75.6737 35.9275 76.9947C37.8418 78.3156 39.9667 79.6405 42.294 80.9614C43.2989 81.5088 44.2441 82.0681 45.1338 82.6354C46.0234 83.2066 46.7423 83.762 47.2904 84.3094C48.0211 85.0392 48.3865 85.9278 48.3865 86.975C48.3865 87.931 47.9774 88.8196 47.1553 89.6407C46.3332 90.4618 45.4197 90.8704 44.4189 90.8704C43.5491 90.8704 42.7508 90.5054 42.024 89.7756C41.4759 89.2281 40.9516 88.5697 40.4512 87.7922C39.9508 87.0187 39.3789 86.0151 38.7394 84.7854C37.4606 82.4172 36.1618 80.2633 34.8393 78.3235C33.5167 76.3877 31.7136 74.3012 29.4299 72.0679C29.3823 75.3048 29.5888 78.0617 30.0455 80.3426C30.5023 82.6235 31.1179 85.0829 31.8923 87.7248C32.2101 88.7759 32.4841 89.7994 32.7145 90.803C32.9408 91.8066 33.056 92.6951 33.056 93.4686C33.056 94.6547 32.6787 95.5551 31.9281 96.17C31.1735 96.7848 30.2719 97.0942 29.2234 97.0942C28.1749 97.0942 27.3289 96.7769 26.5544 96.1383C25.776 95.4996 25.3908 94.5873 25.3908 93.4052C25.3908 92.0842 25.776 90.1008 26.5544 87.455C27.2852 84.8132 27.8571 82.3736 28.2662 80.1403C28.6753 77.907 28.9255 75.2176 29.0208 72.0719C26.7371 74.3052 24.934 76.3917 23.6115 78.3275C22.2889 80.2672 20.9862 82.4172 19.7073 84.7894C19.0679 86.019 18.496 87.0226 17.9956 87.7962C17.4951 88.5736 16.9669 89.2321 16.4228 89.7795C15.692 90.5094 14.8937 90.8744 14.0279 90.8744C12.9754 90.8744 12.0421 90.4737 11.22 89.6764C10.3978 88.8791 9.98875 87.9786 9.98875 86.975C9.98875 85.9714 10.374 85.0829 11.1524 84.3094C11.7005 83.762 12.4194 83.2026 13.309 82.6354C14.1987 82.0642 15.1439 81.5088 16.1488 80.9614C18.4761 79.6405 20.597 78.3196 22.5153 76.9947C24.4336 75.6737 26.5544 73.9403 28.8818 71.7982C25.641 71.7982 22.8449 72.0164 20.4937 72.4487C18.1425 72.8811 15.7357 73.4841 13.2733 74.2616C11.8594 74.6701 10.7275 74.9795 9.88549 75.1858C9.03953 75.3921 8.20946 75.4952 7.38734 75.4952C6.24748 75.4952 5.35385 75.1303 4.71839 74.4004C4.07896 73.6705 3.76123 72.8058 3.76123 71.8022C3.76123 70.7986 4.10279 69.8307 4.78988 69.0334C5.473 68.2361 6.41031 67.8354 7.59783 67.8354C8.41996 67.8354 9.26195 67.9266 10.1317 68.1091C10.9976 68.2916 12.1175 68.5891 13.4878 68.9977C16.0415 69.68 18.4523 70.2393 20.7082 70.6716C22.9681 71.104 25.6727 71.3658 28.8223 71.4571C26.5862 69.2238 24.5329 67.4586 22.6622 66.1575C20.7916 64.8564 18.6469 63.5711 16.2282 62.2938C14.7666 61.5203 13.6943 60.9055 13.0112 60.4493C12.3281 59.9931 11.6886 59.4695 11.0929 58.8785C10.3621 58.1486 9.99669 57.3513 9.99669 56.4865C9.99669 55.4393 10.3939 54.5031 11.1961 53.682C11.9944 52.8609 12.9437 52.4523 14.0359 52.4523C14.9017 52.4523 15.7715 52.8411 16.6373 53.6146C17.229 54.2096 17.801 54.9474 18.349 55.8359C18.8971 56.7245 19.4651 57.6726 20.0608 58.6722C21.3397 60.9967 22.6146 63.115 23.8935 65.0309C25.1723 66.9469 26.8801 69.0215 29.0288 71.2547C28.9374 68.0655 28.6753 65.3403 28.2424 63.0832C27.8095 60.8261 27.2495 58.3787 26.5664 55.7328C25.7879 53.1822 25.4027 51.2424 25.4027 49.9215C25.4027 48.7354 25.7879 47.8271 26.5664 47.1884C27.3408 46.5498 28.2305 46.2324 29.2353 46.2324C30.2401 46.2324 31.1854 46.5418 31.94 47.1567C32.6946 47.7715 33.0679 48.672 33.0679 49.858C33.0679 50.5403 32.9766 51.3059 32.7939 52.1469C32.6112 52.9918 32.4285 53.6979 32.2458 54.2651C32.0631 54.8363 31.9479 55.233 31.9042 55.4631C31.1258 58.0613 30.5102 60.5326 30.0574 62.8809C29.6007 65.2292 29.3942 68.0218 29.4418 71.2547C31.5865 68.9302 33.2983 66.8437 34.5772 64.9992C35.856 63.1546 37.1786 61.0245 38.5488 58.6048C39.0969 57.6012 39.6569 56.6571 40.2248 55.7685C40.7967 54.88 41.3528 54.162 41.9008 53.6146C42.6316 52.8847 43.5213 52.5197 44.5698 52.5197C45.527 52.5197 46.4166 52.9283 47.2387 53.7494C48.0609 54.5706 48.4699 55.4829 48.4699 56.4825C48.4699 57.3473 48.1045 58.1486 47.3738 58.8745C46.8257 59.4219 46.1624 59.9455 45.3879 60.4453C44.6135 60.9451 43.6086 61.5164 42.3774 62.155C40.0024 63.4323 37.8498 64.7294 35.9076 66.0504C33.9655 67.3713 31.8804 69.1722 29.6444 71.4531C32.7939 71.3619 35.4866 71.1119 37.7227 70.6994C39.9587 70.2908 42.4013 69.7196 45.0464 68.9897C47.6915 68.2162 49.6773 67.8275 51.0038 67.8275C52.1913 67.8275 53.1009 68.2162 53.7403 68.9897L53.7284 69.0016Z" fill="#E3D384"/>
<path d="M96.6385 69.0016C97.278 69.7791 97.5957 70.6677 97.5957 71.6673C97.5957 72.6669 97.2859 73.615 96.6703 74.3687C96.0547 75.1184 95.1531 75.4952 93.9656 75.4952C93.1435 75.4952 92.3214 75.3921 91.4992 75.1858C90.6771 74.9795 89.5809 74.6741 88.2147 74.2616C85.4306 73.488 82.9205 72.8811 80.6845 72.4487C78.4484 72.0164 75.712 71.7982 72.4711 71.7982C74.7985 73.9403 76.9194 75.6737 78.8377 76.9947C80.752 78.3156 82.8768 79.6405 85.2042 80.9614C86.209 81.5088 87.1543 82.0681 88.0439 82.6354C88.9336 83.2066 89.6524 83.762 90.2005 84.3094C90.9313 85.0392 91.2967 85.9278 91.2967 86.975C91.2967 87.931 90.8876 88.8196 90.0655 89.6407C89.2433 90.4618 88.3299 90.8704 87.329 90.8704C86.4592 90.8704 85.6609 90.5054 84.9341 89.7756C84.386 89.2281 83.8618 88.5697 83.3614 87.7922C82.8609 87.0187 82.289 86.0151 81.6496 84.7854C80.3707 82.4172 79.072 80.2633 77.7494 78.3235C76.4269 76.3877 74.6238 74.3012 72.3401 72.0679C72.2924 75.3048 72.4989 78.0617 72.9557 80.3426C73.4124 82.6235 74.028 85.0829 74.8025 87.7248C75.1202 88.7759 75.3943 89.7994 75.6246 90.803C75.851 91.8066 75.9662 92.6951 75.9662 93.4686C75.9662 94.6547 75.5889 95.5551 74.8382 96.17C74.0876 96.7848 73.1821 97.0942 72.1335 97.0942C71.085 97.0942 70.2391 96.7769 69.4646 96.1383C68.6862 95.4996 68.3009 94.5873 68.3009 93.4052C68.3009 92.0842 68.6862 90.1008 69.4646 87.455C70.1954 84.8132 70.7673 82.3736 71.1764 80.1403C71.5855 77.907 71.8357 75.2176 71.931 72.0719C69.6473 74.3052 67.8442 76.3917 66.5216 78.3275C65.1991 80.2672 63.8964 82.4172 62.6175 84.7894C61.9781 86.019 61.4062 87.0226 60.9057 87.7962C60.4053 88.5736 59.8771 89.2321 59.333 89.7795C58.6022 90.5094 57.8039 90.8744 56.9381 90.8744C55.8856 90.8744 54.9522 90.4737 54.1301 89.6764C53.308 88.8791 52.8989 87.9786 52.8989 86.975C52.8989 85.9714 53.2842 85.0829 54.0626 84.3094C54.6107 83.762 55.3295 83.2026 56.2192 82.6354C57.1088 82.0642 58.0541 81.5088 59.0589 80.9614C61.3863 79.6405 63.5071 78.3196 65.4254 76.9947C67.3437 75.6737 69.4646 73.9403 71.792 71.7982C68.5511 71.7982 65.7551 72.0164 63.4039 72.4487C61.0527 72.8811 58.6459 73.4841 56.1834 74.2616C54.7695 74.6701 53.6376 74.9795 52.7956 75.1858C51.9497 75.3921 51.1196 75.4952 50.2975 75.4952C49.1576 75.4952 48.264 75.1303 47.6285 74.4004C46.9891 73.6705 46.6714 72.8058 46.6714 71.8022C46.6714 70.7986 47.0129 69.8307 47.7 69.0334C48.3832 68.2361 49.3205 67.8354 50.508 67.8354C51.3301 67.8354 52.1721 67.9266 53.0419 68.1091C53.9077 68.2916 55.0277 68.5891 56.3979 68.9977C58.9517 69.68 61.3625 70.2393 63.6184 70.6716C65.8782 71.104 68.5829 71.3658 71.7324 71.4571C69.4964 69.2238 67.443 67.4586 65.5724 66.1575C63.7018 64.8564 61.5571 63.5711 59.1383 62.2938C57.6768 61.5203 56.6044 60.9055 55.9213 60.4493C55.2382 59.9931 54.5988 59.4695 54.003 58.8785C53.2722 58.1486 52.9068 57.3513 52.9068 56.4865C52.9068 55.4393 53.304 54.5031 54.1063 53.682C54.9046 52.8609 55.8538 52.4523 56.946 52.4523C57.8118 52.4523 58.6816 52.8411 59.5474 53.6146C60.1392 54.2096 60.7111 54.9474 61.2592 55.8359C61.8073 56.7245 62.3752 57.6726 62.971 58.6722C64.2498 60.9967 65.5247 63.115 66.8036 65.0309C68.0825 66.9469 69.7903 69.0215 71.9389 71.2547C71.8476 68.0655 71.5855 65.3403 71.1525 63.0832C70.7196 60.8261 70.1596 58.3787 69.4765 55.7328C68.6981 53.1822 68.3128 51.2424 68.3128 49.9215C68.3128 48.7354 68.6981 47.8271 69.4765 47.1884C70.251 46.5498 71.1406 46.2324 72.1455 46.2324C73.1503 46.2324 74.0955 46.5418 74.8501 47.1567C75.6047 47.7715 75.9781 48.672 75.9781 49.858C75.9781 50.5403 75.8867 51.3059 75.704 52.1469C75.5213 52.9918 75.3386 53.6979 75.1559 54.2651C74.9733 54.8363 74.8581 55.233 74.8144 55.4631C74.036 58.0613 73.4204 60.5326 72.9676 62.8809C72.5108 65.2292 72.3043 68.0218 72.352 71.2547C74.4967 68.9302 76.2084 66.8437 77.4873 64.9992C78.7662 63.1546 80.0887 61.0245 81.4589 58.6048C82.007 57.6012 82.567 56.6571 83.135 55.7685C83.7069 54.88 84.2629 54.162 84.811 53.6146C85.5418 52.8847 86.4314 52.5197 87.4799 52.5197C88.4371 52.5197 89.3267 52.9283 90.1489 53.7494C90.971 54.5706 91.3801 55.4829 91.3801 56.4825C91.3801 57.3473 91.0147 58.1486 90.2839 58.8745C89.7358 59.4219 89.0726 59.9455 88.2981 60.4453C87.5236 60.9451 86.5188 61.5164 85.2876 62.155C82.9126 63.4323 80.7599 64.7294 78.8178 66.0504C76.8757 67.3713 74.7906 69.1722 72.5545 71.4531C75.704 71.3619 78.3968 71.1119 80.6328 70.6994C82.8689 70.2908 85.3114 69.7196 87.9565 68.9897C90.6016 68.2162 92.5875 67.8275 93.914 67.8275C95.1015 67.8275 96.011 68.2162 96.6505 68.9897L96.6385 69.0016Z" fill="#E3D384"/>
<path d="M53.7284 26.8268C54.3678 27.6043 54.6855 28.4929 54.6855 29.4925C54.6855 30.4921 54.3757 31.4402 53.7601 32.1939C53.1445 32.9436 52.243 33.3204 51.0555 33.3204C50.2333 33.3204 49.4112 33.2173 48.5891 33.011C47.767 32.8047 46.6708 32.4993 45.3045 32.0868C42.5204 31.3132 40.0103 30.7063 37.7743 30.2739C35.5383 29.8416 32.8018 29.6234 29.561 29.6234C31.8884 31.7654 34.0092 33.4989 35.9275 34.8198C37.8418 36.1408 39.9667 37.4657 42.294 38.7866C43.2989 39.334 44.2441 39.8933 45.1338 40.4606C46.0234 41.0318 46.7423 41.5872 47.2904 42.1346C48.0211 42.8644 48.3865 43.753 48.3865 44.8002C48.3865 45.7562 47.9774 46.6448 47.1553 47.4659C46.3332 48.287 45.4197 48.6956 44.4189 48.6956C43.5491 48.6956 42.7508 48.3306 42.024 47.6008C41.4759 47.0533 40.9516 46.3949 40.4512 45.6174C39.9508 44.8439 39.3789 43.8403 38.7394 42.6106C37.4606 40.2424 36.1618 38.0885 34.8393 36.1487C33.5167 34.2129 31.7136 32.1264 29.4299 29.8931C29.3823 33.13 29.5888 35.8869 30.0455 38.1678C30.5023 40.4487 31.1179 42.9081 31.8923 45.5499C32.2101 46.6011 32.4841 47.6246 32.7145 48.6282C32.9408 49.6317 33.056 50.5203 33.056 51.2938C33.056 52.4799 32.6787 53.3803 31.9281 53.9952C31.1735 54.61 30.2719 54.9194 29.2234 54.9194C28.1749 54.9194 27.3289 54.6021 26.5544 53.9634C25.776 53.3248 25.3908 52.4124 25.3908 51.2303C25.3908 49.9094 25.776 47.926 26.5544 45.2802C27.2852 42.6383 27.8571 40.1988 28.2662 37.9655C28.6753 35.7322 28.9255 33.0427 29.0208 29.8971C26.7371 32.1304 24.934 34.2169 23.6115 36.1527C22.2889 38.0924 20.9862 40.2424 19.7073 42.6145C19.0679 43.8442 18.496 44.8478 17.9956 45.6213C17.4951 46.3988 16.9669 47.0573 16.4228 47.6047C15.692 48.3346 14.8937 48.6996 14.0279 48.6996C12.9754 48.6996 12.0421 48.2989 11.22 47.5016C10.3978 46.7043 9.98875 45.8038 9.98875 44.8002C9.98875 43.7966 10.374 42.9081 11.1524 42.1346C11.7005 41.5872 12.4194 41.0278 13.309 40.4606C14.1987 39.8894 15.1439 39.334 16.1488 38.7866C18.4761 37.4657 20.597 36.1447 22.5153 34.8198C24.4336 33.4989 26.5544 31.7654 28.8818 29.6234C25.641 29.6234 22.8449 29.8416 20.4937 30.2739C18.1425 30.7063 15.7357 31.3093 13.2733 32.0868C11.8594 32.4953 10.7275 32.8047 9.88549 33.011C9.03953 33.2173 8.20946 33.3204 7.38734 33.3204C6.24748 33.3204 5.35385 32.9555 4.71839 32.2256C4.07896 31.4957 3.76123 30.6309 3.76123 29.6274C3.76123 28.6238 4.10279 27.6559 4.78988 26.8586C5.473 26.0612 6.41031 25.6606 7.59783 25.6606C8.41996 25.6606 9.26195 25.7518 10.1317 25.9343C10.9976 26.1168 12.1175 26.4143 13.4878 26.8229C16.0415 27.5051 18.4523 28.0645 20.7082 28.4968C22.9681 28.9292 25.6727 29.191 28.8223 29.2823C26.5862 27.049 24.5329 25.2838 22.6622 23.9827C20.7916 22.6816 18.6469 21.3963 16.2282 20.119C14.7666 19.3455 13.6943 18.7307 13.0112 18.2745C12.3281 17.8183 11.6886 17.2947 11.0929 16.7036C10.3621 15.9738 9.99669 15.1764 9.99669 14.3117C9.99669 13.2645 10.3939 12.3283 11.1961 11.5072C11.9944 10.6861 12.9437 10.2775 14.0359 10.2775C14.9017 10.2775 15.7715 10.6662 16.6373 11.4398C17.229 12.0348 17.801 12.7726 18.349 13.6611C18.8971 14.5497 19.4651 15.4978 20.0608 16.4974C21.3397 18.8219 22.6146 20.9402 23.8935 22.8561C25.1723 24.772 26.8801 26.8467 29.0288 29.0799C28.9374 25.8907 28.6753 23.1655 28.2424 20.9084C27.8095 18.6513 27.2495 16.2038 26.5664 13.558C25.7879 11.0074 25.4027 9.06763 25.4027 7.7467C25.4027 6.56064 25.7879 5.65225 26.5664 5.0136C27.3408 4.37495 28.2305 4.05762 29.2353 4.05762C30.2401 4.05762 31.1854 4.36702 31.94 4.98187C32.6946 5.59672 33.0679 6.49718 33.0679 7.68324C33.0679 8.36552 32.9766 9.1311 32.7939 9.97205C32.6112 10.817 32.4285 11.5231 32.2458 12.0903C32.0631 12.6615 31.9479 13.0582 31.9042 13.2883C31.1258 15.8865 30.5102 18.3578 30.0574 20.7061C29.6007 23.0544 29.3942 25.847 29.4418 29.0799C31.5865 26.7554 33.2983 24.6689 34.5772 22.8244C35.856 20.9798 37.1786 18.8497 38.5488 16.4299C39.0969 15.4264 39.6569 14.4823 40.2248 13.5937C40.7967 12.7052 41.3528 11.9872 41.9008 11.4398C42.6316 10.7099 43.5213 10.3449 44.5698 10.3449C45.527 10.3449 46.4166 10.7535 47.2387 11.5746C48.0609 12.3957 48.4699 13.3081 48.4699 14.3077C48.4699 15.1725 48.1045 15.9738 47.3738 16.6997C46.8257 17.2471 46.1624 17.7707 45.3879 18.2705C44.6135 18.7703 43.6086 19.3415 42.3774 19.9802C40.0024 21.2575 37.8498 22.5546 35.9076 23.8756C33.9655 25.1965 31.8804 26.9974 29.6444 29.2783C32.7939 29.187 35.4866 28.9371 37.7227 28.5246C39.9587 28.116 42.4013 27.5448 45.0464 26.8149C47.6915 26.0414 49.6773 25.6527 51.0038 25.6527C52.1913 25.6527 53.1009 26.0414 53.7403 26.8149L53.7284 26.8268Z" fill="#E3D384"/>
<path d="M96.6385 26.8268C97.278 27.6043 97.5957 28.4929 97.5957 29.4925C97.5957 30.4921 97.2859 31.4402 96.6703 32.1939C96.0547 32.9436 95.1531 33.3204 93.9656 33.3204C93.1435 33.3204 92.3214 33.2173 91.4992 33.011C90.6771 32.8047 89.5809 32.4993 88.2147 32.0868C85.4306 31.3132 82.9205 30.7063 80.6845 30.2739C78.4484 29.8416 75.712 29.6234 72.4711 29.6234C74.7985 31.7654 76.9194 33.4989 78.8377 34.8198C80.752 36.1408 82.8768 37.4657 85.2042 38.7866C86.209 39.334 87.1543 39.8933 88.0439 40.4606C88.9336 41.0318 89.6524 41.5872 90.2005 42.1346C90.9313 42.8644 91.2967 43.753 91.2967 44.8002C91.2967 45.7562 90.8876 46.6448 90.0655 47.4659C89.2433 48.287 88.3299 48.6956 87.329 48.6956C86.4592 48.6956 85.6609 48.3306 84.9341 47.6008C84.386 47.0533 83.8618 46.3949 83.3614 45.6174C82.8609 44.8439 82.289 43.8403 81.6496 42.6106C80.3707 40.2424 79.072 38.0885 77.7494 36.1487C76.4269 34.2129 74.6238 32.1264 72.3401 29.8931C72.2924 33.13 72.4989 35.8869 72.9557 38.1678C73.4124 40.4487 74.028 42.9081 74.8025 45.5499C75.1202 46.6011 75.3943 47.6246 75.6246 48.6282C75.851 49.6317 75.9662 50.5203 75.9662 51.2938C75.9662 52.4799 75.5889 53.3803 74.8382 53.9952C74.0876 54.61 73.1821 54.9194 72.1335 54.9194C71.085 54.9194 70.2391 54.6021 69.4646 53.9634C68.6862 53.3248 68.3009 52.4124 68.3009 51.2303C68.3009 49.9094 68.6862 47.926 69.4646 45.2802C70.1954 42.6383 70.7673 40.1988 71.1764 37.9655C71.5855 35.7322 71.8357 33.0427 71.931 29.8971C69.6473 32.1304 67.8442 34.2169 66.5216 36.1527C65.1991 38.0924 63.8964 40.2424 62.6175 42.6145C61.9781 43.8442 61.4062 44.8478 60.9057 45.6213C60.4053 46.3988 59.8771 47.0573 59.333 47.6047C58.6022 48.3346 57.8039 48.6996 56.9381 48.6996C55.8856 48.6996 54.9522 48.2989 54.1301 47.5016C53.308 46.7043 52.8989 45.8038 52.8989 44.8002C52.8989 43.7966 53.2842 42.9081 54.0626 42.1346C54.6107 41.5872 55.3295 41.0278 56.2192 40.4606C57.1088 39.8894 58.0541 39.334 59.0589 38.7866C61.3863 37.4657 63.5071 36.1447 65.4254 34.8198C67.3437 33.4989 69.4646 31.7654 71.792 29.6234C68.5511 29.6234 65.7551 29.8416 63.4039 30.2739C61.0527 30.7063 58.6459 31.3093 56.1834 32.0868C54.7695 32.4953 53.6376 32.8047 52.7956 33.011C51.9497 33.2173 51.1196 33.3204 50.2975 33.3204C49.1576 33.3204 48.264 32.9555 47.6285 32.2256C46.9891 31.4957 46.6714 30.6309 46.6714 29.6274C46.6714 28.6238 47.0129 27.6559 47.7 26.8586C48.3832 26.0612 49.3205 25.6606 50.508 25.6606C51.3301 25.6606 52.1721 25.7518 53.0419 25.9343C53.9077 26.1168 55.0277 26.4143 56.3979 26.8229C58.9517 27.5051 61.3625 28.0645 63.6184 28.4968C65.8782 28.9292 68.5829 29.191 71.7324 29.2823C69.4964 27.049 67.443 25.2838 65.5724 23.9827C63.7018 22.6816 61.5571 21.3963 59.1383 20.119C57.6768 19.3455 56.6044 18.7307 55.9213 18.2745C55.2382 17.8183 54.5988 17.2947 54.003 16.7036C53.2722 15.9738 52.9068 15.1764 52.9068 14.3117C52.9068 13.2645 53.304 12.3283 54.1063 11.5072C54.9046 10.6861 55.8538 10.2775 56.946 10.2775C57.8118 10.2775 58.6816 10.6662 59.5474 11.4398C60.1392 12.0348 60.7111 12.7726 61.2592 13.6611C61.8073 14.5497 62.3752 15.4978 62.971 16.4974C64.2498 18.8219 65.5247 20.9402 66.8036 22.8561C68.0825 24.772 69.7903 26.8467 71.9389 29.0799C71.8476 25.8907 71.5855 23.1655 71.1525 20.9084C70.7196 18.6513 70.1596 16.2038 69.4765 13.558C68.6981 11.0074 68.3128 9.06763 68.3128 7.7467C68.3128 6.56064 68.6981 5.65225 69.4765 5.0136C70.251 4.37495 71.1406 4.05762 72.1455 4.05762C73.1503 4.05762 74.0955 4.36702 74.8501 4.98187C75.6047 5.59672 75.9781 6.49718 75.9781 7.68324C75.9781 8.36552 75.8867 9.1311 75.704 9.97205C75.5213 10.817 75.3386 11.5231 75.1559 12.0903C74.9733 12.6615 74.8581 13.0582 74.8144 13.2883C74.036 15.8865 73.4204 18.3578 72.9676 20.7061C72.5108 23.0544 72.3043 25.847 72.352 29.0799C74.4967 26.7554 76.2084 24.6689 77.4873 22.8244C78.7662 20.9798 80.0887 18.8497 81.4589 16.4299C82.007 15.4264 82.567 14.4823 83.135 13.5937C83.7069 12.7052 84.2629 11.9872 84.811 11.4398C85.5418 10.7099 86.4314 10.3449 87.4799 10.3449C88.4371 10.3449 89.3267 10.7535 90.1489 11.5746C90.971 12.3957 91.3801 13.3081 91.3801 14.3077C91.3801 15.1725 91.0147 15.9738 90.2839 16.6997C89.7358 17.2471 89.0726 17.7707 88.2981 18.2705C87.5236 18.7703 86.5188 19.3415 85.2876 19.9802C82.9126 21.2575 80.7599 22.5546 78.8178 23.8756C76.8757 25.1965 74.7906 26.9974 72.5545 29.2783C75.704 29.187 78.3968 28.9371 80.6328 28.5246C82.8689 28.116 85.3114 27.5448 87.9565 26.8149C90.6016 26.0414 92.5875 25.6527 93.914 25.6527C95.1015 25.6527 96.011 26.0414 96.6505 26.8149L96.6385 26.8268Z" fill="#E3D384"/>
</svg>
