<svg width="101" height="101" viewBox="0 0 101 101" fill="none" xmlns="http://www.w3.org/2000/svg">
<path d="M101.001 0V101H0V0H101.001ZM96 95.9999V4.99994H5V95.9999H96Z" fill="#E3D384"/>
<rect width="101" height="101" fill="#AC1F2C"/>
<path d="M19.9544 31.1698C15.2201 28.2507 11.3763 24.4262 8.42609 19.6904C5.47438 14.9576 4 10.0588 4 5.00148C9.05882 5.00148 13.9546 6.45956 18.6889 9.37868C23.4218 12.2978 27.2655 16.1238 30.2172 20.8581C33.1675 25.5924 34.6433 30.4897 34.6433 35.5485C29.5845 35.5485 24.6872 34.0889 19.9544 31.1713V31.1698ZM8.42758 51.5014C11.3778 46.7686 15.2201 42.9263 19.9559 39.9731C24.6887 37.0229 29.586 35.547 34.6448 35.547C34.6448 40.6058 33.169 45.5031 30.2187 50.236C27.267 54.9703 23.4247 58.8111 18.6904 61.7643C13.9561 64.7145 9.0603 66.1904 4.00148 66.1904C4.00148 61.1315 5.47586 56.2357 8.42758 51.5014ZM39.0709 20.8566C42.0211 16.1238 45.8634 12.2963 50.5992 9.37719C55.332 6.45808 60.2293 5 65.2881 5C65.2881 10.0588 63.8123 14.9561 60.862 19.6889C57.9103 24.4232 54.0681 28.2492 49.3338 31.1683C44.5994 34.0875 39.7036 35.5455 34.6448 35.5455C34.6448 30.4867 36.1192 25.5894 39.0709 20.8551V20.8566ZM50.5992 61.7643C45.8649 58.8125 42.0211 54.9718 39.0709 50.236C36.1192 45.5017 34.6448 40.6044 34.6448 35.547C39.7036 35.547 44.5994 37.0229 49.3338 39.9731C54.0666 42.9248 57.9103 46.7671 60.862 51.5014C63.8123 56.2357 65.2881 61.133 65.2881 66.1904C60.2293 66.1904 55.332 64.7145 50.5992 61.7643Z" fill="#E3D384"/>
<path d="M50.5994 61.8134C45.8651 58.8943 42.0213 55.0698 39.0711 50.334C36.1194 45.6012 34.645 40.7024 34.645 35.645C39.7038 35.645 44.5997 37.1031 49.334 40.0222C54.0668 42.9413 57.9105 46.7673 60.8623 51.5016C63.8125 56.2359 65.2884 61.1332 65.2884 66.1921C60.2295 66.1921 55.3322 64.7325 50.5994 61.8149V61.8134ZM39.0711 82.145C42.0213 77.4121 45.8636 73.5699 50.5994 70.6167C55.3322 67.6664 60.2295 66.1906 65.2884 66.1906C65.2884 71.2494 63.8125 76.1467 60.8623 80.8795C57.9105 85.6138 54.0683 89.4546 49.334 92.4078C44.5997 95.358 39.7038 96.8339 34.645 96.8339C34.645 91.7751 36.1194 86.8793 39.0711 82.145ZM69.7144 51.5001C72.6647 46.7673 76.507 42.9399 81.2427 40.0207C85.9756 37.1016 90.8729 35.6436 95.9317 35.6436C95.9317 40.7024 94.4558 45.5997 91.5056 50.3325C88.5539 55.0668 84.7116 58.8928 79.9773 61.8119C75.243 64.731 70.3472 66.1891 65.2884 66.1891C65.2884 61.1303 66.7627 56.233 69.7144 51.4987V51.5001ZM81.2427 92.4078C76.5084 89.4561 72.6647 85.6153 69.7144 80.8795C66.7627 76.1452 65.2884 71.2479 65.2884 66.1906C70.3472 66.1906 75.243 67.6664 79.9773 70.6167C84.7101 73.5684 88.5539 77.4107 91.5056 82.145C94.4558 86.8793 95.9317 91.7766 95.9317 96.8339C90.8729 96.8339 85.9756 95.358 81.2427 92.4078Z" fill="#E3D384"/>
</svg>
