<svg width="101" height="101" viewBox="0 0 101 101" fill="none" xmlns="http://www.w3.org/2000/svg">
<path d="M101 101H0V0H101V101ZM5 96H96V5H5V96Z" fill="#E3D384"/>
<path d="M83.0683 43.3494C85.066 45.5113 86.0669 48.0659 86.0669 51.0052C86.0669 53.9446 85.066 56.3009 83.0683 58.4112C81.0705 60.5215 78.2904 61.5727 74.7398 61.5727C72.7937 61.5727 70.919 61.172 69.1159 60.3668C67.3088 59.5655 65.1006 58.3279 62.4912 56.6658C59.9931 55.1148 57.9358 53.9486 56.3272 53.1711C54.7148 52.3936 53.0507 51.9216 51.327 51.755C53.8807 54.139 56.089 55.9716 57.9517 57.245C59.8104 58.5222 61.9908 59.8789 64.4929 61.3228C66.2683 62.3224 67.7139 63.1832 68.826 63.9012C69.9341 64.6231 71.1017 65.5395 72.325 66.6462C73.2107 67.4792 73.6595 68.4511 73.6595 69.5578C73.6595 70.6645 73.2544 71.6364 72.4521 72.4694C71.6459 73.3024 70.6887 73.7189 69.5766 73.7189C68.4646 73.7189 67.3843 73.2746 66.3278 72.3861C64.9934 71.1683 63.8853 69.9624 62.9956 68.7684C62.106 67.5784 61.1647 66.0948 60.1638 64.3177C58.8294 62.0447 57.5108 60.0058 56.2081 58.2009C54.9014 56.4 53.138 54.3611 50.9179 52.0842C51.0847 53.8613 51.5573 55.5511 52.3358 57.1577C53.1142 58.7682 54.2819 60.819 55.8348 63.3141C57.5029 65.9203 58.738 68.1258 59.5403 69.9267C60.3466 71.7316 60.7477 73.5999 60.7477 75.5436C60.7477 79.0939 59.6912 81.8666 57.5823 83.8619C55.4733 85.8572 52.999 86.8568 50.1712 86.8568C47.3434 86.8568 44.6745 85.8572 42.506 83.8619C40.3414 81.8666 39.2572 79.0899 39.2572 75.5436C39.2572 73.5999 39.6583 71.7316 40.4645 69.9267C41.2708 68.1258 42.506 65.9203 44.1701 63.3141C45.723 60.819 46.8906 58.7682 47.6691 57.1577C48.4475 55.5511 48.9202 53.8573 49.087 52.0842C46.8628 54.3571 45.0994 56.3961 43.7967 58.2009C42.4901 60.0058 41.1715 62.0408 39.841 64.3177C38.8401 66.0948 37.8949 67.5784 37.0092 68.7684C36.1196 69.9624 35.0115 71.1683 33.677 72.3861C32.6206 73.2707 31.5959 73.7189 30.595 73.7189C29.483 73.7189 28.498 73.3024 27.6362 72.4694C26.7743 71.6364 26.3454 70.6685 26.3454 69.5578C26.3454 68.4471 26.7902 67.4792 27.6799 66.6462C28.9031 65.5355 30.0668 64.6231 31.1789 63.9012C32.2909 63.1792 33.7326 62.3184 35.5119 61.3228C38.0101 59.8789 40.1905 58.5222 42.0532 57.245C43.9119 55.9716 46.1202 54.139 48.6779 51.755C46.9542 51.9216 45.2901 52.3936 43.6776 53.1711C42.0651 53.9486 40.0118 55.1148 37.5136 56.6658C34.9042 58.3318 32.696 59.5655 30.8889 60.3668C29.0858 61.172 27.2112 61.5727 25.2651 61.5727C21.7105 61.5727 18.9343 60.5215 16.9366 58.4112C14.9388 56.3048 13.938 53.8375 13.938 51.0052C13.938 48.173 14.9388 45.5152 16.9366 43.3494C18.9343 41.1875 21.7105 40.1046 25.2651 40.1046C27.2112 40.1046 29.0818 40.5052 30.8889 41.3105C32.692 42.1157 34.9003 43.3494 37.5136 45.0115C40.0118 46.5664 42.0691 47.7287 43.6776 48.5062C45.2861 49.2837 46.9542 49.7557 48.6779 49.9223C46.1241 47.5383 43.9159 45.7096 42.0532 44.4323C40.1905 43.159 38.014 41.7984 35.5119 40.3545C33.7326 39.3549 32.2909 38.498 31.1789 37.7761C30.0668 37.0541 28.9031 36.1418 27.6799 35.0311C26.7902 34.1981 26.3454 33.2302 26.3454 32.1195C26.3454 31.0088 26.7465 30.0409 27.5528 29.2079C28.359 28.3749 29.3162 27.9623 30.4282 27.9623C31.5403 27.9623 32.6206 28.4066 33.677 29.2912C35.0115 30.5129 36.1196 31.7188 37.0092 32.9089C37.8989 34.1029 38.8401 35.5864 39.841 37.3596C41.1755 39.6325 42.4901 41.6714 43.7967 43.4763C45.0994 45.2812 46.8628 47.3161 49.087 49.5931C48.9202 47.8199 48.4475 46.1261 47.6691 44.5196C46.8906 42.913 45.723 40.8583 44.1701 38.3632C42.502 35.757 41.2668 33.5515 40.4645 31.7466C39.6583 29.9457 39.2572 28.0734 39.2572 26.1297C39.2572 22.5794 40.3414 19.8067 42.506 17.8074C44.6705 15.8121 47.2243 14.8125 50.1712 14.8125C53.1182 14.8125 55.4733 15.8121 57.5823 17.8074C59.6912 19.8027 60.7477 22.5794 60.7477 26.1297C60.7477 28.0734 60.3466 29.9417 59.5403 31.7466C58.7341 33.5515 57.4989 35.753 55.8348 38.3632C54.2819 40.8583 53.1142 42.913 52.3358 44.5196C51.5573 46.1301 51.0847 47.8199 50.9179 49.5931C53.138 47.3201 54.9014 45.2812 56.2081 43.4763C57.5148 41.6754 58.8334 39.6365 60.1638 37.3596C61.1647 35.5864 62.106 34.1029 62.9956 32.9089C63.8853 31.7188 64.9934 30.509 66.3278 29.2912C67.3843 28.4066 68.409 27.9623 69.4098 27.9623C70.5179 27.9623 71.5029 28.3788 72.3687 29.2079C73.2305 30.0409 73.6595 31.0128 73.6595 32.1195C73.6595 33.2262 73.2147 34.1981 72.325 35.0311C71.1017 36.1418 69.9341 37.0581 68.826 37.7761C67.7139 38.498 66.2722 39.3588 64.4929 40.3545C61.9948 41.7984 59.8144 43.155 57.9517 44.4323C56.089 45.7096 53.8847 47.5383 51.327 49.9223C53.0467 49.7557 54.7148 49.2837 56.3272 48.5062C57.9397 47.7287 59.9931 46.5664 62.4912 45.0115C65.1006 43.3454 67.3088 42.1157 69.1159 41.3105C70.919 40.5092 72.7937 40.1046 74.7398 40.1046C78.2904 40.1046 81.0705 41.1875 83.0683 43.3494Z" fill="#E3D384"/>
<path d="M8.31442 8.74707C10.8801 11.4008 12.5879 14.717 13.4378 18.6957C14.2878 22.6744 14.2083 26.6253 13.2035 30.5563C12.1947 34.4834 10.3638 37.7282 7.70676 40.2908C5.14108 37.637 3.43327 34.3208 2.58334 30.3421C1.73341 26.3635 1.81285 22.4126 2.81767 18.4815C3.8225 14.5544 5.65739 11.3096 8.31442 8.74707Z" fill="#E3D384"/>
<path d="M8.31445 8.74693C10.9715 6.1844 14.2838 4.47076 18.2515 3.606C22.2191 2.74125 26.1749 2.80075 30.1267 3.79244C34.0745 4.78016 37.3352 6.60487 39.9009 9.25864C37.2438 11.8212 33.9315 13.5348 29.9678 14.3996C26.0001 15.2643 22.0404 15.2048 18.0926 14.2131C14.1408 13.2254 10.8841 11.4007 8.31842 8.74693H8.31445Z" fill="#E3D384"/>
<path d="M91.7466 9.73041C89.1213 12.3247 85.8249 14.074 81.8532 14.9745C77.8816 15.8749 73.9219 15.8472 69.978 14.8912C66.0302 13.9352 62.7616 12.1462 60.1602 9.52811C62.7854 6.93384 66.0819 5.1845 70.0535 4.28405C74.0251 3.38359 77.9849 3.41136 81.9287 4.36735C85.8725 5.32333 89.1452 7.10838 91.7466 9.73041Z" fill="#E3D384"/>
<path d="M91.7468 9.73047C94.3443 12.3525 96.1037 15.637 97.0211 19.5879C97.9386 23.5388 97.9306 27.4897 96.9894 31.4485C96.052 35.4073 94.2688 38.6839 91.6435 41.2781C89.0461 38.6561 87.2867 35.3716 86.3692 31.4207C85.4518 27.4698 85.4597 23.515 86.401 19.5601C87.3383 15.6013 89.1216 12.3247 91.7468 9.73047Z" fill="#E3D384"/>
<path d="M91.9729 93.1638C89.4072 90.5101 87.6994 87.1938 86.8495 83.2152C85.9995 79.2365 86.079 75.2856 87.0838 71.3546C88.0926 67.4275 89.9235 64.1826 92.5805 61.6201C95.1462 64.2739 96.854 67.5901 97.7039 71.5688C98.5539 75.5474 98.4744 79.4983 97.4696 83.4294C96.4648 87.3565 94.6299 90.6013 91.9729 93.1638Z" fill="#E3D384"/>
<path d="M91.9726 93.1639C89.3156 95.7264 86.0033 97.4401 82.0356 98.3048C78.068 99.1696 74.1122 99.1101 70.1604 98.1184C66.2126 97.1307 62.9519 95.306 60.3862 92.6522C63.0433 90.0897 66.3556 88.376 70.3193 87.5113C74.287 86.6465 78.2467 86.706 82.1945 87.6977C86.1463 88.6854 89.403 90.5102 91.9687 93.1639H91.9726Z" fill="#E3D384"/>
<path d="M8.54102 92.7625C11.1663 90.1682 14.4627 88.4189 18.4344 87.5184C22.406 86.618 26.3657 86.6457 30.3096 87.6017C34.2574 88.5577 37.526 90.3467 40.1274 92.9648C37.5022 95.5591 34.2057 97.3084 30.2341 98.2088C26.2625 99.1093 22.3027 99.0815 18.3589 98.1255C14.4151 97.1695 11.1424 95.3845 8.54102 92.7625Z" fill="#E3D384"/>
<path d="M8.54051 92.7625C5.94306 90.1405 4.18362 86.856 3.26618 82.9051C2.34873 78.9542 2.35667 75.0033 3.29795 71.0445C4.23526 67.0857 6.01852 63.8091 8.64377 61.2148C11.2412 63.8369 13.0007 67.1214 13.9181 71.0722C14.8356 75.0231 14.8276 78.978 13.8863 82.9329C12.949 86.8917 11.1658 90.1682 8.54051 92.7625Z" fill="#E3D384"/>
</svg>
