<svg width="101" height="101" viewBox="0 0 101 101" fill="none" xmlns="http://www.w3.org/2000/svg">
<path d="M101.004 100.904L0 101L0.100098 0H101.004V100.904ZM5 96H96V5H5V96Z" fill="#E3D384"/>
<rect width="101" height="101" fill="#AC1F2C"/>
<path d="M20.2352 50.4678H18.4814V98.3901H20.2352V50.4678Z" fill="#E3D384"/>
<path d="M11.8227 49.2368C9.34842 47.6968 7.34522 45.6896 5.80125 43.2153C4.26125 40.745 3.48926 38.1875 3.48926 35.543C6.12984 35.543 8.68728 36.315 11.1616 37.855C13.6319 39.395 15.6391 41.4021 17.1831 43.8764C18.7231 46.3507 19.4951 48.9042 19.4951 51.5488C16.8545 51.5488 14.297 50.7768 11.8227 49.2368Z" fill="#E3D384"/>
<path d="M21.7793 43.8764C23.3035 41.4061 25.3028 39.3989 27.7731 37.855C30.2434 36.315 32.8009 35.543 35.4454 35.543C35.4454 38.1835 34.6853 40.741 33.1612 43.2153C31.637 45.6896 29.6377 47.6928 27.1674 49.2368C24.697 50.7768 22.1396 51.5488 19.499 51.5488C19.499 48.9082 20.2591 46.3507 21.7833 43.8764H21.7793Z" fill="#E3D384"/>
<path d="M11.8227 64.7553C9.34842 63.2153 7.34522 61.2082 5.80125 58.7339C4.26125 56.2635 3.48926 53.7061 3.48926 51.0615C6.12984 51.0615 8.68728 51.8335 11.1616 53.3735C13.6319 54.9135 15.6391 56.9207 17.1831 59.395C18.7231 61.8693 19.4951 64.4228 19.4951 67.0673C16.8545 67.0673 14.297 66.2953 11.8227 64.7553Z" fill="#E3D384"/>
<path d="M21.7793 59.3989C23.3035 56.9286 25.3028 54.9214 27.7731 53.3774C30.2434 51.8374 32.8009 51.0654 35.4454 51.0654C35.4454 53.706 34.6853 56.2635 33.1612 58.7378C31.637 61.2121 29.6377 63.2153 27.1674 64.7592C24.697 66.2992 22.1396 67.0712 19.499 67.0712C19.499 64.4307 20.2591 61.8732 21.7833 59.3989H21.7793Z" fill="#E3D384"/>
<path d="M11.8227 81.9575C9.34842 80.4175 7.34522 78.4103 5.80125 75.936C4.26125 73.4657 3.48926 70.9082 3.48926 68.2637C6.12984 68.2637 8.68728 69.0357 11.1616 70.5757C13.6319 72.1157 15.6391 74.1228 17.1831 76.5971C18.7231 79.0714 19.4951 81.6249 19.4951 84.2695C16.8545 84.2695 14.297 83.4975 11.8227 81.9575Z" fill="#E3D384"/>
<path d="M21.7793 76.5971C23.3035 74.1268 25.3028 72.1196 27.7731 70.5757C30.2434 69.0357 32.8009 68.2637 35.4454 68.2637C35.4454 70.9043 34.6853 73.4617 33.1612 75.936C31.637 78.4103 29.6377 80.4135 27.1674 81.9575C24.697 83.4975 22.1396 84.2695 19.499 84.2695C19.499 81.6289 20.2591 79.0714 21.7833 76.5971H21.7793Z" fill="#E3D384"/>
<path d="M50.8612 50.4678H49.1074V98.3901H50.8612V50.4678Z" fill="#E3D384"/>
<path d="M42.4487 49.2368C39.9744 47.6968 37.9712 45.6896 36.4272 43.2153C34.8872 40.745 34.1152 38.1875 34.1152 35.543C36.7558 35.543 39.3133 36.315 41.7876 37.855C44.2579 39.395 46.2651 41.4021 47.809 43.8764C49.349 46.3507 50.121 48.9042 50.121 51.5488C47.4804 51.5488 44.923 50.7768 42.4487 49.2368Z" fill="#E3D384"/>
<path d="M52.4048 43.8764C53.929 41.4061 55.9282 39.3989 58.3986 37.855C60.8689 36.315 63.4264 35.543 66.0709 35.543C66.0709 38.1835 65.3108 40.741 63.7866 43.2153C62.2625 45.6896 60.2632 47.6928 57.7929 49.2368C55.3225 50.7768 52.7651 51.5488 50.1245 51.5488C50.1245 48.9082 50.8846 46.3507 52.4088 43.8764H52.4048Z" fill="#E3D384"/>
<path d="M42.4487 64.7553C39.9744 63.2153 37.9712 61.2082 36.4272 58.7339C34.8872 56.2635 34.1152 53.7061 34.1152 51.0615C36.7558 51.0615 39.3133 51.8335 41.7876 53.3735C44.2579 54.9135 46.2651 56.9207 47.809 59.395C49.349 61.8693 50.121 64.4228 50.121 67.0673C47.4804 67.0673 44.923 66.2953 42.4487 64.7553Z" fill="#E3D384"/>
<path d="M52.4048 59.3989C53.929 56.9286 55.9282 54.9214 58.3986 53.3774C60.8689 51.8374 63.4264 51.0654 66.0709 51.0654C66.0709 53.706 65.3108 56.2635 63.7866 58.7378C62.2625 61.2121 60.2632 63.2153 57.7929 64.7592C55.3225 66.2992 52.7651 67.0712 50.1245 67.0712C50.1245 64.4307 50.8846 61.8732 52.4088 59.3989H52.4048Z" fill="#E3D384"/>
<path d="M42.4487 81.9565C39.9744 80.4165 37.9712 78.4093 36.4272 75.935C34.8872 73.4647 34.1152 70.9072 34.1152 68.2627C36.7558 68.2627 39.3133 69.0347 41.7876 70.5747C44.2579 72.1147 46.2651 74.1219 47.809 76.5962C49.349 79.0705 50.121 81.624 50.121 84.2685C47.4804 84.2685 44.923 83.4965 42.4487 81.9565Z" fill="#E3D384"/>
<path d="M52.4048 76.5971C53.929 74.1268 55.9282 72.1196 58.3986 70.5757C60.8689 69.0357 63.4264 68.2637 66.0709 68.2637C66.0709 70.9043 65.3108 73.4617 63.7866 75.936C62.2625 78.4103 60.2632 80.4135 57.7929 81.9575C55.3225 83.4975 52.7651 84.2695 50.1245 84.2695C50.1245 81.6289 50.8846 79.0714 52.4088 76.5971H52.4048Z" fill="#E3D384"/>
<path d="M81.9188 50.333H80.165V98.2554H81.9188V50.333Z" fill="#E3D384"/>
<path d="M73.5063 49.102C71.032 47.562 69.0288 45.5548 67.4848 43.0805C65.9448 40.6102 65.1729 38.0527 65.1729 35.4082C67.8134 35.4082 70.3709 36.1802 72.8452 37.7202C75.3155 39.2602 77.3227 41.2674 78.8667 43.7417C80.4067 46.216 81.1787 48.7695 81.1787 51.414C78.5381 51.414 75.9806 50.642 73.5063 49.102Z" fill="#E3D384"/>
<path d="M83.4629 43.7417C84.9871 41.2713 86.9863 39.2642 89.4567 37.7202C91.927 36.1802 94.4845 35.4082 97.129 35.4082C97.129 38.0488 96.3689 40.6062 94.8447 43.0805C93.3206 45.5548 91.3213 47.558 88.851 49.102C86.3806 50.642 83.8232 51.414 81.1826 51.414C81.1826 48.7734 81.9427 46.216 83.4669 43.7417H83.4629Z" fill="#E3D384"/>
<path d="M73.5063 64.6245C71.032 63.0845 69.0288 61.0773 67.4848 58.603C65.9448 56.1326 65.1729 53.5752 65.1729 50.9307C67.8134 50.9307 70.3709 51.7026 72.8452 53.2427C75.3155 54.7827 77.3227 56.7898 78.8667 59.2641C80.4067 61.7384 81.1787 64.2919 81.1787 66.9365C78.5381 66.9365 75.9806 66.1645 73.5063 64.6245Z" fill="#E3D384"/>
<path d="M83.4629 59.2641C84.9871 56.7938 86.9863 54.7866 89.4567 53.2427C91.927 51.7026 94.4845 50.9307 97.129 50.9307C97.129 53.5712 96.3689 56.1287 94.8447 58.603C93.3206 61.0773 91.3213 63.0805 88.851 64.6245C86.3806 66.1645 83.8232 66.9365 81.1826 66.9365C81.1826 64.2959 81.9427 61.7384 83.4669 59.2641H83.4629Z" fill="#E3D384"/>
<path d="M73.5063 81.8217C71.032 80.2817 69.0288 78.2746 67.4848 75.8003C65.9448 73.3299 65.1729 70.7725 65.1729 68.1279C67.8134 68.1279 70.3709 68.8999 72.8452 70.4399C75.3155 71.9799 77.3227 73.9871 78.8667 76.4614C80.4067 78.9357 81.1787 81.4892 81.1787 84.1337C78.5381 84.1337 75.9806 83.3617 73.5063 81.8217Z" fill="#E3D384"/>
<path d="M83.4629 76.4614C84.9871 73.9911 86.9863 71.9839 89.4567 70.4399C91.927 68.8999 94.4845 68.1279 97.129 68.1279C97.129 70.7685 96.3689 73.326 94.8447 75.8003C93.3206 78.2746 91.3213 80.2778 88.851 81.8217C86.3806 83.3617 83.8232 84.1337 81.1826 84.1337C81.1826 81.4931 81.9427 78.9357 83.4669 76.4614H83.4629Z" fill="#E3D384"/>
<path d="M20.2352 17.7275H18.4814V65.6499H20.2352V17.7275Z" fill="#E3D384"/>
<path d="M11.8227 16.4965C9.34842 14.9565 7.34522 12.9494 5.80125 10.4751C4.26125 8.00472 3.48926 5.44727 3.48926 2.80273C6.12984 2.80273 8.68728 3.57472 11.1616 5.11472C13.6319 6.65473 15.6391 8.66189 17.1831 11.1362C18.7231 13.6105 19.4951 16.164 19.4951 18.8085C16.8545 18.8085 14.297 18.0365 11.8227 16.4965Z" fill="#E3D384"/>
<path d="M21.7793 11.1362C23.3035 8.66585 25.3028 6.65869 27.7731 5.11472C30.2434 3.57472 32.8009 2.80273 35.4454 2.80273C35.4454 5.44331 34.6853 8.00076 33.1612 10.4751C31.637 12.9494 29.6377 14.9526 27.1674 16.4965C24.697 18.0365 22.1396 18.8085 19.499 18.8085C19.499 16.1679 20.2591 13.6105 21.7833 11.1362H21.7793Z" fill="#E3D384"/>
<path d="M11.8227 32.019C9.34842 30.479 7.34522 28.4718 5.80125 25.9975C4.26125 23.5272 3.48926 20.9697 3.48926 18.3252C6.12984 18.3252 8.68728 19.0972 11.1616 20.6372C13.6319 22.1772 15.6391 24.1843 17.1831 26.6587C18.7231 29.133 19.4951 31.6864 19.4951 34.331C16.8545 34.331 14.297 33.559 11.8227 32.019Z" fill="#E3D384"/>
<path d="M21.7793 26.6587C23.3035 24.1883 25.3028 22.1812 27.7731 20.6372C30.2434 19.0972 32.8009 18.3252 35.4454 18.3252C35.4454 20.9658 34.6853 23.5232 33.1612 25.9975C31.637 28.4718 29.6377 30.475 27.1674 32.019C24.697 33.559 22.1396 34.331 19.499 34.331C19.499 31.6904 20.2591 29.133 21.7833 26.6587H21.7793Z" fill="#E3D384"/>
<path d="M11.8227 49.2211C9.34842 47.6811 7.34522 45.674 5.80125 43.1997C4.26125 40.7293 3.48926 38.1719 3.48926 35.5273C6.12984 35.5273 8.68728 36.2993 11.1616 37.8393C13.6319 39.3793 15.6391 41.3865 17.1831 43.8608C18.7231 46.3351 19.4951 48.8886 19.4951 51.5331C16.8545 51.5331 14.297 50.7612 11.8227 49.2211Z" fill="#E3D384"/>
<path d="M21.7793 43.8608C23.3035 41.3905 25.3028 39.3833 27.7731 37.8393C30.2434 36.2993 32.8009 35.5273 35.4454 35.5273C35.4454 38.1679 34.6853 40.7254 33.1612 43.1997C31.637 45.674 29.6377 47.6772 27.1674 49.2211C24.697 50.7612 22.1396 51.5331 19.499 51.5331C19.499 48.8926 20.2591 46.3351 21.7833 43.8608H21.7793Z" fill="#E3D384"/>
<path d="M50.8612 17.7275H49.1074V65.6499H50.8612V17.7275Z" fill="#E3D384"/>
<path d="M42.4487 16.4965C39.9744 14.9565 37.9712 12.9494 36.4272 10.4751C34.8872 8.00472 34.1152 5.44727 34.1152 2.80273C36.7558 2.80273 39.3133 3.57472 41.7876 5.11472C44.2579 6.65473 46.2651 8.66189 47.809 11.1362C49.349 13.6105 50.121 16.164 50.121 18.8085C47.4804 18.8085 44.923 18.0365 42.4487 16.4965Z" fill="#E3D384"/>
<path d="M52.4048 11.1362C53.929 8.66585 55.9282 6.65869 58.3986 5.11472C60.8689 3.57472 63.4264 2.80273 66.0709 2.80273C66.0709 5.44331 65.3108 8.00076 63.7866 10.4751C62.2625 12.9494 60.2632 14.9526 57.7929 16.4965C55.3225 18.0365 52.7651 18.8085 50.1245 18.8085C50.1245 16.1679 50.8846 13.6105 52.4088 11.1362H52.4048Z" fill="#E3D384"/>
<path d="M42.4487 32.019C39.9744 30.479 37.9712 28.4718 36.4272 25.9975C34.8872 23.5272 34.1152 20.9697 34.1152 18.3252C36.7558 18.3252 39.3133 19.0972 41.7876 20.6372C44.2579 22.1772 46.2651 24.1843 47.809 26.6587C49.349 29.133 50.121 31.6864 50.121 34.331C47.4804 34.331 44.923 33.559 42.4487 32.019Z" fill="#E3D384"/>
<path d="M52.4048 26.6587C53.929 24.1883 55.9282 22.1812 58.3986 20.6372C60.8689 19.0972 63.4264 18.3252 66.0709 18.3252C66.0709 20.9658 65.3108 23.5232 63.7866 25.9975C62.2625 28.4718 60.2632 30.475 57.7929 32.019C55.3225 33.559 52.7651 34.331 50.1245 34.331C50.1245 31.6904 50.8846 29.133 52.4088 26.6587H52.4048Z" fill="#E3D384"/>
<path d="M42.4487 49.2211C39.9744 47.6811 37.9712 45.674 36.4272 43.1997C34.8872 40.7293 34.1152 38.1719 34.1152 35.5273C36.7558 35.5273 39.3133 36.2993 41.7876 37.8393C44.2579 39.3793 46.2651 41.3865 47.809 43.8608C49.349 46.3351 50.121 48.8886 50.121 51.5331C47.4804 51.5331 44.923 50.7612 42.4487 49.2211Z" fill="#E3D384"/>
<path d="M52.4048 43.8608C53.929 41.3905 55.9282 39.3833 58.3986 37.8393C60.8689 36.2993 63.4264 35.5273 66.0709 35.5273C66.0709 38.1679 65.3108 40.7254 63.7866 43.1997C62.2625 45.674 60.2632 47.6772 57.7929 49.2211C55.3225 50.7612 52.7651 51.5331 50.1245 51.5331C50.1245 48.8926 50.8846 46.3351 52.4088 43.8608H52.4048Z" fill="#E3D384"/>
<path d="M81.9188 17.5928H80.165V65.5151H81.9188V17.5928Z" fill="#E3D384"/>
<path d="M73.5063 16.3618C71.032 14.8218 69.0288 12.8146 67.4848 10.3403C65.9448 7.86995 65.1729 5.31251 65.1729 2.66797C67.8134 2.66797 70.3709 3.43995 72.8452 4.97996C75.3155 6.51997 77.3227 8.52713 78.8667 11.0014C80.4067 13.4757 81.1787 16.0292 81.1787 18.6738C78.5381 18.6738 75.9806 17.9018 73.5063 16.3618Z" fill="#E3D384"/>
<path d="M83.4629 11.0014C84.9871 8.53109 86.9863 6.52393 89.4567 4.97996C91.927 3.43995 94.4845 2.66797 97.129 2.66797C97.129 5.30855 96.3689 7.86599 94.8447 10.3403C93.3206 12.8146 91.3213 14.8178 88.851 16.3618C86.3806 17.9018 83.8232 18.6738 81.1826 18.6738C81.1826 16.0332 81.9427 13.4757 83.4669 11.0014H83.4629Z" fill="#E3D384"/>
<path d="M73.5063 31.8842C71.032 30.3442 69.0288 28.3371 67.4848 25.8628C65.9448 23.3924 65.1729 20.835 65.1729 18.1904C67.8134 18.1904 70.3709 18.9624 72.8452 20.5024C75.3155 22.0424 77.3227 24.0496 78.8667 26.5239C80.4067 28.9982 81.1787 31.5517 81.1787 34.1962C78.5381 34.1962 75.9806 33.4242 73.5063 31.8842Z" fill="#E3D384"/>
<path d="M83.4629 26.5239C84.9871 24.0535 86.9863 22.0464 89.4567 20.5024C91.927 18.9624 94.4845 18.1904 97.129 18.1904C97.129 20.831 96.3689 23.3885 94.8447 25.8628C93.3206 28.3371 91.3213 30.3403 88.851 31.8842C86.3806 33.4242 83.8232 34.1962 81.1826 34.1962C81.1826 31.5556 81.9427 28.9982 83.4669 26.5239H83.4629Z" fill="#E3D384"/>
<path d="M73.5063 49.0864C71.032 47.5464 69.0288 45.5392 67.4848 43.0649C65.9448 40.5946 65.1729 38.0371 65.1729 35.3926C67.8134 35.3926 70.3709 36.1646 72.8452 37.7046C75.3155 39.2446 77.3227 41.2517 78.8667 43.726C80.4067 46.2004 81.1787 48.7538 81.1787 51.3984C78.5381 51.3984 75.9806 50.6264 73.5063 49.0864Z" fill="#E3D384"/>
<path d="M83.4629 43.726C84.9871 41.2557 86.9863 39.2485 89.4567 37.7046C91.927 36.1646 94.4845 35.3926 97.129 35.3926C97.129 38.0332 96.3689 40.5906 94.8447 43.0649C93.3206 45.5392 91.3213 47.5424 88.851 49.0864C86.3806 50.6264 83.8232 51.3984 81.1826 51.3984C81.1826 48.7578 81.9427 46.2004 83.4669 43.726H83.4629Z" fill="#E3D384"/>
</svg>
