<svg width="101" height="101" viewBox="0 0 101 101" fill="none" xmlns="http://www.w3.org/2000/svg">
<path d="M24.2993 85.3228C20.3203 82.8841 17.1114 79.6495 14.6727 75.6449C12.234 71.6402 11.0017 67.5072 11.0017 63.2714C15.2375 63.2714 19.3705 64.5036 23.3238 66.9937C27.3028 69.4838 30.5117 72.6927 32.9505 76.6717C35.3892 80.6507 36.6214 84.7581 36.6214 88.9938C32.3857 88.9938 28.2527 87.7616 24.2993 85.3228ZM40.3437 76.646C42.8081 72.667 46.0427 69.4582 50.0217 66.9681C54.0007 64.5036 58.1081 63.2458 62.3438 63.2458C62.3438 67.4815 61.1116 71.6145 58.6215 75.5679C56.1314 79.5469 52.9225 82.7814 48.9435 85.2458C44.9645 87.7102 40.8571 88.9681 36.6214 88.9681C36.6214 84.7324 37.8536 80.5994 40.3437 76.646ZM75.667 85.2715C71.688 82.8071 68.4792 79.5725 66.0404 75.5935C63.6017 71.6145 62.3694 67.5072 62.3694 63.2714C66.6052 63.2714 70.7382 64.5036 74.6915 66.9424C78.6705 69.3811 81.8794 72.6157 84.3182 76.6204C86.7569 80.625 87.9891 84.7581 87.9891 88.9938C83.7534 88.9938 79.6204 87.7616 75.667 85.2715ZM87.9891 37.8571C83.7534 37.8571 79.6204 36.6249 75.667 34.1348C71.688 31.6704 68.4792 28.4359 66.0404 24.4569C63.6017 20.4778 62.3694 16.3705 62.3694 12.1348C66.6052 12.1348 70.7382 13.367 74.6915 15.8057C78.6705 18.2445 81.8794 21.479 84.3182 25.4837C86.7569 29.4884 87.9891 33.6214 87.9891 37.8571ZM62.3438 63.5795C62.3438 59.3438 63.576 55.2107 66.0147 51.2574C68.4535 47.2784 71.688 44.0695 75.6414 41.5794C79.6204 39.0893 83.7277 37.8571 87.9635 37.8571C87.9635 42.0928 86.7312 46.2259 84.2925 50.2306C81.8538 54.2352 78.6192 57.4698 74.6659 59.9085C70.6869 62.3473 66.5795 63.5795 62.3438 63.5795ZM36.6214 37.8571C36.6214 33.6214 37.8536 29.4884 40.3437 25.535C42.8338 21.556 46.0427 18.3472 50.0217 15.8571C54.0007 13.3926 58.1081 12.1348 62.3438 12.1348C62.3438 16.3705 61.1116 20.5035 58.6215 24.4569C56.1571 28.4359 52.9225 31.6704 48.9435 34.1348C44.9645 36.6249 40.8571 37.8571 36.6214 37.8571ZM62.3438 63.5795C58.1081 63.5795 53.975 62.3473 50.0217 59.8572C46.0427 57.3928 42.8338 54.1582 40.3437 50.1792C37.8793 46.2002 36.6214 42.0928 36.6214 37.8571C40.8571 37.8571 44.9902 39.0893 48.9435 41.5794C52.9225 44.0695 56.1571 47.2784 58.6215 51.2574C61.1116 55.2364 62.3438 59.3438 62.3438 63.5795ZM36.6214 37.8571C32.3857 37.8571 28.2527 36.6249 24.2993 34.1862C20.3203 31.7474 17.1114 28.5129 14.6727 24.5082C12.2083 20.5035 10.9761 16.3705 10.9761 12.1348C15.2118 12.1348 19.3448 13.367 23.2982 15.8571C27.2772 18.3472 30.486 21.556 32.9248 25.535C35.3635 29.514 36.5958 33.6214 36.5958 37.8571M10.9761 63.5795C10.9761 59.3438 12.2083 55.2107 14.647 51.2061C17.0858 47.2014 20.3203 43.9668 24.2737 41.5281C28.2527 39.0893 32.36 37.8571 36.5958 37.8571C36.5958 42.0928 35.3635 46.2259 32.9248 50.1792C30.486 54.1582 27.2515 57.3928 23.2982 59.8572C19.3192 62.3473 15.2118 63.5795 10.9761 63.5795Z" fill="#E3D384"/>
<path d="M101 101H0V0H101V101ZM5 96H96V5H5V96Z" fill="#E3D384"/>
</svg>
