<svg width="101" height="101" viewBox="0 0 101 101" fill="none" xmlns="http://www.w3.org/2000/svg">
<path d="M101 101H0V0H101V101ZM5 96H96V5H5V96Z" fill="#E3D384"/>
<path d="M7.85977 15.8713C9.98856 12.3964 12.7846 9.59189 16.2399 7.46571C19.6952 5.33952 23.2697 4.27246 26.9633 4.27246C26.9633 7.96155 25.8989 11.5316 23.7662 14.9827C21.6374 18.4338 18.8413 21.2383 15.386 23.3883C11.9307 25.5422 8.35622 26.6172 4.6626 26.6172C4.6626 22.9281 5.727 19.3462 7.85977 15.8713Z" fill="#E3D384"/>
<path d="M16.2399 45.7687C12.7846 43.6425 9.99253 40.838 7.85977 37.3631C5.73097 33.8883 4.6626 30.3063 4.6626 26.6172C8.35622 26.6172 11.9307 27.6922 15.386 29.8461C18.8413 32.0001 21.6374 34.8006 23.7662 38.2517C25.895 41.7028 26.9633 45.2729 26.9633 48.962C23.2697 48.962 19.6952 47.8989 16.2399 45.7687Z" fill="#E3D384"/>
<path d="M38.6122 23.3883C35.1569 21.2383 32.3489 18.4338 30.1963 14.9827C28.0397 11.5316 26.9634 7.96155 26.9634 4.27246C30.657 4.27246 34.2315 5.34745 37.6868 7.5014C41.1421 9.65536 43.9461 12.4559 46.1027 15.907C48.2553 19.3581 49.3356 22.9281 49.3356 26.6172C45.642 26.6172 42.0675 25.5422 38.6122 23.3883Z" fill="#E3D384"/>
<path d="M30.1963 38.2478C32.3489 34.7967 35.1569 31.9962 38.6122 29.8422C42.0675 27.6922 45.642 26.6133 49.3356 26.6133C49.3356 30.3024 48.2593 33.8725 46.1027 37.3235C43.9461 40.7746 41.1421 43.5791 37.6868 45.7291C34.2315 47.8791 30.657 48.9581 26.9634 48.9581C26.9634 45.269 28.0397 41.6989 30.1963 38.2478Z" fill="#E3D384"/>
<path d="M54.7812 15.8713C56.91 12.3964 59.706 9.59189 63.1613 7.46571C66.6166 5.33952 70.1911 4.27246 73.8847 4.27246C73.8847 7.96155 72.8203 11.5316 70.6876 14.9827C68.5588 18.4338 65.7627 21.2383 62.3074 23.3883C58.8521 25.5422 55.2776 26.6172 51.584 26.6172C51.584 22.9281 52.6484 19.3462 54.7812 15.8713Z" fill="#E3D384"/>
<path d="M63.1613 45.7687C59.706 43.6425 56.9139 40.838 54.7812 37.3631C52.6524 33.8883 51.584 30.3063 51.584 26.6172C55.2776 26.6172 58.8521 27.6922 62.3074 29.8461C65.7627 32.0001 68.5588 34.8006 70.6876 38.2517C72.8164 41.7028 73.8847 45.2729 73.8847 48.962C70.1911 48.962 66.6166 47.8989 63.1613 45.7687Z" fill="#E3D384"/>
<path d="M85.5292 23.3883C82.0739 21.2383 79.2659 18.4338 77.1133 14.9827C74.9567 11.5316 73.8804 7.96155 73.8804 4.27246C77.574 4.27246 81.1485 5.34745 84.6038 7.5014C88.0591 9.65536 90.8631 12.4559 93.0197 15.907C95.1723 19.3581 96.2526 22.9281 96.2526 26.6172C92.559 26.6172 88.9845 25.5422 85.5292 23.3883Z" fill="#E3D384"/>
<path d="M77.1172 38.2478C79.2698 34.7967 82.0778 31.9962 85.5331 29.8422C88.9884 27.6922 92.5629 26.6133 96.2565 26.6133C96.2565 30.3024 95.1802 33.8725 93.0236 37.3235C90.867 40.7746 88.063 43.5791 84.6077 45.7291C81.1524 47.8791 77.5779 48.9581 73.8843 48.9581C73.8843 45.269 74.9606 41.6989 77.1172 38.2478Z" fill="#E3D384"/>
<path d="M7.85977 63.3176C9.98856 59.8427 12.7846 57.0382 16.2399 54.912C19.6952 52.7858 23.2697 51.7188 26.9633 51.7188C26.9633 55.4078 25.8989 58.9779 23.7662 62.429C21.6374 65.8801 18.8413 68.6846 15.386 70.8346C11.9307 72.9885 8.35622 74.0635 4.6626 74.0635C4.6626 70.3744 5.727 66.7924 7.85977 63.3176Z" fill="#E3D384"/>
<path d="M16.2399 93.215C12.7846 91.0888 9.99253 88.2843 7.85977 84.8094C5.73097 81.3345 4.6626 77.7526 4.6626 74.0635C8.35622 74.0635 11.9307 75.1385 15.386 77.2924C18.8413 79.4464 21.6374 82.2469 23.7662 85.698C25.895 89.1491 26.9633 92.7192 26.9633 96.4082C23.2697 96.4082 19.6952 95.3452 16.2399 93.215Z" fill="#E3D384"/>
<path d="M38.6122 70.8385C35.1569 68.6885 32.3489 65.884 30.1963 62.4329C28.0397 58.9818 26.9634 55.4117 26.9634 51.7227C30.657 51.7227 34.2315 52.7976 37.6868 54.9516C41.1421 57.1055 43.9461 59.9061 46.1027 63.3572C48.2553 66.8082 49.3356 70.3783 49.3356 74.0674C45.642 74.0674 42.0675 72.9924 38.6122 70.8385Z" fill="#E3D384"/>
<path d="M30.1963 85.698C32.3489 82.2469 35.1569 79.4464 38.6122 77.2924C42.0675 75.1424 45.642 74.0635 49.3356 74.0635C49.3356 77.7526 48.2593 81.3227 46.1027 84.7737C43.9461 88.2248 41.1421 91.0293 37.6868 93.1793C34.2315 95.3293 30.657 96.4082 26.9634 96.4082C26.9634 92.7192 28.0397 89.1491 30.1963 85.698Z" fill="#E3D384"/>
<path d="M54.7812 63.3176C56.91 59.8427 59.706 57.0382 63.1613 54.912C66.6166 52.7858 70.1911 51.7188 73.8847 51.7188C73.8847 55.4078 72.8203 58.9779 70.6876 62.429C68.5588 65.8801 65.7627 68.6846 62.3074 70.8346C58.8521 72.9885 55.2776 74.0635 51.584 74.0635C51.584 70.3744 52.6484 66.7924 54.7812 63.3176Z" fill="#E3D384"/>
<path d="M63.1613 93.215C59.706 91.0888 56.9139 88.2843 54.7812 84.8094C52.6524 81.3345 51.584 77.7526 51.584 74.0635C55.2776 74.0635 58.8521 75.1385 62.3074 77.2924C65.7627 79.4464 68.5588 82.2469 70.6876 85.698C72.8164 89.1491 73.8847 92.7192 73.8847 96.4082C70.1911 96.4082 66.6166 95.3452 63.1613 93.215Z" fill="#E3D384"/>
<path d="M85.5292 70.8385C82.0739 68.6885 79.2659 65.884 77.1133 62.4329C74.9567 58.9818 73.8804 55.4117 73.8804 51.7227C77.574 51.7227 81.1485 52.7976 84.6038 54.9516C88.0591 57.1055 90.8631 59.9061 93.0197 63.3572C95.1723 66.8082 96.2526 70.3783 96.2526 74.0674C92.559 74.0674 88.9845 72.9924 85.5292 70.8385Z" fill="#E3D384"/>
<path d="M77.1172 85.698C79.2698 82.2469 82.0778 79.4464 85.5331 77.2924C88.9884 75.1424 92.5629 74.0635 96.2565 74.0635C96.2565 77.7526 95.1802 81.3227 93.0236 84.7737C90.867 88.2248 88.063 91.0293 84.6077 93.1793C81.1524 95.3293 77.5779 96.4082 73.8843 96.4082C73.8843 92.7192 74.9606 89.1491 77.1172 85.698Z" fill="#E3D384"/>
</svg>
