<svg width="101" height="101" viewBox="0 0 101 101" fill="none" xmlns="http://www.w3.org/2000/svg">
<path d="M101 101H0V0H101V101ZM5 96H96V5H5V96Z" fill="#E3D384"/>
<rect width="101" height="101" fill="#AC1F2C"/>
<path d="M83.686 43.0633C85.6837 45.2251 86.6845 47.7797 86.6845 50.7191C86.6845 53.6585 85.6837 56.0147 83.686 58.125C81.6882 60.2354 78.9081 61.2866 75.3574 61.2866C73.4113 61.2866 71.5367 60.8859 69.7336 60.0807C67.9265 59.2794 65.7183 58.0417 63.1089 56.3797C60.6108 54.8287 58.5534 53.6624 56.9449 52.885C55.3324 52.1075 53.6683 51.6354 51.9446 51.4688C54.4984 53.8528 56.7066 55.6855 58.5693 56.9588C60.4281 58.2361 62.6085 59.5927 65.1106 61.0366C66.8859 62.0363 68.3316 62.8971 69.4437 63.615C70.5518 64.337 71.7194 65.2533 72.9427 66.3601C73.8284 67.1931 74.2771 68.1649 74.2771 69.2717C74.2771 70.3784 73.872 71.3502 73.0698 72.1833C72.2635 73.0163 71.3064 73.4328 70.1943 73.4328C69.0822 73.4328 68.002 72.9885 66.9455 72.1C65.611 70.8822 64.5029 69.6763 63.6133 68.4823C62.7237 67.2922 61.7824 65.8087 60.7815 64.0316C59.4471 61.7586 58.1285 59.7197 56.8258 57.9148C55.5191 56.1139 53.7557 54.075 51.5356 51.7981C51.7024 53.5752 52.175 55.265 52.9534 56.8716C53.7319 58.4821 54.8995 60.5329 56.4524 63.028C58.1205 65.6341 59.3557 67.8396 60.158 69.6406C60.9642 71.4454 61.3654 73.3138 61.3654 75.2575C61.3654 78.8077 60.3089 81.5805 58.2 83.5758C56.091 85.5711 53.6167 86.5707 50.7889 86.5707C47.9611 86.5707 45.2922 85.5711 43.1236 83.5758C40.9591 81.5805 39.8748 78.8038 39.8748 75.2575C39.8748 73.3138 40.276 71.4454 41.0822 69.6406C41.8885 67.8396 43.1236 65.6341 44.7878 63.028C46.3407 60.5329 47.5083 58.4821 48.2868 56.8716C49.0652 55.265 49.5378 53.5712 49.7046 51.7981C47.4805 54.071 45.7171 56.1099 44.4144 57.9148C43.1077 59.7197 41.7892 61.7546 40.4587 64.0316C39.4578 65.8087 38.5126 67.2922 37.6269 68.4823C36.7372 69.6763 35.6292 70.8822 34.2947 72.1C33.2382 72.9845 32.2136 73.4328 31.2127 73.4328C30.1006 73.4328 29.1157 73.0163 28.2538 72.1833C27.392 71.3502 26.963 70.3823 26.963 69.2717C26.963 68.161 27.4079 67.1931 28.2975 66.3601C29.5208 65.2494 30.6845 64.337 31.7965 63.615C32.9086 62.8931 34.3503 62.0323 36.1296 61.0366C38.6278 59.5927 40.8082 58.2361 42.6709 56.9588C44.5296 55.6855 46.7378 53.8528 49.2956 51.4688C47.5719 51.6354 45.9078 52.1075 44.2953 52.885C42.6828 53.6624 40.6294 54.8287 38.1313 56.3797C35.5219 58.0457 33.3137 59.2794 31.5066 60.0807C29.7035 60.8859 27.8289 61.2866 25.8828 61.2866C22.3282 61.2866 19.552 60.2354 17.5542 58.125C15.5565 56.0187 14.5557 53.5514 14.5557 50.7191C14.5557 47.8868 15.5565 45.2291 17.5542 43.0633C19.552 40.9014 22.3282 39.8184 25.8828 39.8184C27.8289 39.8184 29.6995 40.2191 31.5066 41.0243C33.3097 41.8296 35.518 43.0633 38.1313 44.7253C40.6294 46.2803 42.6868 47.4426 44.2953 48.22C45.9038 48.9975 47.5719 49.4696 49.2956 49.6362C46.7418 47.2522 44.5336 45.4235 42.6709 44.1462C40.8082 42.8729 38.6317 41.5123 36.1296 40.0684C34.3503 39.0687 32.9086 38.2119 31.7965 37.49C30.6845 36.768 29.5208 35.8556 28.2975 34.745C27.4079 33.9119 26.963 32.944 26.963 31.8334C26.963 30.7227 27.3642 29.7548 28.1704 28.9217C28.9767 28.0887 29.9338 27.6762 31.0459 27.6762C32.1579 27.6762 33.2382 28.1205 34.2947 29.005C35.6292 30.2268 36.7372 31.4327 37.6269 32.6227C38.5165 33.8167 39.4578 35.3003 40.4587 37.0734C41.7931 39.3464 43.1077 41.3853 44.4144 43.1902C45.7171 44.9951 47.4805 47.03 49.7046 49.3069C49.5378 47.5338 49.0652 45.84 48.2868 44.2335C47.5083 42.6269 46.3407 40.5721 44.7878 38.077C43.1197 35.4709 41.8845 33.2654 41.0822 31.4605C40.276 29.6596 39.8748 27.7873 39.8748 25.8435C39.8748 22.2933 40.9591 19.5205 43.1236 17.5213C45.2882 15.526 47.8419 14.5264 50.7889 14.5264C53.7358 14.5264 56.091 15.526 58.2 17.5213C60.3089 19.5166 61.3654 22.2933 61.3654 25.8435C61.3654 27.7873 60.9642 29.6556 60.158 31.4605C59.3517 33.2654 58.1166 35.4669 56.4524 38.077C54.8995 40.5721 53.7319 42.6269 52.9534 44.2335C52.175 45.844 51.7024 47.5338 51.5356 49.3069C53.7557 47.034 55.5191 44.9951 56.8258 43.1902C58.1324 41.3893 59.451 39.3504 60.7815 37.0734C61.7824 35.3003 62.7237 33.8167 63.6133 32.6227C64.5029 31.4327 65.611 30.2228 66.9455 29.005C68.002 28.1205 69.0266 27.6762 70.0275 27.6762C71.1356 27.6762 72.1205 28.0927 72.9864 28.9217C73.8482 29.7548 74.2771 30.7266 74.2771 31.8334C74.2771 32.9401 73.8323 33.9119 72.9427 34.745C71.7194 35.8556 70.5518 36.772 69.4437 37.49C68.3316 38.2119 66.8899 39.0727 65.1106 40.0684C62.6125 41.5123 60.432 42.8689 58.5693 44.1462C56.7066 45.4235 54.5024 47.2522 51.9446 49.6362C53.6644 49.4696 55.3324 48.9975 56.9449 48.22C58.5574 47.4426 60.6108 46.2803 63.1089 44.7253C65.7183 43.0593 67.9265 41.8296 69.7336 41.0243C71.5367 40.2231 73.4113 39.8184 75.3574 39.8184C78.9081 39.8184 81.6882 40.9014 83.686 43.0633Z" fill="#E3D384"/>
<path d="M8.93209 8.46094C11.4978 11.1147 13.2056 14.4309 14.0555 18.4096C14.9054 22.3882 14.826 26.3391 13.8212 30.2702C12.8124 34.1973 10.9815 37.4421 8.32443 40.0046C5.75876 37.3509 4.05095 34.0346 3.20102 30.056C2.35109 26.0773 2.43053 22.1264 3.43535 18.1954C4.44017 14.2683 6.27507 11.0235 8.93209 8.46094Z" fill="#E3D384"/>
<path d="M8.93213 8.4608C11.5892 5.89827 14.9015 4.18462 18.8692 3.31987C22.8368 2.45512 26.7926 2.51462 30.7444 3.50631C34.6922 4.49403 37.9529 6.31874 40.5185 8.97251C37.8615 11.535 34.5492 13.2487 30.5855 14.1134C26.6178 14.9782 22.6581 14.9187 18.7103 13.927C14.7585 12.9393 11.5018 11.1146 8.9361 8.4608H8.93213Z" fill="#E3D384"/>
<path d="M92.3643 9.44525C89.739 12.0395 86.4425 13.7889 82.4709 14.6893C78.4993 15.5898 74.5396 15.562 70.5957 14.606C66.6479 13.65 63.3793 11.861 60.7778 9.24295C63.4031 6.64869 66.6995 4.89935 70.6712 3.99889C74.6428 3.09844 78.6025 3.1262 82.5464 4.08219C86.4902 5.03818 89.7628 6.82322 92.3643 9.44525Z" fill="#E3D384"/>
<path d="M92.3645 9.44531C94.9619 12.0673 96.7214 15.3518 97.6388 19.3027C98.5563 23.2536 98.5483 27.2045 97.607 31.1633C96.6697 35.1222 94.8865 38.3987 92.2612 40.993C89.6638 38.3709 87.9043 35.0865 86.9869 31.1356C86.0694 27.1847 86.0774 23.2298 87.0186 19.2749C87.956 15.3161 89.7392 12.0396 92.3645 9.44531Z" fill="#E3D384"/>
<path d="M92.5905 92.8777C90.0249 90.2239 88.3171 86.9077 87.4671 82.929C86.6172 78.9504 86.6966 74.9995 87.7015 71.0684C88.7103 67.1413 90.5412 63.8965 93.1982 61.334C95.7639 63.9877 97.4717 67.304 98.3216 71.2826C99.1716 75.2613 99.0921 79.2122 98.0873 83.1432C97.0825 87.0703 95.2476 90.3152 92.5905 92.8777Z" fill="#E3D384"/>
<path d="M92.5903 92.8778C89.9333 95.4403 86.621 97.1539 82.6533 98.0187C78.6856 98.8835 74.7299 98.824 70.7781 97.8323C66.8303 96.8445 63.5696 95.0198 61.0039 92.3661C63.6609 89.8035 66.9733 88.0899 70.937 87.2251C74.9046 86.3604 78.8644 86.4199 82.8122 87.4116C86.7639 88.3993 90.0207 90.224 92.5864 92.8778H92.5903Z" fill="#E3D384"/>
<path d="M9.15869 92.4773C11.7839 89.8831 15.0804 88.1337 19.052 87.2333C23.0237 86.3328 26.9834 86.3606 30.9272 87.3166C34.875 88.2726 38.1437 90.0616 40.7451 92.6796C38.1199 95.2739 34.8234 97.0232 30.8518 97.9237C26.8801 98.8241 22.9204 98.7964 18.9766 97.8404C15.0327 96.8844 11.7601 95.0994 9.15869 92.4773Z" fill="#E3D384"/>
<path d="M9.15818 92.4773C6.56073 89.8553 4.8013 86.5708 3.88385 82.6199C2.9664 78.669 2.97435 74.7182 3.91563 70.7593C4.85293 66.8005 6.6362 63.5239 9.26145 60.9297C11.8589 63.5517 13.6183 66.8362 14.5358 70.7871C15.4532 74.738 15.4453 78.6928 14.504 82.6477C13.5667 86.6065 11.7834 89.8831 9.15818 92.4773Z" fill="#E3D384"/>
</svg>
