<svg width="101" height="101" viewBox="0 0 101 101" fill="none" xmlns="http://www.w3.org/2000/svg">
<path d="M101 101H0V0H101V101ZM5 96H96V5H5V96Z" fill="#E3D384"/>
<rect x="0.000244141" width="101" height="101" fill="#AC1F2C"/>
<path d="M85.2909 56.6373C83.9882 56.6373 82.6815 56.4747 81.3788 56.1494C80.0761 55.8241 78.3366 55.3362 76.1601 54.6857C71.7397 53.456 67.7522 52.496 64.2015 51.8098C60.6509 51.1235 56.3019 50.7784 51.1587 50.7784C54.8523 54.1819 58.2242 56.9308 61.2665 59.0293C64.3088 61.1316 67.6807 63.2261 71.3743 65.3245C72.9669 66.1932 74.4722 67.0818 75.8861 67.9862C77.3 68.8906 78.4398 69.7792 79.3096 70.6479C80.4693 71.8062 81.0492 73.2184 81.0492 74.8804C81.0492 76.3997 80.3979 77.8119 79.0912 79.113C77.7885 80.4141 76.3349 81.0686 74.7422 81.0686C73.3641 81.0686 72.0971 80.4894 70.9374 79.3311C70.0676 78.4624 69.2336 77.4152 68.4353 76.1815C67.637 74.9519 66.7315 73.3572 65.7187 71.4056C63.6892 67.6411 61.6239 64.2217 59.5229 61.1475C57.418 58.0733 54.5584 54.761 50.9363 51.2147C50.8608 56.3557 51.1904 60.731 51.9133 64.3527C52.6361 67.9703 53.6131 71.8816 54.8483 76.0784C55.3527 77.7444 55.7896 79.3748 56.151 80.9655C56.5124 82.5561 56.6951 83.9683 56.6951 85.198C56.6951 87.0782 56.0954 88.5102 54.8999 89.4861C53.7045 90.4619 52.2747 90.9498 50.6066 90.9498C48.9385 90.9498 47.5961 90.442 46.3689 89.4305C45.1337 88.415 44.5221 86.9711 44.5221 85.0869C44.5221 82.9845 45.1377 79.8389 46.3689 75.6421C47.5286 71.4452 48.4341 67.5737 49.0855 64.0274C49.7368 60.4811 50.134 56.2089 50.2809 51.2187C46.6548 54.765 43.7952 58.0772 41.6943 61.1515C39.5933 64.2297 37.528 67.649 35.4985 71.4095C34.4818 73.3612 33.5762 74.9558 32.7819 76.1855C31.9836 77.4192 31.1496 78.4664 30.2798 79.3351C29.1201 80.4934 27.8531 81.0726 26.475 81.0726C24.8069 81.0726 23.3215 80.4379 22.0188 79.1725C20.7161 77.9071 20.0647 76.479 20.0647 74.8844C20.0647 73.2898 20.6803 71.8816 21.9115 70.6519C22.7813 69.7832 23.9212 68.8986 25.3351 67.9902C26.749 67.0858 28.2503 66.1972 29.8469 65.3285C33.5445 63.2301 36.9124 61.1316 39.9547 59.0332C42.997 56.9348 46.3689 54.1858 50.0625 50.7824C44.9153 50.7824 40.4789 51.1275 36.7456 51.8137C33.0123 52.5 29.1915 53.4599 25.2795 54.6896C23.0315 55.3402 21.2403 55.8281 19.8979 56.1534C18.5555 56.4786 17.233 56.6413 15.9303 56.6413C14.1192 56.6413 12.7053 56.0621 11.6925 54.9038C10.6758 53.7455 10.1714 52.373 10.1714 50.7784C10.1714 49.1838 10.7155 47.6486 11.8037 46.3832C12.892 45.1178 14.3734 44.4832 16.2599 44.4832C17.5626 44.4832 18.905 44.6299 20.2792 44.9155C21.6534 45.2051 23.4327 45.6771 25.6052 46.3277C29.6642 47.4146 33.4849 48.2992 37.0713 48.9894C40.6577 49.6756 44.951 50.0921 49.9513 50.2389C46.4006 46.6926 43.1399 43.8881 40.1691 41.8254C37.1984 39.7627 33.7907 37.7198 29.9501 35.6928C27.6307 34.4631 25.9308 33.4873 24.8426 32.7614C23.7544 32.0394 22.7376 31.2064 21.8003 30.2623C20.6406 29.104 20.0608 27.8386 20.0608 26.4621C20.0608 24.8001 20.6922 23.3125 21.9632 22.0114C23.2301 20.7103 24.7354 20.0598 26.475 20.0598C27.8491 20.0598 29.2273 20.6746 30.6055 21.9043C31.5467 22.8445 32.4523 24.0226 33.3221 25.4348C34.1918 26.8469 35.0974 28.3503 36.0386 29.941C38.0682 33.6341 40.0977 36.9979 42.1272 40.0364C44.1567 43.0749 46.8733 46.3713 50.2809 49.9176C50.134 44.8521 49.717 40.5283 49.0299 36.9463C48.3388 33.3643 47.4531 29.4729 46.3649 25.2761C45.1297 21.2221 44.5181 18.1478 44.5181 16.0494C44.5181 14.1692 45.1337 12.7213 46.3649 11.7058C47.5961 10.6943 49.01 10.1865 50.6026 10.1865C52.1953 10.1865 53.7005 10.6744 54.896 11.6503C56.0914 12.6261 56.6912 14.0581 56.6912 15.9383C56.6912 17.0252 56.5442 18.2351 56.2582 19.5758C55.9683 20.9166 55.6784 22.0352 55.3885 22.9397C55.0985 23.8441 54.9158 24.4788 54.8443 24.8397C53.6092 28.9652 52.6321 32.8923 51.9093 36.621C51.1825 40.3498 50.8568 44.7807 50.9323 49.9216C54.336 46.2285 57.0565 42.9202 59.0861 39.9888C61.1156 37.0574 63.2165 33.6737 65.389 29.8379C66.2588 28.2472 67.1445 26.7438 68.054 25.3316C68.9595 23.9194 69.8492 22.781 70.719 21.9123C71.8787 20.754 73.2926 20.1748 74.9567 20.1748C76.4778 20.1748 77.8917 20.8254 79.1944 22.1265C80.4971 23.4276 81.1525 24.8794 81.1525 26.4701C81.1525 27.8465 80.5726 29.1119 79.4129 30.2702C78.5431 31.139 77.4906 31.972 76.2594 32.7693C75.0282 33.5666 73.4316 34.471 71.4776 35.4826C67.7085 37.5096 64.2849 39.5723 61.2069 41.6707C58.1249 43.7731 54.8086 46.6292 51.2619 50.2469C56.2622 50.104 60.5357 49.7034 64.0863 49.0529C67.637 48.4023 71.5133 47.4979 75.7193 46.3396C79.9213 45.1099 83.0747 44.495 85.1757 44.495C87.0583 44.495 88.5079 45.1099 89.5247 46.3396C90.5374 47.5733 91.0458 48.9814 91.0458 50.5721C91.0458 52.1628 90.5573 53.6662 89.5803 54.8602C88.6032 56.0542 87.1695 56.6492 85.2869 56.6492L85.2909 56.6373Z" fill="#E3D384"/>
</svg>
