<svg width="101" height="101" viewBox="0 0 101 101" fill="none" xmlns="http://www.w3.org/2000/svg">
<path d="M100.979 101.005H0V0H100.979V101.005ZM5 96H96V5H5V96Z" fill="#E3D384"/>
<rect width="101" height="101" fill="#AC1F2C"/>
<path d="M24.0498 85.2223C20.0708 82.7835 16.8619 79.549 14.4232 75.5443C11.9844 71.5396 10.7522 67.4066 10.7522 63.1709C14.988 63.1709 19.121 64.4031 23.0743 66.8932C27.0533 69.3832 30.2622 72.5921 32.701 76.5711C35.1397 80.5501 36.3719 84.6575 36.3719 88.8932C32.1362 88.8932 28.0032 87.661 24.0498 85.2223ZM40.0942 76.5455C42.5586 72.5664 45.7932 69.3576 49.7722 66.8675C53.7512 64.4031 57.8586 63.1452 62.0943 63.1452C62.0943 67.3809 60.8621 71.5139 58.372 75.4673C55.8819 79.4463 52.673 82.6808 48.694 85.1452C44.715 87.6097 40.6076 88.8675 36.3719 88.8675C36.3719 84.6318 37.6041 80.4988 40.0942 76.5455ZM75.4175 85.1709C71.4385 82.7065 68.2296 79.4719 65.7909 75.4929C63.3521 71.5139 62.1199 67.4066 62.1199 63.1709C66.3557 63.1709 70.4887 64.4031 74.442 66.8418C78.421 69.2806 81.6299 72.5151 84.0687 76.5198C86.5074 80.5245 87.7396 84.6575 87.7396 88.8932C83.5039 88.8932 79.3709 87.661 75.4175 85.1709ZM87.7396 37.7565C83.5039 37.7565 79.3709 36.5243 75.4175 34.0342C71.4385 31.5698 68.2296 28.3353 65.7909 24.3563C63.3521 20.3773 62.1199 16.2699 62.1199 12.0342C66.3557 12.0342 70.4887 13.2664 74.442 15.7051C78.421 18.1439 81.6299 21.3784 84.0687 25.3831C86.5074 29.3878 87.7396 33.5208 87.7396 37.7565ZM62.0943 63.4789C62.0943 59.2432 63.3265 55.1101 65.7652 51.1568C68.204 47.1778 71.4385 43.9689 75.3919 41.4788C79.3709 38.9888 83.4782 37.7565 87.7139 37.7565C87.7139 41.9923 86.4817 46.1253 84.043 50.13C81.6042 54.1347 78.3697 57.3692 74.4164 59.8079C70.4374 62.2467 66.33 63.4789 62.0943 63.4789ZM36.3719 37.7565C36.3719 33.5208 37.6041 29.3878 40.0942 25.4345C42.5843 21.4554 45.7932 18.2466 49.7722 15.7565C53.7512 13.2921 57.8586 12.0342 62.0943 12.0342C62.0943 16.2699 60.8621 20.4029 58.372 24.3563C55.9076 28.3353 52.673 31.5698 48.694 34.0342C44.715 36.5243 40.6076 37.7565 36.3719 37.7565ZM62.0943 63.4789C57.8586 63.4789 53.7255 62.2467 49.7722 59.7566C45.7932 57.2922 42.5843 54.0576 40.0942 50.0786C37.6298 46.0996 36.3719 41.9923 36.3719 37.7565C40.6076 37.7565 44.7407 38.9888 48.694 41.4788C52.673 43.9689 55.9076 47.1778 58.372 51.1568C60.8621 55.1358 62.0943 59.2432 62.0943 63.4789ZM36.3719 37.7565C32.1362 37.7565 28.0032 36.5243 24.0498 34.0856C20.0708 31.6468 16.8619 28.4123 14.4232 24.4076C11.9588 20.4029 10.7266 16.2699 10.7266 12.0342C14.9623 12.0342 19.0953 13.2664 23.0487 15.7565C27.0277 18.2466 30.2365 21.4554 32.6753 25.4345C35.114 29.4135 36.3462 33.5208 36.3462 37.7565M10.7266 63.4789C10.7266 59.2432 11.9588 55.1101 14.3975 51.1055C16.8363 47.1008 20.0708 43.8662 24.0241 41.4275C28.0032 38.9888 32.1105 37.7565 36.3462 37.7565C36.3462 41.9923 35.114 46.1253 32.6753 50.0786C30.2365 54.0576 27.002 57.2922 23.0487 59.7566C19.0696 62.2467 14.9623 63.4789 10.7266 63.4789Z" fill="#E3D384"/>
</svg>
