<svg width="101" height="101" viewBox="0 0 101 101" fill="none" xmlns="http://www.w3.org/2000/svg">
<path d="M101 101H0V0H101V101ZM5 96H96V5H5V96Z" fill="#E3D384"/>
<path d="M53.9588 69.0016C54.5983 69.7791 54.916 70.6677 54.916 71.6673C54.916 72.6669 54.6062 73.615 53.9906 74.3687C53.375 75.1184 52.4734 75.4952 51.2859 75.4952C50.4638 75.4952 49.6417 75.3921 48.8195 75.1858C47.9974 74.9795 46.9013 74.6741 45.535 74.2616C42.7509 73.488 40.2408 72.8811 38.0048 72.4487C35.7687 72.0164 33.0323 71.7982 29.7914 71.7982C32.1188 73.9403 34.2397 75.6737 36.158 76.9947C38.0723 78.3156 40.1971 79.6405 42.5245 80.9614C43.5293 81.5088 44.4746 82.0681 45.3642 82.6354C46.2539 83.2066 46.9727 83.762 47.5208 84.3094C48.2516 85.0392 48.617 85.9278 48.617 86.975C48.617 87.931 48.2079 88.8196 47.3858 89.6407C46.5637 90.4618 45.6502 90.8704 44.6493 90.8704C43.7795 90.8704 42.9812 90.5054 42.2544 89.7756C41.7064 89.2281 41.1821 88.5697 40.6817 87.7922C40.1812 87.0187 39.6093 86.0151 38.9699 84.7854C37.691 82.4172 36.3923 80.2633 35.0697 78.3235C33.7472 76.3877 31.9441 74.3012 29.6604 72.0679C29.6127 75.3048 29.8192 78.0617 30.276 80.3426C30.7327 82.6235 31.3483 85.0829 32.1228 87.7248C32.4405 88.7759 32.7146 89.7994 32.9449 90.803C33.1713 91.8066 33.2865 92.6951 33.2865 93.4686C33.2865 94.6547 32.9092 95.5551 32.1585 96.17C31.4039 96.7848 30.5024 97.0942 29.4538 97.0942C28.4053 97.0942 27.5594 96.7769 26.7849 96.1383C26.0065 95.4996 25.6212 94.5873 25.6212 93.4052C25.6212 92.0842 26.0065 90.1008 26.7849 87.455C27.5157 84.8132 28.0876 82.3736 28.4967 80.1403C28.9058 77.907 29.156 75.2176 29.2513 72.0719C26.9676 74.3052 25.1645 76.3917 23.8419 78.3275C22.5194 80.2672 21.2167 82.4172 19.9378 84.7894C19.2984 86.019 18.7265 87.0226 18.226 87.7962C17.7256 88.5736 17.1974 89.2321 16.6533 89.7795C15.9225 90.5094 15.1242 90.8744 14.2584 90.8744C13.2059 90.8744 12.2726 90.4737 11.4504 89.6764C10.6283 88.8791 10.2192 87.9786 10.2192 86.975C10.2192 85.9714 10.6045 85.0829 11.3829 84.3094C11.931 83.762 12.6499 83.2026 13.5395 82.6354C14.4292 82.0642 15.3744 81.5088 16.3792 80.9614C18.7066 79.6405 20.8275 78.3196 22.7458 76.9947C24.6641 75.6737 26.7849 73.9403 29.1123 71.7982C25.8714 71.7982 23.0754 72.0164 20.7242 72.4487C18.373 72.8811 15.9662 73.4841 13.5038 74.2616C12.0899 74.6701 10.9579 74.9795 10.116 75.1858C9.27 75.3921 8.43993 75.4952 7.6178 75.4952C6.47795 75.4952 5.58432 75.1303 4.94886 74.4004C4.30943 73.6705 3.9917 72.8058 3.9917 71.8022C3.9917 70.7986 4.33326 69.8307 5.02035 69.0334C5.70347 68.2361 6.64078 67.8354 7.8283 67.8354C8.65043 67.8354 9.49242 67.9266 10.3622 68.1091C11.228 68.2916 12.348 68.5891 13.7182 68.9977C16.272 69.68 18.6828 70.2393 20.9387 70.6716C23.1985 71.104 25.9032 71.3658 29.0527 71.4571C26.8167 69.2238 24.7634 67.4586 22.8927 66.1575C21.0221 64.8564 18.8774 63.5711 16.4587 62.2938C14.9971 61.5203 13.9248 60.9055 13.2416 60.4493C12.5585 59.9931 11.9191 59.4695 11.3233 58.8785C10.5926 58.1486 10.2272 57.3513 10.2272 56.4865C10.2272 55.4393 10.6243 54.5031 11.4266 53.682C12.2249 52.8609 13.1741 52.4523 14.2663 52.4523C15.1321 52.4523 16.0019 52.8411 16.8677 53.6146C17.4595 54.2096 18.0314 54.9474 18.5795 55.8359C19.1276 56.7245 19.6955 57.6726 20.2913 58.6722C21.5702 60.9967 22.8451 63.115 24.1239 65.0309C25.4028 66.9469 27.1106 69.0215 29.2592 71.2547C29.1679 68.0655 28.9058 65.3403 28.4729 63.0832C28.0399 60.8261 27.4799 58.3787 26.7968 55.7328C26.0184 53.1822 25.6331 51.2424 25.6331 49.9215C25.6331 48.7354 26.0184 47.8271 26.7968 47.1884C27.5713 46.5498 28.4609 46.2324 29.4658 46.2324C30.4706 46.2324 31.4158 46.5418 32.1704 47.1567C32.9251 47.7715 33.2984 48.672 33.2984 49.858C33.2984 50.5403 33.2071 51.3059 33.0244 52.1469C32.8417 52.9918 32.659 53.6979 32.4763 54.2651C32.2936 54.8363 32.1784 55.233 32.1347 55.4631C31.3563 58.0613 30.7407 60.5326 30.2879 62.8809C29.8312 65.2292 29.6246 68.0218 29.6723 71.2547C31.817 68.9302 33.5288 66.8437 34.8076 64.9992C36.0865 63.1546 37.409 61.0245 38.7793 58.6048C39.3273 57.6012 39.8873 56.6571 40.4553 55.7685C41.0272 54.88 41.5832 54.162 42.1313 53.6146C42.8621 52.8847 43.7517 52.5197 44.8003 52.5197C45.7574 52.5197 46.6471 52.9283 47.4692 53.7494C48.2913 54.5706 48.7004 55.4829 48.7004 56.4825C48.7004 57.3473 48.335 58.1486 47.6042 58.8745C47.0561 59.4219 46.3929 59.9455 45.6184 60.4453C44.8439 60.9451 43.8391 61.5164 42.6079 62.155C40.2329 63.4323 38.0802 64.7294 36.1381 66.0504C34.196 67.3713 32.1109 69.1722 29.8748 71.4531C33.0243 71.3619 35.7171 71.1119 37.9531 70.6994C40.1892 70.2908 42.6317 69.7196 45.2768 68.9897C47.922 68.2162 49.9078 67.8275 51.2343 67.8275C52.4218 67.8275 53.3313 68.2162 53.9708 68.9897L53.9588 69.0016Z" fill="#E3D384"/>
<path d="M96.868 69.0016C97.5075 69.7791 97.8252 70.6677 97.8252 71.6673C97.8252 72.6669 97.5154 73.615 96.8998 74.3687C96.2842 75.1184 95.3826 75.4952 94.1951 75.4952C93.373 75.4952 92.5509 75.3921 91.7287 75.1858C90.9066 74.9795 89.8104 74.6741 88.4442 74.2616C85.6601 73.488 83.15 72.8811 80.914 72.4487C78.6779 72.0164 75.9415 71.7982 72.7006 71.7982C75.028 73.9403 77.1489 75.6737 79.0672 76.9947C80.9815 78.3156 83.1063 79.6405 85.4337 80.9614C86.4385 81.5088 87.3838 82.0681 88.2734 82.6354C89.1631 83.2066 89.8819 83.762 90.43 84.3094C91.1608 85.0392 91.5262 85.9278 91.5262 86.975C91.5262 87.931 91.1171 88.8196 90.295 89.6407C89.4728 90.4618 88.5594 90.8704 87.5585 90.8704C86.6887 90.8704 85.8904 90.5054 85.1636 89.7756C84.6155 89.2281 84.0913 88.5697 83.5908 87.7922C83.0904 87.0187 82.5185 86.0151 81.8791 84.7854C80.6002 82.4172 79.3015 80.2633 77.9789 78.3235C76.6564 76.3877 74.8532 74.3012 72.5696 72.0679C72.5219 75.3048 72.7284 78.0617 73.1852 80.3426C73.6419 82.6235 74.2575 85.0829 75.032 87.7248C75.3497 88.7759 75.6237 89.7994 75.8541 90.803C76.0805 91.8066 76.1957 92.6951 76.1957 93.4686C76.1957 94.6547 75.8184 95.5551 75.0677 96.17C74.3171 96.7848 73.4115 97.0942 72.363 97.0942C71.3145 97.0942 70.4686 96.7769 69.6941 96.1383C68.9157 95.4996 68.5304 94.5873 68.5304 93.4052C68.5304 92.0842 68.9157 90.1008 69.6941 87.455C70.4249 84.8132 70.9968 82.3736 71.4059 80.1403C71.8149 77.907 72.0652 75.2176 72.1605 72.0719C69.8768 74.3052 68.0737 76.3917 66.7511 78.3275C65.4286 80.2672 64.1259 82.4172 62.847 84.7894C62.2076 86.019 61.6356 87.0226 61.1352 87.7962C60.6348 88.5736 60.1066 89.2321 59.5624 89.7795C58.8317 90.5094 58.0334 90.8744 57.1675 90.8744C56.1151 90.8744 55.1817 90.4737 54.3596 89.6764C53.5375 88.8791 53.1284 87.9786 53.1284 86.975C53.1284 85.9714 53.5136 85.0829 54.2921 84.3094C54.8402 83.762 55.559 83.2026 56.4487 82.6354C57.3383 82.0642 58.2836 81.5088 59.2884 80.9614C61.6158 79.6405 63.7366 78.3196 65.6549 76.9947C67.5732 75.6737 69.6941 73.9403 72.0215 71.7982C68.7806 71.7982 65.9846 72.0164 63.6334 72.4487C61.2822 72.8811 58.8754 73.4841 56.4129 74.2616C54.999 74.6701 53.8671 74.9795 53.0251 75.1858C52.1792 75.3921 51.3491 75.4952 50.527 75.4952C49.3871 75.4952 48.4935 75.1303 47.858 74.4004C47.2186 73.6705 46.9009 72.8058 46.9009 71.8022C46.9009 70.7986 47.2424 69.8307 47.9295 69.0334C48.6127 68.2361 49.5499 67.8354 50.7375 67.8354C51.5596 67.8354 52.4016 67.9266 53.2714 68.1091C54.1372 68.2916 55.2572 68.5891 56.6274 68.9977C59.1812 69.68 61.592 70.2393 63.8478 70.6716C66.1077 71.104 68.8124 71.3658 71.9619 71.4571C69.7259 69.2238 67.6725 67.4586 65.8019 66.1575C63.9313 64.8564 61.7866 63.5711 59.3678 62.2938C57.9063 61.5203 56.8339 60.9055 56.1508 60.4493C55.4677 59.9931 54.8283 59.4695 54.2325 58.8785C53.5017 58.1486 53.1363 57.3513 53.1363 56.4865C53.1363 55.4393 53.5335 54.5031 54.3358 53.682C55.1341 52.8609 56.0833 52.4523 57.1755 52.4523C58.0413 52.4523 58.9111 52.8411 59.7769 53.6146C60.3687 54.2096 60.9406 54.9474 61.4887 55.8359C62.0368 56.7245 62.6047 57.6726 63.2005 58.6722C64.4793 60.9967 65.7542 63.115 67.0331 65.0309C68.312 66.9469 70.0198 69.0215 72.1684 71.2547C72.0771 68.0655 71.8149 65.3403 71.382 63.0832C70.9491 60.8261 70.3891 58.3787 69.706 55.7328C68.9276 53.1822 68.5423 51.2424 68.5423 49.9215C68.5423 48.7354 68.9276 47.8271 69.706 47.1884C70.4805 46.5498 71.3701 46.2324 72.3749 46.2324C73.3798 46.2324 74.325 46.5418 75.0796 47.1567C75.8342 47.7715 76.2076 48.672 76.2076 49.858C76.2076 50.5403 76.1162 51.3059 75.9335 52.1469C75.7508 52.9918 75.5681 53.6979 75.3854 54.2651C75.2027 54.8363 75.0876 55.233 75.0439 55.4631C74.2654 58.0613 73.6498 60.5326 73.1971 62.8809C72.7403 65.2292 72.5338 68.0218 72.5815 71.2547C74.7262 68.9302 76.4379 66.8437 77.7168 64.9992C78.9957 63.1546 80.3182 61.0245 81.6884 58.6048C82.2365 57.6012 82.7965 56.6571 83.3645 55.7685C83.9364 54.88 84.4924 54.162 85.0405 53.6146C85.7713 52.8847 86.6609 52.5197 87.7094 52.5197C88.6666 52.5197 89.5562 52.9283 90.3784 53.7494C91.2005 54.5706 91.6096 55.4829 91.6096 56.4825C91.6096 57.3473 91.2442 58.1486 90.5134 58.8745C89.9653 59.4219 89.3021 59.9455 88.5276 60.4453C87.7531 60.9451 86.7483 61.5164 85.5171 62.155C83.142 63.4323 80.9894 64.7294 79.0473 66.0504C77.1052 67.3713 75.0201 69.1722 72.784 71.4531C75.9335 71.3619 78.6263 71.1119 80.8623 70.6994C83.0984 70.2908 85.5409 69.7196 88.186 68.9897C90.8311 68.2162 92.817 67.8275 94.1435 67.8275C95.331 67.8275 96.2405 68.2162 96.8799 68.9897L96.868 69.0016Z" fill="#E3D384"/>
<path d="M53.9588 26.8268C54.5983 27.6043 54.916 28.4929 54.916 29.4925C54.916 30.4921 54.6062 31.4402 53.9906 32.1939C53.375 32.9436 52.4734 33.3204 51.2859 33.3204C50.4638 33.3204 49.6417 33.2173 48.8195 33.011C47.9974 32.8047 46.9013 32.4993 45.535 32.0868C42.7509 31.3132 40.2408 30.7063 38.0048 30.2739C35.7687 29.8416 33.0323 29.6234 29.7914 29.6234C32.1188 31.7654 34.2397 33.4989 36.158 34.8198C38.0723 36.1408 40.1971 37.4657 42.5245 38.7866C43.5293 39.334 44.4746 39.8933 45.3642 40.4606C46.2539 41.0318 46.9727 41.5872 47.5208 42.1346C48.2516 42.8644 48.617 43.753 48.617 44.8002C48.617 45.7562 48.2079 46.6448 47.3858 47.4659C46.5637 48.287 45.6502 48.6956 44.6493 48.6956C43.7795 48.6956 42.9812 48.3306 42.2544 47.6008C41.7064 47.0533 41.1821 46.3949 40.6817 45.6174C40.1812 44.8439 39.6093 43.8403 38.9699 42.6106C37.691 40.2424 36.3923 38.0885 35.0697 36.1487C33.7472 34.2129 31.9441 32.1264 29.6604 29.8931C29.6127 33.13 29.8192 35.8869 30.276 38.1678C30.7327 40.4487 31.3483 42.9081 32.1228 45.5499C32.4405 46.6011 32.7146 47.6246 32.9449 48.6282C33.1713 49.6317 33.2865 50.5203 33.2865 51.2938C33.2865 52.4799 32.9092 53.3803 32.1585 53.9952C31.4039 54.61 30.5024 54.9194 29.4538 54.9194C28.4053 54.9194 27.5594 54.6021 26.7849 53.9634C26.0065 53.3248 25.6212 52.4124 25.6212 51.2303C25.6212 49.9094 26.0065 47.926 26.7849 45.2802C27.5157 42.6383 28.0876 40.1988 28.4967 37.9655C28.9058 35.7322 29.156 33.0427 29.2513 29.8971C26.9676 32.1304 25.1645 34.2169 23.8419 36.1527C22.5194 38.0924 21.2167 40.2424 19.9378 42.6145C19.2984 43.8442 18.7265 44.8478 18.226 45.6213C17.7256 46.3988 17.1974 47.0573 16.6533 47.6047C15.9225 48.3346 15.1242 48.6996 14.2584 48.6996C13.2059 48.6996 12.2726 48.2989 11.4504 47.5016C10.6283 46.7043 10.2192 45.8038 10.2192 44.8002C10.2192 43.7966 10.6045 42.9081 11.3829 42.1346C11.931 41.5872 12.6499 41.0278 13.5395 40.4606C14.4292 39.8894 15.3744 39.334 16.3792 38.7866C18.7066 37.4657 20.8275 36.1447 22.7458 34.8198C24.6641 33.4989 26.7849 31.7654 29.1123 29.6234C25.8714 29.6234 23.0754 29.8416 20.7242 30.2739C18.373 30.7063 15.9662 31.3093 13.5038 32.0868C12.0899 32.4953 10.9579 32.8047 10.116 33.011C9.27 33.2173 8.43993 33.3204 7.6178 33.3204C6.47795 33.3204 5.58432 32.9555 4.94886 32.2256C4.30943 31.4957 3.9917 30.6309 3.9917 29.6274C3.9917 28.6238 4.33326 27.6559 5.02035 26.8586C5.70347 26.0612 6.64078 25.6606 7.8283 25.6606C8.65043 25.6606 9.49242 25.7518 10.3622 25.9343C11.228 26.1168 12.348 26.4143 13.7182 26.8229C16.272 27.5051 18.6828 28.0645 20.9387 28.4968C23.1985 28.9292 25.9032 29.191 29.0527 29.2823C26.8167 27.049 24.7634 25.2838 22.8927 23.9827C21.0221 22.6816 18.8774 21.3963 16.4587 20.119C14.9971 19.3455 13.9248 18.7307 13.2416 18.2745C12.5585 17.8183 11.9191 17.2947 11.3233 16.7036C10.5926 15.9738 10.2272 15.1764 10.2272 14.3117C10.2272 13.2645 10.6243 12.3283 11.4266 11.5072C12.2249 10.6861 13.1741 10.2775 14.2663 10.2775C15.1321 10.2775 16.0019 10.6662 16.8677 11.4398C17.4595 12.0348 18.0314 12.7726 18.5795 13.6611C19.1276 14.5497 19.6955 15.4978 20.2913 16.4974C21.5702 18.8219 22.8451 20.9402 24.1239 22.8561C25.4028 24.772 27.1106 26.8467 29.2592 29.0799C29.1679 25.8907 28.9058 23.1655 28.4729 20.9084C28.0399 18.6513 27.4799 16.2038 26.7968 13.558C26.0184 11.0074 25.6331 9.06763 25.6331 7.7467C25.6331 6.56064 26.0184 5.65225 26.7968 5.0136C27.5713 4.37495 28.4609 4.05762 29.4658 4.05762C30.4706 4.05762 31.4158 4.36702 32.1704 4.98187C32.9251 5.59672 33.2984 6.49718 33.2984 7.68324C33.2984 8.36552 33.2071 9.1311 33.0244 9.97205C32.8417 10.817 32.659 11.5231 32.4763 12.0903C32.2936 12.6615 32.1784 13.0582 32.1347 13.2883C31.3563 15.8865 30.7407 18.3578 30.2879 20.7061C29.8312 23.0544 29.6246 25.847 29.6723 29.0799C31.817 26.7554 33.5288 24.6689 34.8076 22.8244C36.0865 20.9798 37.409 18.8497 38.7793 16.4299C39.3273 15.4264 39.8873 14.4823 40.4553 13.5937C41.0272 12.7052 41.5832 11.9872 42.1313 11.4398C42.8621 10.7099 43.7517 10.3449 44.8003 10.3449C45.7574 10.3449 46.6471 10.7535 47.4692 11.5746C48.2913 12.3957 48.7004 13.3081 48.7004 14.3077C48.7004 15.1725 48.335 15.9738 47.6042 16.6997C47.0561 17.2471 46.3929 17.7707 45.6184 18.2705C44.8439 18.7703 43.8391 19.3415 42.6079 19.9802C40.2329 21.2575 38.0802 22.5546 36.1381 23.8756C34.196 25.1965 32.1109 26.9974 29.8748 29.2783C33.0243 29.187 35.7171 28.9371 37.9531 28.5246C40.1892 28.116 42.6317 27.5448 45.2768 26.8149C47.922 26.0414 49.9078 25.6527 51.2343 25.6527C52.4218 25.6527 53.3313 26.0414 53.9708 26.8149L53.9588 26.8268Z" fill="#E3D384"/>
<path d="M96.868 26.8268C97.5075 27.6043 97.8252 28.4929 97.8252 29.4925C97.8252 30.4921 97.5154 31.4402 96.8998 32.1939C96.2842 32.9436 95.3826 33.3204 94.1951 33.3204C93.373 33.3204 92.5509 33.2173 91.7287 33.011C90.9066 32.8047 89.8104 32.4993 88.4442 32.0868C85.6601 31.3132 83.15 30.7063 80.914 30.2739C78.6779 29.8416 75.9415 29.6234 72.7006 29.6234C75.028 31.7654 77.1489 33.4989 79.0672 34.8198C80.9815 36.1408 83.1063 37.4657 85.4337 38.7866C86.4385 39.334 87.3838 39.8933 88.2734 40.4606C89.1631 41.0318 89.8819 41.5872 90.43 42.1346C91.1608 42.8644 91.5262 43.753 91.5262 44.8002C91.5262 45.7562 91.1171 46.6448 90.295 47.4659C89.4728 48.287 88.5594 48.6956 87.5585 48.6956C86.6887 48.6956 85.8904 48.3306 85.1636 47.6008C84.6155 47.0533 84.0913 46.3949 83.5908 45.6174C83.0904 44.8439 82.5185 43.8403 81.8791 42.6106C80.6002 40.2424 79.3015 38.0885 77.9789 36.1487C76.6564 34.2129 74.8532 32.1264 72.5696 29.8931C72.5219 33.13 72.7284 35.8869 73.1852 38.1678C73.6419 40.4487 74.2575 42.9081 75.032 45.5499C75.3497 46.6011 75.6237 47.6246 75.8541 48.6282C76.0805 49.6317 76.1957 50.5203 76.1957 51.2938C76.1957 52.4799 75.8184 53.3803 75.0677 53.9952C74.3171 54.61 73.4115 54.9194 72.363 54.9194C71.3145 54.9194 70.4686 54.6021 69.6941 53.9634C68.9157 53.3248 68.5304 52.4124 68.5304 51.2303C68.5304 49.9094 68.9157 47.926 69.6941 45.2802C70.4249 42.6383 70.9968 40.1988 71.4059 37.9655C71.8149 35.7322 72.0652 33.0427 72.1605 29.8971C69.8768 32.1304 68.0737 34.2169 66.7511 36.1527C65.4286 38.0924 64.1259 40.2424 62.847 42.6145C62.2076 43.8442 61.6356 44.8478 61.1352 45.6213C60.6348 46.3988 60.1066 47.0573 59.5624 47.6047C58.8317 48.3346 58.0334 48.6996 57.1675 48.6996C56.1151 48.6996 55.1817 48.2989 54.3596 47.5016C53.5375 46.7043 53.1284 45.8038 53.1284 44.8002C53.1284 43.7966 53.5136 42.9081 54.2921 42.1346C54.8402 41.5872 55.559 41.0278 56.4487 40.4606C57.3383 39.8894 58.2836 39.334 59.2884 38.7866C61.6158 37.4657 63.7366 36.1447 65.6549 34.8198C67.5732 33.4989 69.6941 31.7654 72.0215 29.6234C68.7806 29.6234 65.9846 29.8416 63.6334 30.2739C61.2822 30.7063 58.8754 31.3093 56.4129 32.0868C54.999 32.4953 53.8671 32.8047 53.0251 33.011C52.1792 33.2173 51.3491 33.3204 50.527 33.3204C49.3871 33.3204 48.4935 32.9555 47.858 32.2256C47.2186 31.4957 46.9009 30.6309 46.9009 29.6274C46.9009 28.6238 47.2424 27.6559 47.9295 26.8586C48.6127 26.0612 49.5499 25.6606 50.7375 25.6606C51.5596 25.6606 52.4016 25.7518 53.2714 25.9343C54.1372 26.1168 55.2572 26.4143 56.6274 26.8229C59.1812 27.5051 61.592 28.0645 63.8478 28.4968C66.1077 28.9292 68.8124 29.191 71.9619 29.2823C69.7259 27.049 67.6725 25.2838 65.8019 23.9827C63.9313 22.6816 61.7866 21.3963 59.3678 20.119C57.9063 19.3455 56.8339 18.7307 56.1508 18.2745C55.4677 17.8183 54.8283 17.2947 54.2325 16.7036C53.5017 15.9738 53.1363 15.1764 53.1363 14.3117C53.1363 13.2645 53.5335 12.3283 54.3358 11.5072C55.1341 10.6861 56.0833 10.2775 57.1755 10.2775C58.0413 10.2775 58.9111 10.6662 59.7769 11.4398C60.3687 12.0348 60.9406 12.7726 61.4887 13.6611C62.0368 14.5497 62.6047 15.4978 63.2005 16.4974C64.4793 18.8219 65.7542 20.9402 67.0331 22.8561C68.312 24.772 70.0198 26.8467 72.1684 29.0799C72.0771 25.8907 71.8149 23.1655 71.382 20.9084C70.9491 18.6513 70.3891 16.2038 69.706 13.558C68.9276 11.0074 68.5423 9.06763 68.5423 7.7467C68.5423 6.56064 68.9276 5.65225 69.706 5.0136C70.4805 4.37495 71.3701 4.05762 72.3749 4.05762C73.3798 4.05762 74.325 4.36702 75.0796 4.98187C75.8342 5.59672 76.2076 6.49718 76.2076 7.68324C76.2076 8.36552 76.1162 9.1311 75.9335 9.97205C75.7508 10.817 75.5681 11.5231 75.3854 12.0903C75.2027 12.6615 75.0876 13.0582 75.0439 13.2883C74.2654 15.8865 73.6498 18.3578 73.1971 20.7061C72.7403 23.0544 72.5338 25.847 72.5815 29.0799C74.7262 26.7554 76.4379 24.6689 77.7168 22.8244C78.9957 20.9798 80.3182 18.8497 81.6884 16.4299C82.2365 15.4264 82.7965 14.4823 83.3645 13.5937C83.9364 12.7052 84.4924 11.9872 85.0405 11.4398C85.7713 10.7099 86.6609 10.3449 87.7094 10.3449C88.6666 10.3449 89.5562 10.7535 90.3784 11.5746C91.2005 12.3957 91.6096 13.3081 91.6096 14.3077C91.6096 15.1725 91.2442 15.9738 90.5134 16.6997C89.9653 17.2471 89.3021 17.7707 88.5276 18.2705C87.7531 18.7703 86.7483 19.3415 85.5171 19.9802C83.142 21.2575 80.9894 22.5546 79.0473 23.8756C77.1052 25.1965 75.0201 26.9974 72.784 29.2783C75.9335 29.187 78.6263 28.9371 80.8623 28.5246C83.0984 28.116 85.5409 27.5448 88.186 26.8149C90.8311 26.0414 92.817 25.6527 94.1435 25.6527C95.331 25.6527 96.2405 26.0414 96.8799 26.8149L96.868 26.8268Z" fill="#E3D384"/>
</svg>
