<svg width="11" height="22" viewBox="0 0 11 22" fill="none" xmlns="http://www.w3.org/2000/svg">
<path d="M6.00097 2.80905C5.49023 3.639 5.23486 4.53278 5.23486 5.42657C6.12865 5.42657 7.02244 5.17121 7.85239 4.66047C8.68233 4.14973 9.3846 3.44747 9.89533 2.61752C10.4061 1.78758 10.6614 0.893788 10.6614 0C9.76765 0 8.87386 0.255368 8.04391 0.766104C7.21397 1.27684 6.5117 1.9791 6.00097 2.80905Z" fill="#E3D384"/>
<path d="M0.766105 8.36325C0.255369 9.19319 0 10.087 0 10.9808C0.893788 10.9808 1.78758 10.7254 2.61752 10.2147C3.44747 9.70393 4.14973 9.00167 4.66047 8.17172C5.17121 7.34178 5.42657 6.44799 5.42657 5.5542C4.53278 5.5542 3.639 5.80957 2.80905 6.3203C1.9791 6.83104 1.27684 7.5333 0.766105 8.36325Z" fill="#E3D384"/>
<path d="M7.85239 6.25658C7.02244 5.74585 6.12865 5.49048 5.23486 5.49048C5.23486 6.38427 5.49023 7.27806 6.00097 8.108C6.5117 8.93795 7.21397 9.64021 8.04391 10.1509C8.87386 10.6617 9.76765 10.9171 10.6614 10.9171C10.6614 10.0233 10.4061 9.12948 9.89533 8.29953C9.3846 7.46958 8.68233 6.76732 7.85239 6.25658Z" fill="#E3D384"/>
<path d="M2.61752 11.7469C1.78758 11.2362 0.893788 10.9808 0 10.9808C0 11.8746 0.255369 12.7684 0.766105 13.5984C1.27684 14.4283 1.9791 15.1306 2.80905 15.6413C3.639 16.152 4.53278 16.4074 5.42657 16.4074C5.42657 15.5136 5.17121 14.6198 4.66047 13.7899C4.14973 12.9599 3.44747 12.2577 2.61752 11.7469Z" fill="#E3D384"/>
<path d="M6.00097 13.8537C5.49023 14.6837 5.23486 15.5775 5.23486 16.4713C6.12865 16.4713 7.02244 16.2159 7.85239 15.7051C8.68233 15.1944 9.3846 14.4921 9.89533 13.6622C10.4061 12.8323 10.6614 11.9385 10.6614 11.0447C9.76765 11.0447 8.87386 11.3 8.04391 11.8108C7.21397 12.3215 6.5117 13.0238 6.00097 13.8537Z" fill="#E3D384"/>
<path d="M7.85239 17.3013C7.02244 16.7905 6.12865 16.5352 5.23486 16.5352C5.23486 17.4289 5.49023 18.3227 6.00097 19.1527C6.5117 19.9826 7.21397 20.6849 8.04391 21.1956C8.87386 21.7064 9.76765 21.9617 10.6614 21.9617C10.6614 21.0679 10.4061 20.1742 9.89533 19.3442C9.3846 18.5143 8.68233 17.812 7.85239 17.3013Z" fill="#E3D384"/>
</svg>
