<svg width="11" height="22" viewBox="0 0 11 22" fill="none" xmlns="http://www.w3.org/2000/svg">
<path d="M4.66046 19.1527C5.1712 18.3227 5.42657 17.4289 5.42657 16.5352C4.53278 16.5352 3.63901 16.7905 2.80907 17.3013C1.97912 17.812 1.27685 18.5143 0.766112 19.3442C0.255376 20.1742 0 21.0679 0 21.9617C0.893788 21.9617 1.78756 21.7064 2.61751 21.1956C3.44745 20.6849 4.14972 19.9826 4.66046 19.1527Z" fill="#E3D384"/>
<path d="M9.89581 13.5984C10.4065 12.7684 10.6619 11.8746 10.6619 10.9808C9.76814 10.9808 8.87432 11.2362 8.04438 11.7469C7.21443 12.2577 6.5122 12.9599 6.00146 13.7899C5.49073 14.6198 5.23535 15.5136 5.23535 16.4074C6.12914 16.4074 7.02291 16.152 7.85286 15.6413C8.68281 15.1306 9.38508 14.4283 9.89581 13.5984Z" fill="#E3D384"/>
<path d="M2.80907 15.7051C3.63901 16.2159 4.53278 16.4713 5.42657 16.4713C5.42657 15.5775 5.1712 14.6837 4.66046 13.8537C4.14972 13.0238 3.44745 12.3215 2.61751 11.8108C1.78756 11.3 0.893788 11.0447 0 11.0447C0 11.9385 0.255376 12.8323 0.766112 13.6622C1.27685 14.4921 1.97912 15.1944 2.80907 15.7051Z" fill="#E3D384"/>
<path d="M8.04438 10.2147C8.87432 10.7254 9.76814 10.9808 10.6619 10.9808C10.6619 10.087 10.4065 9.19319 9.89581 8.36325C9.38508 7.5333 8.68281 6.83104 7.85286 6.3203C7.02291 5.80957 6.12914 5.5542 5.23535 5.5542C5.23535 6.44799 5.49073 7.34178 6.00146 8.17172C6.5122 9.00167 7.21443 9.70393 8.04438 10.2147Z" fill="#E3D384"/>
<path d="M4.66046 8.108C5.1712 7.27806 5.42657 6.38427 5.42657 5.49048C4.53278 5.49048 3.63901 5.74585 2.80907 6.25658C1.97912 6.76732 1.27685 7.46958 0.766112 8.29953C0.255376 9.12948 0 10.0233 0 10.9171C0.893788 10.9171 1.78756 10.6617 2.61751 10.1509C3.44745 9.64021 4.14972 8.93795 4.66046 8.108Z" fill="#E3D384"/>
<path d="M2.80907 4.66047C3.63901 5.17121 4.53278 5.42657 5.42657 5.42657C5.42657 4.53278 5.1712 3.639 4.66046 2.80905C4.14972 1.9791 3.44745 1.27684 2.61751 0.766104C1.78756 0.255368 0.893788 0 0 0C0 0.893788 0.255376 1.78758 0.766112 2.61752C1.27685 3.44747 1.97912 4.14973 2.80907 4.66047Z" fill="#E3D384"/>
</svg>
