<svg width="34" height="34" viewBox="0 0 34 34" fill="none" xmlns="http://www.w3.org/2000/svg">
<path d="M16.5254 0C7.4134 0 0 7.4134 0 16.5254C0 25.6374 7.4134 33.0508 16.5254 33.0508C25.6374 33.0508 33.0508 25.6374 33.0508 16.5254C33.0508 7.4134 25.6374 0 16.5254 0ZM22.5087 20.7116C22.6317 20.8285 22.7301 20.9688 22.798 21.1243C22.866 21.2797 22.9021 21.4472 22.9043 21.6169C22.9064 21.7866 22.8746 21.9549 22.8107 22.1121C22.7468 22.2693 22.652 22.4121 22.532 22.532C22.4121 22.652 22.2693 22.7468 22.1121 22.8107C21.9549 22.8746 21.7866 22.9064 21.6169 22.9043C21.4472 22.9021 21.2797 22.866 21.1243 22.798C20.9688 22.7301 20.8285 22.6317 20.7116 22.5087L16.5254 18.3234L12.3392 22.5087C12.0989 22.7371 11.7789 22.8625 11.4474 22.8582C11.1159 22.854 10.7992 22.7204 10.5648 22.486C10.3304 22.2516 10.1969 21.9349 10.1926 21.6034C10.1884 21.272 10.3138 20.9519 10.5421 20.7116L14.7275 16.5254L10.5421 12.3392C10.3138 12.0989 10.1884 11.7789 10.1926 11.4474C10.1969 11.1159 10.3304 10.7992 10.5648 10.5648C10.7992 10.3304 11.1159 10.1969 11.4474 10.1926C11.7789 10.1884 12.0989 10.3138 12.3392 10.5421L16.5254 14.7275L20.7116 10.5421C20.9519 10.3138 21.272 10.1884 21.6034 10.1926C21.9349 10.1969 22.2516 10.3304 22.486 10.5648C22.7204 10.7992 22.854 11.1159 22.8582 11.4474C22.8625 11.7789 22.7371 12.0989 22.5087 12.3392L18.3234 16.5254L22.5087 20.7116Z" fill="#E3D384"/>
</svg>
