<svg width="102" height="101" viewBox="0 0 102 101" fill="none" xmlns="http://www.w3.org/2000/svg">
<rect width="102" height="101" fill="#AC1F2C"/>
<path d="M101.144 101H0.000244141V0H101.144V101ZM5.00736 96H96.1369V5H5.00736V96Z" fill="#AC1F2C"/>
<path d="M20.1638 50.468H18.4075V98.3903H20.1638V50.468Z" fill="#E3D384"/>
<path d="M11.7391 49.2368C9.2613 47.6968 7.25525 45.6896 5.70909 43.2153C4.16689 40.745 3.3938 38.1875 3.3938 35.543C6.03814 35.543 8.59922 36.315 11.0771 37.855C13.5509 39.395 15.5609 41.4021 17.1071 43.8764C18.6493 46.3507 19.4224 48.9042 19.4224 51.5488C16.778 51.5488 14.217 50.7768 11.7391 49.2368Z" fill="#E3D384"/>
<path d="M21.7098 43.8764C23.2362 41.406 25.2383 39.3989 27.7121 37.8549C30.186 36.3149 32.7471 35.5429 35.3954 35.5429C35.3954 38.1835 34.6342 40.7409 33.1079 43.2152C31.5815 45.6895 29.5794 47.6927 27.1056 49.2367C24.6317 50.7767 22.0706 51.5487 19.4263 51.5487C19.4263 48.9081 20.1875 46.3507 21.7138 43.8764H21.7098Z" fill="#E3D384"/>
<path d="M11.7389 64.7556C9.26105 63.2156 7.25501 61.2084 5.70884 58.7341C4.16664 56.2638 3.39355 53.7063 3.39355 51.0618C6.03789 51.0618 8.59898 51.8337 11.0768 53.3738C13.5507 54.9138 15.5607 56.9209 17.1069 59.3952C18.6491 61.8695 19.4221 64.423 19.4221 67.0676C16.7778 67.0676 14.2167 66.2956 11.7389 64.7556Z" fill="#E3D384"/>
<path d="M21.7098 59.3992C23.2362 56.9289 25.2383 54.9217 27.7121 53.3777C30.186 51.8377 32.7471 51.0657 35.3954 51.0657C35.3954 53.7063 34.6342 56.2638 33.1079 58.7381C31.5815 61.2124 29.5794 63.2156 27.1056 64.7595C24.6317 66.2995 22.0706 67.0715 19.4263 67.0715C19.4263 64.431 20.1875 61.8735 21.7138 59.3992H21.7098Z" fill="#E3D384"/>
<path d="M11.7389 81.957C9.26105 80.417 7.25501 78.4098 5.70884 75.9355C4.16664 73.4652 3.39355 70.9077 3.39355 68.2632C6.03789 68.2632 8.59898 69.0352 11.0768 70.5752C13.5507 72.1152 15.5607 74.1223 17.1069 76.5967C18.6491 79.071 19.4221 81.6244 19.4221 84.269C16.7778 84.269 14.2167 83.497 11.7389 81.957Z" fill="#E3D384"/>
<path d="M21.7098 76.5967C23.2362 74.1263 25.2383 72.1191 27.7121 70.5752C30.186 69.0352 32.7471 68.2632 35.3954 68.2632C35.3954 70.9038 34.6342 73.4612 33.1079 75.9355C31.5815 78.4098 29.5794 80.413 27.1056 81.957C24.6317 83.497 22.0706 84.269 19.4263 84.269C19.4263 81.6284 20.1875 79.071 21.7138 76.5967H21.7098Z" fill="#E3D384"/>
<path d="M50.8334 50.468H49.0771V98.3903H50.8334V50.468Z" fill="#E3D384"/>
<path d="M42.4088 49.2368C39.931 47.6968 37.9249 45.6896 36.3788 43.2153C34.8366 40.745 34.0635 38.1875 34.0635 35.543C36.7078 35.543 39.2689 36.315 41.7467 37.855C44.2206 39.395 46.2306 41.4021 47.7768 43.8764C49.319 46.3507 50.0921 48.9042 50.0921 51.5488C47.4477 51.5488 44.8866 50.7768 42.4088 49.2368Z" fill="#E3D384"/>
<path d="M52.3793 43.8764C53.9056 41.406 55.9077 39.3989 58.3816 37.8549C60.8554 36.3149 63.4165 35.5429 66.0648 35.5429C66.0648 38.1835 65.3036 40.7409 63.7773 43.2152C62.2509 45.6895 60.2489 47.6927 57.775 49.2367C55.3011 50.7767 52.74 51.5487 50.0957 51.5487C50.0957 48.9081 50.8569 46.3507 52.3832 43.8764H52.3793Z" fill="#E3D384"/>
<path d="M42.4088 64.7556C39.931 63.2156 37.9249 61.2084 36.3788 58.7341C34.8366 56.2638 34.0635 53.7063 34.0635 51.0618C36.7078 51.0618 39.2689 51.8337 41.7467 53.3738C44.2206 54.9138 46.2306 56.9209 47.7768 59.3952C49.319 61.8695 50.0921 64.423 50.0921 67.0676C47.4477 67.0676 44.8866 66.2956 42.4088 64.7556Z" fill="#E3D384"/>
<path d="M52.3793 59.3992C53.9056 56.9289 55.9077 54.9217 58.3816 53.3777C60.8554 51.8377 63.4165 51.0657 66.0648 51.0657C66.0648 53.7063 65.3036 56.2638 63.7773 58.7381C62.2509 61.2124 60.2489 63.2156 57.775 64.7595C55.3011 66.2995 52.74 67.0715 50.0957 67.0715C50.0957 64.431 50.8569 61.8735 52.3832 59.3992H52.3793Z" fill="#E3D384"/>
<path d="M42.4088 81.957C39.931 80.417 37.9249 78.4098 36.3788 75.9355C34.8366 73.4652 34.0635 70.9077 34.0635 68.2632C36.7078 68.2632 39.2689 69.0352 41.7467 70.5752C44.2206 72.1152 46.2306 74.1223 47.7768 76.5967C49.319 79.071 50.0921 81.6244 50.0921 84.269C47.4477 84.269 44.8866 83.497 42.4088 81.957Z" fill="#E3D384"/>
<path d="M52.3793 76.5967C53.9056 74.1263 55.9077 72.1191 58.3816 70.5752C60.8554 69.0352 63.4165 68.2632 66.0648 68.2632C66.0648 70.9038 65.3036 73.4612 63.7773 75.9355C62.2509 78.4098 60.2489 80.413 57.775 81.957C55.3011 83.497 52.74 84.269 50.0957 84.269C50.0957 81.6284 50.8569 79.071 52.3832 76.5967H52.3793Z" fill="#E3D384"/>
<path d="M81.9352 50.3333H80.179V98.2556H81.9352V50.3333Z" fill="#E3D384"/>
<path d="M73.5106 49.1021C71.0328 47.5621 69.0267 45.555 67.4806 43.0807C65.9384 40.6103 65.1653 38.0529 65.1653 35.4083C67.8096 35.4083 70.3707 36.1803 72.8485 37.7203C75.3224 39.2603 77.3324 41.2675 78.8786 43.7418C80.4208 46.2161 81.1939 48.7696 81.1939 51.4141C78.5495 51.4141 75.9884 50.6421 73.5106 49.1021Z" fill="#E3D384"/>
<path d="M83.4813 43.7417C85.0077 41.2714 87.0097 39.2642 89.4836 37.7203C91.9575 36.1802 94.5186 35.4083 97.1669 35.4083C97.1669 38.0488 96.4057 40.6063 94.8793 43.0806C93.353 45.5549 91.3509 47.5581 88.877 49.1021C86.4032 50.6421 83.8421 51.4141 81.1978 51.4141C81.1978 48.7735 81.959 46.216 83.4853 43.7417H83.4813Z" fill="#E3D384"/>
<path d="M73.5104 64.6248C71.0325 63.0848 69.0265 61.0777 67.4803 58.6034C65.9381 56.133 65.165 53.5756 65.165 50.931C67.8094 50.931 70.3705 51.703 72.8483 53.243C75.3222 54.783 77.3322 56.7902 78.8783 59.2645C80.4205 61.7388 81.1936 64.2923 81.1936 66.9368C78.5493 66.9368 75.9882 66.1648 73.5104 64.6248Z" fill="#E3D384"/>
<path d="M83.4813 59.2645C85.0077 56.7942 87.0097 54.787 89.4836 53.243C91.9575 51.703 94.5186 50.931 97.1669 50.931C97.1669 53.5716 96.4057 56.1291 94.8793 58.6034C93.353 61.0777 91.3509 63.0809 88.877 64.6248C86.4032 66.1648 83.8421 66.9368 81.1978 66.9368C81.1978 64.2962 81.959 61.7388 83.4853 59.2645H83.4813Z" fill="#E3D384"/>
<path d="M73.5104 81.8223C71.0325 80.2823 69.0265 78.2751 67.4803 75.8008C65.9381 73.3305 65.165 70.773 65.165 68.1285C67.8094 68.1285 70.3705 68.9005 72.8483 70.4405C75.3222 71.9805 77.3322 73.9876 78.8783 76.462C80.4205 78.9363 81.1936 81.4897 81.1936 84.1343C78.5493 84.1343 75.9882 83.3623 73.5104 81.8223Z" fill="#E3D384"/>
<path d="M83.4813 76.462C85.0077 73.9916 87.0097 71.9844 89.4836 70.4405C91.9575 68.9005 94.5186 68.1285 97.1669 68.1285C97.1669 70.7691 96.4057 73.3265 94.8793 75.8008C93.353 78.2751 91.3509 80.2783 88.877 81.8223C86.4032 83.3623 83.8421 84.1343 81.1978 84.1343C81.1978 81.4937 81.959 78.9363 83.4853 76.462H83.4813Z" fill="#E3D384"/>
<path d="M20.1638 17.7278H18.4075V65.6502H20.1638V17.7278Z" fill="#E3D384"/>
<path d="M11.7391 16.4967C9.2613 14.9566 7.25525 12.9495 5.70909 10.4752C4.16689 8.00484 3.3938 5.4474 3.3938 2.80286C6.03814 2.80286 8.59922 3.57484 11.0771 5.11485C13.5509 6.65486 15.5609 8.66202 17.1071 11.1363C18.6493 13.6106 19.4224 16.1641 19.4224 18.8086C16.778 18.8086 14.217 18.0367 11.7391 16.4967Z" fill="#E3D384"/>
<path d="M21.7098 11.1363C23.2362 8.66597 25.2383 6.65881 27.7121 5.11485C30.186 3.57484 32.7471 2.80286 35.3954 2.80286C35.3954 5.44344 34.6342 8.00088 33.1079 10.4752C31.5815 12.9495 29.5794 14.9527 27.1056 16.4967C24.6317 18.0367 22.0706 18.8086 19.4263 18.8086C19.4263 16.1681 20.1875 13.6106 21.7138 11.1363H21.7098Z" fill="#E3D384"/>
<path d="M11.7389 32.0195C9.26105 30.4795 7.25501 28.4723 5.70884 25.998C4.16664 23.5277 3.39355 20.9702 3.39355 18.3257C6.03789 18.3257 8.59898 19.0977 11.0768 20.6377C13.5507 22.1777 15.5607 24.1848 17.1069 26.6591C18.6491 29.1335 19.4221 31.6869 19.4221 34.3315C16.7778 34.3315 14.2167 33.5595 11.7389 32.0195Z" fill="#E3D384"/>
<path d="M21.7098 26.6591C23.2362 24.1888 25.2383 22.1816 27.7121 20.6377C30.186 19.0977 32.7471 18.3257 35.3954 18.3257C35.3954 20.9663 34.6342 23.5237 33.1079 25.998C31.5815 28.4723 29.5794 30.4755 27.1056 32.0195C24.6317 33.5595 22.0706 34.3315 19.4263 34.3315C19.4263 31.6909 20.1875 29.1335 21.7138 26.6591H21.7098Z" fill="#E3D384"/>
<path d="M11.7389 49.2208C9.26105 47.6808 7.25501 45.6737 5.70884 43.1994C4.16664 40.729 3.39355 38.1716 3.39355 35.527C6.03789 35.527 8.59898 36.299 11.0768 37.839C13.5507 39.379 15.5607 41.3862 17.1069 43.8605C18.6491 46.3348 19.4221 48.8883 19.4221 51.5328C16.7778 51.5328 14.2167 50.7608 11.7389 49.2208Z" fill="#E3D384"/>
<path d="M21.7098 43.8605C23.2362 41.3902 25.2383 39.383 27.7121 37.839C30.186 36.299 32.7471 35.527 35.3954 35.527C35.3954 38.1676 34.6342 40.7251 33.1079 43.1994C31.5815 45.6737 29.5794 47.6769 27.1056 49.2208C24.6317 50.7608 22.0706 51.5328 19.4263 51.5328C19.4263 48.8923 20.1875 46.3348 21.7138 43.8605H21.7098Z" fill="#E3D384"/>
<path d="M50.8334 17.7278H49.0771V65.6502H50.8334V17.7278Z" fill="#E3D384"/>
<path d="M42.4088 16.4967C39.931 14.9566 37.9249 12.9495 36.3788 10.4752C34.8366 8.00484 34.0635 5.4474 34.0635 2.80286C36.7078 2.80286 39.2689 3.57484 41.7467 5.11485C44.2206 6.65486 46.2306 8.66202 47.7768 11.1363C49.319 13.6106 50.0921 16.1641 50.0921 18.8086C47.4477 18.8086 44.8866 18.0367 42.4088 16.4967Z" fill="#E3D384"/>
<path d="M52.3793 11.1363C53.9056 8.66597 55.9077 6.65881 58.3816 5.11485C60.8554 3.57484 63.4165 2.80286 66.0648 2.80286C66.0648 5.44344 65.3036 8.00088 63.7773 10.4752C62.2509 12.9495 60.2489 14.9527 57.775 16.4967C55.3011 18.0367 52.74 18.8086 50.0957 18.8086C50.0957 16.1681 50.8569 13.6106 52.3832 11.1363H52.3793Z" fill="#E3D384"/>
<path d="M42.4088 32.0195C39.931 30.4795 37.9249 28.4723 36.3788 25.998C34.8366 23.5277 34.0635 20.9702 34.0635 18.3257C36.7078 18.3257 39.2689 19.0977 41.7467 20.6377C44.2206 22.1777 46.2306 24.1848 47.7768 26.6591C49.319 29.1335 50.0921 31.6869 50.0921 34.3315C47.4477 34.3315 44.8866 33.5595 42.4088 32.0195Z" fill="#E3D384"/>
<path d="M52.3793 26.6591C53.9056 24.1888 55.9077 22.1816 58.3816 20.6377C60.8554 19.0977 63.4165 18.3257 66.0648 18.3257C66.0648 20.9663 65.3036 23.5237 63.7773 25.998C62.2509 28.4723 60.2489 30.4755 57.775 32.0195C55.3011 33.5595 52.74 34.3315 50.0957 34.3315C50.0957 31.6909 50.8569 29.1335 52.3832 26.6591H52.3793Z" fill="#E3D384"/>
<path d="M42.4088 49.2208C39.931 47.6808 37.9249 45.6737 36.3788 43.1994C34.8366 40.729 34.0635 38.1716 34.0635 35.527C36.7078 35.527 39.2689 36.299 41.7467 37.839C44.2206 39.379 46.2306 41.3862 47.7768 43.8605C49.319 46.3348 50.0921 48.8883 50.0921 51.5328C47.4477 51.5328 44.8866 50.7608 42.4088 49.2208Z" fill="#E3D384"/>
<path d="M52.3793 43.8605C53.9056 41.3902 55.9077 39.383 58.3816 37.839C60.8554 36.299 63.4165 35.527 66.0648 35.527C66.0648 38.1676 65.3036 40.7251 63.7773 43.1994C62.2509 45.6737 60.2489 47.6769 57.775 49.2208C55.3011 50.7608 52.74 51.5328 50.0957 51.5328C50.0957 48.8923 50.8569 46.3348 52.3832 43.8605H52.3793Z" fill="#E3D384"/>
<path d="M81.9352 17.5933H80.179V65.5156H81.9352V17.5933Z" fill="#E3D384"/>
<path d="M73.5106 16.3621C71.0328 14.8221 69.0267 12.8149 67.4806 10.3406C65.9384 7.87025 65.1653 5.31281 65.1653 2.66827C67.8096 2.66827 70.3707 3.44026 72.8485 4.98026C75.3224 6.52027 77.3324 8.52743 78.8786 11.0017C80.4208 13.476 81.1939 16.0295 81.1939 18.6741C78.5495 18.6741 75.9884 17.9021 73.5106 16.3621Z" fill="#E3D384"/>
<path d="M83.4813 11.0017C85.0077 8.53139 87.0097 6.52423 89.4836 4.98026C91.9575 3.44026 94.5186 2.66827 97.1669 2.66827C97.1669 5.30885 96.4057 7.86629 94.8793 10.3406C93.353 12.8149 91.3509 14.8181 88.877 16.3621C86.4032 17.9021 83.8421 18.6741 81.1978 18.6741C81.1978 16.0335 81.959 13.476 83.4853 11.0017H83.4813Z" fill="#E3D384"/>
<path d="M73.5104 31.8848C71.0325 30.3448 69.0265 28.3377 67.4803 25.8634C65.9381 23.393 65.165 20.8356 65.165 18.191C67.8094 18.191 70.3705 18.963 72.8483 20.503C75.3222 22.043 77.3322 24.0502 78.8783 26.5245C80.4205 28.9988 81.1936 31.5523 81.1936 34.1968C78.5493 34.1968 75.9882 33.4249 73.5104 31.8848Z" fill="#E3D384"/>
<path d="M83.4813 26.5245C85.0077 24.0542 87.0097 22.047 89.4836 20.503C91.9575 18.963 94.5186 18.191 97.1669 18.191C97.1669 20.8316 96.4057 23.3891 94.8793 25.8634C93.353 28.3377 91.3509 30.3409 88.877 31.8848C86.4032 33.4249 83.8421 34.1968 81.1978 34.1968C81.1978 31.5563 81.959 28.9988 83.4853 26.5245H83.4813Z" fill="#E3D384"/>
<path d="M73.5104 49.0863C71.0325 47.5462 69.0265 45.5391 67.4803 43.0648C65.9381 40.5944 65.165 38.037 65.165 35.3925C67.8094 35.3925 70.3705 36.1644 72.8483 37.7044C75.3222 39.2445 77.3322 41.2516 78.8783 43.7259C80.4205 46.2002 81.1936 48.7537 81.1936 51.3982C78.5493 51.3982 75.9882 50.6263 73.5104 49.0863Z" fill="#E3D384"/>
<path d="M83.4813 43.7259C85.0077 41.2556 87.0097 39.2484 89.4836 37.7044C91.9575 36.1644 94.5186 35.3925 97.1669 35.3925C97.1669 38.033 96.4057 40.5905 94.8793 43.0648C93.353 45.5391 91.3509 47.5423 88.877 49.0863C86.4032 50.6263 83.8421 51.3982 81.1978 51.3982C81.1978 48.7577 81.959 46.2002 83.4853 43.7259H83.4813Z" fill="#E3D384"/>
</svg>
