<svg width="102" height="102" viewBox="0 0 102 102" fill="none" xmlns="http://www.w3.org/2000/svg">
<rect width="102" height="102" fill="#AC1F2C"/>
<path d="M101.186 101.042H0V0H101.186V101.042ZM5.00921 96.04H96.1767V5.00208H5.00921V96.04Z" fill="#AC1F2C"/>
<path d="M83.2214 43.3671C85.2228 45.5299 86.2255 48.0856 86.2255 51.0262C86.2255 53.9668 85.2228 56.324 83.2214 58.4352C81.22 60.5464 78.4348 61.598 74.8776 61.598C72.9279 61.598 71.0498 61.1972 69.2434 60.3916C67.433 59.59 65.2207 58.3519 62.6065 56.6891C60.1037 55.1375 58.0426 53.9708 56.4312 53.1929C54.8157 52.4151 53.1485 51.9429 51.4217 51.7762C53.9801 54.1612 56.1924 55.9946 58.0586 57.2685C59.9207 58.5463 62.1052 59.9035 64.6119 61.348C66.3905 62.3481 67.8388 63.2092 68.9529 63.9275C70.063 64.6498 71.2329 65.5665 72.4584 66.6737C73.3457 67.507 73.7953 68.4793 73.7953 69.5865C73.7953 70.6937 73.3894 71.6659 72.5857 72.4993C71.778 73.3326 70.819 73.7493 69.7049 73.7493C68.5908 73.7493 67.5086 73.3049 66.4502 72.4159C65.1132 71.1976 64.0031 69.9912 63.1118 68.7968C62.2205 67.6062 61.2775 66.122 60.2748 64.3442C58.9379 62.0703 57.6169 60.0305 56.3118 58.2249C55.0027 56.4232 53.2361 54.3835 51.0118 52.1056C51.179 53.8834 51.6525 55.574 52.4323 57.1812C53.2122 58.7924 54.382 60.8441 55.9378 63.3402C57.6089 65.9474 58.8464 68.1539 59.6501 69.9555C60.4579 71.7612 60.8597 73.6303 60.8597 75.5748C60.8597 79.1265 59.8013 81.9005 57.6885 83.8966C55.5757 85.8927 53.0968 86.8927 50.2638 86.8927C47.4308 86.8927 44.7569 85.8927 42.5844 83.8966C40.4159 81.9005 39.3297 79.1226 39.3297 75.5748C39.3297 73.6303 39.7315 71.7612 40.5393 69.9555C41.347 68.1539 42.5844 65.9474 44.2516 63.3402C45.8074 60.8441 46.9772 58.7924 47.7571 57.1812C48.5369 55.574 49.0104 53.8795 49.1776 52.1056C46.9493 54.3795 45.1827 56.4193 43.8776 58.2249C42.5685 60.0305 41.2475 62.0663 39.9146 64.3442C38.9119 66.122 37.9649 67.6062 37.0776 68.7968C36.1863 69.9912 35.0762 71.1976 33.7392 72.4159C32.6808 73.3009 31.6543 73.7493 30.6516 73.7493C29.5375 73.7493 28.5507 73.3326 27.6873 72.4993C26.8238 71.6659 26.3941 70.6976 26.3941 69.5865C26.3941 68.4753 26.8397 67.507 27.731 66.6737C28.9565 65.5625 30.1224 64.6498 31.2365 63.9275C32.3506 63.2053 33.7949 62.3441 35.5775 61.348C38.0803 59.9035 40.2647 58.5463 42.1308 57.2685C43.993 55.9946 46.2053 54.1612 48.7677 51.7762C47.0409 51.9429 45.3737 52.4151 43.7582 53.1929C42.1428 53.9708 40.0857 55.1375 37.5829 56.6891C34.9687 58.3559 32.7564 59.59 30.946 60.3916C29.1396 61.1972 27.2615 61.598 25.3118 61.598C21.7507 61.598 18.9694 60.5464 16.968 58.4352C14.9666 56.328 13.9639 53.8596 13.9639 51.0262C13.9639 48.1927 14.9666 45.5339 16.968 43.3671C18.9694 41.2044 21.7507 40.121 25.3118 40.121C27.2615 40.121 29.1356 40.5218 30.946 41.3274C32.7525 42.133 34.9647 43.3671 37.5829 45.0299C40.0857 46.5855 42.1468 47.7483 43.7582 48.5261C45.3697 49.3039 47.0409 49.7761 48.7677 49.9428C46.2093 47.5578 43.997 45.7284 42.1308 44.4505C40.2647 43.1767 38.0842 41.8155 35.5775 40.371C33.7949 39.371 32.3506 38.5138 31.2365 37.7915C30.1224 37.0693 28.9565 36.1565 27.731 35.0454C26.8397 34.212 26.3941 33.2437 26.3941 32.1326C26.3941 31.0214 26.796 30.0531 27.6037 29.2197C28.4114 28.3864 29.3703 27.9737 30.4845 27.9737C31.5986 27.9737 32.6808 28.4181 33.7392 29.3031C35.0762 30.5253 36.1863 31.7317 37.0776 32.9223C37.9689 34.1168 38.9119 35.601 39.9146 37.3748C41.2515 39.6487 42.5685 41.6885 43.8776 43.4941C45.1827 45.2998 46.9493 47.3356 49.1776 49.6134C49.0104 47.8395 48.5369 46.145 47.7571 44.5378C46.9772 42.9306 45.8074 40.875 44.2516 38.3788C42.5805 35.7716 41.343 33.5652 40.5393 31.7595C39.7315 29.9579 39.3297 28.0848 39.3297 26.1402C39.3297 22.5885 40.4159 19.8146 42.5844 17.8145C44.753 15.8184 47.3114 14.8184 50.2638 14.8184C53.2162 14.8184 55.5757 15.8184 57.6885 17.8145C59.8013 19.8106 60.8597 22.5885 60.8597 26.1402C60.8597 28.0848 60.4579 29.9539 59.6501 31.7595C58.8424 33.5652 57.605 35.7676 55.9378 38.3788C54.382 40.875 53.2122 42.9306 52.4323 44.5378C51.6525 46.149 51.179 47.8395 51.0118 49.6134C53.2361 47.3395 55.0027 45.2998 56.3118 43.4941C57.6209 41.6925 58.9419 39.6527 60.2748 37.3748C61.2775 35.601 62.2205 34.1168 63.1118 32.9223C64.0031 31.7317 65.1132 30.5214 66.4502 29.3031C67.5086 28.4181 68.5351 27.9737 69.5378 27.9737C70.6479 27.9737 71.6347 28.3903 72.5021 29.2197C73.3656 30.0531 73.7953 31.0254 73.7953 32.1326C73.7953 33.2397 73.3497 34.212 72.4584 35.0454C71.2329 36.1565 70.063 37.0732 68.9529 37.7915C67.8388 38.5138 66.3945 39.3749 64.6119 40.371C62.1091 41.8155 59.9247 43.1727 58.0586 44.4505C56.1924 45.7284 53.9841 47.5578 51.4217 49.9428C53.1446 49.7761 54.8157 49.3039 56.4312 48.5261C58.0466 47.7483 60.1037 46.5855 62.6065 45.0299C65.2207 43.3632 67.433 42.133 69.2434 41.3274C71.0498 40.5258 72.9279 40.121 74.8776 40.121C78.4348 40.121 81.22 41.2044 83.2214 43.3671Z" fill="#E3D384"/>
<path d="M8.32995 8.75061C10.9003 11.4055 12.6113 14.7231 13.4628 18.7034C14.3143 22.6837 14.2347 26.6363 13.228 30.569C12.2174 34.4977 10.3831 37.7439 7.72117 40.3075C5.15077 37.6526 3.43982 34.335 2.58832 30.3547C1.73683 26.3743 1.81641 22.4218 2.82309 18.4891C3.82976 14.5604 5.66803 11.3142 8.32995 8.75061Z" fill="#E3D384"/>
<path d="M8.32959 8.75055C10.9915 6.18695 14.3099 4.47259 18.2849 3.60748C22.2599 2.74236 26.2229 2.80189 30.182 3.79399C34.1371 4.78213 37.4038 6.6076 39.9742 9.26247C37.3122 11.8261 33.9938 13.5404 30.0228 14.4055C26.0478 15.2707 22.0808 15.2111 18.1258 14.219C14.1667 13.2309 10.904 11.4054 8.33357 8.75055H8.32959Z" fill="#E3D384"/>
<path d="M91.9156 9.73478C89.2855 12.3301 85.983 14.0802 82.004 14.981C78.0251 15.8819 74.0581 15.8541 70.107 14.8977C66.1519 13.9413 62.8772 12.1516 60.271 9.5324C62.9011 6.93705 66.2036 5.18698 70.1826 4.28615C74.1615 3.38532 78.1285 3.4131 82.0796 4.36948C86.0307 5.32587 89.3094 7.11166 91.9156 9.73478Z" fill="#E3D384"/>
<path d="M91.9157 9.73486C94.5179 12.358 96.2806 15.6438 97.1997 19.5964C98.1189 23.5489 98.1109 27.5015 97.1679 31.4619C96.2288 35.4224 94.4423 38.7003 91.8122 41.2957C89.21 38.6726 87.4473 35.3867 86.5282 31.4342C85.609 27.4816 85.617 23.5251 86.56 19.5686C87.499 15.6081 89.2856 12.3302 91.9157 9.73486Z" fill="#E3D384"/>
<path d="M92.1426 93.2026C89.5722 90.5477 87.8612 87.2301 87.0097 83.2498C86.1582 79.2695 86.2378 75.3169 87.2445 71.3842C88.2551 67.4555 90.0894 64.2093 92.7513 61.6458C95.3217 64.3006 97.0327 67.6182 97.8842 71.5985C98.7357 75.5789 98.6561 79.5314 97.6494 83.4641C96.6428 87.3928 94.8045 90.639 92.1426 93.2026Z" fill="#E3D384"/>
<path d="M92.1421 93.2027C89.4802 95.7663 86.1618 97.4806 82.1868 98.3457C78.2118 99.2108 74.2488 99.1513 70.2898 98.1592C66.3347 97.1711 63.068 95.3456 60.4976 92.6907C63.1595 90.1271 66.4779 88.4128 70.4489 87.5477C74.4239 86.6826 78.3909 86.7421 82.346 87.7342C86.305 88.7223 89.5678 90.5478 92.1382 93.2027H92.1421Z" fill="#E3D384"/>
<path d="M8.55664 92.8016C11.1867 90.2062 14.4893 88.4561 18.4682 87.5553C22.4472 86.6545 26.4142 86.6823 30.3653 87.6386C34.3203 88.595 37.595 90.3848 40.2012 93.004C37.5711 95.5993 34.2686 97.3494 30.2897 98.2502C26.3107 99.151 22.3437 99.1232 18.3926 98.1669C14.4415 97.2105 11.1629 95.4247 8.55664 92.8016Z" fill="#E3D384"/>
<path d="M8.55636 92.8017C5.95412 90.1785 4.19145 86.8927 3.27231 82.9401C2.35318 78.9876 2.36113 75.0351 3.30414 71.0746C4.24318 67.1141 6.02973 63.8362 8.65981 61.2408C11.262 63.864 13.0247 67.1498 13.9439 71.1024C14.863 75.0549 14.855 79.0114 13.912 82.9679C12.973 86.9284 11.1864 90.2063 8.55636 92.8017Z" fill="#E3D384"/>
</svg>
