<svg width="102" height="101" viewBox="0 0 102 101" fill="none" xmlns="http://www.w3.org/2000/svg">
<rect width="102" height="101" fill="#AC1F2C"/>
<path d="M101.144 101H0V0H101.144V101ZM5.00712 96H96.1367V5H5.00712V96Z" fill="#AC1F2C"/>
<path d="M54.0356 69.0019C54.6759 69.7794 54.9941 70.6679 54.9941 71.6675C54.9941 72.6672 54.6839 73.6152 54.0674 74.3689C53.4509 75.1186 52.5481 75.4955 51.3589 75.4955C50.5356 75.4955 49.7123 75.3923 48.889 75.1861C48.0657 74.9798 46.968 74.6744 45.5998 74.2618C42.8117 73.4883 40.298 72.8814 38.0588 72.449C35.8196 72.0166 33.0793 71.7985 29.8338 71.7985C32.1645 73.9405 34.2883 75.674 36.2094 76.9949C38.1264 78.3158 40.2543 79.6407 42.585 80.9617C43.5912 81.5091 44.5378 82.0684 45.4287 82.6356C46.3196 83.2069 47.0395 83.7622 47.5884 84.3096C48.3202 85.0395 48.6861 85.9281 48.6861 86.9753C48.6861 87.9313 48.2765 88.8198 47.4532 89.6409C46.6299 90.4621 45.7151 90.8706 44.7128 90.8706C43.8418 90.8706 43.0424 90.5057 42.3145 89.7758C41.7657 89.2284 41.2407 88.5699 40.7395 87.7924C40.2384 87.0189 39.6656 86.0153 39.0253 84.7856C37.7446 82.4175 36.444 80.2635 35.1196 78.3238C33.7952 76.388 31.9895 74.3015 29.7025 72.0682C29.6548 75.3051 29.8616 78.062 30.319 80.3428C30.7764 82.6237 31.3929 85.0831 32.1685 87.725C32.4866 88.7762 32.7611 89.7996 32.9918 90.8032C33.2185 91.8068 33.3338 92.6953 33.3338 93.4689C33.3338 94.6549 32.956 95.5554 32.2042 96.1702C31.4486 96.7851 30.5457 97.0945 29.4957 97.0945C28.4457 97.0945 27.5985 96.7771 26.823 96.1385C26.0434 95.4999 25.6576 94.5875 25.6576 93.4054C25.6576 92.0845 26.0434 90.1011 26.823 87.4553C27.5548 84.8134 28.1275 82.3738 28.5372 80.1406C28.9468 77.9073 29.1974 75.2178 29.2929 72.0722C27.0059 74.3054 25.2002 76.392 23.8758 78.3277C22.5514 80.2675 21.2468 82.4175 19.9661 84.7896C19.3258 86.0193 18.7531 87.0229 18.2519 87.7964C17.7508 88.5739 17.2218 89.2324 16.6769 89.7798C15.9451 90.5097 15.1457 90.8746 14.2786 90.8746C13.2246 90.8746 12.29 90.474 11.4667 89.6766C10.6434 88.8793 10.2337 87.9789 10.2337 86.9753C10.2337 85.9717 10.6195 85.0831 11.399 84.3096C11.9479 83.7622 12.6678 83.2029 13.5587 82.6356C14.4496 82.0644 15.3962 81.5091 16.4025 80.9617C18.7332 79.6407 20.857 78.3198 22.7781 76.9949C24.6991 75.674 26.823 73.9405 29.1537 71.7985C25.9082 71.7985 23.1082 72.0166 20.7536 72.449C18.3991 72.8814 15.9888 73.4843 13.5229 74.2618C12.107 74.6704 10.9735 74.9798 10.1303 75.1861C9.28313 75.3923 8.45188 75.4955 7.62858 75.4955C6.4871 75.4955 5.5922 75.1305 4.95584 74.4006C4.31549 73.6708 3.99731 72.806 3.99731 71.8024C3.99731 70.7988 4.33936 69.8309 5.02743 69.0336C5.71152 68.2363 6.65017 67.8356 7.83938 67.8356C8.66268 67.8356 9.50586 67.9269 10.3769 68.1094C11.2439 68.2918 12.3655 68.5893 13.7377 68.9979C16.2951 69.6802 18.7093 70.2395 20.9684 70.6719C23.2315 71.1043 25.94 71.3661 29.094 71.4573C26.8548 69.224 24.7985 67.4588 22.9252 66.1577C21.0519 64.8566 18.9042 63.5714 16.482 62.2941C15.0184 61.5206 13.9445 60.9057 13.2604 60.4495C12.5763 59.9934 11.936 59.4698 11.3394 58.8787C10.6076 58.1488 10.2417 57.3515 10.2417 56.4867C10.2417 55.4395 10.6394 54.5034 11.4428 53.6822C12.2422 52.8611 13.1928 52.4525 14.2866 52.4525C15.1536 52.4525 16.0246 52.8413 16.8917 53.6148C17.4843 54.2098 18.057 54.9476 18.6059 55.8362C19.1548 56.7247 19.7235 57.6728 20.3201 58.6724C21.6008 60.997 22.8775 63.1152 24.1582 65.0312C25.4389 66.9471 27.1491 69.0217 29.3008 71.255C29.2094 68.0657 28.9468 65.3406 28.5133 63.0835C28.0798 60.8264 27.519 58.3789 26.8349 55.7331C26.0554 53.1824 25.6696 51.2427 25.6696 49.9217C25.6696 48.7357 26.0554 47.8273 26.8349 47.1887C27.6105 46.55 28.5014 46.2327 29.5076 46.2327C30.5139 46.2327 31.4605 46.5421 32.2162 47.1569C32.9719 47.7718 33.3457 48.6722 33.3457 49.8583C33.3457 50.5406 33.2543 51.3062 33.0713 52.1471C32.8883 52.992 32.7054 53.6981 32.5224 54.2654C32.3395 54.8366 32.2241 55.2332 32.1804 55.4633C31.4008 58.0615 30.7844 60.5328 30.3309 62.8812C29.8736 65.2295 29.6667 68.0221 29.7145 71.255C31.8622 68.9305 33.5764 66.844 34.8571 64.9994C36.1378 63.1549 37.4622 61.0247 38.8344 58.605C39.3833 57.6014 39.9441 56.6573 40.5128 55.7688C41.0855 54.8802 41.6424 54.1622 42.1912 53.6148C42.923 52.8849 43.814 52.52 44.864 52.52C45.8225 52.52 46.7134 52.9286 47.5367 53.7497C48.36 54.5708 48.7697 55.4832 48.7697 56.4828C48.7697 57.3475 48.4038 58.1488 47.6719 58.8747C47.1231 59.4221 46.4589 59.9458 45.6833 60.4456C44.9077 60.9454 43.9015 61.5166 42.6685 62.1553C40.2901 63.4326 38.1344 64.7297 36.1895 66.0506C34.2446 67.3715 32.1565 69.1724 29.9173 71.4533C33.0713 71.3621 35.7679 71.1122 38.0071 70.6997C40.2463 70.2911 42.6924 69.7199 45.3412 68.99C47.9901 68.2165 49.9788 67.8277 51.3072 67.8277C52.4964 67.8277 53.4072 68.2165 54.0475 68.99L54.0356 69.0019Z" fill="#E3D384"/>
<path d="M97.0061 69.0019C97.6464 69.7794 97.9646 70.6679 97.9646 71.6675C97.9646 72.6672 97.6543 73.6152 97.0379 74.3689C96.4214 75.1186 95.5185 75.4955 94.3293 75.4955C93.506 75.4955 92.6827 75.3923 91.8594 75.1861C91.0361 74.9798 89.9384 74.6744 88.5702 74.2618C85.7821 73.4883 83.2685 72.8814 81.0293 72.449C78.7901 72.0166 76.0497 71.7985 72.8042 71.7985C75.1349 73.9405 77.2588 75.674 79.1798 76.9949C81.0969 78.3158 83.2247 79.6407 85.5554 80.9617C86.5617 81.5091 87.5083 82.0684 88.3992 82.6356C89.2901 83.2069 90.01 83.7622 90.5589 84.3096C91.2907 85.0395 91.6566 85.9281 91.6566 86.9753C91.6566 87.9313 91.2469 88.8198 90.4236 89.6409C89.6003 90.4621 88.6856 90.8706 87.6833 90.8706C86.8123 90.8706 86.0128 90.5057 85.285 89.7758C84.7361 89.2284 84.2111 88.5699 83.71 87.7924C83.2088 87.0189 82.6361 86.0153 81.9958 84.7856C80.7151 82.4175 79.4145 80.2635 78.0901 78.3238C76.7656 76.388 74.9599 74.3015 72.673 72.0682C72.6253 75.3051 72.8321 78.062 73.2895 80.3428C73.7469 82.6237 74.3633 85.0831 75.1389 87.725C75.4571 88.7762 75.7315 89.7996 75.9622 90.8032C76.1889 91.8068 76.3043 92.6953 76.3043 93.4689C76.3043 94.6549 75.9264 95.5554 75.1747 96.1702C74.423 96.7851 73.5162 97.0945 72.4662 97.0945C71.4162 97.0945 70.569 96.7771 69.7934 96.1385C69.0139 95.4999 68.6281 94.5875 68.6281 93.4054C68.6281 92.0845 69.0139 90.1011 69.7934 87.4553C70.5253 84.8134 71.098 82.3738 71.5076 80.1406C71.9173 77.9073 72.1679 75.2178 72.2633 72.0722C69.9764 74.3054 68.1707 76.392 66.8463 78.3277C65.5218 80.2675 64.2173 82.4175 62.9366 84.7896C62.2962 86.0193 61.7235 87.0229 61.2224 87.7964C60.7212 88.5739 60.1923 89.2324 59.6474 89.7798C58.9155 90.5097 58.1161 90.8746 57.2491 90.8746C56.1951 90.8746 55.2604 90.474 54.4371 89.6766C53.6138 88.8793 53.2042 87.9789 53.2042 86.9753C53.2042 85.9717 53.59 85.0831 54.3695 84.3096C54.9184 83.7622 55.6383 83.2029 56.5292 82.6356C57.4201 82.0644 58.3667 81.5091 59.3729 80.9617C61.7036 79.6407 63.8275 78.3198 65.7485 76.9949C67.6696 75.674 69.7934 73.9405 72.1241 71.7985C68.8787 71.7985 66.0786 72.0166 63.7241 72.449C61.3695 72.8814 58.9593 73.4843 56.4934 74.2618C55.0775 74.6704 53.9439 74.9798 53.1007 75.1861C52.2536 75.3923 51.4223 75.4955 50.599 75.4955C49.4575 75.4955 48.5627 75.1305 47.9263 74.4006C47.2859 73.6708 46.9678 72.806 46.9678 71.8024C46.9678 70.7988 47.3098 69.8309 47.9979 69.0336C48.682 68.2363 49.6206 67.8356 50.8098 67.8356C51.6331 67.8356 52.4763 67.9269 53.3473 68.1094C54.2144 68.2918 55.336 68.5893 56.7082 68.9979C59.2655 69.6802 61.6798 70.2395 63.9389 70.6719C66.2019 71.1043 68.9105 71.3661 72.0645 71.4573C69.8252 69.224 67.769 67.4588 65.8957 66.1577C64.0224 64.8566 61.8746 63.5714 59.4525 62.2941C57.9888 61.5206 56.915 60.9057 56.2309 60.4495C55.5468 59.9934 54.9064 59.4698 54.3098 58.8787C53.578 58.1488 53.2121 57.3515 53.2121 56.4867C53.2121 55.4395 53.6098 54.5034 54.4132 53.6822C55.2127 52.8611 56.1633 52.4525 57.257 52.4525C58.1241 52.4525 58.9951 52.8413 59.8621 53.6148C60.4548 54.2098 61.0275 54.9476 61.5764 55.8362C62.1252 56.7247 62.694 57.6728 63.2906 58.6724C64.5712 60.997 65.848 63.1152 67.1286 65.0312C68.4093 66.9471 70.1196 69.0217 72.2713 71.255C72.1798 68.0657 71.9173 65.3406 71.4838 63.0835C71.0503 60.8264 70.4895 58.3789 69.8054 55.7331C69.0258 53.1824 68.64 51.2427 68.64 49.9217C68.64 48.7357 69.0258 47.8273 69.8054 47.1887C70.5809 46.55 71.4718 46.2327 72.4781 46.2327C73.4844 46.2327 74.431 46.5421 75.1866 47.1569C75.9423 47.7718 76.3162 48.6722 76.3162 49.8583C76.3162 50.5406 76.2247 51.3062 76.0418 52.1471C75.8588 52.992 75.6758 53.6981 75.4929 54.2654C75.3099 54.8366 75.1946 55.2332 75.1508 55.4633C74.3713 58.0615 73.7548 60.5328 73.3014 62.8812C72.844 65.2295 72.6372 68.0221 72.6849 71.255C74.8327 68.9305 76.5469 66.844 77.8276 64.9994C79.1083 63.1549 80.4327 61.0247 81.8049 58.605C82.3537 57.6014 82.9145 56.6573 83.4833 55.7688C84.056 54.8802 84.6128 54.1622 85.1617 53.6148C85.8935 52.8849 86.7844 52.52 87.8344 52.52C88.793 52.52 89.6839 52.9286 90.5072 53.7497C91.3305 54.5708 91.7401 55.4832 91.7401 56.4828C91.7401 57.3475 91.3742 58.1488 90.6424 58.8747C90.0935 59.4221 89.4293 59.9458 88.6537 60.4456C87.8782 60.9454 86.8719 61.5166 85.639 62.1553C83.2605 63.4326 81.1048 64.7297 79.1599 66.0506C77.2151 67.3715 75.127 69.1724 72.8878 71.4533C76.0418 71.3621 78.7384 71.1122 80.9776 70.6997C83.2168 70.2911 85.6628 69.7199 88.3117 68.99C90.9606 68.2165 92.9492 67.8277 94.2776 67.8277C95.4668 67.8277 96.3776 68.2165 97.018 68.99L97.0061 69.0019Z" fill="#E3D384"/>
<path d="M54.0356 26.8273C54.6759 27.6047 54.9941 28.4933 54.9941 29.4929C54.9941 30.4925 54.6839 31.4406 54.0674 32.1943C53.4509 32.944 52.5481 33.3208 51.3589 33.3208C50.5356 33.3208 49.7123 33.2177 48.889 33.0114C48.0657 32.8052 46.968 32.4997 45.5998 32.0872C42.8117 31.3137 40.298 30.7067 38.0588 30.2744C35.8196 29.842 33.0793 29.6238 29.8338 29.6238C32.1645 31.7659 34.2883 33.4993 36.2094 34.8203C38.1264 36.1412 40.2543 37.4661 42.585 38.787C43.5912 39.3345 44.5378 39.8938 45.4287 40.461C46.3196 41.0322 47.0395 41.5876 47.5884 42.135C48.3202 42.8649 48.6861 43.7534 48.6861 44.8007C48.6861 45.7566 48.2765 46.6452 47.4532 47.4663C46.6299 48.2874 45.7151 48.696 44.7128 48.696C43.8418 48.696 43.0424 48.3311 42.3145 47.6012C41.7657 47.0538 41.2407 46.3953 40.7395 45.6178C40.2384 44.8443 39.6656 43.8407 39.0253 42.611C37.7446 40.2428 36.444 38.0889 35.1196 36.1491C33.7952 34.2134 31.9895 32.1268 29.7025 29.8936C29.6548 33.1304 29.8616 35.8873 30.319 38.1682C30.7764 40.4491 31.3929 42.9085 32.1685 45.5504C32.4866 46.6016 32.7611 47.625 32.9918 48.6286C33.2185 49.6322 33.3338 50.5207 33.3338 51.2942C33.3338 52.4803 32.956 53.3808 32.2042 53.9956C31.4486 54.6105 30.5457 54.9199 29.4957 54.9199C28.4457 54.9199 27.5985 54.6025 26.823 53.9639C26.0434 53.3252 25.6576 52.4129 25.6576 51.2308C25.6576 49.9098 26.0434 47.9265 26.823 45.2806C27.5548 42.6388 28.1275 40.1992 28.5372 37.9659C28.9468 35.7326 29.1974 33.0432 29.2929 29.8975C27.0059 32.1308 25.2002 34.2173 23.8758 36.1531C22.5514 38.0929 21.2468 40.2428 19.9661 42.615C19.3258 43.8447 18.7531 44.8482 18.2519 45.6218C17.7508 46.3993 17.2218 47.0577 16.6769 47.6051C15.9451 48.335 15.1457 48.7 14.2786 48.7C13.2246 48.7 12.29 48.2993 11.4667 47.502C10.6434 46.7047 10.2337 45.8042 10.2337 44.8007C10.2337 43.7971 10.6195 42.9085 11.399 42.135C11.9479 41.5876 12.6678 41.0283 13.5587 40.461C14.4496 39.8898 15.3962 39.3345 16.4025 38.787C18.7332 37.4661 20.857 36.1452 22.7781 34.8203C24.6991 33.4993 26.823 31.7659 29.1537 29.6238C25.9082 29.6238 23.1082 29.842 20.7536 30.2744C18.3991 30.7067 15.9888 31.3097 13.5229 32.0872C12.107 32.4958 10.9735 32.8052 10.1303 33.0114C9.28313 33.2177 8.45188 33.3208 7.62858 33.3208C6.4871 33.3208 5.5922 32.9559 4.95584 32.226C4.31549 31.4961 3.99731 30.6314 3.99731 29.6278C3.99731 28.6242 4.33936 27.6563 5.02743 26.859C5.71152 26.0617 6.65017 25.661 7.83938 25.661C8.66268 25.661 9.50586 25.7523 10.3769 25.9347C11.2439 26.1172 12.3655 26.4147 13.7377 26.8233C16.2951 27.5056 18.7093 28.0649 20.9684 28.4973C23.2315 28.9296 25.94 29.1914 29.094 29.2827C26.8548 27.0494 24.7985 25.2842 22.9252 23.9831C21.0519 22.682 18.9042 21.3968 16.482 20.1195C15.0184 19.3459 13.9445 18.7311 13.2604 18.2749C12.5763 17.8187 11.936 17.2951 11.3394 16.7041C10.6076 15.9742 10.2417 15.1769 10.2417 14.3121C10.2417 13.2649 10.6394 12.3287 11.4428 11.5076C12.2422 10.6865 13.1928 10.2779 14.2866 10.2779C15.1536 10.2779 16.0246 10.6667 16.8917 11.4402C17.4843 12.0352 18.057 12.773 18.6059 13.6616C19.1548 14.5501 19.7235 15.4982 20.3201 16.4978C21.6008 18.8223 22.8775 20.9406 24.1582 22.8565C25.4389 24.7725 27.1491 26.8471 29.3008 29.0804C29.2094 25.8911 28.9468 23.1659 28.5133 20.9088C28.0798 18.6518 27.519 16.2043 26.8349 13.5584C26.0554 11.0078 25.6696 9.06806 25.6696 7.74713C25.6696 6.56107 26.0554 5.65268 26.8349 5.01403C27.6105 4.37538 28.5014 4.05804 29.5076 4.05804C30.5139 4.05804 31.4605 4.36745 32.2162 4.98229C32.9719 5.59714 33.3457 6.4976 33.3457 7.68366C33.3457 8.36595 33.2543 9.13153 33.0713 9.97248C32.8883 10.8174 32.7054 11.5235 32.5224 12.0907C32.3395 12.662 32.2241 13.0586 32.1804 13.2887C31.4008 15.8869 30.7844 18.3582 30.3309 20.7065C29.8736 23.0549 29.6667 25.8475 29.7145 29.0804C31.8622 26.7559 33.5764 24.6693 34.8571 22.8248C36.1378 20.9802 37.4622 18.8501 38.8344 16.4304C39.3833 15.4268 39.9441 14.4827 40.5128 13.5941C41.0855 12.7056 41.6424 11.9876 42.1912 11.4402C42.923 10.7103 43.814 10.3454 44.864 10.3454C45.8225 10.3454 46.7134 10.7539 47.5367 11.5751C48.36 12.3962 48.7697 13.3085 48.7697 14.3082C48.7697 15.1729 48.4038 15.9742 47.6719 16.7001C47.1231 17.2475 46.4589 17.7711 45.6833 18.2709C44.9077 18.7708 43.9015 19.342 42.6685 19.9806C40.2901 21.2579 38.1344 22.5551 36.1895 23.876C34.2446 25.1969 32.1565 26.9978 29.9173 29.2787C33.0713 29.1875 35.7679 28.9376 38.0071 28.525C40.2463 28.1165 42.6924 27.5452 45.3412 26.8154C47.9901 26.0418 49.9788 25.6531 51.3072 25.6531C52.4964 25.6531 53.4072 26.0418 54.0475 26.8154L54.0356 26.8273Z" fill="#E3D384"/>
<path d="M97.0061 26.8273C97.6464 27.6047 97.9646 28.4933 97.9646 29.4929C97.9646 30.4925 97.6543 31.4406 97.0379 32.1943C96.4214 32.944 95.5185 33.3208 94.3293 33.3208C93.506 33.3208 92.6827 33.2177 91.8594 33.0114C91.0361 32.8052 89.9384 32.4997 88.5702 32.0872C85.7821 31.3137 83.2685 30.7067 81.0293 30.2744C78.7901 29.842 76.0497 29.6238 72.8042 29.6238C75.1349 31.7659 77.2588 33.4993 79.1798 34.8203C81.0969 36.1412 83.2247 37.4661 85.5554 38.787C86.5617 39.3345 87.5083 39.8938 88.3992 40.461C89.2901 41.0322 90.01 41.5876 90.5589 42.135C91.2907 42.8649 91.6566 43.7534 91.6566 44.8007C91.6566 45.7566 91.2469 46.6452 90.4236 47.4663C89.6003 48.2874 88.6856 48.696 87.6833 48.696C86.8123 48.696 86.0128 48.3311 85.285 47.6012C84.7361 47.0538 84.2111 46.3953 83.71 45.6178C83.2088 44.8443 82.6361 43.8407 81.9958 42.611C80.7151 40.2428 79.4145 38.0889 78.0901 36.1491C76.7656 34.2134 74.9599 32.1268 72.673 29.8936C72.6253 33.1304 72.8321 35.8873 73.2895 38.1682C73.7469 40.4491 74.3633 42.9085 75.1389 45.5504C75.4571 46.6016 75.7315 47.625 75.9622 48.6286C76.1889 49.6322 76.3043 50.5207 76.3043 51.2942C76.3043 52.4803 75.9264 53.3808 75.1747 53.9956C74.423 54.6105 73.5162 54.9199 72.4662 54.9199C71.4162 54.9199 70.569 54.6025 69.7934 53.9639C69.0139 53.3252 68.6281 52.4129 68.6281 51.2308C68.6281 49.9098 69.0139 47.9265 69.7934 45.2806C70.5253 42.6388 71.098 40.1992 71.5076 37.9659C71.9173 35.7326 72.1679 33.0432 72.2633 29.8975C69.9764 32.1308 68.1707 34.2173 66.8463 36.1531C65.5218 38.0929 64.2173 40.2428 62.9366 42.615C62.2962 43.8447 61.7235 44.8482 61.2224 45.6218C60.7212 46.3993 60.1923 47.0577 59.6474 47.6051C58.9155 48.335 58.1161 48.7 57.2491 48.7C56.1951 48.7 55.2604 48.2993 54.4371 47.502C53.6138 46.7047 53.2042 45.8042 53.2042 44.8007C53.2042 43.7971 53.59 42.9085 54.3695 42.135C54.9184 41.5876 55.6383 41.0283 56.5292 40.461C57.4201 39.8898 58.3667 39.3345 59.3729 38.787C61.7036 37.4661 63.8275 36.1452 65.7485 34.8203C67.6696 33.4993 69.7934 31.7659 72.1241 29.6238C68.8787 29.6238 66.0786 29.842 63.7241 30.2744C61.3695 30.7067 58.9593 31.3097 56.4934 32.0872C55.0775 32.4958 53.9439 32.8052 53.1007 33.0114C52.2536 33.2177 51.4223 33.3208 50.599 33.3208C49.4575 33.3208 48.5627 32.9559 47.9263 32.226C47.2859 31.4961 46.9678 30.6314 46.9678 29.6278C46.9678 28.6242 47.3098 27.6563 47.9979 26.859C48.682 26.0617 49.6206 25.661 50.8098 25.661C51.6331 25.661 52.4763 25.7523 53.3473 25.9347C54.2144 26.1172 55.336 26.4147 56.7082 26.8233C59.2655 27.5056 61.6798 28.0649 63.9389 28.4973C66.2019 28.9296 68.9105 29.1914 72.0645 29.2827C69.8252 27.0494 67.769 25.2842 65.8957 23.9831C64.0224 22.682 61.8746 21.3968 59.4525 20.1195C57.9888 19.3459 56.915 18.7311 56.2309 18.2749C55.5468 17.8187 54.9064 17.2951 54.3098 16.7041C53.578 15.9742 53.2121 15.1769 53.2121 14.3121C53.2121 13.2649 53.6098 12.3287 54.4132 11.5076C55.2127 10.6865 56.1633 10.2779 57.257 10.2779C58.1241 10.2779 58.9951 10.6667 59.8621 11.4402C60.4548 12.0352 61.0275 12.773 61.5764 13.6616C62.1252 14.5501 62.694 15.4982 63.2906 16.4978C64.5712 18.8223 65.848 20.9406 67.1286 22.8565C68.4093 24.7725 70.1196 26.8471 72.2713 29.0804C72.1798 25.8911 71.9173 23.1659 71.4838 20.9088C71.0503 18.6518 70.4895 16.2043 69.8054 13.5584C69.0258 11.0078 68.64 9.06806 68.64 7.74713C68.64 6.56107 69.0258 5.65268 69.8054 5.01403C70.5809 4.37538 71.4718 4.05804 72.4781 4.05804C73.4844 4.05804 74.431 4.36745 75.1866 4.98229C75.9423 5.59714 76.3162 6.4976 76.3162 7.68366C76.3162 8.36595 76.2247 9.13153 76.0418 9.97248C75.8588 10.8174 75.6758 11.5235 75.4929 12.0907C75.3099 12.662 75.1946 13.0586 75.1508 13.2887C74.3713 15.8869 73.7548 18.3582 73.3014 20.7065C72.844 23.0549 72.6372 25.8475 72.6849 29.0804C74.8327 26.7559 76.5469 24.6693 77.8276 22.8248C79.1083 20.9802 80.4327 18.8501 81.8049 16.4304C82.3537 15.4268 82.9145 14.4827 83.4833 13.5941C84.056 12.7056 84.6128 11.9876 85.1617 11.4402C85.8935 10.7103 86.7844 10.3454 87.8344 10.3454C88.793 10.3454 89.6839 10.7539 90.5072 11.5751C91.3305 12.3962 91.7401 13.3085 91.7401 14.3082C91.7401 15.1729 91.3742 15.9742 90.6424 16.7001C90.0935 17.2475 89.4293 17.7711 88.6537 18.2709C87.8782 18.7708 86.8719 19.342 85.639 19.9806C83.2605 21.2579 81.1048 22.5551 79.1599 23.876C77.2151 25.1969 75.127 26.9978 72.8878 29.2787C76.0418 29.1875 78.7384 28.9376 80.9776 28.525C83.2168 28.1165 85.6628 27.5452 88.3117 26.8154C90.9606 26.0418 92.9492 25.6531 94.2776 25.6531C95.4668 25.6531 96.3776 26.0418 97.018 26.8154L97.0061 26.8273Z" fill="#E3D384"/>
</svg>
