<svg width="102" height="101" viewBox="0 0 102 101" fill="none" xmlns="http://www.w3.org/2000/svg">
<rect width="102" height="101" fill="#AC1F2C"/>
<path d="M101.144 6.10352e-05V101H0V6.10352e-05H101.144ZM96.1367 96V5H5.00712V96H96.1367Z" fill="#AC1F2C"/>
<path d="M20.0246 31.2381C15.2712 28.3113 11.412 24.4769 8.44982 19.7287C5.48619 14.9836 4.00586 10.072 4.00586 5.00148C9.08509 5.00148 14.0007 6.46337 18.7541 9.3901C23.506 12.3168 27.3653 16.1528 30.3289 20.8994C33.291 25.6461 34.7729 30.5562 34.7729 35.6282C29.6936 35.6282 24.7766 34.1648 20.0246 31.2396V31.2381ZM8.4513 51.6227C11.4134 46.8775 15.2712 43.0252 20.0261 40.0643C24.778 37.1064 29.6951 35.6267 34.7743 35.6267C34.7743 40.6987 33.2925 45.6088 30.3304 50.354C27.3668 55.1006 23.509 58.9514 18.7556 61.9123C14.0022 64.8703 9.08658 66.35 4.00735 66.35C4.00735 61.2779 5.48767 56.3694 8.4513 51.6227ZM39.2183 20.898C42.1804 16.1528 46.0382 12.3153 50.7931 9.38861C55.545 6.46188 60.4621 5 65.5413 5C65.5413 10.072 64.0595 14.9821 61.0974 19.7273C58.1338 24.4739 54.276 28.3099 49.5226 31.2366C44.7692 34.1633 39.8536 35.6252 34.7743 35.6252C34.7743 30.5532 36.2547 25.6431 39.2183 20.8965V20.898ZM50.7931 61.9123C46.0397 58.9529 42.1804 55.1021 39.2183 50.354C36.2547 45.6073 34.7743 40.6972 34.7743 35.6267C39.8536 35.6267 44.7692 37.1064 49.5226 40.0643C54.2745 43.0238 58.1338 46.876 61.0974 51.6227C64.0595 56.3694 65.5413 61.2794 65.5413 66.35C60.4621 66.35 55.545 64.8703 50.7931 61.9123Z" fill="#E3D384"/>
<path d="M50.7927 61.9612C46.0393 59.0345 42.18 55.2 39.2179 50.4519C36.2543 45.7067 34.7739 40.7952 34.7739 35.7246C39.8532 35.7246 44.7687 37.1865 49.5221 40.1132C54.2741 43.04 58.1333 46.8759 61.097 51.6226C64.0591 56.3692 65.5409 61.2793 65.5409 66.3513C60.4617 66.3513 55.5446 64.888 50.7927 61.9627V61.9612ZM39.2179 82.3458C42.18 77.6007 46.0378 73.7484 50.7927 70.7875C55.5446 67.8295 60.4617 66.3498 65.5409 66.3498C65.5409 71.4219 64.0591 76.3319 61.097 81.0771C58.1333 85.8238 54.2756 89.6746 49.5221 92.6355C44.7687 95.5934 39.8532 97.0731 34.7739 97.0731C34.7739 92.0011 36.2543 87.0925 39.2179 82.3458ZM69.9849 51.6211C72.947 46.8759 76.8048 43.0385 81.5597 40.1118C86.3116 37.185 91.2287 35.7231 96.3079 35.7231C96.3079 40.7952 94.8261 45.7052 91.864 50.4504C88.9003 55.1971 85.0426 59.033 80.2891 61.9597C75.5357 64.8865 70.6202 66.3484 65.5409 66.3484C65.5409 61.2763 67.0212 56.3663 69.9849 51.6196V51.6211ZM81.5597 92.6355C76.8063 89.676 72.947 85.8252 69.9849 81.0771C67.0212 76.3304 65.5409 71.4204 65.5409 66.3498C70.6202 66.3498 75.5357 67.8295 80.2891 70.7875C85.0411 73.7469 88.9003 77.5992 91.864 82.3458C94.8261 87.0925 96.3079 92.0026 96.3079 97.0731C91.2287 97.0731 86.3116 95.5934 81.5597 92.6355Z" fill="#E3D384"/>
</svg>
