<svg width="102" height="101" viewBox="0 0 102 101" fill="none" xmlns="http://www.w3.org/2000/svg">
<rect width="102" height="101" fill="#AC1F2C"/>
<path d="M0 101V0H101.144V101H0ZM5.00712 5V96H96.1367V5H5.00712Z" fill="#AC1F2C"/>
<path d="M50.6322 3.51013C24.6126 3.51013 3.51562 24.5473 3.51562 50.502C3.51562 76.4566 24.6087 97.4938 50.6322 97.4938C76.6557 97.4938 97.7487 76.4566 97.7487 50.502C97.7487 24.5473 76.6557 3.51013 50.6322 3.51013ZM85.2324 56.5578C83.9324 56.5578 82.6284 56.3957 81.3285 56.0716C80.0285 55.7474 78.2925 55.2612 76.1206 54.6129C71.7094 53.3876 67.7301 52.431 64.1869 51.7471C60.6436 51.0633 56.3037 50.7194 51.1712 50.7194C54.8571 54.1109 58.222 56.8503 61.258 58.9414C64.2939 61.0364 67.6588 63.1235 71.3447 65.2146C72.9341 66.0802 74.4362 66.9657 75.8471 67.8669C77.2581 68.7682 78.3956 69.6537 79.2635 70.5193C80.4209 71.6736 80.9995 73.0808 80.9995 74.7371C80.9995 76.251 80.3495 77.6582 79.0456 78.9548C77.7456 80.2513 76.295 80.9035 74.7057 80.9035C73.3304 80.9035 72.0661 80.3264 70.9088 79.1722C70.0408 78.3065 69.2085 77.2629 68.4118 76.0336C67.6152 74.8082 66.7116 73.2192 65.7009 71.2743C63.6756 67.5231 61.6147 64.1157 59.518 61.0522C57.4175 57.9887 54.5638 54.688 50.9492 51.1542C50.8739 56.2771 51.2029 60.6371 51.9242 64.2461C52.6456 67.8511 53.6205 71.7487 54.8532 75.9308C55.3565 77.591 55.7925 79.2157 56.1531 80.8008C56.5138 82.3859 56.6961 83.7931 56.6961 85.0185C56.6961 86.8922 56.0977 88.3191 54.9047 89.2916C53.7117 90.264 52.2849 90.7502 50.6203 90.7502C48.9557 90.7502 47.616 90.2442 46.3914 89.2362C45.1587 88.2243 44.5484 86.7854 44.5484 84.9078C44.5484 82.8128 45.1627 79.6782 46.3914 75.496C47.5487 71.3139 48.4523 67.4559 49.1023 63.922C49.7523 60.3881 50.1486 56.1309 50.2953 51.1581C46.6767 54.692 43.8231 57.9927 41.7265 61.0561C39.6299 64.1236 37.5689 67.531 35.5436 71.2783C34.529 73.2231 33.6253 74.8122 32.8327 76.0376C32.036 77.2669 31.2037 78.3105 30.3358 79.1761C29.1784 80.3304 27.9141 80.9075 26.5388 80.9075C24.8742 80.9075 23.3919 80.275 22.0919 79.0141C20.792 77.7531 20.142 76.3301 20.142 74.741C20.142 73.152 20.7563 71.7487 21.9849 70.5233C22.8529 69.6576 23.9904 68.7761 25.4014 67.8709C26.8123 66.9696 28.3105 66.0842 29.9037 65.2185C33.5936 63.1275 36.9546 61.0364 39.9905 58.9453C43.0265 56.8542 46.3914 54.1149 50.0773 50.7233C44.9408 50.7233 40.5137 51.0672 36.7881 51.7511C33.0626 52.4349 29.2498 53.3915 25.3459 54.6169C23.1026 55.2652 21.3151 55.7514 19.9755 56.0755C18.6359 56.3997 17.3161 56.5617 16.0161 56.5617C14.2088 56.5617 12.7978 55.9846 11.7872 54.8304C10.7726 53.6761 10.2692 52.3084 10.2692 50.7194C10.2692 49.1303 10.8122 47.6005 11.8982 46.3396C12.9841 45.0786 14.4625 44.4461 16.3451 44.4461C17.645 44.4461 18.9847 44.5924 20.356 44.877C21.7273 45.1656 23.5029 45.636 25.6709 46.2842C29.7214 47.3673 33.5342 48.2488 37.1131 48.9366C40.692 49.6205 44.9764 50.0355 49.9663 50.1818C46.4231 46.6479 43.1691 43.8532 40.2045 41.7977C37.2399 39.7422 33.8394 37.7065 30.0068 35.6866C27.6922 34.4612 25.9959 33.4888 24.9099 32.7654C23.8239 32.046 22.8093 31.2159 21.874 30.2751C20.7167 29.1208 20.138 27.8599 20.138 26.4882C20.138 24.832 20.7682 23.3496 22.0365 22.0531C23.3008 20.7565 24.8029 20.1083 26.5388 20.1083C27.9102 20.1083 29.2855 20.721 30.6607 21.9464C31.6001 22.8832 32.5037 24.0572 33.3717 25.4644C34.2397 26.8716 35.1433 28.3698 36.0826 29.9549C38.1079 33.635 40.1332 36.9871 42.1585 40.015C44.1838 43.0429 46.8947 46.3277 50.2953 49.8616C50.1486 44.8138 49.7325 40.5051 49.0468 36.9357C48.3572 33.3662 47.4734 29.4885 46.3874 25.3063C45.1548 21.2665 44.5444 18.203 44.5444 16.1119C44.5444 14.2382 45.1588 12.7954 46.3874 11.7835C47.616 10.7755 49.027 10.2696 50.6163 10.2696C52.2056 10.2696 53.7077 10.7558 54.9007 11.7282C56.0937 12.7006 56.6922 14.1276 56.6922 16.0012C56.6922 17.0843 56.5455 18.2899 56.2602 19.626C55.9708 20.9621 55.6815 22.0768 55.3922 22.9781C55.1029 23.8793 54.9205 24.5118 54.8492 24.8715C53.6166 28.9825 52.6416 32.8958 51.9203 36.6115C51.195 40.3272 50.87 44.7426 50.9453 49.8655C54.3419 46.1854 57.0568 42.8887 59.0821 39.9675C61.1074 37.0464 63.204 33.6746 65.3719 29.8521C66.2399 28.267 67.1238 26.7689 68.0314 25.3616C68.935 23.9544 69.8228 22.8199 70.6908 21.9543C71.8481 20.8 73.259 20.2229 74.9197 20.2229C76.4377 20.2229 77.8486 20.8712 79.1486 22.1677C80.4486 23.4643 81.1026 24.911 81.1026 26.4961C81.1026 27.8678 80.5239 29.1287 79.3666 30.283C78.4986 31.1487 77.4483 31.9788 76.2197 32.7733C74.991 33.5678 73.3978 34.4691 71.4478 35.4771C67.6865 37.497 64.2701 39.5525 61.1985 41.6435C58.1229 43.7386 54.8135 46.5846 51.2742 50.1897C56.2641 50.0474 60.5287 49.6481 64.072 48.9999C67.6152 48.3516 71.4835 47.4503 75.6807 46.2961C79.8739 45.0707 83.0208 44.458 85.1175 44.458C86.9961 44.458 88.4427 45.0707 89.4573 46.2961C90.468 47.5254 90.9753 48.9287 90.9753 50.5138C90.9753 52.0989 90.4878 53.5971 89.5128 54.7869C88.5378 55.9767 87.1071 56.5696 85.2284 56.5696L85.2324 56.5578Z" fill="#E3D384"/>
</svg>
