<svg width="102" height="101" viewBox="0 0 102 101" fill="none" xmlns="http://www.w3.org/2000/svg">
<path d="M101.144 101H0V0H101.144V101ZM5.00712 96H96.1367V5H5.00712V96Z" fill="#E3D384"/>
<path d="M28.3184 25.05H26.5366V97.4157H28.3184V25.05Z" fill="#E3D384"/>
<path d="M16.0207 23.1857C12.2781 20.8572 9.2394 17.8306 6.90871 14.0978C4.57404 10.3651 3.40869 6.50149 3.40869 2.51489C7.40985 2.51489 11.2797 3.67716 15.0224 6.00564C18.765 8.33413 21.8037 11.3647 24.1343 15.0935C26.469 18.8262 27.6344 22.6898 27.6344 26.6764C23.6332 26.6764 19.7633 25.5142 16.0207 23.1857Z" fill="#E3D384"/>
<path d="M31.0945 15.0935C33.4014 11.3608 36.4281 8.33017 40.1707 6.00564C43.9133 3.68112 47.7872 2.51489 51.7844 2.51489C51.7844 6.50149 50.631 10.3651 48.3241 14.0978C46.0173 17.8306 42.9906 20.8612 39.248 23.1857C35.5053 25.5102 31.6354 26.6764 27.6343 26.6764C27.6343 22.6898 28.7877 18.8262 31.0945 15.0935Z" fill="#E3D384"/>
<path d="M16.0207 46.6254C12.2781 44.2969 9.2394 41.2703 6.90871 37.5375C4.57404 33.8048 3.40869 29.9412 3.40869 25.9546C7.40985 25.9546 11.2797 27.1169 15.0224 29.4453C18.765 31.7738 21.8037 34.8044 24.1343 38.5332C26.469 42.2659 27.6344 46.1295 27.6344 50.1161C23.6332 50.1161 19.7633 48.9539 16.0207 46.6254Z" fill="#E3D384"/>
<path d="M31.0945 38.5332C33.4014 34.8005 36.4281 31.7699 40.1707 29.4453C43.9133 27.1208 47.7872 25.9546 51.7844 25.9546C51.7844 29.9412 50.631 33.8048 48.3241 37.5375C46.0173 41.2703 42.9906 44.3009 39.248 46.6254C35.5053 48.9499 31.6354 50.1161 27.6343 50.1161C27.6343 46.1295 28.7877 42.2659 31.0945 38.5332Z" fill="#E3D384"/>
<path d="M16.0207 72.5996C12.2781 70.2711 9.2394 67.2445 6.90871 63.5118C4.57404 59.779 3.40869 55.9154 3.40869 51.9288C7.40985 51.9288 11.2797 53.0911 15.0224 55.4196C18.765 57.7481 21.8037 60.7787 24.1343 64.5074C26.469 68.2402 27.6344 72.1038 27.6344 76.0904C23.6332 76.0904 19.7633 74.9281 16.0207 72.5996Z" fill="#E3D384"/>
<path d="M31.0945 64.5074C33.4014 60.7747 36.4281 57.7441 40.1707 55.4196C43.9133 53.0951 47.7872 51.9288 51.7844 51.9288C51.7844 55.9154 50.631 59.779 48.3241 63.5118C46.0173 67.2445 42.9906 70.2751 39.248 72.5996C35.5053 74.9241 31.6354 76.0904 27.6343 76.0904C27.6343 72.1038 28.7877 68.2402 31.0945 64.5074Z" fill="#E3D384"/>
<path d="M75.0157 2.51489H73.2339V74.8805H75.0157V2.51489Z" fill="#E3D384"/>
<path d="M85.5356 76.7409C89.2782 79.0694 92.3168 82.096 94.6475 85.8287C96.9822 89.5614 98.1476 93.4251 98.1476 97.4117C94.1464 97.4117 90.2765 96.2494 86.5339 93.9209C82.7912 91.5924 79.7526 88.5618 77.4219 84.8331C75.0872 81.1003 73.9219 77.2367 73.9219 73.2501C77.923 73.2501 81.7929 74.4124 85.5356 76.7409Z" fill="#E3D384"/>
<path d="M70.4618 84.8371C68.155 88.5698 65.1283 91.6004 61.3857 93.925C57.643 96.2495 53.7691 97.4157 49.772 97.4157C49.772 93.4291 50.9254 89.5655 53.2322 85.8328C55.539 82.1 58.5658 79.0694 62.3084 76.7449C66.051 74.4204 69.9209 73.2542 73.9221 73.2542C73.9221 77.2407 72.7687 81.1044 70.4618 84.8371Z" fill="#E3D384"/>
<path d="M85.5356 53.3053C89.2782 55.6338 92.3168 58.6605 94.6475 62.3932C96.9822 66.1259 98.1476 69.9895 98.1476 73.9761C94.1464 73.9761 90.2765 72.8139 86.5339 70.4854C82.7912 68.1569 79.7526 65.1263 77.4219 61.3975C75.0872 57.6648 73.9219 53.8012 73.9219 49.8146C77.923 49.8146 81.7929 50.9768 85.5356 53.3053Z" fill="#E3D384"/>
<path d="M70.4618 61.3975C68.155 65.1302 65.1283 68.1609 61.3857 70.4854C57.643 72.8099 53.7691 73.9761 49.772 73.9761C49.772 69.9895 50.9254 66.1259 53.2322 62.3932C55.539 58.6605 58.5658 55.6299 62.3084 53.3053C66.051 50.9808 69.9209 49.8146 73.9221 49.8146C73.9221 53.8012 72.7687 57.6648 70.4618 61.3975Z" fill="#E3D384"/>
<path d="M85.5356 27.331C89.2782 29.6595 92.3168 32.6861 94.6475 36.4188C96.9822 40.1515 98.1476 44.0152 98.1476 48.0018C94.1464 48.0018 90.2765 46.8395 86.5339 44.511C82.7912 42.1825 79.7526 39.1519 77.4219 35.4232C75.0872 31.6904 73.9219 27.8268 73.9219 23.8402C77.923 23.8402 81.7929 25.0025 85.5356 27.331Z" fill="#E3D384"/>
<path d="M70.4618 35.4232C68.155 39.1559 65.1283 42.1865 61.3857 44.511C57.643 46.8355 53.7691 48.0018 49.772 48.0018C49.772 44.0152 50.9254 40.1515 53.2322 36.4188C55.539 32.6861 58.5658 29.6555 62.3084 27.331C66.051 25.0064 69.9209 23.8402 73.9221 23.8402C73.9221 27.8268 72.7687 31.6904 70.4618 35.4232Z" fill="#E3D384"/>
</svg>
