<?xml version="1.0" encoding="UTF-8"?>
<svg id="Capa_2" data-name="Capa 2" xmlns="http://www.w3.org/2000/svg" viewBox="0 0 322.44 68.41">
  <defs>
    <style>
      .cls-1 {
        fill: #e3d384;
      }

      .cls-2 {
        fill: none;
        stroke: #e3d384;
        stroke-miterlimit: 10;
        stroke-width: .41px;
      }
    </style>
  </defs>
  <g id="Capa_1-2" data-name="Capa 1">
    <path class="cls-2" d="M309.24,68.21l12.98-34.08L309.24.21H13.27L.22,34.13l13.04,34.08h295.98Z"/>
    <g>
      <g>
        <path class="cls-1" d="M13.75,25.87c-.51.83-.77,1.72-.77,2.62.89,0,1.79-.26,2.62-.77.83-.51,1.53-1.21,2.04-2.04.51-.83.77-1.72.77-2.62-.89,0-1.79.26-2.62.77-.83.51-1.53,1.21-2.04,2.04Z"/>
        <path class="cls-1" d="M8.51,31.42c-.51.83-.77,1.72-.77,2.62.89,0,1.79-.26,2.62-.77.83-.51,1.53-1.21,2.04-2.04.51-.83.77-1.72.77-2.62-.89,0-1.79.26-2.62.77-.83.51-1.53,1.21-2.04,2.04Z"/>
        <path class="cls-1" d="M15.6,29.31c-.83-.51-1.72-.77-2.62-.77,0,.89.26,1.79.77,2.62.51.83,1.21,1.53,2.04,2.04.83.51,1.72.77,2.62.77,0-.89-.26-1.79-.77-2.62-.51-.83-1.21-1.53-2.04-2.04Z"/>
        <path class="cls-1" d="M10.36,34.8c-.83-.51-1.72-.77-2.62-.77,0,.89.26,1.79.77,2.62.51.83,1.21,1.53,2.04,2.04.83.51,1.72.77,2.62.77,0-.89-.26-1.79-.77-2.62-.51-.83-1.21-1.53-2.04-2.04Z"/>
        <path class="cls-1" d="M13.75,36.91c-.51.83-.77,1.72-.77,2.62.89,0,1.79-.26,2.62-.77.83-.51,1.53-1.21,2.04-2.04.51-.83.77-1.72.77-2.62-.89,0-1.79.26-2.62.77-.83.51-1.53,1.21-2.04,2.04Z"/>
        <path class="cls-1" d="M15.6,40.36c-.83-.51-1.72-.77-2.62-.77,0,.89.26,1.79.77,2.62.51.83,1.21,1.53,2.04,2.04.83.51,1.72.77,2.62.77,0-.89-.26-1.79-.77-2.62-.51-.83-1.21-1.53-2.04-2.04Z"/>
      </g>
      <g>
        <path class="cls-1" d="M308.7,42.21c.51-.83.77-1.72.77-2.62-.89,0-1.79.26-2.62.77-.83.51-1.53,1.21-2.04,2.04-.51.83-.77,1.72-.77,2.62.89,0,1.79-.26,2.62-.77.83-.51,1.53-1.21,2.04-2.04Z"/>
        <path class="cls-1" d="M313.93,36.66c.51-.83.77-1.72.77-2.62-.89,0-1.79.26-2.62.77-.83.51-1.53,1.21-2.04,2.04-.51.83-.77,1.72-.77,2.62.89,0,1.79-.26,2.62-.77s1.53-1.21,2.04-2.04Z"/>
        <path class="cls-1" d="M306.85,38.76c.83.51,1.72.77,2.62.77,0-.89-.26-1.79-.77-2.62-.51-.83-1.21-1.53-2.04-2.04-.83-.51-1.72-.77-2.62-.77,0,.89.26,1.79.77,2.62.51.83,1.21,1.53,2.04,2.04Z"/>
        <path class="cls-1" d="M312.08,33.27c.83.51,1.72.77,2.62.77,0-.89-.26-1.79-.77-2.62-.51-.83-1.21-1.53-2.04-2.04s-1.72-.77-2.62-.77c0,.89.26,1.79.77,2.62.51.83,1.21,1.53,2.04,2.04Z"/>
        <path class="cls-1" d="M308.7,31.17c.51-.83.77-1.72.77-2.62-.89,0-1.79.26-2.62.77-.83.51-1.53,1.21-2.04,2.04-.51.83-.77,1.72-.77,2.62.89,0,1.79-.26,2.62-.77.83-.51,1.53-1.21,2.04-2.04Z"/>
        <path class="cls-1" d="M306.85,27.72c.83.51,1.72.77,2.62.77,0-.89-.26-1.79-.77-2.62-.51-.83-1.21-1.53-2.04-2.04-.83-.51-1.72-.77-2.62-.77,0,.89.26,1.79.77,2.62.51.83,1.21,1.53,2.04,2.04Z"/>
      </g>
    </g>
  </g>
</svg>