<svg width="644" height="67" viewBox="0 0 644 67" fill="none" xmlns="http://www.w3.org/2000/svg">
<path d="M611.733 0H374.44H31.6967H31.5733L0 33.1767L31.5733 66.3533H395.653H611.733L643.307 33.1767L611.733 0Z" fill="#AC1F2C"/>
<path d="M608.033 59.57L633.07 33.1766L608.033 6.90662L386.28 6.90662H37.1231L11.9631 33.1766L37.1231 59.57H385.663H608.033Z" stroke="#E3D384" stroke-width="0.8" stroke-miterlimit="10"/>
<path d="M37.3699 17.3903C36.3832 18.9936 35.8899 20.7203 35.8899 22.447C37.6166 22.447 39.3432 21.9536 40.9466 20.967C42.5499 19.9803 43.9066 18.6236 44.8932 17.0203C45.8799 15.417 46.3732 13.6903 46.3732 11.9636C44.6466 11.9636 42.9199 12.457 41.3166 13.4436C39.7132 14.4303 38.3566 15.787 37.3699 17.3903Z" fill="#E3D384"/>
<path d="M27.2566 28.1201C26.2699 29.7235 25.7766 31.4501 25.7766 33.1768C27.5033 33.1768 29.2299 32.6835 30.8333 31.6968C32.4366 30.7101 33.7933 29.3535 34.7799 27.7501C35.7666 26.1468 36.2599 24.4201 36.2599 22.6935C34.5333 22.6935 32.8066 23.1868 31.2033 24.1735C29.5999 25.1601 28.2433 26.5168 27.2566 28.1201Z" fill="#E3D384"/>
<path d="M40.9466 24.0503C39.3432 23.0636 37.6166 22.5703 35.8899 22.5703C35.8899 24.297 36.3832 26.0236 37.3699 27.627C38.3566 29.2303 39.7132 30.587 41.3166 31.5736C42.9199 32.5603 44.6466 33.0536 46.3732 33.0536C46.3732 31.327 45.8799 29.6003 44.8932 27.997C43.9066 26.3936 42.5499 25.037 40.9466 24.0503Z" fill="#E3D384"/>
<path d="M30.8333 34.6569C29.2299 33.6702 27.5033 33.1769 25.7766 33.1769C25.7766 34.9035 26.2699 36.6302 27.2566 38.2335C28.2433 39.8369 29.5999 41.1935 31.2033 42.1802C32.8066 43.1669 34.5333 43.6602 36.2599 43.6602C36.2599 41.9335 35.7666 40.2069 34.7799 38.6035C33.7933 37.0002 32.4366 35.6435 30.8333 34.6569Z" fill="#E3D384"/>
<path d="M37.3699 38.7268C36.3832 40.3302 35.8899 42.0568 35.8899 43.7835C37.6166 43.7835 39.3432 43.2902 40.9466 42.3035C42.5499 41.3168 43.9066 39.9602 44.8932 38.3568C45.8799 36.7535 46.3732 35.0268 46.3732 33.3002C44.6466 33.3002 42.9199 33.7935 41.3166 34.7802C39.7132 35.7668 38.3566 37.1235 37.3699 38.7268Z" fill="#E3D384"/>
<path d="M40.9466 45.3871C39.3432 44.4004 37.6166 43.9071 35.8899 43.9071C35.8899 45.6338 36.3832 47.3604 37.3699 48.9638C38.3566 50.5671 39.7132 51.9238 41.3166 52.9104C42.9199 53.8971 44.6466 54.3904 46.3732 54.3904C46.3732 52.6638 45.8799 50.9371 44.8932 49.3338C43.9066 47.7304 42.5499 46.3738 40.9466 45.3871Z" fill="#E3D384"/>
<path d="M607.17 48.9638C608.157 47.3604 608.65 45.6338 608.65 43.9071C606.924 43.9071 605.197 44.4004 603.594 45.3871C601.99 46.3738 600.634 47.7304 599.647 49.3338C598.66 50.9371 598.167 52.6638 598.167 54.3904C599.894 54.3904 601.62 53.8971 603.224 52.9104C604.827 51.9238 606.184 50.5671 607.17 48.9638Z" fill="#E3D384"/>
<path d="M617.284 38.2335C618.27 36.6302 618.764 34.9035 618.764 33.1769C617.037 33.1769 615.31 33.6702 613.707 34.6569C612.104 35.6435 610.747 37.0002 609.76 38.6035C608.774 40.2069 608.28 41.9335 608.28 43.6602C610.007 43.6602 611.734 43.1669 613.337 42.1802C614.94 41.1935 616.297 39.8369 617.284 38.2335Z" fill="#E3D384"/>
<path d="M603.594 42.3035C605.197 43.2902 606.924 43.7835 608.65 43.7835C608.65 42.0568 608.157 40.3302 607.17 38.7268C606.184 37.1235 604.827 35.7668 603.224 34.7802C601.62 33.7935 599.894 33.3002 598.167 33.3002C598.167 35.0268 598.66 36.7535 599.647 38.3568C600.634 39.9602 601.99 41.3168 603.594 42.3035Z" fill="#E3D384"/>
<path d="M613.707 31.6968C615.31 32.6835 617.037 33.1768 618.764 33.1768C618.764 31.4501 618.27 29.7235 617.284 28.1201C616.297 26.5168 614.94 25.1601 613.337 24.1735C611.734 23.1868 610.007 22.6935 608.28 22.6935C608.28 24.4201 608.774 26.1468 609.76 27.7501C610.747 29.3535 612.104 30.7101 613.707 31.6968Z" fill="#E3D384"/>
<path d="M607.17 27.627C608.157 26.0236 608.65 24.297 608.65 22.5703C606.924 22.5703 605.197 23.0636 603.594 24.0503C601.99 25.037 600.634 26.3936 599.647 27.997C598.66 29.6003 598.167 31.327 598.167 33.0536C599.894 33.0536 601.62 32.5603 603.224 31.5736C604.827 30.587 606.184 29.2303 607.17 27.627Z" fill="#E3D384"/>
<path d="M603.594 20.967C605.197 21.9536 606.924 22.447 608.65 22.447C608.65 20.7203 608.157 18.9936 607.17 17.3903C606.184 15.787 604.827 14.4303 603.224 13.4436C601.62 12.457 599.894 11.9636 598.167 11.9636C598.167 13.6903 598.66 15.417 599.647 17.0203C600.634 18.6236 601.99 19.9803 603.594 20.967Z" fill="#E3D384"/>
</svg>
