<svg width="40" height="50" viewBox="0 0 40 50" fill="none" xmlns="http://www.w3.org/2000/svg">
<g clip-path="url(#clip0_2753_2148)">
<path d="M39.4639 29.6265C38.6658 39.8314 30.1165 49.4264 19.6876 49.4264C8.73207 49.4264 -0.149414 40.5619 -0.149414 29.6265" fill="#AC1F2C"/>
<path d="M19.9494 29.7224H19.7842V29.5575C19.7842 26.2984 20.749 23.1003 22.6523 20.0531C24.5512 17.0128 27.0601 14.5086 30.1094 12.6103C33.1634 10.7109 36.3671 9.74829 39.6316 9.74829H39.7968V9.91317C39.7968 13.1734 38.832 16.3711 36.9286 19.4176C35.0297 22.4586 32.5208 24.9628 29.4716 26.8603C26.4186 28.7597 23.2146 29.7227 19.9494 29.7227V29.7224Z" fill="#AC1F2C"/>
<path d="M20.1142 29.7225H19.949C16.6845 29.7225 13.4808 28.7595 10.4267 26.8604C7.37897 24.9629 4.87008 22.4587 2.97008 19.4177C1.06638 16.369 0.101562 13.1713 0.101562 9.91292V9.74805H0.266748C3.5323 9.74805 6.73601 10.7111 9.78897 12.6101C12.839 14.5084 15.3479 17.0126 17.2456 20.0528C19.149 23.099 20.1138 26.2967 20.1138 29.5572V29.7221L20.1142 29.7225Z" fill="#AC1F2C"/>
</g>
<defs>
<clipPath id="clip0_2753_2148">
<rect width="40" height="49.9065" fill="white"/>
</clipPath>
</defs>
</svg>
