<svg width="234" height="227" viewBox="0 0 234 227" fill="none" xmlns="http://www.w3.org/2000/svg">
<path d="M216.634 130.027C212.842 130.027 209.142 129.578 205.349 128.679C201.557 127.78 196.562 126.432 190.272 124.545C177.507 121.131 166.037 118.435 155.77 116.458C145.502 114.571 133.015 113.583 118.215 113.583C128.852 123.108 138.565 130.836 147.352 136.676C156.14 142.607 165.852 148.448 176.489 154.289C181.114 156.715 185.462 159.231 189.532 161.747C193.602 164.263 196.932 166.779 199.429 169.206C202.759 172.441 204.424 176.394 204.424 181.067C204.424 185.74 202.574 189.244 198.782 192.929C194.989 196.613 190.827 198.41 186.294 198.41C181.762 198.41 178.709 196.793 175.287 193.558C172.79 191.131 170.385 188.166 168.072 184.751C165.76 181.337 163.17 176.844 160.21 171.362C154.382 160.849 148.37 151.234 142.357 142.607C136.252 133.981 128.02 124.725 117.567 114.751C117.382 129.128 118.307 141.439 120.342 151.593C122.377 161.747 125.245 172.71 128.76 184.482C130.24 189.155 131.442 193.737 132.552 198.14C133.57 202.633 134.125 206.587 134.125 210.002C134.125 215.304 132.367 219.258 128.945 222.043C125.522 224.739 121.36 226.177 116.55 226.177C111.74 226.177 107.855 224.739 104.34 221.953C100.825 219.078 98.9747 215.034 98.9747 209.822C98.9747 204.61 100.732 195.085 104.34 183.314C107.67 171.542 110.26 160.669 112.202 150.784C114.052 140.81 115.255 128.859 115.625 114.841C105.172 124.815 96.9397 134.071 90.8347 142.697C84.7298 151.324 78.8098 160.939 72.9823 171.452C70.0223 176.934 67.4323 181.427 65.1198 184.841C62.8073 188.256 60.4023 191.221 57.9048 193.648C54.5748 196.882 50.8749 198.5 46.8974 198.5C42.9199 198.5 37.8324 196.703 34.0399 193.198C30.2474 189.694 28.3974 185.65 28.3974 181.157C28.3974 176.664 30.1549 172.71 33.7624 169.296C36.2599 166.869 39.5899 164.353 43.6599 161.837C47.7299 159.321 52.0774 156.805 56.7023 154.379C67.3398 148.538 77.0523 142.607 85.8397 136.766C94.6272 130.925 104.34 123.198 114.977 113.672C100.177 113.672 87.3197 114.661 76.5898 116.548C65.8598 118.435 54.8523 121.131 43.5674 124.635C37.0924 126.433 31.9124 127.87 28.0274 128.769C24.1424 129.667 20.3499 130.117 16.5575 130.117C12.765 130.117 7.21498 128.499 4.34749 125.264C1.3875 122.029 0 118.165 0 113.672C0 109.179 1.5725 104.866 4.71749 101.362C7.86248 97.8571 12.1175 96.0599 17.5749 96.0599C23.0324 96.0599 25.1599 96.5092 29.1374 97.318C33.1149 98.1267 38.2024 99.4746 44.4924 101.272C56.1473 104.327 67.2473 106.843 77.5148 108.73C87.8747 110.617 100.27 111.785 114.607 112.235C104.34 102.26 94.9972 94.4425 86.3948 88.6016C77.7923 82.8506 67.9873 77.0996 56.9798 71.4384C50.3199 68.0237 45.4174 65.2381 42.2724 63.2612C39.1274 61.1944 36.1674 58.8581 33.4849 56.2521C30.1549 53.0172 28.4899 49.4228 28.4899 45.5588C28.4899 41.6949 30.3399 36.7526 33.9474 33.0683C37.5549 29.3841 41.9024 27.5869 46.9899 27.5869C52.0774 27.5869 54.9448 29.2942 58.9223 32.7988C61.6048 35.4047 64.2873 38.7295 66.7848 42.6833C69.2823 46.6371 71.8723 50.8606 74.6473 55.3535C80.4748 65.6874 86.3022 75.1227 92.2222 83.6593C98.0497 92.196 105.912 101.452 115.717 111.336C115.255 97.1383 114.052 85.0072 112.11 74.9429C110.167 64.8787 107.577 54.0056 104.432 42.234C100.917 30.9117 99.0672 22.2852 99.0672 16.3545C99.0672 10.4237 100.825 7.00905 104.432 4.2234C107.947 1.34789 112.017 0 116.642 0C121.267 0 125.615 1.34789 129.037 4.13354C132.46 6.82933 134.217 10.873 134.217 16.1747C134.217 21.4765 133.755 22.6446 132.922 26.3289C132.09 30.103 131.257 33.2481 130.425 35.7641C129.592 38.2802 129.037 40.0774 128.852 41.0659C125.337 52.6577 122.47 63.6206 120.435 74.1342C118.307 84.5579 117.382 97.0484 117.66 111.426C127.465 101.092 135.327 91.8365 141.155 83.5695C146.982 75.3922 153.087 65.8671 159.285 55.084C161.782 50.591 164.372 46.3676 166.962 42.4137C169.552 38.4599 172.142 35.225 174.639 32.7988C177.969 29.5638 182.039 27.9463 186.849 27.9463C191.659 27.9463 195.267 29.7435 199.059 33.4278C202.852 37.112 204.702 41.1557 204.702 45.5588C204.702 49.962 203.037 52.9273 199.707 56.2521C197.209 58.6783 194.157 61.0147 190.642 63.2612C187.127 65.5077 182.502 68.0237 176.859 70.8992C166.037 76.5604 156.14 82.4013 147.26 88.2422C138.38 94.1729 128.852 102.17 118.585 112.325C133.015 111.965 145.317 110.797 155.585 109C165.852 107.203 176.952 104.597 189.069 101.362C201.187 97.947 210.252 96.1498 216.357 96.1498C222.462 96.1498 225.977 97.8571 228.844 101.362C231.804 104.776 233.192 108.73 233.192 113.223C233.192 117.716 231.804 121.94 228.937 125.264C226.162 128.589 221.999 130.296 216.542 130.296" fill="#E3D384"/>
</svg>
