<svg width="30" height="17" viewBox="0 0 30 17" fill="none" xmlns="http://www.w3.org/2000/svg">
<path d="M7.67966 0.00109308C3.36918 0.0746312 -0.0682979 3.84007 0.00103051 8.41228C0.0703589 12.9845 3.62024 16.6307 7.93072 16.5572C12.2412 16.4836 15.6787 12.7182 15.6093 8.14598C15.54 3.57376 11.9901 -0.072445 7.67966 0.00109308ZM8.28073 14.3624C8.11582 14.9058 8.11717 15.6754 7.79206 16.0538C7.50465 12.1542 4.26372 9.18194 0.710469 8.71929C4.45622 8.10742 6.96685 5.41221 7.57331 1.46686C7.60562 1.25481 7.49456 1.24981 7.80687 1.27123C8.13803 5.10878 11.3184 8.12813 14.8858 8.47797C11.8145 9.01701 9.23921 11.1996 8.28073 14.3617V14.3624Z" fill="black"/>
<path d="M25.9014 12.5824C26.7684 11.7092 27.8527 12.6595 27.7477 13.584H29.9999C29.6754 8.56204 26.8902 4.30753 22.9432 2.10139C22.8806 2.22419 22.7938 2.342 22.6746 2.4498C21.7639 3.27086 20.5551 2.1785 20.9138 1.18823C19.6013 0.729869 18.2013 0.479268 16.748 0.479982V11.3201C16.748 11.8455 17.899 13.5833 18.4328 13.5833H25.5588C25.5043 13.2542 25.5925 12.8929 25.9021 12.5816L25.9014 12.5824ZM18.7074 4.84015C19.8099 3.72922 21.2672 5.56982 20.1748 6.55437C19.12 7.50537 17.6641 5.89039 18.7074 4.84015ZM24.5236 7.39328C25.6261 6.28235 27.0834 8.12295 25.9909 9.1075C24.9362 10.0585 23.4803 8.44352 24.5236 7.39328ZM19.4673 10.1477C20.5699 9.03682 22.0271 10.8774 20.9347 11.862C19.8799 12.813 18.424 11.198 19.4673 10.1477Z" fill="black"/>
</svg>
