<svg width="273" height="273" viewBox="0 0 273 273" fill="none" xmlns="http://www.w3.org/2000/svg">
<circle cx="136.159" cy="136.159" r="136.159" fill="#AC1F2C"/>
<g clip-path="url(#clip0_2585_4626)">
<path d="M222.885 151.402C219.596 151.402 216.387 151.001 213.097 150.199C209.808 149.396 205.476 148.193 200.02 146.508C188.949 143.459 179 141.053 170.095 139.287C161.19 137.603 150.359 136.72 137.522 136.72C146.749 145.224 155.173 152.124 162.794 157.339C170.416 162.634 178.84 167.849 188.066 173.064C192.078 175.23 195.848 177.476 199.378 179.723C202.908 181.969 205.797 184.215 207.963 186.382C210.851 189.27 212.295 192.8 212.295 196.972C212.295 201.144 210.691 204.272 207.401 207.562C204.112 210.851 200.502 212.456 196.57 212.456C192.639 212.456 189.992 211.012 187.023 208.123C184.857 205.957 182.771 203.31 180.765 200.261C178.76 197.212 176.513 193.201 173.946 188.307C168.892 178.92 163.677 170.336 158.462 162.634C153.167 154.932 146.027 146.669 136.961 137.763C136.8 150.6 137.603 161.591 139.368 170.657C141.133 179.723 143.62 189.51 146.668 200.02C147.952 204.192 148.995 208.284 149.958 212.215C150.84 216.227 151.322 219.757 151.322 222.805C151.322 227.539 149.797 231.069 146.829 233.556C143.86 235.963 140.25 237.246 136.078 237.246C131.906 237.246 128.537 235.963 125.488 233.476C122.439 230.908 120.835 227.298 120.835 222.645C120.835 217.992 122.359 209.487 125.488 198.977C128.376 188.467 130.623 178.76 132.307 169.935C133.912 161.029 134.955 150.359 135.276 137.843C126.21 146.749 119.07 155.012 113.775 162.714C108.48 170.416 103.345 179.001 98.2907 188.387C95.7234 193.281 93.477 197.293 91.4713 200.341C89.4656 203.39 87.3796 206.037 85.2135 208.204C82.3252 211.092 79.1161 212.536 75.6663 212.536C72.2165 212.536 67.8039 210.931 64.5145 207.803C61.2252 204.674 59.6206 201.063 59.6206 197.052C59.6206 193.04 61.145 189.51 64.2739 186.462C66.44 184.296 69.3282 182.049 72.8583 179.803C76.3883 177.556 80.1591 175.31 84.1705 173.144C93.3967 167.929 101.821 162.634 109.442 157.419C117.064 152.204 125.488 145.305 134.714 136.8C121.878 136.8 110.726 137.683 101.42 139.368C92.1131 141.053 82.5659 143.459 72.7781 146.588C67.1621 148.193 62.6693 149.476 59.2997 150.279C55.9301 151.081 52.6407 151.482 49.3514 151.482C46.062 151.482 41.2483 150.038 38.7612 147.15C36.1939 144.262 34.9905 140.812 34.9905 136.8C34.9905 132.789 36.3544 128.938 39.0822 125.809C41.8099 122.68 45.5004 121.076 50.2339 121.076C54.9674 121.076 56.8126 121.477 60.2624 122.199C63.7123 122.921 68.1248 124.124 73.5803 125.729C83.6891 128.457 93.3165 130.703 102.222 132.388C111.207 134.073 121.958 135.116 134.393 135.517C125.488 126.611 117.385 119.632 109.924 114.417C102.463 109.282 93.9583 104.147 84.4112 99.0931C78.6347 96.0444 74.3826 93.5573 71.6549 91.7923C68.9271 89.947 66.3598 87.8611 64.0332 85.5345C61.1449 82.6463 59.7008 79.4371 59.7008 75.9873C59.7008 72.5375 61.3054 68.1249 64.4343 64.8356C67.5632 61.5462 71.334 59.9416 75.7465 59.9416C80.1591 59.9416 82.6461 61.466 86.096 64.5949C88.4226 66.9215 90.7492 69.8899 92.9154 73.42C95.0815 76.95 97.3279 80.7208 99.7348 84.7322C104.789 93.9585 109.844 102.382 114.978 110.004C120.033 117.626 126.852 125.889 135.356 134.714C134.955 122.038 133.912 111.208 132.227 102.222C130.542 93.2364 128.296 83.5288 125.568 73.0189C122.52 62.9101 120.915 55.2082 120.915 49.9131C120.915 44.618 122.439 41.5693 125.568 39.0823C128.617 36.5149 132.147 35.3115 136.158 35.3115C140.17 35.3115 143.941 36.5149 146.909 39.002C149.878 41.4089 151.402 45.0192 151.402 49.7526C151.402 54.4861 151.001 55.5291 150.279 58.8184C149.557 62.188 148.835 64.996 148.112 67.2424C147.39 69.4888 146.909 71.0934 146.749 71.9759C143.7 82.3253 141.213 92.1132 139.448 101.5C137.603 110.806 136.8 121.958 137.041 134.795C145.545 125.568 152.365 117.305 157.419 109.924C162.473 102.623 167.768 94.1189 173.144 84.4915C175.31 80.4801 177.556 76.7094 179.803 73.1793C182.049 69.6493 184.295 66.761 186.462 64.5949C189.35 61.7067 192.88 60.2625 197.052 60.2625C201.224 60.2625 204.353 61.8671 207.642 65.1565C210.931 68.4458 212.536 72.0561 212.536 75.9873C212.536 79.9185 211.092 82.566 208.204 85.5345C206.037 87.7007 203.39 89.7866 200.341 91.7923C197.292 93.798 193.281 96.0444 188.387 98.6117C179 103.666 170.416 108.881 162.714 114.096C155.012 119.391 146.749 126.531 137.843 135.597C150.359 135.276 161.029 134.233 169.935 132.629C178.84 131.024 188.467 128.697 198.977 125.809C209.487 122.76 217.35 121.156 222.645 121.156C227.94 121.156 230.988 122.68 233.475 125.809C236.043 128.858 237.246 132.388 237.246 136.399C237.246 140.411 236.043 144.181 233.556 147.15C231.149 150.118 227.539 151.643 222.805 151.643" fill="#E3D384"/>
</g>
<defs>
<clipPath id="clip0_2585_4626">
<rect width="202.175" height="202.175" fill="white" transform="translate(35.0709 35.0713)"/>
</clipPath>
</defs>
</svg>
