<svg width="262" height="258" viewBox="0 0 262 258" fill="none" xmlns="http://www.w3.org/2000/svg">
<path d="M261.511 196.658C261.511 192.454 258.301 188.573 252.9 185.463C258.301 182.353 261.511 178.484 261.511 174.279C261.511 164.875 245.434 157.1 224.567 155.856V49.261C224.567 41.1877 217.997 34.6195 209.921 34.6195H166.07V14.6415C166.07 6.56813 159.5 0 151.424 0H70.3054C62.2296 0 55.6595 6.56813 55.6595 14.6415V52.7068H55.5724C55.5724 52.7068 51.3914 70.3089 42.2455 81.094C33.0871 91.8916 24.8744 96.1087 31.2081 108.548C36.1855 118.313 43.2036 119.11 46.2025 123.899H36.3224C36.3224 129.434 38.4005 134.473 41.8224 138.304C42.0091 138.229 42.2081 138.167 42.4072 138.117C42.2455 138.217 42.0837 138.329 41.9344 138.441C41.8846 138.391 41.8473 138.341 41.8224 138.304C17.5701 146.091 0 168.831 0 195.676C0 220.754 15.3428 242.262 37.1437 251.331H37.2059C41.0882 252.798 49.2516 256.07 59.6046 256.07C71.0525 256.07 81.4672 252.562 84.5407 250.845C105.744 241.528 120.552 220.331 120.552 195.676C120.552 168.831 103.007 146.091 78.7421 138.304C78.7048 138.341 78.6674 138.391 78.6301 138.441C78.4808 138.329 78.319 138.217 78.1572 138.117C78.3563 138.167 78.543 138.229 78.7421 138.304C82.164 134.473 84.2421 129.434 84.2421 123.899H74.362C77.3609 119.11 84.379 118.313 89.3563 108.548C95.6901 96.1087 87.4774 91.8916 78.319 81.094C70.2059 71.5279 66 56.6128 65.1539 53.3536V14.6415C65.1539 11.7928 67.4559 9.49145 70.3054 9.49145H151.424C154.261 9.49145 156.576 11.7928 156.576 14.6415V34.4329H141.718C128.192 34.4329 117.192 45.442 117.192 58.9639C117.192 72.4858 128.192 83.4824 141.718 83.4824C155.244 83.4824 166.257 72.4858 166.257 58.9639V44.111H209.921C212.758 44.111 215.072 46.4247 215.072 49.261V155.757C193.147 156.553 175.925 164.552 175.925 174.279C175.925 178.484 179.136 182.353 184.536 185.463C179.136 188.573 175.925 192.454 175.925 196.658C175.925 200.863 179.086 204.669 184.412 207.779C179.086 210.877 175.925 214.721 175.925 218.888C175.925 222.607 178.439 226.078 182.769 228.977C178.439 231.875 175.938 235.333 175.938 239.053C175.938 244.476 181.288 249.353 189.837 252.736C192.239 254.092 206.288 257.314 220.747 257.314C235.206 257.314 245.198 254.092 247.587 252.736C256.148 249.353 261.499 244.476 261.499 239.053C261.499 235.333 258.998 231.875 254.667 228.977C258.998 226.078 261.511 222.607 261.511 218.888C261.511 214.721 258.351 210.877 253.025 207.779C258.351 204.669 261.511 200.813 261.511 196.658ZM155.817 58.9639C155.817 66.7262 149.495 73.0456 141.718 73.0456C133.941 73.0456 127.632 66.7262 127.632 58.9639C127.632 51.2016 133.954 44.8698 141.718 44.8698H155.817V58.9639Z" fill="#1E1E1E"/>
</svg>
