<svg width="160" height="350" viewBox="0 0 160 350" fill="none" xmlns="http://www.w3.org/2000/svg">
<g clip-path="url(#clip0_2001_2674)">
<path d="M138.833 112.295C112.547 97.3536 109.988 80.6557 109.795 76.1827V39.2506C114.226 38.3372 117.502 34.9415 117.502 30.9133C117.502 26.1593 112.988 22.3185 107.4 22.3185H106.712C110.373 22.3185 113.346 19.7892 113.346 16.6745V5.64403C113.346 2.52927 110.373 0 106.712 0H55.2138C51.553 0 48.5804 2.52927 48.5804 5.64403V16.6511C48.5804 19.7658 51.553 22.2951 55.2138 22.2951H54.5257C48.9382 22.2951 44.4242 26.1358 44.4242 30.8899C44.4242 34.3326 46.7913 37.2834 50.2318 38.6651V76.1592C50.0392 80.6323 47.4794 97.3302 21.1935 112.272C21.166 112.295 -0.578411 122.693 -0.00039598 131.054C0.577619 139.415 14.5876 329.485 14.5876 329.485C14.5876 329.485 15.8262 350.023 31.5702 350.023H128.401C144.145 350.023 145.384 329.485 145.384 329.485C145.384 329.485 159.394 139.415 159.972 131.054C160.578 122.693 138.833 112.295 138.833 112.295Z" fill="#AC1F2C"/>
<g clip-path="url(#clip1_2001_2674)">
<path d="M85.7677 167.788C86.9506 168.538 87.9237 169.519 88.6487 170.712C89.3737 171.904 89.7553 173.154 89.7553 174.442C88.477 174.442 87.2559 174.077 86.0539 173.327C84.8709 172.596 83.8979 171.615 83.1728 170.404C82.4478 169.192 82.0662 167.942 82.0662 166.673C83.3446 166.673 84.5657 167.038 85.7677 167.788ZM83.1728 178.462C82.4478 179.673 82.0662 180.923 82.0662 182.192C83.3446 182.192 84.5657 181.827 85.7677 181.077C86.9506 180.327 87.9237 179.346 88.6487 178.154C89.3737 176.962 89.7553 175.712 89.7553 174.423C88.477 174.423 87.2559 174.788 86.0539 175.538C84.8709 176.269 83.8979 177.25 83.1728 178.462ZM82.5623 205C91.2245 205 97.0247 202.038 105 199.077V173.673H97.6925V195.865C94.6588 200.615 87.771 203.327 82.5623 203.327C67.6801 203.327 61.5556 190.788 61.5556 173.846C61.5556 156.904 67.6992 144.692 82.486 144.692C97.2727 144.692 98.6274 148.846 101.642 151.212V144.346C94.1627 143.846 90.0415 143 82.486 143C61.651 143 54 157.404 54 173.827C54 190.25 61.651 205 82.5623 205Z" fill="#E3D384"/>
</g>
</g>
<defs>
<clipPath id="clip0_2001_2674">
<rect width="160" height="350" fill="white"/>
</clipPath>
<clipPath id="clip1_2001_2674">
<rect width="51" height="62" fill="white" transform="translate(54 143)"/>
</clipPath>
</defs>
</svg>
