<svg width="30" height="23" viewBox="0 0 30 23" fill="none" xmlns="http://www.w3.org/2000/svg">
<path d="M12.6992 10.1419C12.8978 6.32722 15.177 2.8016 18.7217 1.1287C21.762 -0.305553 24.8186 0.242274 28.0748 0.14233C28.8041 0.119912 29.132 -0.207944 28.8839 0.820926C25.5556 2.73902 23.4119 6.37579 23.2836 10.1419H12.6992ZM21.9629 3.38072C20.8389 2.28554 19.2115 4.17094 20.5105 5.03635C21.6759 5.81255 22.8735 4.26855 21.9629 3.38072Z" fill="black"/>
<path d="M11.3308 0V10.2822C5.71794 10.1028 0.945954 5.5105 1.03441 0H11.3308Z" fill="black"/>
<path d="M23.8581 11.2822C23.398 17.0052 18.4722 22.3859 12.4632 22.3859C6.15037 22.3859 1.0332 17.4143 1.0332 11.2822" fill="black"/>
</svg>
