<svg width="27" height="16" viewBox="0 0 27 16" fill="none" xmlns="http://www.w3.org/2000/svg">
<path d="M13.5094 5.08199C12.535 4.08514 13.5951 2.83716 14.6276 2.95831V0.367676C9.02102 0.741128 4.27229 3.94458 1.80953 8.48481C1.94666 8.55656 2.07833 8.65684 2.1985 8.79387C3.11538 9.84159 1.8955 11.2319 0.790348 10.819C0.278485 12.329 -0.000905889 13.9396 2.2067e-06 15.6113H12.1013C12.6882 15.6113 14.6279 14.2874 14.6279 13.6734V5.47662C14.2604 5.53925 13.8575 5.4378 13.5097 5.08199H13.5094ZM4.86709 13.3573C3.62724 12.0888 5.68135 10.4126 6.78105 11.6694C7.84262 12.8824 6.03974 14.5571 4.86709 13.3573ZM7.71639 6.66666C6.47654 5.3981 8.53065 3.72198 9.63035 4.97878C10.6919 6.19176 8.88905 7.86641 7.71639 6.66666ZM10.7918 12.4831C9.55196 11.2145 11.6061 9.53842 12.7058 10.7952C13.7673 12.0082 11.9645 13.6829 10.7918 12.4831Z" fill="black"/>
<path d="M26.2285 7.86367L26.2285 7.9292L26.161 7.9292C24.8273 7.9292 23.5187 7.54676 22.2715 6.7928C21.0274 6.04051 20.0027 5.04628 19.2259 3.83824C18.4487 2.62817 18.0547 1.35868 18.0547 0.0653053L18.0547 -0.00022477L18.1222 -0.000224773C19.4562 -0.000224829 20.7649 0.382215 22.0115 1.13617C23.2558 1.88847 24.2807 2.8827 25.0571 4.09073C25.8343 5.30043 26.2283 6.56993 26.2283 7.86386L26.2285 7.86367Z" fill="black"/>
<path d="M26.2283 7.79811L26.2283 7.86364C26.2283 9.1572 25.8343 10.4265 25.0571 11.6366C24.2807 12.8442 23.2558 13.8383 22.0115 14.5911C20.7641 15.3453 19.4555 15.7275 18.1222 15.7275L18.0547 15.7275L18.0547 15.662C18.0547 14.3681 18.4487 13.0988 19.2259 11.8891C20.0027 10.6805 21.0274 9.68643 22.2715 8.93451C23.518 8.18037 24.8266 7.79811 26.1608 7.79811L26.2283 7.79811Z" fill="black"/>
</svg>
