<svg width="23" height="24" viewBox="0 0 23 24" fill="none" xmlns="http://www.w3.org/2000/svg">
<path d="M10.3813 3.65122C9.63247 2.87897 10.4472 1.91244 11.2403 2.00629V0C6.93223 0.288993 3.28293 2.77021 1.39066 6.28681C1.49591 6.3425 1.59713 6.42012 1.68939 6.52625C2.3939 7.33753 1.45649 8.41457 0.607322 8.09488C0.214087 9.26445 -0.000892964 10.5116 2.78795e-06 11.8066H9.2988C9.74981 11.8066 11.2403 10.7813 11.2403 10.306V3.95688C10.9582 4.00556 10.6483 3.92662 10.3813 3.65122ZM3.74021 10.0604C2.78758 9.07807 4.3659 7.77957 5.21104 8.75312C6.02662 9.69245 4.64134 10.9896 3.74021 10.0604ZM5.92988 4.87868C4.97725 3.89636 6.55556 2.59787 7.4007 3.57141C8.21628 4.51075 6.83101 5.80793 5.92988 4.87868ZM8.29332 9.38329C7.34069 8.40097 8.919 7.10248 9.76414 8.07602C10.5797 9.01536 9.19445 10.3125 8.29332 9.38329Z" fill="black"/>
<path d="M19.577 13.3448C20.3008 14.0754 21.2064 13.2804 21.1186 12.5063H22.9993C22.7283 16.711 20.4025 20.2728 17.1066 22.1199C17.0546 22.0168 16.9816 21.9181 16.8822 21.8282C16.1217 21.1406 15.1122 22.0554 15.4122 22.8842C14.3163 23.2679 13.1469 23.4776 11.9336 23.4771V14.4012C11.9336 13.961 12.8947 12.5063 13.3404 12.5063H19.2909C19.2452 12.7817 19.3191 13.0839 19.5775 13.3448H19.577ZM13.5697 19.8263C14.4905 20.7565 15.7074 19.2155 14.7951 18.391C13.9145 17.5951 12.699 18.9471 13.5697 19.8263ZM18.4265 17.6894C19.3473 18.6191 20.5642 17.0785 19.6518 16.2541C18.7713 15.4577 17.5558 16.8101 18.4265 17.6894ZM14.2043 15.3827C15.1252 16.3128 16.342 14.7718 15.4297 13.9474C14.5492 13.151 13.3337 14.5034 14.2043 15.3827Z" fill="black"/>
<path d="M0.0351562 12.4512H9.78004C10.2297 12.4512 11.1994 13.9106 11.1994 14.3522V23.457C5.31337 23.4601 0.436901 18.6503 0.0351562 12.4512Z" fill="black"/>
<path d="M22.9212 11.895H13.8262C13.5082 11.895 12.127 10.7663 12.127 10.3944V0.0888672C18.1804 0.534855 23.2137 5.73147 22.9208 11.895H22.9212Z" fill="black"/>
</svg>
