<svg width="266" height="237" viewBox="0 0 266 237" fill="none" xmlns="http://www.w3.org/2000/svg">
<path d="M208.115 47.0115C191.073 30.1428 169.305 18.5683 143.426 12.6185C117.575 6.69033 91.3782 6.69033 65.5595 12.6185C39.6806 18.5629 17.9132 30.132 0.865004 47.006L0 47.8622L0.865004 48.7184C17.9132 65.5924 39.6806 77.1615 65.5541 83.1113C91.4001 89.0449 117.602 89.0449 143.421 83.1113C169.294 77.1724 191.062 65.6033 208.115 48.7238L208.98 47.8676L208.115 47.0115ZM54.6047 47.4016C44.3287 36.6887 61.355 22.5294 70.4704 33.1448C79.2682 43.3917 64.3223 57.5347 54.6047 47.4016Z" fill="black"/>
<path d="M208.98 47.3059L265.02 0V95.734C265.02 95.734 208.98 45.6147 208.98 47.3059Z" fill="black"/>
<path d="M126.268 237C187.123 237 237.011 181.556 241.67 122.586H10.5078C10.5078 185.776 62.3352 237 126.268 237ZM126.064 178.786L125.889 178.618C122.471 175.332 120.102 171.107 118.844 166.067C117.591 161.032 117.52 155.916 118.635 150.849C119.756 145.777 122.009 141.492 125.334 138.114L125.504 137.94L125.674 138.108C129.092 141.394 131.466 145.619 132.719 150.659C133.971 155.688 134.043 160.809 132.927 165.877C131.812 170.949 129.559 175.234 126.229 178.612L126.059 178.786H126.064ZM140.895 137.538C145.582 138.396 149.928 140.606 153.808 144.109C157.682 147.612 160.616 151.832 162.534 156.649C164.457 161.483 164.99 166.278 164.122 170.916L164.078 171.15L163.841 171.107C159.154 170.248 154.808 168.038 150.929 164.535C147.055 161.038 144.12 156.818 142.203 151.995C140.28 147.161 139.747 142.36 140.615 137.728L140.659 137.494L140.895 137.538ZM110.316 137.728C111.184 142.366 110.651 147.167 108.728 151.995C106.81 156.818 103.876 161.038 100.002 164.535C96.123 168.038 91.782 170.248 87.0894 171.107L86.8532 171.15L86.8092 170.916C85.941 166.284 86.474 161.483 88.3972 156.649C90.3149 151.827 93.2492 147.607 97.123 144.109C101.002 140.606 105.349 138.396 110.036 137.538L110.272 137.494L110.316 137.728Z" fill="black"/>
</svg>
