<svg width="25" height="25" viewBox="0 0 25 25" fill="none" xmlns="http://www.w3.org/2000/svg">
<path d="M19.8793 9.07514H10.5182C10.3926 9.07514 10.4794 8.44211 10.4938 8.31112C10.8994 4.65961 13.7376 1.47062 17.4203 0.512733C19.7571 -0.0950568 22.3352 0.304103 24.7395 0.183593L24.9401 0.278382L24.8651 0.800433C21.8889 2.55426 19.9905 5.71467 19.8793 9.07562V9.07514ZM17.9332 2.79385C16.6483 2.86292 16.6742 4.8168 18.1094 4.69296C19.3619 4.58483 19.1932 2.72574 17.9332 2.79385Z" fill="black"/>
<path d="M9.2023 19.1355C4.10324 18.924 -0.0212816 15.012 0.00205164 10.0615H9.2023C9.20528 13.0852 9.19882 16.1118 9.2023 19.1355C9.54882 19.1498 9.94946 19.1507 10.296 19.1355C10.2995 16.1118 10.293 13.0852 10.296 10.0615H19.4962C19.4734 15.0101 15.4139 18.9126 10.296 19.1355C10.2935 21.0894 10.298 23.0461 10.296 24.9995H9.2023C9.20031 23.0457 9.20478 21.0889 9.2023 19.1355Z" fill="black"/>
<path d="M9.20148 0V9.07398C4.1888 8.93203 -0.0831672 4.86137 0.00122958 0H9.20148Z" fill="black"/>
</svg>
