<svg width="26" height="23" viewBox="0 0 26 23" fill="none" xmlns="http://www.w3.org/2000/svg">
<path d="M12.6208 23.0005H12.5156V22.8964C12.5156 20.84 13.1291 18.822 14.3393 16.8989C15.5468 14.9805 17.1421 13.4004 19.0809 12.2023C21.0231 11.0036 23.0598 10.396 25.1359 10.396H25.2411V10.5001C25.2411 12.5572 24.6276 14.5752 23.4174 16.4976C22.2099 18.4167 20.6146 19.9968 18.6758 21.1942C16.7342 22.3929 14.6969 23.0005 12.6208 23.0005Z" fill="black"/>
<path d="M12.7254 23.0005H12.6203C10.5441 23.0005 8.50751 22.3929 6.56531 21.1942C4.62713 19.9968 3.03184 18.4167 1.82366 16.4976C0.613467 14.5738 0 12.5566 0 10.5001V10.396H0.105147C2.18129 10.396 4.21859 11.0036 6.16013 12.2023C8.09965 13.4004 9.69493 14.9805 10.9018 16.8989C12.112 18.8207 12.7254 20.8386 12.7254 22.8964V23.0005Z" fill="black"/>
<path d="M13.0474 11.4609C19.1305 11.4609 24.1173 5.90657 24.5827 0H1.47656C1.47656 6.32979 6.65688 11.4609 13.0474 11.4609ZM13.0273 5.62862L13.0099 5.61203C12.6683 5.28301 12.4312 4.85978 12.3053 4.35497C12.1801 3.85081 12.1727 3.33803 12.2846 2.83056C12.3964 2.32243 12.6214 1.89323 12.9536 1.55492L12.9704 1.53767L12.9878 1.55425C13.3293 1.88395 13.5664 2.30651 13.6923 2.81199C13.8176 3.31548 13.8249 3.82892 13.7131 4.33639C13.6013 4.84453 13.3762 5.27372 13.044 5.61203L13.0273 5.62928V5.62862ZM14.5094 1.49654C14.9782 1.58278 15.4122 1.80368 15.8 2.1546C16.1871 2.50551 16.4804 2.92808 16.6719 3.411C16.8642 3.89526 16.9177 4.37553 16.8307 4.84055L16.826 4.86376L16.8025 4.85912C16.3337 4.77355 15.8997 4.55198 15.512 4.20107C15.1249 3.85081 14.8315 3.42759 14.64 2.94466C14.4478 2.46041 14.3942 1.97947 14.4813 1.51512L14.486 1.4919L14.5094 1.49654ZM11.4534 1.51578C11.5405 1.98013 11.4869 2.46107 11.2947 2.94532C11.1032 3.42825 10.8098 3.85081 10.4227 4.20173C10.035 4.55265 9.60099 4.77421 9.13218 4.85978L9.10874 4.86443L9.10405 4.84121C9.01766 4.37686 9.07057 3.89592 9.26278 3.41167C9.45432 2.92874 9.74833 2.50551 10.1348 2.15526C10.5225 1.80434 10.9565 1.58278 11.4253 1.49721L11.4488 1.49256L11.4534 1.51578Z" fill="black"/>
</svg>
