<svg width="31" height="15" viewBox="0 0 31 15" fill="none" xmlns="http://www.w3.org/2000/svg">
<path d="M0.101166 7.6779L0 7.54528L0.101166 7.41266C2.09949 4.7931 4.65126 2.99654 7.68446 2.07369C10.7111 1.15317 13.7818 1.15317 16.812 2.07369C19.8458 2.99732 22.397 4.79388 24.3947 7.41266L24.4959 7.54528L24.3947 7.6779C22.3958 10.2982 19.8446 12.0948 16.8114 13.0169C13.7848 13.9382 10.7135 13.9382 7.68387 13.0169C4.65067 12.094 2.09949 10.2975 0.100571 7.6779H0.101166Z" fill="black"/>
<path d="M6.40179 7.47304C5.19673 5.80987 7.19327 3.61234 8.26147 5.2599C9.29277 6.85052 7.54081 9.04649 6.40179 7.47304Z" fill="white"/>
<path d="M24.3965 7.41247L30.9991 0V15.0005C30.9991 15.0005 24.3965 7.14724 24.3965 7.41247Z" fill="black"/>
</svg>
