<svg width="22" height="25" viewBox="0 0 22 25" fill="none" xmlns="http://www.w3.org/2000/svg">
<path d="M15.6176 6.09952H15.5684V6.04899C15.5684 5.05395 15.8542 4.07712 16.4183 3.14671C16.9811 2.21813 17.7247 1.45387 18.6286 0.873961C19.5338 0.294051 20.4831 0 21.4507 0H21.4999V0.0505259C21.4999 1.04602 21.2141 2.0224 20.65 2.9528C20.0872 3.88139 19.3436 4.6461 18.4397 5.22556C17.5349 5.80547 16.5851 6.09952 15.6176 6.09952Z" fill="black"/>
<path d="M5.96718 5.94867H5.91798C4.94477 5.94867 3.98936 5.66919 3.07847 5.11796C2.16946 4.56718 1.42163 3.8407 0.855132 2.95809C0.287699 2.07366 0 1.14553 0 0.19965V0.151855H0.0491995C1.02288 0.151855 1.97828 0.431341 2.8887 0.982574C3.79819 1.53335 4.54649 2.26029 5.11205 3.14244C5.67948 4.02642 5.96718 4.95454 5.96718 5.90088V5.94867Z" fill="black"/>
<path d="M11.545 16.9556C10.3065 15.6884 12.3584 14.0142 13.4567 15.2696C14.5171 16.4813 12.7164 18.1541 11.545 16.9556Z" fill="black"/>
<path d="M8.29301 16.9556C7.05459 15.6884 9.10644 14.0142 10.2048 15.2696C11.2651 16.4813 9.46442 18.1541 8.29301 16.9556Z" fill="black"/>
<path d="M10.7508 4.64404C5.16595 4.64404 0.638672 9.04207 0.638672 14.4675C0.638672 19.8928 5.16595 24.2909 10.7508 24.2909C16.3356 24.2909 20.8629 19.8928 20.8629 14.4675C20.8629 9.04207 16.3356 4.64404 10.7508 4.64404ZM5.89082 11.3877C4.6524 10.1204 6.70425 8.44623 7.80257 9.70164C8.86293 10.9133 7.06223 12.5862 5.89082 11.3877ZM7.85926 18.7672C3.98563 14.8038 10.4031 9.56736 13.8391 13.4938C17.1556 17.2837 11.523 22.5156 7.85926 18.7672ZM14.1366 11.3877C12.8982 10.1204 14.9501 8.44623 16.0484 9.70164C17.1087 10.9133 15.308 12.5862 14.1366 11.3877Z" fill="black"/>
</svg>
