<svg width="27" height="27" viewBox="0 0 27 27" fill="none" xmlns="http://www.w3.org/2000/svg">
<path d="M20.1256 15.24C22.1545 14.3083 24.2251 13.5082 26.4983 13.4462C26.6998 13.4407 26.8433 13.3546 26.9999 13.5861C27.0191 18.1966 24.4759 22.751 20.4953 25.0601C11.3111 30.3866 0.435906 24.1371 0 13.7063L0.44193 13.4018C2.78191 13.6202 4.84863 14.2057 6.94328 15.24C2.0837 9.90033 5.11971 0.887447 12.3954 0.064902C20.8578 -0.891533 25.6725 8.94005 20.1262 15.24H20.1256ZM13.7168 1.48172C13.2415 1.42959 13.4255 1.48282 13.3466 1.7506C12.4589 4.773 11.3445 6.8878 8.29043 8.24426C7.46681 8.60971 6.62347 8.70245 5.84585 9.09699C9.60636 9.55243 12.9731 12.7257 13.3526 16.5273C13.9156 16.6684 13.6916 15.9051 13.8428 15.459C14.9522 12.177 17.6641 9.44049 21.2247 9.18643C20.7789 8.69257 19.8447 8.68215 19.1634 8.40998C16.3832 7.30045 13.9446 4.53375 13.7174 1.48227L13.7168 1.48172ZM17.7456 17.0783C14.9254 18.2915 12.1375 18.3014 9.32379 17.0783C11.4409 19.3363 13.2634 22.12 13.3526 25.3322C13.8302 25.3717 13.6571 25.3575 13.7124 25.0562C14.3236 21.7298 15.3175 19.4921 17.7462 17.0788L17.7456 17.0783Z" fill="black"/>
</svg>
