<svg width="284" height="277" viewBox="0 0 284 277" fill="none" xmlns="http://www.w3.org/2000/svg">
<path d="M92.9269 274.377C92.4778 276.958 93.8756 277.011 89.8815 276.696C86.2063 230.128 45.2689 194.412 0 188.049C48.7608 181.234 81.2874 149.62 89.9214 101.719C90.3811 99.1615 88.9541 99.0795 92.9667 99.3995C96.5091 145.735 137.308 182.692 182.848 188.047C135.31 195.797 101.221 226.798 92.9269 274.374V274.377Z" fill="#e3d384"/>
<path d="M194.03 175.11C193.581 177.691 194.979 177.744 190.985 177.429C187.31 130.86 146.372 95.1446 101.104 88.782C149.864 81.9673 182.391 50.353 191.025 2.4515C191.485 -0.105682 190.058 -0.187665 194.07 0.132313C197.613 46.4683 238.412 83.4244 283.952 88.7794C236.413 96.5302 202.324 127.531 194.03 175.107V175.11Z" fill="#e3d384"/>
</svg>
