<svg width="97" height="120" viewBox="0 0 97 120" fill="none" xmlns="http://www.w3.org/2000/svg">
<g clip-path="url(#clip0_2001_2336)">
<path d="M47.8068 120.106C70.559 120.106 89.0033 111.865 89.0033 101.699C89.0033 91.5326 70.559 83.2915 47.8068 83.2915C25.0546 83.2915 6.61035 91.5326 6.61035 101.699C6.61035 111.865 25.0546 120.106 47.8068 120.106Z" fill="#AC1F2C"/>
<path d="M47.8068 98.9358C70.559 98.9358 89.0033 90.6947 89.0033 80.5287C89.0033 70.3627 70.559 62.1216 47.8068 62.1216C25.0546 62.1216 6.61035 70.3627 6.61035 80.5287C6.61035 90.6947 25.0546 98.9358 47.8068 98.9358Z" fill="#AC1F2C"/>
<path d="M47.8068 76.8523C70.559 76.8523 89.0033 68.6112 89.0033 58.4452C89.0033 48.2792 70.559 40.0381 47.8068 40.0381C25.0546 40.0381 6.61035 48.2792 6.61035 58.4452C6.61035 68.6112 25.0546 76.8523 47.8068 76.8523Z" fill="#AC1F2C"/>
<path d="M47.8068 55.6824C70.559 55.6824 89.0033 47.4412 89.0033 37.2753C89.0033 27.1093 70.559 18.8682 47.8068 18.8682C25.0546 18.8682 6.61035 27.1093 6.61035 37.2753C6.61035 47.4412 25.0546 55.6824 47.8068 55.6824Z" fill="#AC1F2C"/>
<path d="M32.5756 13.8523C29.3315 11.238 27.2512 6.18827 27.2334 -0.105957H68.3257C68.6579 4.43893 67.404 9.36515 65.1367 11.8123C64.3361 12.6763 63.4038 12.854 62.816 14.1403" fill="#AC1F2C"/>
<path d="M64.4696 6.40771H31.1436V76.8522H64.4696V6.40771Z" fill="#AC1F2C"/>
</g>
<defs>
<clipPath id="clip0_2001_2336">
<rect width="96.1765" height="120" fill="white"/>
</clipPath>
</defs>
</svg>
