<svg width="154" height="192" viewBox="0 0 154 192" fill="none" xmlns="http://www.w3.org/2000/svg">
<g clip-path="url(#clip0_2001_2448)">
<path d="M51.6417 186.89C51.4022 188.272 52.1475 188.301 50.0178 188.132C48.0582 163.195 26.2298 144.069 2.0918 140.662C28.0917 137.013 45.4354 120.084 50.0391 94.4329C50.2842 93.0635 49.5233 93.0196 51.6629 93.191C53.5517 118.004 75.3064 137.793 99.589 140.661C74.2409 144.811 56.064 161.412 51.6417 186.889V186.89Z" fill="#E8E8E8"/>
<path d="M105.552 133.733C105.312 135.115 106.058 135.144 103.928 134.975C101.968 110.038 80.14 90.9124 56.002 87.5053C82.0019 83.8561 99.3455 66.9268 103.949 41.2759C104.194 39.9065 103.433 39.8626 105.573 40.034C107.462 64.8466 129.217 84.6363 153.499 87.5039C128.151 91.6544 109.974 108.255 105.552 133.732V133.733Z" fill="#E8E8E8"/>
</g>
<defs>
<clipPath id="clip0_2001_2448">
<rect width="153.032" height="191.171" fill="white"/>
</clipPath>
</defs>
</svg>
