<svg width="129" height="120" viewBox="0 0 129 120" fill="none" xmlns="http://www.w3.org/2000/svg">
<path d="M90.319 60.4569C135.138 54.7173 140.133 115.205 100.534 119.708C57.1472 124.643 51.7551 65.3958 90.319 60.4569Z" fill="#AC1F2C"/>
<path d="M9.45826 50.631C-20.98 20.515 29.4472 -19.2736 56.4444 10.5601C82.5048 39.3581 38.2447 79.1133 9.45826 50.631Z" fill="#AC1F2C"/>
<path d="M63.6405 60.2247C64.31 55.3665 64.6461 50.3804 65.8491 45.5971C72.3228 19.8347 99.4316 -0.88275 128.03 0.643727C127.141 28.694 106.072 53.8354 76.3549 59.0773C72.1903 59.8123 67.691 59.7397 63.6417 60.2247C63.2775 62.8664 63.9017 65.8652 63.5252 68.6958C59.7077 97.3878 30.9163 120.634 0.211914 119.809C0.829976 89.2313 24.9859 63.6809 57.4255 60.2397C59.4735 60.022 61.7029 60.4575 63.6417 60.2259L63.6405 60.2247Z" fill="#AC1F2C"/>
</svg>
