<svg width="102" height="101" viewBox="0 0 102 101" fill="none" xmlns="http://www.w3.org/2000/svg">
<path d="M101.144 101H0V0H101.144V101ZM5.00712 96H96.1367V5H5.00712V96Z" fill="#E3D384"/>
<path d="M7.87115 15.871C10.003 12.3961 12.803 9.59159 16.2632 7.4654C19.7235 5.33922 23.303 4.27216 27.0019 4.27216C27.0019 7.96124 25.936 11.5313 23.8002 14.9824C21.6684 18.4335 18.8684 21.238 15.4081 23.388C11.9479 25.5419 8.36831 26.6169 4.66943 26.6169C4.66943 22.9278 5.73535 19.3459 7.87115 15.871Z" fill="#E3D384"/>
<path d="M16.2632 45.7684C12.803 43.6422 10.007 40.8377 7.87115 37.3628C5.73933 33.888 4.66943 30.306 4.66943 26.6169C8.36831 26.6169 11.9479 27.6919 15.4081 29.8458C18.8684 31.9998 21.6684 34.8003 23.8002 38.2514C25.932 41.7025 27.0019 45.2726 27.0019 48.9617C23.303 48.9617 19.7235 47.8986 16.2632 45.7684Z" fill="#E3D384"/>
<path d="M38.6673 23.388C35.2071 21.238 32.3952 18.4335 30.2395 14.9824C28.0798 11.5313 27.002 7.96124 27.002 4.27216C30.7008 4.27216 34.2804 5.34715 37.7406 7.5011C41.2009 9.65505 44.0088 12.4556 46.1685 15.9067C48.3242 19.3578 49.406 22.9278 49.406 26.6169C45.7071 26.6169 42.1276 25.5419 38.6673 23.388Z" fill="#E3D384"/>
<path d="M30.2395 38.2474C32.3952 34.7964 35.2071 31.9958 38.6673 29.8419C42.1276 27.6919 45.7071 26.6129 49.406 26.6129C49.406 30.302 48.3282 33.8721 46.1685 37.3232C44.0088 40.7743 41.2009 43.5788 37.7406 45.7287C34.2804 47.8787 30.7008 48.9577 27.002 48.9577C27.002 45.2686 28.0798 41.6985 30.2395 38.2474Z" fill="#E3D384"/>
<path d="M54.859 15.871C56.9908 12.3961 59.7908 9.59159 63.251 7.4654C66.7113 5.33922 70.2908 4.27216 73.9897 4.27216C73.9897 7.96124 72.9238 11.5313 70.788 14.9824C68.6562 18.4335 65.8562 21.238 62.3959 23.388C58.9357 25.5419 55.3561 26.6169 51.6572 26.6169C51.6572 22.9278 52.7231 19.3459 54.859 15.871Z" fill="#E3D384"/>
<path d="M63.251 45.7684C59.7908 43.6422 56.9948 40.8377 54.859 37.3628C52.7271 33.888 51.6572 30.306 51.6572 26.6169C55.3561 26.6169 58.9357 27.6919 62.3959 29.8458C65.8562 31.9998 68.6562 34.8003 70.788 38.2514C72.9198 41.7025 73.9897 45.2726 73.9897 48.9617C70.2908 48.9617 66.7113 47.8986 63.251 45.7684Z" fill="#E3D384"/>
<path d="M85.6512 23.388C82.191 21.238 79.379 18.4335 77.2233 14.9824C75.0637 11.5313 73.9858 7.96124 73.9858 4.27216C77.6847 4.27216 81.2643 5.34715 84.7245 7.5011C88.1848 9.65505 90.9927 12.4556 93.1524 15.9067C95.3081 19.3578 96.3899 22.9278 96.3899 26.6169C92.691 26.6169 89.1115 25.5419 85.6512 23.388Z" fill="#E3D384"/>
<path d="M77.2273 38.2474C79.383 34.7964 82.1949 31.9958 85.6551 29.8419C89.1154 27.6919 92.6949 26.6129 96.3938 26.6129C96.3938 30.302 95.316 33.8721 93.1563 37.3232C90.9966 40.7743 88.1887 43.5788 84.7284 45.7287C81.2682 47.8787 77.6886 48.9577 73.9897 48.9577C73.9897 45.2686 75.0676 41.6985 77.2273 38.2474Z" fill="#E3D384"/>
<path d="M7.87115 63.3174C10.003 59.8425 12.803 57.038 16.2632 54.9118C19.7235 52.7856 23.303 51.7186 27.0019 51.7186C27.0019 55.4077 25.936 58.9777 23.8002 62.4288C21.6684 65.8799 18.8684 68.6844 15.4081 70.8344C11.9479 72.9883 8.36831 74.0633 4.66943 74.0633C4.66943 70.3743 5.73535 66.7923 7.87115 63.3174Z" fill="#E3D384"/>
<path d="M16.2632 93.2149C12.803 91.0887 10.007 88.2842 7.87115 84.8093C5.73933 81.3344 4.66943 77.7524 4.66943 74.0634C8.36831 74.0634 11.9479 75.1383 15.4081 77.2923C18.8684 79.4462 21.6684 82.2468 23.8002 85.6979C25.932 89.1489 27.0019 92.719 27.0019 96.4081C23.303 96.4081 19.7235 95.345 16.2632 93.2149Z" fill="#E3D384"/>
<path d="M38.6673 70.8384C35.2071 68.6884 32.3952 65.8839 30.2395 62.4329C28.0798 58.9818 27.002 55.4117 27.002 51.7226C30.7008 51.7226 34.2804 52.7976 37.7406 54.9515C41.2009 57.1055 44.0088 59.906 46.1685 63.3571C48.3242 66.8082 49.406 70.3783 49.406 74.0674C45.7071 74.0674 42.1276 72.9924 38.6673 70.8384Z" fill="#E3D384"/>
<path d="M30.2395 85.6979C32.3952 82.2468 35.2071 79.4462 38.6673 77.2923C42.1276 75.1423 45.7071 74.0634 49.406 74.0634C49.406 77.7524 48.3282 81.3225 46.1685 84.7736C44.0088 88.2247 41.2009 91.0292 37.7406 93.1792C34.2804 95.3292 30.7008 96.4081 27.002 96.4081C27.002 92.719 28.0798 89.1489 30.2395 85.6979Z" fill="#E3D384"/>
<path d="M54.859 63.3174C56.9908 59.8425 59.7908 57.038 63.251 54.9118C66.7113 52.7856 70.2908 51.7186 73.9897 51.7186C73.9897 55.4077 72.9238 58.9777 70.788 62.4288C68.6562 65.8799 65.8562 68.6844 62.3959 70.8344C58.9357 72.9883 55.3561 74.0633 51.6572 74.0633C51.6572 70.3743 52.7231 66.7923 54.859 63.3174Z" fill="#E3D384"/>
<path d="M63.251 93.2149C59.7908 91.0887 56.9948 88.2842 54.859 84.8093C52.7271 81.3344 51.6572 77.7524 51.6572 74.0634C55.3561 74.0634 58.9357 75.1383 62.3959 77.2923C65.8562 79.4462 68.6562 82.2468 70.788 85.6979C72.9198 89.1489 73.9897 92.719 73.9897 96.4081C70.2908 96.4081 66.7113 95.345 63.251 93.2149Z" fill="#E3D384"/>
<path d="M85.6512 70.8384C82.191 68.6884 79.379 65.8839 77.2233 62.4329C75.0637 58.9818 73.9858 55.4117 73.9858 51.7226C77.6847 51.7226 81.2643 52.7976 84.7245 54.9515C88.1848 57.1055 90.9927 59.906 93.1524 63.3571C95.3081 66.8082 96.3899 70.3783 96.3899 74.0674C92.691 74.0674 89.1115 72.9924 85.6512 70.8384Z" fill="#E3D384"/>
<path d="M77.2273 85.6979C79.383 82.2468 82.1949 79.4462 85.6551 77.2923C89.1154 75.1423 92.6949 74.0634 96.3938 74.0634C96.3938 77.7524 95.316 81.3225 93.1563 84.7736C90.9966 88.2247 88.1887 91.0292 84.7284 93.1792C81.2682 95.3292 77.6886 96.4081 73.9897 96.4081C73.9897 92.719 75.0676 89.1489 77.2273 85.6979Z" fill="#E3D384"/>
</svg>
