<svg width="101" height="100" viewBox="0 0 101 100" fill="none" xmlns="http://www.w3.org/2000/svg">
<rect width="101" height="100" fill="#AC1F2C"/>
<path d="M100.019 99.877H0V0H100.019V99.877ZM4.95144 94.9326H95.0677V4.9444H4.95144V94.9326Z" fill="#AC1F2C"/>
<path d="M84.4623 56.0076C83.1722 56.0076 81.8782 55.8468 80.5882 55.5251C79.2981 55.2035 77.5755 54.721 75.4201 54.0777C71.0426 52.8616 67.0938 51.9123 63.5777 51.2337C60.0615 50.5551 55.7548 50.2138 50.6615 50.2138C54.3193 53.5795 57.6584 56.2979 60.6711 58.373C63.6839 60.452 67.0231 62.5231 70.6808 64.5982C72.258 65.4573 73.7486 66.336 75.1488 67.2303C76.5489 68.1247 77.6777 69.0034 78.5391 69.8624C79.6875 71.0078 80.2618 72.4043 80.2618 74.0479C80.2618 75.5503 79.6167 76.9467 78.3227 78.2334C77.0327 79.52 75.5932 80.1672 74.016 80.1672C72.6513 80.1672 71.3966 79.5945 70.2482 78.4491C69.3868 77.59 68.5609 76.5545 67.7703 75.3345C66.9798 74.1185 66.0831 72.5416 65.0801 70.6116C63.0703 66.889 61.0251 63.5077 58.9445 60.4677C56.86 57.4276 54.0282 54.1522 50.4413 50.6453C50.3665 55.7291 50.693 60.0558 51.4088 63.6372C52.1246 67.2146 53.0921 71.0824 54.3153 75.2325C54.8148 76.88 55.2475 78.4923 55.6054 80.0652C55.9633 81.6382 56.1442 83.0347 56.1442 84.2507C56.1442 86.11 55.5503 87.5261 54.3664 88.4911C53.1826 89.4561 51.7667 89.9386 50.1148 89.9386C48.4629 89.9386 47.1335 89.4365 45.9182 88.4362C44.695 87.432 44.0894 86.0041 44.0894 84.1409C44.0894 82.0619 44.699 78.9512 45.9182 74.801C47.0667 70.6509 47.9634 66.8224 48.6084 63.3155C49.2535 59.8086 49.6468 55.5839 49.7923 50.6492C46.2014 54.1561 43.3696 57.4315 41.289 60.4716C39.2084 63.5156 37.1632 66.8969 35.1534 70.6156C34.1466 72.5455 33.2498 74.1224 32.4632 75.3384C31.6727 76.5584 30.8467 77.594 29.9854 78.453C28.8369 79.5984 27.5823 80.1712 26.2175 80.1712C24.5656 80.1712 23.0946 79.5435 21.8046 78.2922C20.5146 77.0409 19.8695 75.6287 19.8695 74.0518C19.8695 72.4749 20.4792 71.0824 21.6984 69.8663C22.5597 69.0073 23.6885 68.1325 25.0887 67.2342C26.4889 66.3399 27.9756 65.4612 29.5567 64.6021C33.2184 62.527 36.5536 60.452 39.5663 58.3769C42.5791 56.3018 45.9182 53.5834 49.576 50.2177C44.4787 50.2177 40.0855 50.559 36.3884 51.2376C32.6913 51.9163 28.9077 52.8655 25.0336 54.0816C22.8075 54.7249 21.0337 55.2074 19.7043 55.529C18.375 55.8507 17.0653 56.0115 15.7752 56.0115C13.9817 56.0115 12.5816 55.4388 11.5786 54.2934C10.5718 53.148 10.0723 51.7907 10.0723 50.2138C10.0723 48.6369 10.6111 47.1189 11.6888 45.8675C12.7664 44.6162 14.2334 43.9886 16.1016 43.9886C17.3917 43.9886 18.7211 44.1337 20.0819 44.4162C21.4428 44.7025 23.2048 45.1693 25.3562 45.8126C29.3758 46.8874 33.1594 47.7622 36.7109 48.4447C40.2625 49.1233 44.5141 49.5352 49.4658 49.6803C45.9497 46.1735 42.7206 43.4002 39.7787 41.3604C36.8368 39.3206 33.4622 37.3005 29.6589 35.296C27.362 34.08 25.6787 33.115 24.601 32.3971C23.5233 31.6832 22.5165 30.8595 21.5883 29.9259C20.4398 28.7804 19.8656 27.5291 19.8656 26.168C19.8656 24.5244 20.491 23.0534 21.7495 21.7667C23.0042 20.4801 24.4948 19.8368 26.2175 19.8368C27.5783 19.8368 28.9431 20.4448 30.3079 21.6608C31.24 22.5905 32.1368 23.7555 32.9981 25.152C33.8594 26.5485 34.7562 28.0351 35.6883 29.6081C37.6981 33.2601 39.7079 36.5865 41.7177 39.5913C43.7275 42.596 46.4177 45.8558 49.7923 49.3626C49.6468 44.3534 49.2338 40.0777 48.5534 36.5355C47.869 32.9934 46.9919 29.1453 45.9143 24.9951C44.6911 20.9861 44.0854 17.9461 44.0854 15.871C44.0854 14.0116 44.695 12.5799 45.9143 11.5757C47.1335 10.5754 48.5337 10.0733 50.1109 10.0733C51.688 10.0733 53.1787 10.5558 54.3625 11.5208C55.5464 12.4857 56.1403 13.9018 56.1403 15.7612C56.1403 16.836 55.9947 18.0324 55.7116 19.3582C55.4244 20.6841 55.1373 21.7903 54.8502 22.6846C54.5631 23.579 54.3822 24.2066 54.3114 24.5636C53.0882 28.6432 52.1207 32.5266 51.4048 36.2139C50.6851 39.9012 50.3626 44.2828 50.4373 49.3665C53.808 45.7145 56.5021 42.4431 58.5119 39.5442C60.5217 36.6454 62.6023 33.2993 64.7537 29.5061C65.615 27.9332 66.4921 26.4465 67.3928 25.05C68.2895 23.6535 69.1705 22.5277 70.0318 21.6687C71.1803 20.5233 72.5805 19.9505 74.2284 19.9505C75.7348 19.9505 77.135 20.5939 78.425 21.8805C79.7151 23.1671 80.364 24.6028 80.364 26.1758C80.364 27.537 79.7898 28.7883 78.6413 29.9337C77.78 30.7928 76.7377 31.6165 75.5185 32.405C74.2992 33.1934 72.7181 34.0878 70.7831 35.0881C67.0506 37.0926 63.6603 39.1323 60.6122 41.2074C57.5601 43.2864 54.276 46.1107 50.7638 49.6882C55.7155 49.547 59.9475 49.1508 63.4636 48.5075C66.9798 47.8642 70.8185 46.9698 74.9836 45.8244C79.1448 44.6084 82.2676 44.0004 84.3482 44.0004C86.2125 44.0004 87.6481 44.6084 88.6549 45.8244C89.6578 47.0443 90.1613 48.4369 90.1613 50.0098C90.1613 51.5828 89.6775 53.0695 88.71 54.2503C87.7424 55.431 86.3226 56.0194 84.4583 56.0194L84.4623 56.0076Z" fill="#E3D384"/>
</svg>
