<svg width="101" height="100" viewBox="0 0 101 100" fill="none" xmlns="http://www.w3.org/2000/svg">
<rect width="102" height="101" fill="#AC1F2C"/>
<path d="M100.019 99.877H0V0H100.019V99.877ZM4.95144 94.9326H95.0677V4.9444H4.95144V94.9326Z" fill="#AC1F2C"/>
<path d="M17.3489 92.2373C13.9271 90.1073 11.1622 87.3379 9.05015 83.9252C6.94203 80.5125 5.88403 76.9821 5.88403 73.3341C9.54178 73.3341 13.0815 74.3971 16.5033 76.5232C19.9251 78.6532 22.694 81.4226 24.8021 84.8353C26.9102 88.248 27.9682 91.7784 27.9682 95.4265C24.3104 95.4265 20.7707 94.3634 17.3489 92.2373ZM39.5039 70.1802C36.0821 68.0777 33.3014 65.3161 31.1697 61.9034C29.0341 58.4907 27.9682 54.9603 27.9682 51.3123C31.6259 51.3123 35.1657 52.3635 38.5875 54.47C42.0092 56.5726 44.786 59.3341 46.9216 62.7468C49.0534 66.1595 50.1232 69.6899 50.1232 73.338C46.4654 73.338 42.9256 72.2867 39.5039 70.1802ZM31.1697 84.8392C33.3014 81.4265 36.0821 78.6571 39.5039 76.5271C42.9256 74.401 46.4654 73.338 50.1232 73.338C50.1232 76.9861 49.0573 80.5164 46.9216 83.9291C44.786 87.3419 42.0092 90.1113 38.5875 92.2413C35.1657 94.3673 31.6259 95.4304 27.9682 95.4304C27.9682 91.7823 29.0341 88.2519 31.1697 84.8392ZM53.3207 62.7429C55.4525 59.3302 58.2331 56.5725 61.6549 54.4661C65.0767 52.3635 68.6164 51.3083 72.2742 51.3083C72.2742 54.9564 71.2083 58.4868 69.0727 61.8995C66.937 65.3122 64.1603 68.0699 60.7385 70.1763C57.3167 72.2789 53.777 73.3341 50.1192 73.3341C50.1192 69.686 51.1851 66.1556 53.3207 62.7429ZM61.6549 92.2373C58.2331 90.1073 55.4525 87.3379 53.3207 83.9252C51.1851 80.5125 50.1192 76.9821 50.1192 73.3341C53.777 73.3341 57.3167 74.3971 60.7385 76.5232C64.1603 78.6532 66.937 81.4226 69.0727 84.8353C71.2044 88.248 72.2742 91.7784 72.2742 95.4265C68.6164 95.4265 65.0767 94.3634 61.6549 92.2373ZM75.4403 84.8392C77.5484 81.4265 80.3173 78.6571 83.7391 76.5271C87.1608 74.401 90.7006 73.338 94.3583 73.338C94.3583 76.9861 93.3043 80.5164 91.1922 83.9291C89.0841 87.3419 86.3152 90.1113 82.8935 92.2413C79.4717 94.3673 75.9319 95.4304 72.2742 95.4304C72.2742 91.7823 73.3282 88.2519 75.4403 84.8392Z" fill="#E3D384"/>
<path d="M17.3489 44.7379C13.9271 42.6079 11.1622 39.8386 9.05015 36.4258C6.94203 33.0131 5.88403 29.4827 5.88403 25.8347C9.54178 25.8347 13.0815 26.8977 16.5033 29.0238C19.9251 31.1538 22.694 33.9232 24.8021 37.3359C26.9102 40.7486 27.9682 44.279 27.9682 47.9271C24.3104 47.9271 20.7707 46.864 17.3489 44.7379ZM39.5039 22.6809C36.0821 20.5783 33.3014 17.8168 31.1697 14.4041C29.0341 10.9913 27.9682 7.46096 27.9682 3.81289C31.6259 3.81289 35.1657 4.86416 38.5875 6.97063C42.0092 9.07317 44.786 11.8347 46.9216 15.2474C49.0534 18.6601 50.1232 22.1905 50.1232 25.8386C46.4654 25.8386 42.9256 24.7873 39.5039 22.6809ZM31.1697 37.3398C33.3014 33.9271 36.0821 31.1577 39.5039 29.0277C42.9256 26.9016 46.4654 25.8386 50.1232 25.8386C50.1232 29.4867 49.0573 33.0171 46.9216 36.4298C44.786 39.8425 42.0092 42.6119 38.5875 44.7419C35.1657 46.8679 31.6259 47.931 27.9682 47.931C27.9682 44.2829 29.0341 40.7525 31.1697 37.3398ZM53.3207 15.2435C55.4525 11.8308 58.2331 9.07316 61.6549 6.9667C65.0767 4.86416 68.6164 3.80896 72.2742 3.80896C72.2742 7.45703 71.2083 10.9874 69.0727 14.4001C66.937 17.8128 64.1603 20.5705 60.7385 22.6769C57.3167 24.7795 53.777 25.8347 50.1192 25.8347C50.1192 22.1866 51.1851 18.6562 53.3207 15.2435ZM61.6549 44.7379C58.2331 42.6079 55.4525 39.8386 53.3207 36.4258C51.1851 33.0131 50.1192 29.4827 50.1192 25.8347C53.777 25.8347 57.3167 26.8977 60.7385 29.0238C64.1603 31.1538 66.937 33.9232 69.0727 37.3359C71.2044 40.7486 72.2742 44.279 72.2742 47.9271C68.6164 47.9271 65.0767 46.864 61.6549 44.7379ZM75.4403 37.3398C77.5484 33.9271 80.3173 31.1577 83.7391 29.0277C87.1608 26.9016 90.7006 25.8386 94.3583 25.8386C94.3583 29.4867 93.3043 33.0171 91.1922 36.4298C89.0841 39.8425 86.3152 42.6119 82.8935 44.7419C79.4717 46.8679 75.9319 47.931 72.2742 47.931C72.2742 44.2829 73.3282 40.7525 75.4403 37.3398Z" fill="#E3D384"/>
</svg>
