<svg width="102" height="101" viewBox="0 0 102 101" fill="none" xmlns="http://www.w3.org/2000/svg">
<path d="M24.3339 85.3224C20.3493 82.8836 17.1358 79.6491 14.6936 75.6444C12.2514 71.6397 11.0174 67.5067 11.0174 63.271C15.2592 63.271 19.3981 64.5032 23.357 66.9933C27.3417 69.4833 30.5552 72.6922 32.9974 76.6712C35.4396 80.6502 36.6736 84.7576 36.6736 88.9933C32.4318 88.9933 28.2929 87.7611 24.3339 85.3224ZM40.4012 76.6456C42.8691 72.6666 46.1082 69.4577 50.0929 66.9676C54.0776 64.5032 58.1908 63.2453 62.4325 63.2453C62.4325 67.481 61.1986 71.614 58.7049 75.5674C56.2113 79.5464 52.9979 82.7809 49.0132 85.2453C45.0285 87.7098 40.9153 88.9676 36.6736 88.9676C36.6736 84.7319 37.9075 80.5989 40.4012 76.6456ZM75.7748 85.271C71.7901 82.8066 68.5766 79.5721 66.1344 75.593C63.6922 71.614 62.4582 67.5067 62.4582 63.271C66.7 63.271 70.8389 64.5032 74.7979 66.9419C78.7825 69.3807 81.996 72.6152 84.4382 76.6199C86.8804 80.6246 88.1144 84.7576 88.1144 88.9933C83.8726 88.9933 79.7337 87.7611 75.7748 85.271ZM88.1144 37.8566C83.8726 37.8566 79.7337 36.6244 75.7748 34.1343C71.7901 31.6699 68.5766 28.4354 66.1344 24.4564C63.6922 20.4774 62.4582 16.37 62.4582 12.1343C66.7 12.1343 70.8389 13.3665 74.7979 15.8052C78.7825 18.244 81.996 21.4785 84.4382 25.4832C86.8804 29.4879 88.1144 33.6209 88.1144 37.8566ZM62.4325 63.579C62.4325 59.3433 63.6665 55.2103 66.1087 51.2569C68.5509 47.2779 71.7901 44.069 75.7491 41.5789C79.7337 39.0889 83.8469 37.8566 88.0887 37.8566C88.0887 42.0924 86.8547 46.2254 84.4125 50.2301C81.9703 54.2348 78.7311 57.4693 74.7722 59.9081C70.7875 62.3468 66.6743 63.579 62.4325 63.579ZM36.6736 37.8566C36.6736 33.6209 37.9075 29.4879 40.4012 25.5346C42.8948 21.5555 46.1082 18.3467 50.0929 15.8566C54.0776 13.3922 58.1908 12.1343 62.4325 12.1343C62.4325 16.37 61.1986 20.503 58.7049 24.4564C56.237 28.4354 52.9979 31.6699 49.0132 34.1343C45.0285 36.6244 40.9153 37.8566 36.6736 37.8566ZM62.4325 63.579C58.1908 63.579 54.0519 62.3468 50.0929 59.8567C46.1082 57.3923 42.8948 54.1577 40.4012 50.1787C37.9332 46.1997 36.6736 42.0924 36.6736 37.8566C40.9153 37.8566 45.0542 39.0889 49.0132 41.5789C52.9979 44.069 56.237 47.2779 58.7049 51.2569C61.1986 55.2359 62.4325 59.3433 62.4325 63.579ZM36.6736 37.8566C32.4318 37.8566 28.2929 36.6244 24.3339 34.1857C20.3493 31.7469 17.1358 28.5124 14.6936 24.5077C12.2257 20.503 10.9917 16.37 10.9917 12.1343C15.2334 12.1343 19.3724 13.3665 23.3313 15.8566C27.316 18.3467 30.5294 21.5555 32.9717 25.5346C35.4139 29.5136 36.6478 33.6209 36.6478 37.8566M10.9917 63.579C10.9917 59.3433 12.2257 55.2103 14.6679 51.2056C17.1101 47.2009 20.3493 43.9663 24.3082 41.5276C28.2929 39.0889 32.4061 37.8566 36.6478 37.8566C36.6478 42.0924 35.4139 46.2254 32.9717 50.1787C30.5294 54.1577 27.2903 57.3923 23.3313 59.8567C19.3467 62.3468 15.2334 63.579 10.9917 63.579Z" fill="#E3D384"/>
<path d="M101.144 101H0V0H101.144V101ZM5.00712 96H96.1367V5H5.00712V96Z" fill="#E3D384"/>
</svg>
