<svg width="47" height="61" viewBox="0 0 47 61" fill="none" xmlns="http://www.w3.org/2000/svg">
<g clip-path="url(#clip0_2001_1900)">
<path d="M45.5131 35.7432C44.5926 48.0551 34.7329 59.6311 22.7055 59.6311C10.0707 59.6311 -0.172119 48.9364 -0.172119 35.7432" fill="#AC1F2C"/>
<path d="M23.0067 35.8592H22.8162V35.6603C22.8162 31.7283 23.9289 27.87 26.1239 24.1936C28.3139 20.5256 31.2073 17.5044 34.724 15.2142C38.2462 12.9226 41.9409 11.7612 45.7057 11.7612H45.8962V11.9601C45.8962 15.8934 44.7835 19.7514 42.5885 23.4269C40.3985 27.0957 37.5051 30.1169 33.9884 32.4063C30.4675 34.6978 26.7723 35.8597 23.0067 35.8597V35.8592Z" fill="#AC1F2C"/>
<path d="M23.1975 35.8592H23.007C19.2422 35.8592 15.5474 34.6973 12.0252 32.4062C8.5103 30.1169 5.61686 27.0957 3.42563 23.4268C1.23013 19.7487 0.117432 15.8907 0.117432 11.9597V11.7607H0.307936C4.07403 11.7607 7.76879 12.9226 11.2897 15.2137C14.8072 17.5039 17.7006 20.5251 19.8893 24.1931C22.0844 27.8681 23.1971 31.7261 23.1971 35.6598V35.8587L23.1975 35.8592Z" fill="#AC1F2C"/>
</g>
<defs>
<clipPath id="clip0_2001_1900">
<rect width="46.1311" height="60.2104" fill="white"/>
</clipPath>
</defs>
</svg>
