<svg width="52" height="68" viewBox="0 0 52 68" fill="none" xmlns="http://www.w3.org/2000/svg">
<g clip-path="url(#clip0_2001_1894)">
<path d="M25.7823 67.3424C39.4414 67.3424 50.5143 62.1639 50.5143 55.7759C50.5143 49.388 39.4414 44.2095 25.7823 44.2095C12.1232 44.2095 1.05029 49.388 1.05029 55.7759C1.05029 62.1639 12.1232 67.3424 25.7823 67.3424Z" fill="#AC1F2C"/>
<path d="M25.7823 54.0397C39.4414 54.0397 50.5143 48.8612 50.5143 42.4732C50.5143 36.0852 39.4414 30.9067 25.7823 30.9067C12.1232 30.9067 1.05029 36.0852 1.05029 42.4732C1.05029 48.8612 12.1232 54.0397 25.7823 54.0397Z" fill="#AC1F2C"/>
<path d="M45.6337 26.9014H6.42627V45.4839H45.6337V26.9014Z" fill="#AC1F2C"/>
<path d="M27.7827 33.989H24.7776V18.6683L17.2119 15.2313L18.4103 12.3521L27.7827 16.6096V33.989Z" fill="#AC1F2C"/>
</g>
<defs>
<clipPath id="clip0_2001_1894">
<rect width="51.5648" height="67.3426" fill="white"/>
</clipPath>
</defs>
</svg>
