<svg width="115" height="112" viewBox="0 0 115 112" fill="none" xmlns="http://www.w3.org/2000/svg">
<path d="M57.1504 0.5C57.3382 0.498895 57.6065 0.517631 58.0059 0.548828C60.3828 28.805 84.4345 51.4458 111.894 56.0566C83.3834 61.7727 63.0299 81.1536 57.9521 110.366L57.9453 110.408V110.415C57.8748 110.845 57.8764 111.174 57.8799 111.404C57.8804 111.44 57.8786 111.471 57.8789 111.498C57.8691 111.498 57.8586 111.5 57.8477 111.5C57.6587 111.5 57.3902 111.48 56.9912 111.449C54.5343 83.0597 30.4069 61.145 3.11816 56.0098C32.3083 50.8158 51.7607 31.0478 57.0469 1.63477C57.1277 1.18367 57.1253 0.839221 57.1211 0.599609C57.1204 0.561558 57.1215 0.52908 57.1211 0.500977C57.1302 0.500805 57.1403 0.500061 57.1504 0.5Z" fill="#AC1F2C" stroke="#AC1F2C"/>
</svg>
