<svg width="83" height="83" viewBox="0 0 83 83" fill="none" xmlns="http://www.w3.org/2000/svg">
<g clip-path="url(#clip0_3218_2968)">
<path d="M69.8927 34.9154C71.6034 36.7968 72.4864 38.9824 72.4864 41.5278C72.4864 44.0731 71.631 46.1204 69.8927 47.9464C68.1819 49.7724 65.7813 50.6854 62.7185 50.6854C59.6556 50.6854 59.4349 50.3258 57.8621 49.6341C56.3169 48.9424 54.4129 47.8634 52.1503 46.4248C49.9981 45.0691 48.2321 44.0731 46.8249 43.4091C45.4452 42.7451 44.0104 42.3301 42.5203 42.1918C44.7278 44.2668 46.6317 45.8438 48.2321 46.9504C49.8325 48.0571 51.7088 49.2191 53.8611 50.4918C55.4063 51.3494 56.648 52.0964 57.5862 52.7328C58.5519 53.3691 59.5453 54.1438 60.5938 55.1121C61.3664 55.8314 61.7527 56.6614 61.7527 57.6298C61.7527 58.5981 61.394 59.4281 60.7042 60.1474C60.0143 60.8668 59.1866 61.2264 58.2208 61.2264C57.255 61.2264 56.3169 60.8391 55.4339 60.0644C54.275 59.0131 53.3368 57.9618 52.5642 56.9381C51.7916 55.9144 50.9914 54.6141 50.136 53.0924C48.9771 51.1281 47.8458 49.3574 46.7145 47.8081C45.5832 46.2588 44.0655 44.4881 42.1616 42.5238C42.2996 44.0731 42.7135 45.5118 43.3757 46.9228C44.0379 48.3061 45.0589 50.1044 46.3834 52.2624C47.8182 54.5311 48.8943 56.4401 49.5842 57.9894C50.274 59.5388 50.6327 61.1711 50.6327 62.8588C50.6327 65.9298 49.7221 68.3368 47.901 70.0521C46.0798 71.7674 43.9552 72.6528 41.4994 72.6528C39.0436 72.6528 36.7534 71.7951 34.9046 70.0521C33.0283 68.3368 32.1177 65.9298 32.1177 62.8588C32.1177 59.7878 32.4764 59.5664 33.1663 57.9894C33.8561 56.4401 34.9322 54.5311 36.3671 52.2624C37.7191 50.1044 38.7125 48.3338 39.3747 46.9228C40.037 45.5394 40.4509 44.0731 40.5888 42.5238C38.6849 44.4881 37.1397 46.2588 36.036 47.8081C34.9046 49.3574 33.7733 51.1281 32.6144 53.0924C31.759 54.6418 30.9312 55.9144 30.1862 56.9381C29.4136 57.9618 28.4754 59.0131 27.3165 60.0644C26.406 60.8391 25.523 61.2264 24.6676 61.2264C23.8122 61.2264 22.8741 60.8668 22.129 60.1474C21.384 59.4281 21.0253 58.5981 21.0253 57.6298C21.0253 56.6614 21.4116 55.8314 22.1842 55.1121C23.2328 54.1438 24.2537 53.3691 25.1919 52.7328C26.1576 52.0964 27.3993 51.3771 28.9169 50.4918C31.0692 49.2468 32.9455 48.0571 34.5459 46.9504C36.1463 45.8438 38.0502 44.2668 40.2577 42.1918C38.7677 42.3301 37.3328 42.7451 35.9532 43.4091C34.5735 44.0731 32.78 45.0968 30.6277 46.4248C28.3651 47.8634 26.4612 48.9424 24.9159 49.6341C23.3707 50.3258 21.7427 50.6854 20.0596 50.6854C16.9967 50.6854 14.5961 49.7724 12.8854 47.9464C11.1746 46.1204 10.2916 43.9901 10.2916 41.5278C10.2916 39.0654 11.147 36.7691 12.8854 34.9154C14.5961 33.0341 16.9967 32.1211 20.0596 32.1211C23.1224 32.1211 23.3431 32.4808 24.9159 33.1724C26.4612 33.8641 28.3651 34.9431 30.6277 36.3818C32.78 37.7374 34.5459 38.7334 35.9532 39.3974C37.3328 40.0614 38.7677 40.4764 40.2577 40.6148C38.0502 38.5398 36.1463 36.9628 34.5459 35.8561C32.9455 34.7494 31.0692 33.5874 28.9169 32.3148C27.3717 31.4571 26.13 30.7101 25.1919 30.0738C24.2261 29.4374 23.2328 28.6628 22.1842 27.6944C21.4116 26.9751 21.0253 26.1451 21.0253 25.1768C21.0253 24.2084 21.384 23.3784 22.0739 22.6591C22.7637 21.9398 23.5915 21.5801 24.5572 21.5801C25.523 21.5801 26.4612 21.9674 27.3441 22.7421C28.503 23.7934 29.4412 24.8448 30.2138 25.8684C30.9864 26.8921 31.7866 28.1924 32.642 29.7141C33.8009 31.6784 34.9322 33.4491 36.0635 34.9984C37.1949 36.5478 38.7125 38.3184 40.6164 40.2828C40.4784 38.7334 40.0645 37.2948 39.4023 35.8838C38.7401 34.5004 37.7191 32.7298 36.3947 30.5441C34.9598 28.2754 33.8837 26.3664 33.1939 24.8171C32.504 23.2678 32.1453 21.6354 32.1453 19.9478C32.1453 16.8768 33.0835 14.4698 34.9322 12.7544C36.8086 11.0391 38.9884 10.1538 41.527 10.1538C44.0655 10.1538 46.1074 11.0114 47.9286 12.7544C49.7497 14.4698 50.6603 16.8768 50.6603 19.9478C50.6603 23.0188 50.3016 23.2401 49.6118 24.8171C48.9219 26.3664 47.8458 28.2754 46.411 30.5441C45.0589 32.7021 44.0655 34.4728 43.4033 35.8838C42.7411 37.2671 42.3272 38.7334 42.1892 40.2828C44.0931 38.3184 45.6108 36.5478 46.7421 34.9984C47.8734 33.4491 49.0047 31.6784 50.1636 29.7141C51.019 28.1648 51.8468 26.8921 52.5918 25.8684C53.3644 24.8448 54.3026 23.7934 55.4615 22.7421C56.3721 21.9674 57.255 21.5801 58.1104 21.5801C58.9658 21.5801 59.904 21.9398 60.649 22.6591C61.394 23.3784 61.7527 24.2084 61.7527 25.1768C61.7527 26.1451 61.3664 26.9751 60.5938 27.6944C59.5453 28.6628 58.5243 29.4374 57.5862 30.0738C56.6204 30.7101 55.3787 31.4294 53.8611 32.3148C51.7088 33.5598 49.8325 34.7494 48.2321 35.8561C46.6317 36.9628 44.7278 38.5398 42.5203 40.6148C44.0104 40.4764 45.4452 40.0614 46.8249 39.3974C48.2045 38.7334 49.9981 37.7098 52.1503 36.3818C54.4129 34.9431 56.2893 33.8641 57.8621 33.1724C59.4073 32.4808 61.0353 32.1211 62.7185 32.1211C65.7813 32.1211 68.1819 33.0618 69.8927 34.9154ZM5.43522 4.9801C3.145 7.19343 1.57219 9.98776 0.716806 13.3908C-0.13858 16.7938 -0.221359 20.1968 0.523654 23.6551C1.26867 27.0858 2.7311 29.9631 4.93855 32.2594C7.22877 30.0461 8.80158 27.2241 9.68456 23.8488C10.5399 20.4458 10.6227 17.0151 9.87771 13.5844C9.1327 10.1538 7.67026 7.27643 5.46282 4.9801M5.43522 4.9801C7.64267 7.27643 10.4572 8.85343 13.8511 9.71109C17.2451 10.5688 20.6666 10.6241 24.0882 9.8771C27.5097 9.1301 30.3518 7.6361 32.642 5.42276C30.4346 3.12643 27.6201 1.54943 24.2261 0.691763C20.8322 -0.165904 17.4106 -0.221238 13.9891 0.525762C10.5675 1.27276 7.72545 2.76676 5.43522 4.9801ZM77.3704 5.83776C75.1354 3.5691 72.3209 2.01976 68.8993 1.18976C65.5054 0.359763 62.0838 0.332096 58.6623 1.10676C55.2407 1.88143 52.3987 3.4031 50.136 5.6441C52.3711 7.91276 55.1856 9.4621 58.6071 10.2921C62.001 11.1221 65.4226 11.1498 68.8441 10.3751C72.2657 9.60043 75.1078 8.07876 77.3704 5.83776ZM77.3704 5.83776C75.1078 8.07876 73.5626 10.9284 72.7624 14.3314C71.9622 17.7621 71.9346 21.1651 72.7624 24.5958C73.5626 28.0264 75.0802 30.8484 77.3152 33.1171C79.5779 30.8761 81.1231 28.0264 81.9233 24.6234C82.7235 21.1928 82.7511 17.7898 81.9509 14.3591C81.1507 10.9284 79.633 8.10643 77.398 5.83776M77.5636 78.0201C79.8538 75.8068 81.4266 72.9848 82.3096 69.6094C83.1649 66.2064 83.2477 62.7758 82.5027 59.3451C81.7577 55.9144 80.2953 53.0371 78.0878 50.7408C75.7976 52.9541 74.2248 55.7761 73.3418 59.1514C72.4864 62.5544 72.4036 65.9851 73.1487 69.4158C73.8937 72.8464 75.3561 75.7238 77.5636 78.0201ZM77.5636 78.0201C75.3561 75.7238 72.5416 74.1468 69.1477 73.2891C65.7537 72.4314 62.3322 72.3761 58.9106 73.1231C55.4891 73.8701 52.647 75.3641 50.3568 77.5774C52.5642 79.8738 55.3787 81.4508 58.7727 82.3084C62.1666 83.1661 65.5882 83.2214 69.0097 82.4744C72.4312 81.7274 75.2733 80.2334 77.5636 78.0201ZM5.62838 77.6881C7.86342 79.9568 10.6779 81.5061 14.0995 82.3361C17.4934 83.1661 20.9149 83.1938 24.3365 82.4191C27.758 81.6444 30.6001 80.1228 32.8628 77.8818C30.6277 75.6131 27.8132 74.0638 24.3917 73.2338C20.9977 72.4038 17.5762 72.3761 14.1546 73.1508C10.7331 73.9254 7.89101 75.4471 5.62838 77.6881ZM5.62838 77.6881C7.89101 75.4471 9.43622 72.5974 10.2364 69.1944C11.0366 65.7638 11.0642 62.3608 10.264 58.9301C9.46381 55.4994 7.9462 52.6774 5.71115 50.4088C3.44852 52.6498 1.90331 55.4994 1.10311 58.9024C0.30291 62.3331 0.275317 65.7361 1.10311 69.1668C1.90331 72.5974 3.42093 75.4194 5.65597 77.6881" fill="#AC1F2C"/>
</g>
<defs>
<clipPath id="clip0_3218_2968">
<rect width="83" height="83" fill="white"/>
</clipPath>
</defs>
</svg>
