<svg width="190" height="192" viewBox="0 0 190 192" fill="none" xmlns="http://www.w3.org/2000/svg">
<path d="M90.3732 3.77178C91.5097 5.00945 91.7823 6.67723 92.1289 8.24494L95.1232 9.135C96.0679 -1.89691 110.402 -0.23615 118.871 0.641627C158.529 4.75314 194.242 47.2095 188.67 87.2835C188.821 91.1563 179.946 93.9547 180.616 96.5915C180.88 97.6273 187.549 98.0311 188.929 104.193C194.754 130.219 173.373 164.147 152.097 178.018C139.629 186.146 102.827 201.281 95.1161 182.642L92.9857 182.623C88.5717 192.174 80.9066 192.004 71.4101 191.126C35.3136 187.791 1.92289 155.692 -1.75044 119.565C-2.92914 107.969 -2.79368 101.756 6.76438 94.469C-9.66711 88.5388 -0.0175686 59.5862 5.52586 47.6589C15.2334 26.7713 35.3752 9.02792 57.7952 2.95194C65.543 0.852295 84.645 -2.46395 90.3749 3.77178H90.3732ZM95.1355 66.963C91.4305 66.4065 92.8783 67.2685 92.1043 68.9994C86.0507 82.5436 81.8214 92.3606 64.7197 94.455C68.2434 98.642 74.5205 99.2722 79.1139 102.483C85.7903 107.149 92.2872 116.507 92.2609 124.8C96.4532 121.289 97.0865 115.007 100.308 110.436C105.774 102.676 114.887 97.6203 124.11 95.8682L113.003 91.8006C103.96 86.9377 95.4838 77.6526 95.1355 66.9648V66.963Z" fill="#AC1F2C"/>
</svg>
