<svg width="21" height="43" viewBox="0 0 21 43" fill="none" xmlns="http://www.w3.org/2000/svg">
<path d="M11.5935 5.42667C10.6069 7.03 10.1135 8.75667 10.1135 10.4833C11.8402 10.4833 13.5669 9.99 15.1702 9.00333C16.7735 8.01667 18.1302 6.66 19.1169 5.05667C20.1035 3.45333 20.5969 1.72667 20.5969 0C18.8702 0 17.1435 0.493333 15.5402 1.48C13.9369 2.46667 12.5802 3.82333 11.5935 5.42667Z" fill="#E3D384"/>
<path d="M1.48025 16.1565C0.493578 17.7599 0.000244141 19.4865 0.000244141 21.2132C1.72691 21.2132 3.45358 20.7199 5.05691 19.7332C6.66024 18.7465 8.01691 17.3899 9.00358 15.7865C9.99025 14.1832 10.4836 12.4565 10.4836 10.7299C8.75691 10.7299 7.03024 11.2232 5.42691 12.2099C3.82358 13.1965 2.46691 14.5532 1.48025 16.1565Z" fill="#E3D384"/>
<path d="M15.1702 12.0867C13.5669 11.1 11.8402 10.6067 10.1135 10.6067C10.1135 12.3334 10.6069 14.06 11.5935 15.6634C12.5802 17.2667 13.9369 18.6234 15.5402 19.61C17.1435 20.5967 18.8702 21.09 20.5969 21.09C20.5969 19.3634 20.1035 17.6367 19.1169 16.0334C18.1302 14.43 16.7735 13.0734 15.1702 12.0867Z" fill="#E3D384"/>
<path d="M5.05691 22.6933C3.45358 21.7066 1.72691 21.2133 0.000244141 21.2133C0.000244141 22.9399 0.493578 24.6666 1.48025 26.2699C2.46691 27.8733 3.82358 29.2299 5.42691 30.2166C7.03024 31.2033 8.75691 31.6966 10.4836 31.6966C10.4836 29.9699 9.99025 28.2433 9.00358 26.6399C8.01691 25.0366 6.66024 23.6799 5.05691 22.6933Z" fill="#E3D384"/>
<path d="M11.5935 26.7632C10.6069 28.3665 10.1135 30.0932 10.1135 31.8199C11.8402 31.8199 13.5669 31.3265 15.1702 30.3399C16.7735 29.3532 18.1302 27.9965 19.1169 26.3932C20.1035 24.7899 20.5969 23.0632 20.5969 21.3365C18.8702 21.3365 17.1435 21.8299 15.5402 22.8165C13.9369 23.8032 12.5802 25.1599 11.5935 26.7632Z" fill="#E3D384"/>
<path d="M15.1702 33.4235C13.5669 32.4368 11.8402 31.9435 10.1135 31.9435C10.1135 33.6701 10.6069 35.3968 11.5935 37.0002C12.5802 38.6035 13.9369 39.9602 15.5402 40.9468C17.1435 41.9335 18.8702 42.4268 20.5969 42.4268C20.5969 40.7001 20.1035 38.9735 19.1169 37.3702C18.1302 35.7668 16.7735 34.4101 15.1702 33.4235Z" fill="#E3D384"/>
</svg>
