<svg width="21" height="43" viewBox="0 0 21 43" fill="none" xmlns="http://www.w3.org/2000/svg">
<path d="M9.00332 37.0002C9.98999 35.3968 10.4833 33.6701 10.4833 31.9435C8.75667 31.9435 7.03003 32.4368 5.4267 33.4235C3.82336 34.4101 2.46668 35.7668 1.48002 37.3702C0.493348 38.9735 0 40.7001 0 42.4268C1.72667 42.4268 3.4533 41.9335 5.05664 40.9468C6.65997 39.9602 8.01665 38.6035 9.00332 37.0002Z" fill="#E3D384"/>
<path d="M19.1166 26.2699C20.1033 24.6666 20.5966 22.9399 20.5966 21.2133C18.8699 21.2133 17.1432 21.7066 15.5399 22.6933C13.9366 23.6799 12.58 25.0366 11.5933 26.6399C10.6066 28.2433 10.1133 29.9699 10.1133 31.6966C11.8399 31.6966 13.5666 31.2033 15.1699 30.2166C16.7733 29.2299 18.1299 27.8733 19.1166 26.2699Z" fill="#E3D384"/>
<path d="M5.4267 30.3399C7.03003 31.3265 8.75667 31.8199 10.4833 31.8199C10.4833 30.0932 9.98999 28.3665 9.00332 26.7632C8.01665 25.1599 6.65997 23.8032 5.05664 22.8165C3.4533 21.8299 1.72667 21.3365 0 21.3365C0 23.0632 0.493348 24.7899 1.48002 26.3932C2.46668 27.9965 3.82336 29.3532 5.4267 30.3399Z" fill="#E3D384"/>
<path d="M15.5399 19.7332C17.1432 20.7199 18.8699 21.2132 20.5966 21.2132C20.5966 19.4865 20.1033 17.7599 19.1166 16.1565C18.1299 14.5532 16.7733 13.1965 15.1699 12.2099C13.5666 11.2232 11.8399 10.7299 10.1133 10.7299C10.1133 12.4565 10.6066 14.1832 11.5933 15.7865C12.58 17.3899 13.9366 18.7465 15.5399 19.7332Z" fill="#E3D384"/>
<path d="M9.00332 15.6634C9.98999 14.06 10.4833 12.3334 10.4833 10.6067C8.75667 10.6067 7.03003 11.1 5.4267 12.0867C3.82336 13.0734 2.46668 14.43 1.48002 16.0334C0.493348 17.6367 0 19.3634 0 21.09C1.72667 21.09 3.4533 20.5967 5.05664 19.61C6.65997 18.6234 8.01665 17.2667 9.00332 15.6634Z" fill="#E3D384"/>
<path d="M5.4267 9.00333C7.03003 9.99 8.75667 10.4833 10.4833 10.4833C10.4833 8.75667 9.98999 7.03 9.00332 5.42667C8.01665 3.82333 6.65997 2.46667 5.05664 1.48C3.4533 0.493333 1.72667 0 0 0C0 1.72667 0.493348 3.45333 1.48002 5.05667C2.46668 6.66 3.82336 8.01667 5.4267 9.00333Z" fill="#E3D384"/>
</svg>
