<svg width="121" height="121" viewBox="0 0 121 121" fill="none" xmlns="http://www.w3.org/2000/svg">
<path d="M85.2123 60.6404C127.497 54.8835 132.21 115.555 94.8499 120.072C53.9162 125.021 48.8289 65.5943 85.2123 60.6404Z" fill="#1E1E1E"/>
<path d="M8.92348 50.7847C-19.7938 20.5773 27.7822 -19.3321 53.253 10.5921C77.8399 39.4776 36.0823 79.3535 8.92348 50.7847Z" fill="#1E1E1E"/>
<path d="M60.0434 60.4069C60.6751 55.534 60.9921 50.5327 62.1271 45.7348C68.2348 19.8943 93.8109 -0.886045 120.793 0.645067C119.954 28.7805 100.076 53.9982 72.0389 59.256C68.1098 59.9932 63.8649 59.9204 60.0446 60.4069C59.7009 63.0566 60.2898 66.0645 59.9346 68.9037C56.333 97.6828 29.1695 121 0.201172 120.172C0.784287 89.5015 23.5744 63.8736 54.1799 60.422C56.112 60.2036 58.2154 60.6404 60.0446 60.4081L60.0434 60.4069Z" fill="#1E1E1E"/>
</svg>
