<svg width="1372" height="978" viewBox="0 0 1372 978" fill="none" xmlns="http://www.w3.org/2000/svg">
<path d="M441.466 191.1C450.717 196.882 458.234 204.398 464.016 213.65C469.799 222.901 472.69 232.442 472.69 242.271C462.86 242.271 453.319 239.38 444.068 233.598C434.817 227.816 427.3 220.299 421.518 211.048C415.736 201.797 412.844 192.256 412.844 182.137C422.674 182.137 432.215 185.028 441.466 190.81M421.229 273.206C415.446 282.457 412.555 291.998 412.555 302.117C422.385 302.117 431.926 299.226 441.177 293.443C450.428 287.661 457.945 280.144 463.727 270.893C469.509 261.642 472.4 252.101 472.4 242.271C462.571 242.271 453.03 245.163 443.779 250.945C434.527 256.727 427.011 264.244 421.229 273.495M416.314 477.894C483.676 477.894 528.487 455.054 590.645 432.215V236.489H533.98V407.351C510.563 443.779 457.078 464.884 416.603 464.884C300.96 464.884 253.547 368.322 253.547 237.646C253.547 106.969 300.96 13.0098 415.736 13.0098C530.511 13.0098 540.919 45.1007 564.626 63.3144V10.4078C506.515 6.3603 474.424 0 415.736 0C253.836 0 194.569 111.017 194.569 237.646C194.569 364.275 253.836 477.894 416.603 477.894M695.88 76.3242C714.094 76.3242 729.127 61.2906 729.127 43.0769C729.127 24.8632 714.094 9.8296 695.88 9.8296C677.666 9.8296 662.633 24.8632 662.633 43.0769C662.633 61.2906 677.666 76.3242 695.88 76.3242ZM662.633 467.197H738.379C733.175 443.779 729.995 431.926 729.995 407.062V114.775L662.633 140.795C667.837 164.213 671.017 176.066 671.017 200.929V407.062C671.017 431.926 667.837 443.49 662.633 467.197ZM810.077 467.197H885.823C880.619 443.779 877.439 431.926 877.439 407.062V226.371C925.142 183.294 968.797 161.9 1017.08 161.9C1065.36 161.9 1109.88 203.531 1109.88 281.301V407.351C1109.88 432.215 1106.7 443.779 1101.5 467.486H1177.24C1172.04 444.068 1168.86 432.215 1168.86 407.351V251.234C1168.86 158.431 1092.53 129.231 1039.63 129.231C986.722 129.231 923.985 161.9 877.728 208.157V114.775L810.366 140.795C815.57 164.213 818.75 176.066 818.75 200.929V407.062C818.75 431.926 815.57 443.49 810.366 467.197M346.061 918.781C319.174 856.045 252.101 818.172 181.559 818.172C111.017 818.172 111.017 827.424 79.7935 847.661L253.547 706.577C296.045 672.751 316.861 655.116 337.099 641.239H261.353C265.978 655.694 248.343 694.724 207.29 727.393L67.651 839.566V484.543L0 510.852C5.20392 534.269 8.3841 546.123 8.3841 570.986V907.795C8.3841 932.658 5.20392 944.223 0 967.93H75.746C70.5421 944.512 67.3619 932.658 67.3619 907.795V880.33C83.5519 852.287 120.847 839.277 152.07 839.277C204.977 839.277 255.859 873.103 281.879 918.203C291.131 936.417 294.311 947.692 289.685 967.93H371.791C359.938 948.27 354.734 936.706 346.35 919.07H345.772L346.061 918.781ZM415.157 543.232C415.157 561.445 430.191 576.479 448.405 576.479C466.618 576.479 481.652 561.445 481.652 543.232C481.652 525.018 466.618 509.984 448.405 509.984C430.191 509.984 415.157 525.018 415.157 543.232ZM482.23 615.219L414.868 641.239C420.072 664.656 423.252 676.51 423.252 701.373V907.506C423.252 932.369 420.072 943.934 414.868 967.64H490.614C485.41 944.223 482.23 932.369 482.23 907.506V615.219ZM921.094 751.678C921.094 658.874 844.77 629.675 791.863 629.675C738.957 629.675 676.221 662.344 629.964 708.601V615.219L562.602 641.239C567.806 664.656 570.986 676.51 570.986 701.373V907.506C570.986 932.369 567.806 943.934 562.602 967.64H638.348C633.144 944.223 629.964 932.369 629.964 907.506V726.814C677.666 683.738 721.321 662.344 769.602 662.344C817.883 662.344 862.405 703.975 862.405 781.745V907.795C862.405 932.658 859.225 944.223 854.021 967.93H929.767C924.563 944.512 921.383 932.658 921.383 907.795V751.678H921.094ZM1054.08 714.961C1054.08 658.874 1130.41 643.841 1205 643.841C1279.59 643.841 1317.17 675.932 1338.28 694.145V641.239C1285.95 637.191 1257.33 630.831 1205 630.831C1100.63 630.831 1007.83 655.694 1007.83 733.175C1007.83 884.089 1332.78 801.693 1332.78 906.061C1332.78 936.706 1296.93 964.749 1216.56 964.749C1136.19 964.749 1069.12 925.72 1010.43 863.562V936.706C1065.94 971.977 1149.49 977.759 1214.83 977.759C1280.16 977.759 1371.52 967.93 1371.52 887.558C1371.52 749.943 1054.37 838.699 1054.37 714.672" fill="white"/>
</svg>
