<svg width="258" height="262" viewBox="0 0 258 262" fill="none" xmlns="http://www.w3.org/2000/svg">
<g clip-path="url(#clip0_2585_4623)">
<path d="M69.7404 173.974C72.8056 171.004 78.3097 167.441 86.1868 163.317C93.965 159.094 100.919 154.936 107.05 150.878C113.147 146.82 119.969 141.376 127.484 134.514C117.168 134.217 108.302 134.712 100.82 135.998C93.3388 137.285 85.4287 139.067 77.0572 141.442C72.7726 142.729 69.1472 143.653 66.2138 144.214C63.2805 144.775 60.5779 145.038 58.0731 145.005C54.7443 144.939 52.1076 143.917 50.163 141.904C47.9218 139.562 46.8342 136.526 46.9001 132.765C46.966 129.004 48.1196 126.067 50.3278 123.923C52.7667 121.58 55.6671 120.425 58.9959 120.491C61.5008 120.524 64.4011 120.953 67.7299 121.745C71.0588 122.537 74.4865 123.494 77.9801 124.583C86.5823 127.123 94.4264 129.136 101.545 130.554C108.665 131.973 117.3 132.996 127.517 133.623C120.365 125.968 113.641 119.931 107.313 115.509C100.985 111.055 93.998 106.7 86.3845 102.378C85.7583 101.949 84.6048 101.289 82.8909 100.366C81.1771 99.4417 79.1666 98.2209 76.8595 96.6702C74.5524 95.1196 72.6078 93.5359 71.0917 91.9522C68.4221 89.1808 67.3015 86.2444 67.664 83.143C68.0266 80.0086 69.4438 77.2702 71.8827 74.9276C74.2228 72.6841 76.9913 71.4304 80.2213 71.1664C83.4512 70.9025 86.4175 72.1562 89.0542 74.9276C92.0204 77.996 95.4811 83.3739 99.3702 91.0614C103.721 98.7488 107.906 105.71 111.96 111.946C116.014 118.182 121.518 125.11 128.473 132.732C128.473 122.735 127.781 114.058 126.429 106.733C125.111 99.4087 123.331 91.6223 121.057 83.3409C120.2 79.6787 119.376 76.1814 118.684 72.882C117.959 69.5827 117.629 66.5803 117.662 63.8749C117.926 60.1466 119.079 57.2762 121.09 55.3296C123.628 52.8881 126.759 51.7003 130.45 51.8323C134.142 51.9643 137.174 53.218 139.514 55.6595C141.458 57.6721 142.414 60.3446 142.348 63.6769C142.315 66.3824 141.986 69.0548 141.425 71.6283C140.865 74.2348 139.745 78.062 138.097 83.143C135.328 91.5233 133.252 99.3427 131.801 106.568C130.384 113.794 129.56 122.504 129.363 132.732C136.482 125.473 142.15 118.776 146.435 112.705C150.72 106.634 155.037 99.9366 159.454 92.6121C161.728 88.5869 163.639 85.3865 165.254 83.011C166.869 80.6355 168.616 78.5239 170.528 76.7093C173.296 74.0368 176.362 72.882 179.723 73.212C183.118 73.5419 185.952 74.9276 188.325 77.3691C190.567 79.7117 191.786 82.4501 191.918 85.5515C192.083 88.6859 190.83 91.5233 188.161 94.0968C186.249 95.9444 184.107 97.5611 181.668 98.9798C179.262 100.398 175.933 102.213 171.714 104.424C164.266 108.152 157.311 112.144 150.885 116.4C144.458 120.656 137.47 126.43 129.956 133.689C140.173 133.458 148.973 132.732 156.389 131.511C163.804 130.29 171.714 128.608 180.086 126.463C183.645 125.473 187.106 124.649 190.435 123.989C193.797 123.329 196.697 122.999 199.202 123.065C202.728 123.131 205.629 124.319 207.87 126.661C210.111 129.004 211.199 132.006 211.067 135.701C210.935 139.397 209.683 142.432 207.244 144.775C205.233 146.721 202.564 147.645 199.235 147.612C196.73 147.579 194.027 147.216 191.127 146.523C188.227 145.863 184.634 144.775 180.415 143.356C172.143 140.716 164.299 138.605 156.85 137.054C149.434 135.503 140.568 134.712 130.252 134.613C137.536 141.739 144.128 147.414 150.094 151.703C156.059 155.992 162.848 160.38 170.462 164.9C178.207 169.322 183.546 173.05 186.513 176.151C189.182 178.923 190.303 181.892 189.94 185.125C189.578 188.359 188.227 191.097 185.887 193.341C183.448 195.683 180.679 197.003 177.548 197.267C174.417 197.531 171.517 196.277 168.88 193.506C167.133 191.691 165.419 189.382 163.705 186.544C161.992 183.707 160.311 180.704 158.696 177.537C154.576 169.651 150.489 162.525 146.435 156.19C142.381 149.855 136.679 142.993 129.297 135.536C129 145.863 129.494 154.739 130.78 162.228C132.065 169.717 133.845 177.636 136.218 186.016C137.503 190.305 138.426 193.935 138.986 196.871C139.547 199.807 139.81 202.513 139.777 205.02C139.712 208.353 138.69 210.992 136.679 212.939C134.339 215.182 131.307 216.271 127.55 216.205C123.793 216.139 120.859 214.984 118.717 212.774C116.377 210.332 115.223 207.429 115.289 204.097C115.322 201.589 115.751 198.686 116.542 195.353C117.333 192.021 118.288 188.623 119.376 185.092C121.815 176.811 123.793 168.959 125.276 161.568C126.759 154.211 127.813 145.401 128.407 135.206C120.892 142.465 114.993 149.13 110.774 155.134C106.555 161.172 102.073 168.2 97.3597 176.25C95.0856 180.275 93.2399 183.443 91.7897 185.752C90.3395 188.062 88.6587 190.14 86.7471 191.988C83.9785 194.66 81.0452 195.782 77.9471 195.419C74.816 195.056 72.0805 193.638 69.7404 191.196C67.4992 188.854 66.2468 186.082 65.9831 182.849C65.7195 179.615 66.9719 176.679 69.7404 174.007M23.6313 99.1447C23.8291 90.6325 7.81119 85.9474 3.95503 93.7338C3.32882 94.9876 2.14231 99.1447 1.58201 101.19L0.395503 105.512L0.791006 105.611C1.02172 104.82 1.5161 104.952 1.97752 105.084L19.7092 109.934C20.1707 110.066 20.665 110.198 20.4673 110.989L20.8628 111.088L22.0493 106.766C22.5437 104.82 23.5654 100.53 23.5984 99.1447M3.8232 96.6702C7.28385 90.1706 22.1482 94.0968 22.28 101.718C22.28 103.104 22.0823 104.721 21.5879 106.667L2.10935 101.355C2.63669 99.3757 3.19699 97.858 3.8232 96.7032M9.88758 80.5695C9.42616 80.3715 8.96474 80.1736 9.26137 79.4147L8.86587 79.2498L6.88835 84.1328L7.28385 84.2977C7.58048 83.5389 8.07486 83.7369 8.50332 83.9018L25.51 90.8304C25.9714 90.9954 26.4328 91.1934 26.1362 91.9522L26.5317 92.1172L28.5092 87.2342L28.1137 87.0692C27.8171 87.828 27.3227 87.6301 26.8942 87.4651L9.88758 80.5365M23.895 83.3079C26.8283 85.0896 30.0583 83.6709 32.5961 78.9528C33.7826 76.7753 35.7601 71.3974 32.0687 68.9558C26.8942 65.5575 21.8845 72.8821 17.7976 74.0698C14.2052 75.1916 12.6891 72.0902 14.2381 69.2198C15.8201 66.2834 18.5887 65.3926 22.0823 67.6361L22.5437 64.6667C19.3137 62.7861 15.886 65.2276 13.8426 69.0218C11.964 72.5191 12.2936 76.6763 15.919 77.7321C20.4014 79.0518 25.6418 70.4076 30.3549 72.1232C33.1564 73.113 33.5189 76.1814 32.2335 78.7219C30.8493 81.4933 27.3227 82.2192 24.3235 80.0086L23.9279 83.242L23.895 83.3079ZM28.8388 46.6194L20.0718 58.299L20.8958 59.3218L21.1594 58.9919C20.7969 58.365 20.7969 58.2 20.9946 57.9361L23.7632 54.2408L39.1878 65.8545C39.5833 66.1514 39.9788 66.4484 39.4844 67.1082L39.814 67.3722L42.978 63.149L42.6484 62.8851C42.1541 63.5449 41.7586 63.215 41.3631 62.9511L25.9384 51.3374L28.7399 47.6092C28.9377 47.3782 29.0695 47.3122 29.7946 47.4772L30.0582 47.1473L28.8717 46.6194H28.8388ZM35.5953 41.5054C35.2328 41.1755 34.8702 40.8125 35.4305 40.2187L35.1339 39.9217L31.5414 43.7819L31.838 44.0789C32.3983 43.485 32.7609 43.8149 33.1234 44.1449L46.5705 56.6823C46.9331 57.0123 47.2956 57.3752 46.7353 57.9691L47.0319 58.266L50.6244 54.4058L50.3278 54.1089C49.7675 54.7027 49.405 54.3728 49.0424 54.0429L35.5953 41.5054ZM61.4019 42.8911C61.6326 43.584 61.5667 43.7489 61.2701 44.0129L54.4147 50.0177L41.7256 35.5006C41.396 35.1377 41.0664 34.7418 41.6926 34.2139L41.429 33.8839L37.4739 37.3482L37.7376 37.6782C38.3638 37.1503 38.6934 37.5132 39.023 37.9091L51.1188 51.7333C51.4484 52.0963 51.778 52.4922 51.1518 53.0201L51.4484 53.35L62.1929 43.9469L61.5667 42.7921L61.4019 42.9241V42.8911ZM74.6183 34.1479C74.7501 34.8407 74.6842 35.0057 74.3546 35.2367L66.7412 40.1857L56.2274 23.9859C55.9637 23.59 55.6671 23.1281 56.3592 22.6992L56.1285 22.3363L51.7121 25.2067L51.9428 25.5696C52.6349 25.1077 52.8986 25.5696 53.1622 25.9655L63.1817 41.3734C63.4453 41.7693 63.742 42.2313 63.0498 42.6602L63.2805 43.0231L75.2445 35.2367L74.816 34.0159L74.6513 34.1479H74.6183ZM88.8235 27.4172C88.8235 28.1431 88.7575 28.2751 88.4939 28.407L80.3531 32.1683L74.816 20.1587L79.5291 17.9812C80.1553 17.6842 80.4849 17.7832 80.8145 18.4431L81.21 18.2781L80.1883 16.0345L79.7928 16.1995C80.0894 16.8924 79.9576 17.1893 79.3314 17.4863L74.6183 19.6638L71.9157 13.791L80.0565 10.0298C80.3201 9.89779 80.5179 9.93078 81.0452 10.4257L81.4407 10.2607L80.6168 9.23792L67.664 15.2427L67.8288 15.6386C68.5869 15.3087 68.7846 15.7706 68.9824 16.1995L76.6947 32.8941C76.8924 33.3231 77.1231 33.818 76.3651 34.1479L76.5299 34.5438L89.4826 28.539L89.219 27.2523L88.8235 27.4172ZM102.304 24.1179C109.719 19.9608 105.533 3.79402 96.8653 4.45389C95.4811 4.55287 91.2953 5.67464 89.2849 6.23553L85.0003 7.42329L85.0991 7.81921C85.8901 7.58826 86.022 8.08316 86.1538 8.57806L91.0646 26.2955C91.1965 26.7574 91.3283 27.2523 90.5373 27.4832L90.6362 27.8792L94.9208 26.6914C96.8324 26.1305 101.018 24.8108 102.271 24.1179M94.2946 5.80662C101.611 5.47668 105.863 20.2247 99.4032 24.2499C98.2167 24.9757 96.7335 25.6356 94.8219 26.1965L89.4167 6.73043C91.3613 6.20254 92.9762 5.8726 94.2946 5.80662ZM131.801 -0.000209797L117.53 0.428703V0.857617C118.354 0.857617 118.387 1.35252 118.387 1.84742L118.948 20.2247C118.948 20.7196 118.948 21.2145 118.157 21.2475V21.6764L123.463 21.5114V21.0825C122.639 21.0825 122.606 20.5876 122.606 20.0927L122.211 7.75322L127.385 7.58826C128.077 7.58826 128.341 7.78622 128.374 8.54506H128.802L128.736 6.07056H128.308C128.308 6.8624 128.077 7.06036 127.352 7.09336L122.178 7.25832L121.98 0.79163L130.945 0.527683C131.241 0.527683 131.406 0.59367 131.703 1.25354H132.131L131.801 -0.0332031V-0.000209797ZM151.346 22.8972C150.588 22.7982 150.423 22.4682 150.225 21.7424L147.688 11.3825L148.643 11.1515C153.488 9.99677 153.785 4.3879 149.401 2.14436C147.72 1.28653 143.436 0.89061 140.799 0.560677L136.449 0.0327835L136.383 0.461697C137.207 0.560677 137.141 1.08857 137.075 1.55048L134.834 19.8288C134.768 20.3237 134.702 20.8186 133.911 20.7196L133.845 21.1485L139.085 21.8084L139.151 21.3795C138.327 21.2805 138.393 20.7526 138.459 20.2907L139.316 13.3951L144.293 12.2073L146.468 21.2805C146.633 21.9074 146.468 22.3033 145.809 22.2043L145.743 22.6332L151.28 23.3261L151.346 22.8972ZM139.382 12.8342L140.832 1.12156C143.436 1.4515 144.523 1.48449 145.941 2.27633C150.061 4.48688 149.83 9.07296 145.249 10.7226L139.382 12.8342ZM167.331 5.8726C154.213 2.21034 149.302 22.9631 162.453 26.6254C175.571 30.2877 180.481 9.53486 167.331 5.8726ZM166.507 6.23553C175.208 7.98418 172.044 28.0111 163.31 26.2625C154.642 24.5138 157.806 4.48688 166.507 6.23553ZM200.191 22.5012C200.421 22.0723 200.685 21.6104 201.377 22.0063L201.575 21.6434L197.686 19.4988L184.403 30.8815L186.249 13.1971L182.986 11.3825L182.788 13.1641L174.021 29.0669C173.527 29.9577 173.23 29.6938 172.538 29.3639L172.341 29.7268L174.812 31.0795L175.01 30.7166C174.351 30.3207 173.988 30.1887 174.483 29.2979L182.657 14.4839L180.481 34.2139L180.943 34.4778L197.06 20.7196L188.161 36.8533C187.93 37.2822 187.666 37.7442 186.974 37.3482L186.776 37.7112L191.391 40.2517L191.588 39.8887C190.863 39.4928 191.127 39.0309 191.358 38.602L200.224 22.5012M212.979 47.8401L212.616 48.203L216.901 52.4592C213.934 55.1316 210.408 56.1544 207.474 53.7129C199.63 47.2462 214.198 32.1353 220.922 38.602C223.328 40.9115 223.13 44.5738 221.185 47.6092L224.547 49.4568C226.096 46.5534 226.195 42.6932 221.449 38.305C211.495 29.0669 195.972 43.584 206.585 53.614C211.792 58.563 216.077 57.6061 219.438 54.9667L219.801 54.6038L212.979 47.8071V47.8401ZM224.514 75.8515C224.086 75.2246 224.217 74.8947 224.646 74.2678L230.677 65.4915L231.468 66.0524C235.555 68.9229 239.939 65.3926 238.686 60.6745C238.225 58.8599 235.654 55.3956 234.171 53.185L231.699 49.5888L231.336 49.8197C231.798 50.4796 231.369 50.7765 230.974 51.0735L215.846 61.4994C215.45 61.7633 215.022 62.0602 214.561 61.4004L214.198 61.6313L217.197 65.9865L217.56 65.7555C217.098 65.0956 217.527 64.7987 217.922 64.5017L223.657 60.5425L227.843 63.479L222.504 71.1334C222.141 71.6943 221.778 71.8263 221.383 71.2654L221.02 71.4963L224.184 76.0824L224.547 75.8515M224.086 60.2126L233.808 53.515C235.292 55.6595 235.984 56.5174 236.346 58.101C237.434 62.6541 233.874 65.5245 229.557 63.182L224.086 60.2126ZM231.864 91.3253C231.501 90.5995 231.732 90.3355 232.259 89.8736L247.816 76.4123L246.234 73.047L244.817 74.3008L226.426 77.5341C225.404 77.7321 225.239 77.2702 225.008 76.8083L224.613 76.9732L225.734 79.3487L226.129 79.1508C225.799 78.4579 225.701 78.194 226.656 77.963L233.314 76.8083L235.786 82.0872L230.677 86.4753C230.216 86.9042 229.853 87.1022 229.524 86.4093L229.128 86.6073L231.468 91.5563L231.864 91.3913M233.808 76.7093L244.058 74.9276L236.148 81.7243L233.808 76.7423V76.7093ZM251.903 90.6325C252.364 90.4675 252.858 90.3025 253.122 91.0944L253.518 90.9624L251.804 85.9804L251.408 86.1124C251.672 86.9042 251.178 87.0692 250.716 87.2012L233.347 93.173C232.886 93.3379 232.391 93.5029 232.127 92.711L231.732 92.843L233.446 97.825L233.841 97.693C233.578 96.9012 234.072 96.7362 234.533 96.6043L251.903 90.6325ZM257.374 105.743L256.978 105.842C257.11 106.601 257.275 106.964 256.286 107.195L243.136 110.264L255.66 98.3529L254.803 94.7236L253.814 95.6804L235.654 99.9036C234.665 100.135 234.632 99.7386 234.435 99.0128L234.006 99.1117L234.632 101.85L235.061 101.751C234.929 100.992 234.764 100.629 235.753 100.398L253.056 96.3733L236.939 111.715L237.071 112.21L256.385 107.723C257.374 107.492 257.407 107.888 257.604 108.614L258.033 108.515L257.407 105.776L257.374 105.743ZM234.369 162.855C234.171 171.367 250.189 176.052 254.045 168.233C254.671 166.979 255.858 162.822 256.418 160.809L257.604 156.487L257.209 156.388C256.978 157.18 256.484 157.048 256.022 156.916L238.291 152.066C237.829 151.934 237.335 151.802 237.533 151.01L237.137 150.911L235.951 155.233C235.456 157.18 234.435 161.469 234.402 162.855M254.21 165.329C250.749 171.829 235.885 167.936 235.753 160.281C235.753 158.896 235.951 157.279 236.445 155.332L255.924 160.644C255.396 162.624 254.836 164.142 254.21 165.296M248.112 181.43C248.574 181.628 249.035 181.793 248.739 182.585L249.134 182.75L251.112 177.867L250.716 177.702C250.42 178.461 249.925 178.263 249.497 178.098L232.49 171.169C232.029 170.971 231.567 170.806 231.864 170.014L231.468 169.849L229.491 174.732L229.886 174.897C230.183 174.139 230.677 174.337 231.106 174.502L248.112 181.43ZM234.072 178.725C231.139 176.943 227.909 178.362 225.371 183.08C224.184 185.257 222.207 190.635 225.898 193.077C231.073 196.475 236.083 189.151 240.169 187.963C243.762 186.841 245.278 189.942 243.729 192.813C242.147 195.749 239.378 196.64 235.885 194.396L235.423 197.366C238.653 199.246 242.081 196.805 244.124 193.011C246.036 189.513 245.673 185.356 242.048 184.301C237.566 182.981 232.325 191.625 227.612 189.909C224.811 188.92 224.448 185.851 225.734 183.311C227.118 180.539 230.644 179.78 233.644 182.024L234.039 178.791L234.072 178.725ZM229.161 215.38L237.928 203.701L237.104 202.678L236.841 203.008C237.203 203.635 237.203 203.8 237.005 204.031L234.237 207.726L218.812 196.112C218.417 195.815 218.021 195.518 218.516 194.858L218.186 194.594L215.022 198.818L215.352 199.082C215.846 198.422 216.241 198.752 216.637 199.016L232.062 210.629L229.26 214.357C229.062 214.588 228.93 214.654 228.205 214.489L227.942 214.819L229.128 215.347L229.161 215.38ZM222.405 220.494C222.767 220.824 223.13 221.187 222.569 221.781L222.866 222.078L226.459 218.218L226.162 217.921C225.602 218.515 225.239 218.152 224.877 217.855L211.429 205.317C211.067 204.987 210.704 204.624 211.265 204.031L210.968 203.734L207.376 207.594L207.672 207.891C208.232 207.297 208.595 207.627 208.958 207.99L222.405 220.527M196.598 219.108C196.367 218.416 196.433 218.251 196.73 217.987L203.585 211.982L216.274 226.499C216.604 226.862 216.934 227.258 216.307 227.786L216.571 228.116L220.526 224.651L220.262 224.321C219.636 224.849 219.307 224.486 218.977 224.123L206.881 210.299C206.552 209.936 206.222 209.54 206.848 209.013L206.585 208.683L195.84 218.086L196.466 219.24L196.631 219.108H196.598ZM183.382 227.852C183.25 227.159 183.316 226.994 183.645 226.763L191.259 221.781L201.773 237.981C202.036 238.377 202.333 238.805 201.641 239.267L201.871 239.63L206.288 236.76L206.057 236.397C205.365 236.859 205.101 236.397 204.838 236.001L194.818 220.593C194.555 220.197 194.258 219.768 194.95 219.306L194.719 218.943L182.755 226.73L183.184 227.951L183.349 227.819L183.382 227.852ZM169.21 234.582C169.21 233.856 169.275 233.725 169.539 233.593L177.68 229.831L183.217 241.841L178.504 244.018C177.878 244.315 177.548 244.216 177.218 243.557L176.823 243.722L177.845 245.965L178.24 245.8C177.944 245.107 178.075 244.81 178.702 244.513L183.415 242.336L186.117 248.209L177.976 251.97C177.713 252.102 177.515 252.069 176.988 251.574L176.592 251.739L177.416 252.762L190.369 246.757L190.204 246.361C189.446 246.691 189.248 246.229 189.051 245.8L181.338 229.105C181.141 228.677 180.91 228.182 181.668 227.852L181.503 227.456L168.55 233.461L168.814 234.747L169.21 234.582ZM155.696 237.882C148.314 242.039 152.467 258.206 161.135 257.546C162.519 257.447 166.705 256.325 168.715 255.764L173 254.576L172.901 254.18C172.11 254.411 171.978 253.916 171.846 253.422L166.935 235.704C166.804 235.242 166.672 234.747 167.463 234.516L167.364 234.12L163.079 235.308C161.168 235.869 156.982 237.189 155.729 237.882M163.705 256.193C156.389 256.523 152.137 241.775 158.597 237.75C159.783 237.024 161.266 236.364 163.178 235.803L168.583 255.269C166.639 255.83 165.024 256.127 163.705 256.193ZM126.199 262L140.47 261.538V261.109C139.646 261.109 139.613 260.614 139.613 260.119L139.052 241.709C139.052 241.214 139.052 240.719 139.843 240.686V240.257L134.57 240.422V240.851C135.394 240.851 135.427 241.346 135.427 241.808L135.822 254.147L130.648 254.312C129.956 254.312 129.692 254.114 129.659 253.356H129.231L129.297 255.83H129.725C129.725 255.071 129.956 254.84 130.681 254.807L135.855 254.642L136.053 261.109L127.088 261.406C126.792 261.406 126.627 261.34 126.33 260.68H125.902L126.231 261.967L126.199 262ZM106.654 239.102C107.412 239.201 107.577 239.531 107.775 240.257L110.312 250.617L109.357 250.848C104.512 252.003 104.215 257.612 108.599 259.822C110.28 260.68 114.564 261.076 117.201 261.406L121.551 261.934L121.617 261.505C120.793 261.406 120.859 260.911 120.925 260.416L123.166 242.138C123.232 241.643 123.298 241.148 124.089 241.247L124.155 240.818L118.915 240.158L118.849 240.587C119.673 240.686 119.607 241.214 119.541 241.676L118.684 248.572L113.707 249.759L111.532 240.686C111.367 240.059 111.532 239.663 112.191 239.762L112.257 239.333L106.72 238.641L106.654 239.069M118.651 249.165L117.201 260.878C114.597 260.548 113.509 260.515 112.092 259.723C107.972 257.513 108.203 252.927 112.784 251.277L118.651 249.165ZM90.6691 256.127C103.787 259.789 108.697 239.036 95.547 235.374C82.4295 231.712 77.5187 252.465 90.6691 256.127ZM91.4931 255.764C82.792 254.015 85.956 233.988 94.6901 235.737C103.358 237.486 100.194 257.513 91.4931 255.764ZM57.8094 239.498C57.5787 239.927 57.315 240.356 56.6229 239.993L56.4251 240.356L60.3143 242.501L73.5966 231.118L71.7509 248.802L75.0138 250.617L75.2115 248.802L83.9785 232.9C84.4729 232.042 84.7695 232.273 85.4617 232.603L85.6594 232.24L83.1875 230.887L82.9898 231.25C83.6489 231.646 84.0115 231.778 83.5171 232.669L75.3434 247.483L77.5186 227.753L77.0572 227.522L60.9405 241.28L69.8393 225.146C70.07 224.717 70.3337 224.255 71.0258 224.651L71.2236 224.288L66.6094 221.748L66.4116 222.111C67.1367 222.507 66.873 222.969 66.6423 223.398L57.7764 239.498M45.0215 214.159L45.384 213.797L41.0994 209.54C44.0657 206.868 47.5922 205.878 50.5256 208.287C58.3697 214.753 43.802 229.864 37.0784 223.398C34.6725 221.088 34.8702 217.426 36.8148 214.39L33.453 212.543C31.9039 215.446 31.8051 219.306 36.5511 223.695C46.5046 232.933 62.0281 218.416 51.4154 208.386C46.208 203.437 41.9234 204.393 38.5616 207.033L38.199 207.396L45.0215 214.192V214.159ZM33.4859 186.148C33.9144 186.775 33.7826 187.105 33.3541 187.732L27.3227 196.508L26.5317 195.947C22.4448 193.077 18.0613 196.607 19.3137 201.325C19.7752 203.14 22.3459 206.604 23.8291 208.815L26.301 212.411L26.6635 212.18C26.2021 211.52 26.6306 211.223 27.0261 210.926L42.1541 200.5C42.5496 200.236 42.978 199.939 43.4394 200.599L43.802 200.368L40.8028 196.013L40.4402 196.244C40.9016 196.904 40.4732 197.201 40.0777 197.498L34.3429 201.457L30.1571 198.521L35.4964 190.866C35.859 190.338 36.2215 190.173 36.617 190.734L36.9796 190.503L33.8155 185.917L33.453 186.148M33.9474 201.787L24.2246 208.485C22.7414 206.34 22.0493 205.482 21.6868 203.899C20.5991 199.345 24.1587 196.475 28.4762 198.818L33.9474 201.787ZM26.1362 170.641C26.4987 171.367 26.268 171.631 25.7407 172.126L10.1842 185.587L11.7662 188.953L13.1834 187.699L31.5743 184.465C32.5961 184.268 32.7609 184.729 32.9916 185.191L33.3871 185.026L32.2665 182.651L31.871 182.849C32.2006 183.542 32.2994 183.806 31.3436 184.037L24.686 185.191L22.2141 179.912L27.3227 175.524C27.7841 175.095 28.1467 174.897 28.4762 175.59L28.8717 175.392L26.5317 170.443L26.1362 170.608M24.1916 185.29L13.9415 187.072L21.8516 180.275L24.1916 185.257V185.29ZM6.1303 171.334C5.66888 171.499 5.1745 171.664 4.91083 170.872L4.51533 171.004L6.22918 175.986L6.62468 175.854C6.36101 175.062 6.85539 174.897 7.31681 174.765L24.686 168.794C25.1474 168.629 25.6418 168.464 25.9055 169.256L26.301 169.124L24.5871 164.142L24.1916 164.274C24.4553 165.065 23.9609 165.23 23.4995 165.362L6.1303 171.334ZM0.626213 156.256L1.02172 156.157C0.889882 155.398 0.725089 155.035 1.71385 154.804L14.8643 151.736L2.34006 163.647L3.19698 167.276L4.18574 166.319L22.3459 162.096C23.3347 161.865 23.3677 162.261 23.5654 162.987L23.9939 162.888L23.3677 160.149L22.9392 160.248C23.071 161.007 23.2358 161.37 22.2471 161.601L4.94379 165.626L21.0606 150.284L20.9287 149.79L1.61497 154.277C0.626213 154.508 0.593255 154.112 0.395503 153.386L-0.032959 153.485L0.593255 156.223L0.626213 156.256ZM15.6553 130.983C15.6553 127.816 13.0846 125.275 9.9535 125.275C6.82243 125.275 4.25166 127.849 4.25166 130.983C4.25166 134.118 6.82243 136.691 9.9535 136.691C13.0846 136.691 15.6553 134.118 15.6553 130.983ZM252.628 130.983C252.628 127.816 250.057 125.275 246.926 125.275C243.795 125.275 241.224 127.849 241.224 130.983C241.224 134.118 243.795 136.691 246.926 136.691C250.057 136.691 252.628 134.118 252.628 130.983Z" fill="#AC1F2C"/>
</g>
<defs>
<clipPath id="clip0_2585_4623">
<rect width="258" height="262" fill="white"/>
</clipPath>
</defs>
</svg>
