<svg width="70" height="50" viewBox="0 0 70 50" fill="none" xmlns="http://www.w3.org/2000/svg">
<path d="M22.3564 9.74626C22.8249 10.0412 23.2056 10.4245 23.4984 10.8963C23.7912 11.3682 23.9376 11.8548 23.9376 12.3561C23.4398 12.3561 22.9567 12.2086 22.4882 11.9137C22.0197 11.6188 21.639 11.2355 21.3462 10.7636C21.0534 10.2918 20.907 9.80524 20.907 9.28917C21.4048 9.28917 21.8879 9.43662 22.3564 9.73151M21.3316 13.9338C21.0388 14.4056 20.8924 14.8922 20.8924 15.4082C21.3901 15.4082 21.8733 15.2608 22.3418 14.9659C22.8103 14.671 23.191 14.2876 23.4838 13.8158C23.7766 13.344 23.923 12.8574 23.923 12.3561C23.4252 12.3561 22.9421 12.5035 22.4736 12.7984C22.0051 13.0933 21.6244 13.4767 21.3316 13.9485M21.0827 24.373C24.494 24.373 26.7633 23.2082 29.9111 22.0434V12.0612H27.0415V20.7753C25.8556 22.6331 23.147 23.7095 21.0973 23.7095C15.241 23.7095 12.8399 18.7848 12.8399 12.1202C12.8399 5.45554 15.241 0.663512 21.0534 0.663512C26.8658 0.663512 27.3928 2.30018 28.5934 3.22909V0.53081C25.6506 0.324384 24.0255 0 21.0534 0C12.8546 0 9.85323 5.66197 9.85323 12.1202C9.85323 18.5783 12.8546 24.373 21.0973 24.373M35.2403 3.89261C36.1627 3.89261 36.924 3.12588 36.924 2.19696C36.924 1.26805 36.1627 0.50132 35.2403 0.50132C34.3179 0.50132 33.5566 1.26805 33.5566 2.19696C33.5566 3.12588 34.3179 3.89261 35.2403 3.89261ZM33.5566 23.8275H37.3925C37.1289 22.6331 36.9679 22.0286 36.9679 20.7606V5.85365L33.5566 7.18068C33.8201 8.375 33.9812 8.97953 33.9812 10.2476V20.7606C33.9812 22.0286 33.8201 22.6184 33.5566 23.8275ZM41.0234 23.8275H44.8593C44.5957 22.6331 44.4347 22.0286 44.4347 20.7606V11.5451C46.8504 9.34815 49.0612 8.25704 51.5062 8.25704C53.9512 8.25704 56.2058 10.3803 56.2058 14.3466V20.7753C56.2058 22.0434 56.0448 22.6331 55.7813 23.8422H59.6171C59.3536 22.6479 59.1926 22.0434 59.1926 20.7753V12.8132C59.1926 8.0801 55.3274 6.59089 52.6482 6.59089C49.9689 6.59089 46.7918 8.25704 44.4493 10.6162V5.85365L41.038 7.18068C41.3016 8.375 41.4626 8.97953 41.4626 10.2476V20.7606C41.4626 22.0286 41.3016 22.6184 41.038 23.8275M17.525 46.8587C16.1634 43.6591 12.7667 41.7276 9.19439 41.7276C5.62205 41.7276 5.62205 42.1994 4.04085 43.2315L12.8399 36.0361C14.9921 34.311 16.0463 33.4115 17.0711 32.7038H13.2352C13.4695 33.441 12.5764 35.4316 10.4974 37.0977L3.42594 42.8187V24.7121L0 26.0539C0.263534 27.2482 0.424582 27.8528 0.424582 29.1208V46.2984C0.424582 47.5665 0.263534 48.1562 0 49.3653H3.83588C3.57234 48.171 3.4113 47.5665 3.4113 46.2984V44.8977C4.23118 43.4674 6.11983 42.8039 7.70104 42.8039C10.3803 42.8039 12.9571 44.529 14.2747 46.8292C14.7432 47.7581 14.9043 48.3332 14.67 49.3653H18.828C18.2277 48.3627 17.9642 47.7729 17.5396 46.8735H17.5103L17.525 46.8587ZM21.0241 27.7053C21.0241 28.6342 21.7854 29.401 22.7078 29.401C23.6302 29.401 24.3915 28.6342 24.3915 27.7053C24.3915 26.7764 23.6302 26.0097 22.7078 26.0097C21.7854 26.0097 21.0241 26.7764 21.0241 27.7053ZM24.4208 31.3768L21.0095 32.7038C21.273 33.8981 21.4341 34.5026 21.4341 35.7707V46.2837C21.4341 47.5517 21.273 48.1415 21.0095 49.3506H24.8454C24.5818 48.1562 24.4208 47.5517 24.4208 46.2837V31.3768ZM46.6454 38.3363C46.6454 33.6032 42.7803 32.114 40.101 32.114C37.4218 32.114 34.2447 33.7801 31.9022 36.1393V31.3768L28.4909 32.7038C28.7544 33.8981 28.9155 34.5026 28.9155 35.7707V46.2837C28.9155 47.5517 28.7544 48.1415 28.4909 49.3506H32.3268C32.0632 48.1562 31.9022 47.5517 31.9022 46.2837V37.0682C34.3179 34.8713 36.5287 33.7801 38.9737 33.7801C41.4187 33.7801 43.6734 35.9034 43.6734 39.8697V46.2984C43.6734 47.5665 43.5123 48.1562 43.2488 49.3653H47.0847C46.8211 48.171 46.6601 47.5665 46.6601 46.2984V38.3363H46.6454ZM53.3802 36.4637C53.3802 33.6032 57.2453 32.8365 61.0227 32.8365C64.8 32.8365 66.7033 34.4731 67.772 35.4021V32.7038C65.1221 32.4974 63.6726 32.173 61.0227 32.173C55.7373 32.173 51.0377 33.441 51.0377 37.3926C51.0377 45.0893 67.4939 40.8871 67.4939 46.2099C67.4939 47.7729 65.6784 49.2031 61.6083 49.2031C57.5382 49.2031 54.1415 47.2126 51.1694 44.0425V47.7729C53.9805 49.5717 58.2116 49.8666 61.5204 49.8666C64.8293 49.8666 69.4557 49.3653 69.4557 45.2663C69.4557 38.2478 53.3948 42.7744 53.3948 36.4489" fill="#AC1F2C"/>
</svg>
