<?xml version="1.0" encoding="UTF-8"?>
<svg id="Capa_1" xmlns="http://www.w3.org/2000/svg" version="1.1" viewBox="0 0 193 192">
  <!-- Generator: Adobe Illustrator 30.2.1, SVG Export Plug-In . SVG Version: 2.1.1 Build 1)  -->
  <defs>
    <style>
      .st0 {
        fill: #fff8e8;
      }

      .st1 {
        fill: #ac1f2c;
      }
    </style>
  </defs>
  <path class="st1" d="M191.3,104.2c-1.4-6.2-8-6.6-8.3-7.6-.7-2.6,8.2-5.4,8-9.3C196.6,47.2,160.9,4.8,121.2.6c-8.5-.9-22.8-2.5-23.8,8.5l-3-.9c-.3-1.6-.6-3.2-1.8-4.5-5.7-6.2-24.8-2.9-32.6-.8C37.8,9,17.6,26.8,7.9,47.7c-5.5,11.9-15.2,40.9,1.2,46.8C-.4,101.8-.5,108,.6,119.6c3.7,36.1,37.1,68.2,73.2,71.6,9.5.9,17.2,1,21.6-8.5h2.1c7.7,18.7,44.5,3.5,57-4.6,21.3-13.9,42.7-47.8,36.8-73.8ZM102.7,110.4c-3.2,4.6-3.8,10.8-8,14.4,0-8.3-6.5-17.6-13.2-22.3-4.6-3.2-10.9-3.8-14.4-8,17.1-2.1,21.3-11.9,27.4-25.5.8-1.7-.7-2.6,3-2,.3,10.7,8.8,20,17.9,24.8l11.1,4.1c-9.2,1.8-18.3,6.8-23.8,14.6Z"/>
  <path class="st0" d="M126.5,95.9c-9.2,1.8-18.3,6.8-23.8,14.6-3.2,4.6-3.8,10.8-8,14.4,0-8.3-6.5-17.6-13.2-22.3-4.6-3.2-10.9-3.8-14.4-8,17.1-2.1,21.3-11.9,27.4-25.5.8-1.7-.7-2.6,3-2,.3,10.7,8.8,20,17.9,24.8l11.1,4.1Z"/>
</svg>